<svg width="316" height="436" viewBox="0 0 316 436" fill="none" xmlns="http://www.w3.org/2000/svg">
<path d="M82.6673 5.03985C85.5741 2.13303 89.5166 0.5 93.6274 0.5H297C306.665 0.5 314.5 8.33502 314.5 18V318.373C314.5 322.483 312.867 326.426 309.96 329.333L209.333 429.96C206.426 432.867 202.483 434.5 198.373 434.5H20C9.23045 434.5 0.5 425.77 0.5 415V93.6274C0.5 89.5166 2.13303 85.5741 5.03984 82.6673L82.6673 5.03985Z" fill="#222222" stroke="#616161"/>
<g opacity="0.5">
<mask id="mask0_497_1670" style="mask-type:alpha" maskUnits="userSpaceOnUse" x="0" y="0" width="315" height="435">
<path d="M82.6673 5.03985C85.5741 2.13303 89.5166 0.5 93.6274 0.5H297C306.665 0.5 314.5 8.33502 314.5 18V318.373C314.5 322.483 312.867 326.426 309.96 329.333L209.333 429.96C206.426 432.867 202.483 434.5 198.373 434.5H20C9.23045 434.5 0.5 425.77 0.5 415V93.6274C0.5 89.5166 2.13303 85.5741 5.03984 82.6673L82.6673 5.03985Z" fill="#222222" stroke="#333333"/>
</mask>
<g mask="url(#mask0_497_1670)">
<path d="M-16 9H364" stroke="#333333"/>
<path d="M-16 24H364" stroke="#333333"/>
<path d="M-16 39H364" stroke="#333333"/>
<path d="M-16 54H364" stroke="#333333"/>
<path d="M-16 69H364" stroke="#333333"/>
<path d="M-16 84H364" stroke="#333333"/>
<path d="M-16 99H364" stroke="#333333"/>
<path d="M-16 114H364" stroke="#333333"/>
<path d="M-16 129H364" stroke="#333333"/>
<path d="M-16 144H364" stroke="#333333"/>
<path d="M-16 159H364" stroke="#333333"/>
<path d="M-16 174H364" stroke="#333333"/>
<path d="M-16 189H364" stroke="#333333"/>
<path d="M-16 204H364" stroke="#333333"/>
<path d="M-16 219H364" stroke="#333333"/>
<path d="M-16 234H364" stroke="#333333"/>
<path d="M-16 249H364" stroke="#333333"/>
<path d="M-16 264H364" stroke="#333333"/>
<path d="M-16 279H364" stroke="#333333"/>
<path d="M-16 294H364" stroke="#333333"/>
<path d="M-16 309H364" stroke="#333333"/>
<path d="M-16 324H364" stroke="#333333"/>
<path d="M-16 339H364" stroke="#333333"/>
<path d="M-16 354H364" stroke="#333333"/>
<path d="M-16 369H364" stroke="#333333"/>
<path d="M-16 384H364" stroke="#333333"/>
<path d="M-16 399H364" stroke="#333333"/>
<path d="M-16 414H364" stroke="#333333"/>
<path d="M-16 429H364" stroke="#333333"/>
<path d="M4 456L3.99998 -7.00002" stroke="#333333"/>
<path d="M19 456L19 -7.00002" stroke="#333333"/>
<path d="M34 456L34 -7.00002" stroke="#333333"/>
<path d="M49 456L49 -7.00002" stroke="#333333"/>
<path d="M64 456L64 -7.00002" stroke="#333333"/>
<path d="M79 456L79 -7.00002" stroke="#333333"/>
<path d="M94 456L94 -7.00002" stroke="#333333"/>
<path d="M109 456L109 -7.00002" stroke="#333333"/>
<path d="M124 456L124 -7.00002" stroke="#333333"/>
<path d="M139 456L139 -7.00002" stroke="#333333"/>
<path d="M154 456L154 -7.00002" stroke="#333333"/>
<path d="M169 456L169 -7.00002" stroke="#333333"/>
<path d="M184 456L184 -7.00002" stroke="#333333"/>
<path d="M199 456L199 -7.00002" stroke="#333333"/>
<path d="M214 456L214 -7.00002" stroke="#333333"/>
<path d="M229 456L229 -7.00002" stroke="#333333"/>
<path d="M244 456L244 -7.00002" stroke="#333333"/>
<path d="M259 456L259 -7.00002" stroke="#333333"/>
<path d="M274 456L274 -7.00002" stroke="#333333"/>
<path d="M289 456L289 -7.00002" stroke="#333333"/>
<path d="M304 456L304 -7.00002" stroke="#333333"/>
</g>
</g>
<path d="M93.6274 0C89.384 0 85.3143 1.68571 82.3137 4.68629L4.68629 82.3137C1.68571 85.3143 0 89.3839 0 93.6274V415C0 426.046 8.95431 435 20 435H198.373C202.616 435 206.686 433.314 209.686 430.314L310.314 329.686C313.314 326.686 315 322.616 315 318.373V18C315 8.05887 306.941 0 297 0H93.6274Z" fill="url(#paint0_linear_497_1670)"/>
<path d="M50.098 353.84V371H47.524V361.068L47.732 356.336H47.706L42.48 371H40.166L34.94 356.336H34.914L35.122 361.068V371H32.548V353.84H36.682L40.14 363.772L41.336 367.854H41.388L42.61 363.772L46.042 353.84H50.098ZM61.4135 362.654C61.4135 361.787 61.1708 361.12 60.6855 360.652C60.2175 360.167 59.5675 359.924 58.7355 359.924C57.9555 359.924 57.2882 360.106 56.7335 360.47C56.1788 360.834 55.7715 361.423 55.5115 362.238L53.1715 361.25C53.5008 360.193 54.1422 359.343 55.0955 358.702C56.0662 358.061 57.3142 357.74 58.8395 357.74C59.8795 357.74 60.7982 357.913 61.5955 358.26C62.3928 358.589 63.0168 359.092 63.4675 359.768C63.9355 360.444 64.1695 361.311 64.1695 362.368V368.166C64.1695 368.807 64.4902 369.128 65.1315 369.128C65.4435 369.128 65.7468 369.085 66.0415 368.998L65.8855 370.922C65.4868 371.113 64.9842 371.208 64.3775 371.208C63.8228 371.208 63.3202 371.113 62.8695 370.922C62.4362 370.714 62.0895 370.411 61.8295 370.012C61.5868 369.596 61.4655 369.085 61.4655 368.478V368.296L62.0375 368.27C61.8815 368.946 61.5608 369.509 61.0755 369.96C60.5902 370.393 60.0268 370.723 59.3855 370.948C58.7442 371.156 58.0942 371.26 57.4355 371.26C56.6208 371.26 55.8842 371.13 55.2255 370.87C54.5842 370.61 54.0728 370.22 53.6915 369.7C53.3275 369.163 53.1455 368.504 53.1455 367.724C53.1455 366.753 53.4575 365.956 54.0815 365.332C54.7228 364.708 55.6242 364.283 56.7855 364.058L61.8295 363.07L61.8035 365.02L58.1375 365.774C57.4095 365.913 56.8635 366.112 56.4995 366.372C56.1355 366.632 55.9535 367.013 55.9535 367.516C55.9535 368.001 56.1355 368.391 56.4995 368.686C56.8808 368.963 57.3835 369.102 58.0075 369.102C58.4408 369.102 58.8568 369.05 59.2555 368.946C59.6715 368.842 60.0442 368.677 60.3735 368.452C60.7028 368.209 60.9542 367.906 61.1275 367.542C61.3182 367.161 61.4135 366.71 61.4135 366.19V362.654ZM67.9476 371V358H70.4176L70.5996 361.38L70.2356 361.016C70.4783 360.271 70.8249 359.655 71.2756 359.17C71.7436 358.667 72.2896 358.303 72.9136 358.078C73.5549 357.853 74.2309 357.74 74.9416 357.74C75.8603 357.74 76.6836 357.922 77.4116 358.286C78.1569 358.633 78.7463 359.161 79.1796 359.872C79.6129 360.583 79.8296 361.484 79.8296 362.576V371H77.0476V363.434C77.0476 362.151 76.7789 361.267 76.2416 360.782C75.7216 360.279 75.0629 360.028 74.2656 360.028C73.6936 360.028 73.1389 360.167 72.6016 360.444C72.0643 360.704 71.6136 361.129 71.2496 361.718C70.9029 362.307 70.7296 363.096 70.7296 364.084V371H67.9476ZM90.7793 362.654C90.7793 361.787 90.5366 361.12 90.0513 360.652C89.5833 360.167 88.9333 359.924 88.1013 359.924C87.3213 359.924 86.6539 360.106 86.0993 360.47C85.5446 360.834 85.1373 361.423 84.8773 362.238L82.5373 361.25C82.8666 360.193 83.5079 359.343 84.4613 358.702C85.4319 358.061 86.6799 357.74 88.2053 357.74C89.2453 357.74 90.1639 357.913 90.9613 358.26C91.7586 358.589 92.3826 359.092 92.8333 359.768C93.3013 360.444 93.5353 361.311 93.5353 362.368V368.166C93.5353 368.807 93.8559 369.128 94.4973 369.128C94.8093 369.128 95.1126 369.085 95.4073 368.998L95.2513 370.922C94.8526 371.113 94.3499 371.208 93.7433 371.208C93.1886 371.208 92.6859 371.113 92.2353 370.922C91.8019 370.714 91.4553 370.411 91.1953 370.012C90.9526 369.596 90.8313 369.085 90.8313 368.478V368.296L91.4033 368.27C91.2473 368.946 90.9266 369.509 90.4413 369.96C89.9559 370.393 89.3926 370.723 88.7513 370.948C88.1099 371.156 87.4599 371.26 86.8013 371.26C85.9866 371.26 85.2499 371.13 84.5913 370.87C83.9499 370.61 83.4386 370.22 83.0573 369.7C82.6933 369.163 82.5113 368.504 82.5113 367.724C82.5113 366.753 82.8233 365.956 83.4473 365.332C84.0886 364.708 84.9899 364.283 86.1513 364.058L91.1953 363.07L91.1693 365.02L87.5033 365.774C86.7753 365.913 86.2293 366.112 85.8653 366.372C85.5013 366.632 85.3193 367.013 85.3193 367.516C85.3193 368.001 85.5013 368.391 85.8653 368.686C86.2466 368.963 86.7493 369.102 87.3733 369.102C87.8066 369.102 88.2226 369.05 88.6213 368.946C89.0373 368.842 89.4099 368.677 89.7393 368.452C90.0686 368.209 90.3199 367.906 90.4933 367.542C90.6839 367.161 90.7793 366.71 90.7793 366.19V362.654ZM108.804 355.27L109.246 357.454C109.194 357.454 109.142 357.454 109.09 357.454C109.038 357.437 108.986 357.428 108.934 357.428C108.102 357.428 107.47 357.61 107.036 357.974C106.603 358.321 106.386 358.832 106.386 359.508L105.034 358.884C105.034 358.191 105.182 357.575 105.476 357.038C105.771 356.483 106.187 356.05 106.724 355.738C107.279 355.426 107.903 355.27 108.596 355.27C108.631 355.27 108.666 355.27 108.7 355.27C108.735 355.27 108.77 355.27 108.804 355.27ZM104.696 368.972C106.014 368.972 107.036 369.267 107.764 369.856C108.492 370.428 108.856 371.225 108.856 372.248C108.856 373.149 108.57 373.921 107.998 374.562C107.426 375.221 106.646 375.723 105.658 376.07C104.688 376.417 103.57 376.59 102.304 376.59C100.172 376.59 98.5948 376.261 97.5722 375.602C96.5495 374.943 96.0382 374.12 96.0382 373.132C96.0382 372.439 96.2808 371.832 96.7662 371.312C97.2688 370.792 98.1095 370.497 99.2882 370.428L99.1322 370.844C98.4042 370.688 97.8148 370.411 97.3642 370.012C96.9308 369.596 96.7142 369.015 96.7142 368.27C96.7142 367.525 97.0002 366.892 97.5722 366.372C98.1442 365.852 98.9502 365.549 99.9902 365.462L101.446 366.164H101.134C100.337 366.233 99.7735 366.415 99.4442 366.71C99.1148 367.005 98.9502 367.334 98.9502 367.698C98.9502 368.131 99.1062 368.452 99.4182 368.66C99.7475 368.868 100.207 368.972 100.796 368.972H104.696ZM102.304 374.51C103.258 374.51 104.038 374.415 104.644 374.224C105.268 374.051 105.728 373.817 106.022 373.522C106.334 373.245 106.49 372.933 106.49 372.586C106.49 372.187 106.326 371.867 105.996 371.624C105.684 371.381 105.112 371.26 104.28 371.26H100.094C99.6088 371.26 99.2015 371.381 98.8722 371.624C98.5428 371.884 98.3782 372.231 98.3782 372.664C98.3782 373.236 98.7248 373.687 99.4182 374.016C100.112 374.345 101.074 374.51 102.304 374.51ZM102.2 357.74C103.344 357.74 104.332 357.922 105.164 358.286C106.014 358.65 106.664 359.161 107.114 359.82C107.582 360.479 107.816 361.25 107.816 362.134C107.816 363.018 107.582 363.789 107.114 364.448C106.664 365.107 106.014 365.618 105.164 365.982C104.332 366.346 103.344 366.528 102.2 366.528C100.398 366.528 99.0108 366.129 98.0402 365.332C97.0868 364.517 96.6102 363.451 96.6102 362.134C96.6102 361.25 96.8442 360.479 97.3122 359.82C97.7802 359.161 98.4302 358.65 99.2622 358.286C100.112 357.922 101.091 357.74 102.2 357.74ZM102.2 359.69C101.403 359.69 100.736 359.915 100.198 360.366C99.6782 360.799 99.4182 361.389 99.4182 362.134C99.4182 362.879 99.6782 363.477 100.198 363.928C100.736 364.379 101.403 364.604 102.2 364.604C103.015 364.604 103.682 364.379 104.202 363.928C104.74 363.477 105.008 362.879 105.008 362.134C105.008 361.389 104.74 360.799 104.202 360.366C103.682 359.915 103.015 359.69 102.2 359.69ZM116.345 371.26C115.045 371.26 113.901 370.991 112.913 370.454C111.925 369.917 111.154 369.145 110.599 368.14C110.062 367.117 109.793 365.904 109.793 364.5C109.793 363.096 110.062 361.891 110.599 360.886C111.154 359.863 111.917 359.083 112.887 358.546C113.858 358.009 114.959 357.74 116.189 357.74C117.455 357.74 118.529 358 119.413 358.52C120.297 359.04 120.973 359.751 121.441 360.652C121.909 361.553 122.143 362.576 122.143 363.72C122.143 364.032 122.135 364.327 122.117 364.604C122.1 364.881 122.074 365.124 122.039 365.332H111.587V363.2H120.817L119.439 363.616C119.439 362.437 119.145 361.536 118.555 360.912C117.966 360.271 117.16 359.95 116.137 359.95C115.392 359.95 114.742 360.123 114.187 360.47C113.633 360.817 113.208 361.337 112.913 362.03C112.619 362.706 112.471 363.538 112.471 364.526C112.471 365.497 112.627 366.32 112.939 366.996C113.251 367.672 113.693 368.183 114.265 368.53C114.837 368.877 115.513 369.05 116.293 369.05C117.16 369.05 117.862 368.885 118.399 368.556C118.937 368.227 119.361 367.767 119.673 367.178L121.883 368.218C121.571 368.842 121.147 369.388 120.609 369.856C120.089 370.307 119.465 370.653 118.737 370.896C118.009 371.139 117.212 371.26 116.345 371.26ZM143.432 358L137.738 372.534C137.357 373.539 136.941 374.337 136.49 374.926C136.057 375.515 135.554 375.94 134.982 376.2C134.41 376.46 133.743 376.59 132.98 376.59C132.356 376.59 131.776 376.503 131.238 376.33C130.718 376.174 130.259 375.957 129.86 375.68L130.536 373.522C130.866 373.799 131.212 374.007 131.576 374.146C131.958 374.285 132.365 374.354 132.798 374.354C133.266 374.354 133.682 374.224 134.046 373.964C134.428 373.721 134.766 373.227 135.06 372.482L135.632 371.078L134.254 367.854L130.198 358H133.318L136.204 366.164L136.958 368.608L137.816 365.93L140.546 358H143.432ZM150.591 357.74C151.857 357.74 152.975 358.009 153.945 358.546C154.916 359.083 155.67 359.863 156.207 360.886C156.762 361.891 157.039 363.096 157.039 364.5C157.039 365.904 156.762 367.117 156.207 368.14C155.67 369.145 154.916 369.917 153.945 370.454C152.975 370.991 151.857 371.26 150.591 371.26C149.326 371.26 148.208 370.991 147.237 370.454C146.267 369.917 145.504 369.145 144.949 368.14C144.395 367.117 144.117 365.904 144.117 364.5C144.117 363.096 144.395 361.891 144.949 360.886C145.504 359.863 146.267 359.083 147.237 358.546C148.208 358.009 149.326 357.74 150.591 357.74ZM150.591 359.924C149.811 359.924 149.144 360.106 148.589 360.47C148.052 360.817 147.636 361.328 147.341 362.004C147.047 362.68 146.899 363.512 146.899 364.5C146.899 365.471 147.047 366.303 147.341 366.996C147.636 367.672 148.052 368.192 148.589 368.556C149.144 368.903 149.811 369.076 150.591 369.076C151.371 369.076 152.03 368.903 152.567 368.556C153.105 368.192 153.521 367.672 153.815 366.996C154.11 366.303 154.257 365.471 154.257 364.5C154.257 363.512 154.11 362.68 153.815 362.004C153.521 361.328 153.105 360.817 152.567 360.47C152.03 360.106 151.371 359.924 150.591 359.924ZM164.387 371.26C163.538 371.26 162.749 371.104 162.021 370.792C161.31 370.48 160.738 369.977 160.305 369.284C159.872 368.591 159.655 367.689 159.655 366.58V358H162.437V365.878C162.437 367.057 162.688 367.871 163.191 368.322C163.694 368.755 164.396 368.972 165.297 368.972C165.73 368.972 166.146 368.903 166.545 368.764C166.961 368.608 167.334 368.374 167.663 368.062C167.992 367.733 168.244 367.317 168.417 366.814C168.608 366.311 168.703 365.722 168.703 365.046V358H171.485V371H169.041L168.911 368.894C168.46 369.709 167.854 370.307 167.091 370.688C166.328 371.069 165.427 371.26 164.387 371.26ZM175.051 371V358H177.417L177.677 360.34C178.024 359.491 178.535 358.849 179.211 358.416C179.905 357.965 180.754 357.74 181.759 357.74C182.019 357.74 182.279 357.766 182.539 357.818C182.799 357.853 183.016 357.913 183.189 358L182.799 360.444C182.609 360.375 182.392 360.323 182.149 360.288C181.924 360.236 181.612 360.21 181.213 360.21C180.676 360.21 180.147 360.357 179.627 360.652C179.107 360.929 178.674 361.354 178.327 361.926C177.998 362.498 177.833 363.226 177.833 364.11V371H175.051ZM34.862 381.15V396.36C34.862 397.001 34.9747 397.443 35.2 397.686C35.4253 397.929 35.798 398.05 36.318 398.05C36.63 398.05 36.89 398.033 37.098 397.998C37.3233 397.946 37.6007 397.859 37.93 397.738L37.618 399.818C37.3233 399.957 36.9853 400.061 36.604 400.13C36.2227 400.217 35.8413 400.26 35.46 400.26C34.2987 400.26 33.4407 399.965 32.886 399.376C32.3487 398.769 32.08 397.842 32.08 396.594V381.15H34.862ZM45.1196 386.74C46.3849 386.74 47.5029 387.009 48.4736 387.546C49.4443 388.083 50.1983 388.863 50.7356 389.886C51.2903 390.891 51.5676 392.096 51.5676 393.5C51.5676 394.904 51.2903 396.117 50.7356 397.14C50.1983 398.145 49.4443 398.917 48.4736 399.454C47.5029 399.991 46.3849 400.26 45.1196 400.26C43.8543 400.26 42.7363 399.991 41.7656 399.454C40.7949 398.917 40.0323 398.145 39.4776 397.14C38.9229 396.117 38.6456 394.904 38.6456 393.5C38.6456 392.096 38.9229 390.891 39.4776 389.886C40.0323 388.863 40.7949 388.083 41.7656 387.546C42.7363 387.009 43.8543 386.74 45.1196 386.74ZM45.1196 388.924C44.3396 388.924 43.6723 389.106 43.1176 389.47C42.5803 389.817 42.1643 390.328 41.8696 391.004C41.5749 391.68 41.4276 392.512 41.4276 393.5C41.4276 394.471 41.5749 395.303 41.8696 395.996C42.1643 396.672 42.5803 397.192 43.1176 397.556C43.6723 397.903 44.3396 398.076 45.1196 398.076C45.8996 398.076 46.5583 397.903 47.0956 397.556C47.6329 397.192 48.0489 396.672 48.3436 395.996C48.6383 395.303 48.7856 394.471 48.7856 393.5C48.7856 392.512 48.6383 391.68 48.3436 391.004C48.0489 390.328 47.6329 389.817 47.0956 389.47C46.5583 389.106 45.8996 388.924 45.1196 388.924ZM61.7761 391.654C61.7761 390.787 61.5334 390.12 61.0481 389.652C60.5801 389.167 59.9301 388.924 59.0981 388.924C58.3181 388.924 57.6507 389.106 57.0961 389.47C56.5414 389.834 56.1341 390.423 55.8741 391.238L53.5341 390.25C53.8634 389.193 54.5047 388.343 55.4581 387.702C56.4287 387.061 57.6767 386.74 59.2021 386.74C60.2421 386.74 61.1607 386.913 61.9581 387.26C62.7554 387.589 63.3794 388.092 63.8301 388.768C64.2981 389.444 64.5321 390.311 64.5321 391.368V397.166C64.5321 397.807 64.8527 398.128 65.4941 398.128C65.8061 398.128 66.1094 398.085 66.4041 397.998L66.2481 399.922C65.8494 400.113 65.3467 400.208 64.7401 400.208C64.1854 400.208 63.6827 400.113 63.2321 399.922C62.7987 399.714 62.4521 399.411 62.1921 399.012C61.9494 398.596 61.8281 398.085 61.8281 397.478V397.296L62.4001 397.27C62.2441 397.946 61.9234 398.509 61.4381 398.96C60.9527 399.393 60.3894 399.723 59.7481 399.948C59.1067 400.156 58.4567 400.26 57.7981 400.26C56.9834 400.26 56.2467 400.13 55.5881 399.87C54.9467 399.61 54.4354 399.22 54.0541 398.7C53.6901 398.163 53.5081 397.504 53.5081 396.724C53.5081 395.753 53.8201 394.956 54.4441 394.332C55.0854 393.708 55.9867 393.283 57.1481 393.058L62.1921 392.07L62.1661 394.02L58.5001 394.774C57.7721 394.913 57.2261 395.112 56.8621 395.372C56.4981 395.632 56.3161 396.013 56.3161 396.516C56.3161 397.001 56.4981 397.391 56.8621 397.686C57.2434 397.963 57.7461 398.102 58.3701 398.102C58.8034 398.102 59.2194 398.05 59.6181 397.946C60.0341 397.842 60.4067 397.677 60.7361 397.452C61.0654 397.209 61.3167 396.906 61.4901 396.542C61.6807 396.161 61.7761 395.71 61.7761 395.19V391.654ZM68.3102 400V387H70.7802L70.9622 390.38L70.5982 390.016C70.8409 389.271 71.1875 388.655 71.6382 388.17C72.1062 387.667 72.6522 387.303 73.2762 387.078C73.9175 386.853 74.5935 386.74 75.3042 386.74C76.2229 386.74 77.0462 386.922 77.7742 387.286C78.5195 387.633 79.1089 388.161 79.5422 388.872C79.9755 389.583 80.1922 390.484 80.1922 391.576V400H77.4102V392.434C77.4102 391.151 77.1415 390.267 76.6042 389.782C76.0842 389.279 75.4255 389.028 74.6282 389.028C74.0562 389.028 73.5015 389.167 72.9642 389.444C72.4269 389.704 71.9762 390.129 71.6122 390.718C71.2655 391.307 71.0922 392.096 71.0922 393.084V400H68.3102ZM88.5678 400.26C87.2678 400.26 86.0805 400.009 85.0058 399.506C83.9312 399.003 83.0818 398.293 82.4578 397.374L84.3818 395.71C84.7632 396.421 85.3092 396.993 86.0198 397.426C86.7478 397.842 87.6145 398.05 88.6198 398.05C89.4172 398.05 90.0498 397.911 90.5178 397.634C90.9858 397.357 91.2198 396.967 91.2198 396.464C91.2198 396.135 91.1072 395.849 90.8818 395.606C90.6738 395.346 90.2665 395.147 89.6598 395.008L86.9298 394.436C85.5432 394.159 84.5552 393.717 83.9658 393.11C83.3765 392.486 83.0818 391.697 83.0818 390.744C83.0818 390.033 83.2898 389.375 83.7058 388.768C84.1218 388.161 84.7285 387.676 85.5258 387.312C86.3405 386.931 87.3112 386.74 88.4378 386.74C89.7378 386.74 90.8472 386.974 91.7658 387.442C92.6845 387.893 93.3865 388.543 93.8718 389.392L91.9478 391.004C91.6185 390.311 91.1332 389.799 90.4918 389.47C89.8505 389.123 89.1832 388.95 88.4898 388.95C87.9352 388.95 87.4585 389.019 87.0598 389.158C86.6612 389.297 86.3578 389.487 86.1498 389.73C85.9418 389.973 85.8378 390.259 85.8378 390.588C85.8378 390.935 85.9678 391.238 86.2278 391.498C86.4878 391.758 86.9558 391.957 87.6318 392.096L90.5958 392.72C91.8438 392.963 92.7192 393.379 93.2218 393.968C93.7418 394.54 94.0018 395.242 94.0018 396.074C94.0018 396.906 93.7852 397.643 93.3518 398.284C92.9185 398.908 92.2945 399.393 91.4798 399.74C90.6652 400.087 89.6945 400.26 88.5678 400.26Z" fill="url(#paint1_radial_497_1670)"/>
<rect x="168.143" y="74.3" width="115.557" height="95.725" rx="3.09971" fill="#2E2E2E" stroke="#616161" stroke-width="0.6"/>
<path d="M230.557 146.858L228.573 152.094H227.852L225.86 146.858H226.543L227.875 150.475L228.209 151.515L228.542 150.483L229.874 146.858H230.557ZM231.837 147.366C231.694 147.366 231.578 147.324 231.488 147.239C231.404 147.149 231.361 147.033 231.361 146.89C231.361 146.747 231.404 146.633 231.488 146.549C231.578 146.459 231.694 146.414 231.837 146.414C231.98 146.414 232.094 146.459 232.178 146.549C232.268 146.633 232.313 146.747 232.313 146.89C232.313 147.033 232.268 147.149 232.178 147.239C232.094 147.324 231.98 147.366 231.837 147.366ZM232.155 148.127V152.094H231.52V148.127H232.155ZM235.285 152.173C234.909 152.173 234.574 152.091 234.277 151.927C233.987 151.763 233.759 151.528 233.595 151.221C233.431 150.909 233.349 150.539 233.349 150.111C233.349 149.682 233.431 149.315 233.595 149.008C233.759 148.696 233.984 148.458 234.27 148.294C234.555 148.13 234.88 148.048 235.245 148.048C235.615 148.048 235.93 148.127 236.189 148.286C236.454 148.445 236.655 148.662 236.792 148.937C236.93 149.206 236.998 149.51 236.998 149.849C236.998 149.939 236.996 150.021 236.99 150.095C236.985 150.169 236.977 150.235 236.967 150.293H233.762V149.73H236.689L236.364 149.793C236.364 149.413 236.258 149.119 236.046 148.913C235.84 148.707 235.568 148.603 235.229 148.603C234.97 148.603 234.746 148.664 234.555 148.786C234.37 148.902 234.225 149.074 234.119 149.301C234.018 149.524 233.968 149.793 233.968 150.111C233.968 150.423 234.021 150.692 234.127 150.92C234.233 151.147 234.381 151.322 234.571 151.443C234.767 151.56 234.999 151.618 235.269 151.618C235.56 151.618 235.795 151.562 235.975 151.451C236.16 151.34 236.308 151.189 236.419 150.999L236.919 151.293C236.819 151.472 236.689 151.628 236.53 151.761C236.377 151.893 236.195 151.996 235.983 152.07C235.777 152.139 235.544 152.173 235.285 152.173ZM243.086 148.127H243.792L242.412 152.094H241.777L240.659 148.937L239.604 152.094H238.969L237.589 148.127H238.295L239.294 151.356L240.373 148.127H241.008L242.087 151.356L243.086 148.127ZM248.023 151.499H251.021V152.094H247.388V146.858H248.023V151.499ZM253.536 148.048C253.911 148.048 254.242 148.13 254.527 148.294C254.818 148.458 255.046 148.696 255.21 149.008C255.374 149.315 255.456 149.682 255.456 150.111C255.456 150.539 255.374 150.909 255.21 151.221C255.046 151.528 254.818 151.763 254.527 151.927C254.242 152.091 253.911 152.173 253.536 152.173C253.166 152.173 252.835 152.091 252.544 151.927C252.253 151.763 252.026 151.528 251.862 151.221C251.698 150.909 251.616 150.539 251.616 150.111C251.616 149.682 251.698 149.315 251.862 149.008C252.026 148.696 252.253 148.458 252.544 148.294C252.835 148.13 253.166 148.048 253.536 148.048ZM253.536 148.595C253.266 148.595 253.036 148.656 252.846 148.778C252.655 148.9 252.507 149.074 252.401 149.301C252.301 149.524 252.251 149.793 252.251 150.111C252.251 150.423 252.301 150.692 252.401 150.92C252.507 151.147 252.655 151.322 252.846 151.443C253.036 151.565 253.266 151.626 253.536 151.626C253.806 151.626 254.036 151.565 254.226 151.443C254.416 151.322 254.562 151.147 254.662 150.92C254.768 150.692 254.821 150.423 254.821 150.111C254.821 149.793 254.768 149.524 254.662 149.301C254.562 149.074 254.416 148.9 254.226 148.778C254.036 148.656 253.806 148.595 253.536 148.595ZM258.967 149.532C258.967 149.235 258.887 149.008 258.729 148.849C258.57 148.685 258.345 148.603 258.054 148.603C257.779 148.603 257.547 148.664 257.356 148.786C257.166 148.902 257.026 149.093 256.936 149.357L256.42 149.04C256.526 148.744 256.722 148.506 257.007 148.326C257.293 148.141 257.647 148.048 258.07 148.048C258.356 148.048 258.615 148.098 258.848 148.199C259.08 148.294 259.263 148.442 259.395 148.643C259.532 148.839 259.601 149.093 259.601 149.405V151.324C259.601 151.515 259.702 151.61 259.903 151.61C260.003 151.61 260.101 151.597 260.196 151.57L260.164 152.07C260.059 152.123 259.921 152.149 259.752 152.149C259.599 152.149 259.461 152.12 259.339 152.062C259.218 152.004 259.123 151.917 259.054 151.8C258.985 151.679 258.951 151.528 258.951 151.348V151.269L259.109 151.293C259.046 151.499 258.938 151.668 258.784 151.8C258.631 151.927 258.459 152.022 258.269 152.086C258.078 152.144 257.89 152.173 257.705 152.173C257.473 152.173 257.256 152.133 257.055 152.054C256.854 151.975 256.693 151.856 256.571 151.697C256.455 151.533 256.396 151.332 256.396 151.094C256.396 150.798 256.494 150.555 256.69 150.364C256.891 150.169 257.169 150.037 257.523 149.968L259.094 149.658V150.182L257.816 150.444C257.557 150.497 257.364 150.571 257.237 150.666C257.11 150.761 257.047 150.893 257.047 151.063C257.047 151.226 257.11 151.361 257.237 151.467C257.37 151.568 257.555 151.618 257.793 151.618C257.946 151.618 258.091 151.599 258.229 151.562C258.372 151.52 258.499 151.459 258.61 151.38C258.721 151.295 258.808 151.192 258.871 151.07C258.935 150.944 258.967 150.795 258.967 150.626V149.532ZM261.143 152.094V148.127H261.699L261.754 149.016L261.651 148.929C261.736 148.717 261.849 148.548 261.992 148.421C262.135 148.289 262.299 148.194 262.484 148.135C262.674 148.077 262.87 148.048 263.071 148.048C263.357 148.048 263.616 148.104 263.848 148.215C264.081 148.32 264.266 148.484 264.404 148.707C264.546 148.929 264.618 149.212 264.618 149.555V152.094H263.983V149.777C263.983 149.338 263.888 149.034 263.698 148.865C263.513 148.691 263.283 148.603 263.008 148.603C262.817 148.603 262.627 148.648 262.436 148.738C262.246 148.828 262.087 148.974 261.96 149.175C261.839 149.375 261.778 149.645 261.778 149.984V152.094H261.143ZM267.483 152.173C267.097 152.173 266.74 152.091 266.412 151.927C266.089 151.763 265.841 151.531 265.666 151.229L266.206 150.84C266.322 151.084 266.491 151.274 266.713 151.412C266.941 151.549 267.213 151.618 267.53 151.618C267.811 151.618 268.03 151.565 268.189 151.459C268.347 151.348 268.427 151.205 268.427 151.031C268.427 150.92 268.39 150.819 268.316 150.729C268.247 150.634 268.112 150.565 267.911 150.523L266.959 150.325C266.573 150.245 266.295 150.113 266.126 149.928C265.962 149.743 265.88 149.513 265.88 149.238C265.88 149.021 265.941 148.823 266.063 148.643C266.19 148.463 266.367 148.32 266.594 148.215C266.827 148.104 267.099 148.048 267.411 148.048C267.803 148.048 268.133 148.125 268.403 148.278C268.673 148.432 268.874 148.648 269.006 148.929L268.474 149.278C268.384 149.045 268.239 148.876 268.038 148.77C267.837 148.659 267.628 148.603 267.411 148.603C267.221 148.603 267.057 148.63 266.919 148.683C266.787 148.736 266.684 148.81 266.61 148.905C266.541 148.995 266.507 149.098 266.507 149.214C266.507 149.331 266.547 149.439 266.626 149.539C266.705 149.635 266.853 149.703 267.07 149.746L268.062 149.952C268.432 150.026 268.691 150.148 268.839 150.317C268.987 150.486 269.061 150.692 269.061 150.936C269.061 151.184 268.995 151.404 268.863 151.594C268.731 151.779 268.546 151.922 268.308 152.022C268.07 152.123 267.795 152.173 267.483 152.173Z" fill="#2F80ED"/>
<path d="M225.638 153.085H269.498V153.482H225.638V153.085Z" fill="#2F80ED"/>
<path d="M180.366 150.952H184.491V151.994H179.153V144.515H180.366V150.952ZM187.527 146.215C188.078 146.215 188.565 146.332 188.989 146.566C189.412 146.8 189.74 147.14 189.974 147.586C190.216 148.024 190.337 148.549 190.337 149.161C190.337 149.773 190.216 150.302 189.974 150.748C189.74 151.186 189.412 151.522 188.989 151.756C188.565 151.99 188.078 152.108 187.527 152.108C186.975 152.108 186.488 151.99 186.065 151.756C185.642 151.522 185.309 151.186 185.068 150.748C184.826 150.302 184.705 149.773 184.705 149.161C184.705 148.549 184.826 148.024 185.068 147.586C185.309 147.14 185.642 146.8 186.065 146.566C186.488 146.332 186.975 146.215 187.527 146.215ZM187.527 147.167C187.187 147.167 186.896 147.246 186.654 147.405C186.42 147.556 186.239 147.779 186.11 148.073C185.982 148.368 185.917 148.731 185.917 149.161C185.917 149.584 185.982 149.947 186.11 150.249C186.239 150.544 186.42 150.77 186.654 150.929C186.896 151.08 187.187 151.156 187.527 151.156C187.867 151.156 188.154 151.08 188.388 150.929C188.622 150.77 188.803 150.544 188.932 150.249C189.06 149.947 189.125 149.584 189.125 149.161C189.125 148.731 189.06 148.368 188.932 148.073C188.803 147.779 188.622 147.556 188.388 147.405C188.154 147.246 187.867 147.167 187.527 147.167ZM194.56 148.357C194.56 147.979 194.454 147.688 194.243 147.484C194.039 147.272 193.755 147.167 193.393 147.167C193.053 147.167 192.762 147.246 192.52 147.405C192.278 147.563 192.101 147.82 191.987 148.175L190.968 147.745C191.111 147.284 191.391 146.914 191.806 146.634C192.229 146.355 192.773 146.215 193.438 146.215C193.891 146.215 194.292 146.29 194.639 146.441C194.987 146.585 195.259 146.804 195.455 147.099C195.659 147.393 195.761 147.771 195.761 148.232V150.759C195.761 151.039 195.901 151.178 196.18 151.178C196.316 151.178 196.449 151.159 196.577 151.122L196.509 151.96C196.335 152.043 196.116 152.085 195.852 152.085C195.61 152.085 195.391 152.043 195.195 151.96C195.006 151.87 194.855 151.737 194.741 151.564C194.635 151.382 194.583 151.159 194.583 150.895V150.816L194.832 150.804C194.764 151.099 194.624 151.345 194.413 151.541C194.201 151.73 193.955 151.873 193.676 151.972C193.396 152.062 193.113 152.108 192.826 152.108C192.471 152.108 192.15 152.051 191.863 151.938C191.583 151.824 191.36 151.654 191.194 151.428C191.036 151.193 190.956 150.906 190.956 150.566C190.956 150.143 191.092 149.796 191.364 149.524C191.644 149.252 192.037 149.067 192.543 148.969L194.741 148.538L194.73 149.388L193.132 149.716C192.815 149.777 192.577 149.864 192.418 149.977C192.259 150.09 192.18 150.257 192.18 150.476C192.18 150.687 192.259 150.857 192.418 150.986C192.584 151.107 192.803 151.167 193.075 151.167C193.264 151.167 193.446 151.144 193.619 151.099C193.801 151.054 193.963 150.982 194.107 150.884C194.25 150.778 194.36 150.646 194.435 150.487C194.518 150.321 194.56 150.124 194.56 149.898V148.357ZM197.181 151.994V146.328H198.258L198.337 147.801L198.178 147.643C198.284 147.318 198.435 147.05 198.632 146.838C198.836 146.619 199.074 146.46 199.346 146.362C199.625 146.264 199.92 146.215 200.23 146.215C200.63 146.215 200.989 146.294 201.306 146.453C201.631 146.604 201.888 146.834 202.077 147.144C202.266 147.454 202.36 147.847 202.36 148.323V151.994H201.148V148.697C201.148 148.137 201.03 147.752 200.796 147.541C200.57 147.322 200.282 147.212 199.935 147.212C199.686 147.212 199.444 147.272 199.21 147.393C198.975 147.507 198.779 147.692 198.62 147.949C198.469 148.205 198.394 148.549 198.394 148.98V151.994H197.181ZM205.784 152.108C205.217 152.108 204.7 151.998 204.232 151.779C203.763 151.56 203.393 151.25 203.121 150.85L203.96 150.124C204.126 150.434 204.364 150.683 204.673 150.872C204.991 151.054 205.369 151.144 205.807 151.144C206.154 151.144 206.43 151.084 206.634 150.963C206.838 150.842 206.94 150.672 206.94 150.453C206.94 150.31 206.891 150.185 206.793 150.079C206.702 149.966 206.524 149.879 206.26 149.818L205.07 149.569C204.466 149.448 204.035 149.256 203.778 148.991C203.521 148.719 203.393 148.375 203.393 147.96C203.393 147.65 203.484 147.363 203.665 147.099C203.846 146.834 204.111 146.623 204.458 146.464C204.813 146.298 205.236 146.215 205.727 146.215C206.294 146.215 206.778 146.317 207.178 146.521C207.578 146.717 207.884 147 208.096 147.371L207.257 148.073C207.114 147.771 206.902 147.548 206.623 147.405C206.343 147.254 206.052 147.178 205.75 147.178C205.508 147.178 205.301 147.208 205.127 147.269C204.953 147.329 204.821 147.412 204.73 147.518C204.639 147.624 204.594 147.748 204.594 147.892C204.594 148.043 204.651 148.175 204.764 148.289C204.877 148.402 205.081 148.489 205.376 148.549L206.668 148.821C207.212 148.927 207.593 149.108 207.813 149.365C208.039 149.614 208.153 149.92 208.153 150.283C208.153 150.646 208.058 150.967 207.869 151.246C207.68 151.518 207.408 151.73 207.053 151.881C206.698 152.032 206.275 152.108 205.784 152.108Z" fill="white"/>
<path d="M188.004 135.238C185.896 135.238 184.06 134.773 182.496 133.844C180.955 132.892 179.901 131.566 179.334 129.866L182.87 128.2C183.074 129.016 183.391 129.719 183.822 130.308C184.253 130.897 184.819 131.351 185.522 131.668C186.224 131.963 187.097 132.11 188.14 132.11C189.024 132.11 189.771 131.951 190.383 131.634C190.995 131.317 191.46 130.875 191.777 130.308C192.117 129.741 192.287 129.095 192.287 128.37C192.287 127.622 192.14 126.999 191.845 126.5C191.573 126.002 191.131 125.639 190.519 125.412C189.93 125.186 189.171 125.072 188.242 125.072C187.97 125.072 187.686 125.084 187.392 125.106C187.12 125.106 186.825 125.129 186.508 125.174V122.115C186.712 122.137 186.904 122.16 187.086 122.183C187.29 122.183 187.482 122.183 187.664 122.183C189.137 122.183 190.191 121.888 190.825 121.299C191.46 120.709 191.777 119.792 191.777 118.545C191.777 117.48 191.449 116.664 190.791 116.097C190.157 115.531 189.239 115.247 188.038 115.247C186.791 115.247 185.816 115.542 185.114 116.131C184.434 116.698 183.913 117.525 183.55 118.613L180.218 117.219C180.536 116.177 181.068 115.27 181.816 114.499C182.564 113.729 183.482 113.139 184.57 112.731C185.68 112.301 186.893 112.086 188.208 112.086C189.817 112.086 191.154 112.346 192.219 112.867C193.307 113.389 194.112 114.103 194.633 115.009C195.177 115.916 195.449 116.924 195.449 118.035C195.449 118.896 195.324 119.656 195.075 120.313C194.826 120.947 194.486 121.503 194.055 121.979C193.647 122.432 193.194 122.783 192.695 123.033C192.219 123.282 191.732 123.452 191.233 123.543V123.611C191.891 123.633 192.491 123.769 193.035 124.019C193.602 124.245 194.1 124.574 194.531 125.004C194.984 125.412 195.336 125.911 195.585 126.5C195.834 127.09 195.959 127.736 195.959 128.438C195.959 129.798 195.619 130.988 194.939 132.008C194.259 133.028 193.318 133.821 192.117 134.388C190.939 134.954 189.567 135.238 188.004 135.238Z" fill="white"/>
<path d="M183.899 91.3325H182.875L182.303 89.7641H179.792L179.221 91.3325H178.224L180.481 85.349H181.642L183.899 91.3325ZM180.064 88.9753H182.031L181.052 86.183L180.064 88.9753ZM185.767 84.7597V90.0632C185.767 90.2869 185.806 90.441 185.885 90.5256C185.963 90.6102 186.093 90.6525 186.275 90.6525C186.383 90.6525 186.474 90.6465 186.547 90.6344C186.625 90.6163 186.722 90.586 186.837 90.5437L186.728 91.269C186.625 91.3173 186.507 91.3536 186.374 91.3778C186.241 91.408 186.108 91.4231 185.975 91.4231C185.571 91.4231 185.271 91.3204 185.078 91.1149C184.891 90.9033 184.797 90.58 184.797 90.1448V84.7597H185.767ZM188.591 84.7597V90.0632C188.591 90.2869 188.63 90.441 188.709 90.5256C188.788 90.6102 188.918 90.6525 189.099 90.6525C189.208 90.6525 189.298 90.6465 189.371 90.6344C189.449 90.6163 189.546 90.586 189.661 90.5437L189.552 91.269C189.449 91.3173 189.332 91.3536 189.199 91.3778C189.066 91.408 188.933 91.4231 188.8 91.4231C188.395 91.4231 188.096 91.3204 187.902 91.1149C187.715 90.9033 187.621 90.58 187.621 90.1448V84.7597H188.591ZM194.261 90.4984H197.561V91.3325H193.291V85.349H194.261V90.4984ZM200.443 86.7089C200.885 86.7089 201.274 86.8025 201.613 86.9899C201.951 87.1773 202.214 87.4492 202.402 87.8058C202.595 88.1564 202.692 88.5764 202.692 89.066C202.692 89.5555 202.595 89.9786 202.402 90.3352C202.214 90.6858 201.951 90.9547 201.613 91.1421C201.274 91.3294 200.885 91.4231 200.443 91.4231C200.002 91.4231 199.612 91.3294 199.274 91.1421C198.935 90.9547 198.669 90.6858 198.476 90.3352C198.283 89.9786 198.186 89.5555 198.186 89.066C198.186 88.5764 198.283 88.1564 198.476 87.8058C198.669 87.4492 198.935 87.1773 199.274 86.9899C199.612 86.8025 200.002 86.7089 200.443 86.7089ZM200.443 87.4704C200.171 87.4704 199.939 87.5339 199.745 87.6608C199.558 87.7817 199.413 87.9599 199.31 88.1957C199.207 88.4314 199.156 88.7215 199.156 89.066C199.156 89.4044 199.207 89.6946 199.31 89.9363C199.413 90.172 199.558 90.3533 199.745 90.4803C199.939 90.6011 200.171 90.6616 200.443 90.6616C200.715 90.6616 200.945 90.6011 201.132 90.4803C201.32 90.3533 201.465 90.172 201.568 89.9363C201.67 89.6946 201.722 89.4044 201.722 89.066C201.722 88.7215 201.67 88.4314 201.568 88.1957C201.465 87.9599 201.32 87.7817 201.132 87.6608C200.945 87.5339 200.715 87.4704 200.443 87.4704ZM206.523 88.4223C206.523 88.1201 206.439 87.8874 206.269 87.7242C206.106 87.555 205.88 87.4704 205.589 87.4704C205.317 87.4704 205.085 87.5339 204.891 87.6608C204.698 87.7877 204.556 87.9932 204.465 88.2773L203.649 87.9328C203.764 87.5641 203.988 87.2679 204.32 87.0443C204.659 86.8207 205.094 86.7089 205.626 86.7089C205.988 86.7089 206.309 86.7693 206.587 86.8902C206.865 87.005 207.082 87.1803 207.239 87.416C207.403 87.6517 207.484 87.9539 207.484 88.3226V90.3443C207.484 90.5679 207.596 90.6797 207.82 90.6797C207.928 90.6797 208.034 90.6646 208.137 90.6344L208.083 91.3053C207.944 91.3717 207.768 91.405 207.557 91.405C207.363 91.405 207.188 91.3717 207.031 91.3053C206.88 91.2327 206.759 91.127 206.668 90.988C206.584 90.8429 206.541 90.6646 206.541 90.4531V90.3896L206.741 90.3805C206.686 90.6163 206.575 90.8127 206.405 90.9698C206.236 91.1209 206.04 91.2358 205.816 91.3143C205.592 91.3869 205.366 91.4231 205.136 91.4231C204.852 91.4231 204.595 91.3778 204.366 91.2871C204.142 91.1965 203.964 91.0605 203.831 90.8792C203.704 90.6918 203.64 90.4621 203.64 90.1902C203.64 89.8517 203.749 89.5737 203.967 89.3561C204.19 89.1385 204.505 88.9904 204.909 88.9119L206.668 88.5674L206.659 89.2473L205.381 89.5102C205.127 89.5586 204.937 89.6281 204.81 89.7187C204.683 89.8094 204.619 89.9424 204.619 90.1176C204.619 90.2869 204.683 90.4228 204.81 90.5256C204.943 90.6223 205.118 90.6706 205.336 90.6706C205.487 90.6706 205.632 90.6525 205.771 90.6163C205.916 90.58 206.046 90.5226 206.161 90.444C206.275 90.3594 206.363 90.2536 206.423 90.1267C206.49 89.9937 206.523 89.8366 206.523 89.6553V88.4223ZM209.074 91.3325V86.7995H209.935L209.998 87.9781L209.871 87.8512C209.956 87.5913 210.077 87.3767 210.234 87.2075C210.397 87.0322 210.588 86.9053 210.805 86.8267C211.029 86.7481 211.264 86.7089 211.512 86.7089C211.833 86.7089 212.12 86.7723 212.374 86.8992C212.633 87.0201 212.839 87.2045 212.99 87.4523C213.141 87.7001 213.217 88.0143 213.217 88.3951V91.3325H212.247V88.6943C212.247 88.247 212.153 87.9388 211.966 87.7696C211.784 87.5943 211.555 87.5067 211.277 87.5067C211.077 87.5067 210.884 87.555 210.696 87.6517C210.509 87.7424 210.352 87.8904 210.225 88.0959C210.104 88.3014 210.044 88.5764 210.044 88.9209V91.3325H209.074Z" fill="white"/>
<rect x="30.3" y="192.625" width="115.514" height="93.4526" rx="3.18343" fill="#2E2E2E" stroke="#616161" stroke-width="0.6"/>
<rect x="41.2488" y="263.373" width="54.6188" height="15.7713" rx="2.39785" fill="#2E2E2E"/>
<rect x="41.2488" y="263.373" width="54.6188" height="15.7713" rx="2.39785" stroke="#474646" stroke-width="0.435973"/>
<path d="M54.9462 273.258H54.1955L53.1701 271.647H52.3034V273.258H51.6564V269.23H53.2983C54.1589 269.23 54.7082 269.694 54.7082 270.426C54.7082 271.012 54.3786 271.397 53.8354 271.543L54.9462 273.258ZM52.3034 269.785V271.104H53.2494C53.7743 271.104 54.0307 270.89 54.0307 270.445C54.0307 269.999 53.7743 269.785 53.2494 269.785H52.3034ZM58.2862 271.549C58.2862 271.702 58.2739 271.836 58.2617 271.928H56.0278C56.0827 272.495 56.4123 272.801 56.9128 272.801C57.3218 272.801 57.5598 272.636 57.7063 272.361L58.2251 272.605C58.0115 273.051 57.5293 273.319 56.925 273.319C56.0095 273.319 55.3869 272.727 55.3869 271.732C55.3869 270.738 56.0095 270.145 56.8884 270.145C57.7735 270.145 58.2862 270.75 58.2862 271.549ZM56.8762 270.664C56.4246 270.664 56.1255 270.933 56.04 271.427H57.6453C57.6148 270.939 57.3279 270.664 56.8762 270.664ZM60.765 270.145C61.5096 270.145 62.1017 270.731 62.1017 271.726C62.1017 272.727 61.4974 273.319 60.7467 273.319C60.295 273.319 59.9471 273.087 59.764 272.758V274.54H59.1109V270.206H59.6908L59.7213 270.774C59.9044 270.402 60.2828 270.145 60.765 270.145ZM60.6063 272.788C61.1312 272.788 61.4486 272.398 61.4486 271.732C61.4486 271.067 61.1434 270.67 60.6185 270.67C60.1058 270.67 59.764 271.079 59.764 271.732C59.764 272.379 60.0936 272.788 60.6063 272.788ZM65.5684 272.819C65.6355 272.819 65.721 272.807 65.782 272.788L65.7454 273.24C65.66 273.277 65.5379 273.307 65.3914 273.307C65.0679 273.301 64.8054 273.161 64.7322 272.868C64.5308 273.173 64.1279 273.319 63.7617 273.319C63.1819 273.319 62.7546 273.039 62.7546 272.489C62.7546 272.038 63.0659 271.738 63.6091 271.629L64.6956 271.415V271.299C64.6956 270.896 64.4575 270.658 64.0669 270.658C63.7068 270.658 63.426 270.817 63.3101 271.201L62.7607 270.969C62.9133 270.475 63.3711 270.145 64.0913 270.145C64.8177 270.145 65.3426 270.499 65.3426 271.232V272.593C65.3426 272.746 65.4219 272.819 65.5684 272.819ZM63.896 272.813C64.3111 272.813 64.6956 272.617 64.6956 272.129V271.873L63.9265 272.031C63.5786 272.099 63.4138 272.202 63.4138 272.44C63.4138 272.666 63.603 272.813 63.896 272.813ZM68.9073 270.206L67.5706 273.618C67.3021 274.326 66.9908 274.571 66.4537 274.571C66.1546 274.571 65.9043 274.491 65.7212 274.357L65.8799 273.85C66.0325 273.985 66.2095 274.046 66.4109 274.046C66.6307 274.046 66.8077 273.96 66.942 273.606L67.0762 273.277L66.7527 272.52L65.8006 270.206H66.533L67.2105 272.123L67.3875 272.697L67.5889 272.068L68.2298 270.206H68.9073ZM72.0449 272.697H74.2666V273.258H71.3918V269.23H72.0449V272.697ZM76.2071 270.145C77.0982 270.145 77.7208 270.738 77.7208 271.732C77.7208 272.727 77.0982 273.319 76.2071 273.319C75.3159 273.319 74.6873 272.727 74.6873 271.732C74.6873 270.738 75.3159 270.145 76.2071 270.145ZM76.2071 270.658C75.6638 270.658 75.3403 271.043 75.3403 271.732C75.3403 272.422 75.6638 272.807 76.2071 272.807C76.7442 272.807 77.0677 272.422 77.0677 271.732C77.0677 271.043 76.7442 270.658 76.2071 270.658ZM81.1732 272.819C81.2403 272.819 81.3258 272.807 81.3868 272.788L81.3502 273.24C81.2647 273.277 81.1426 273.307 80.9962 273.307C80.6727 273.301 80.4102 273.161 80.337 272.868C80.1356 273.173 79.7327 273.319 79.3665 273.319C78.7866 273.319 78.3594 273.039 78.3594 272.489C78.3594 272.038 78.6707 271.738 79.2139 271.629L80.3003 271.415V271.299C80.3003 270.896 80.0623 270.658 79.6717 270.658C79.3116 270.658 79.0308 270.817 78.9148 271.201L78.3655 270.969C78.5181 270.475 78.9759 270.145 79.6961 270.145C80.4224 270.145 80.9473 270.499 80.9473 271.232V272.593C80.9473 272.746 81.0267 272.819 81.1732 272.819ZM79.5008 272.813C79.9158 272.813 80.3003 272.617 80.3003 272.129V271.873L79.5313 272.031C79.1834 272.099 79.0186 272.202 79.0186 272.44C79.0186 272.666 79.2078 272.813 79.5008 272.813ZM83.6592 270.145C84.3062 270.145 84.8067 270.518 84.8067 271.281V273.258H84.1536V271.482C84.1536 270.884 83.8729 270.683 83.5006 270.683C83.0977 270.683 82.6705 270.939 82.6705 271.635V273.258H82.0174V270.206H82.5972L82.6277 270.731C82.8292 270.329 83.2137 270.145 83.6592 270.145Z" fill="white"/>
<path opacity="0.7" d="M42.7768 251.262V247.199C42.7768 247.104 42.7768 247.003 42.7768 246.897C42.7824 246.785 42.788 246.67 42.7936 246.553C42.6033 246.737 42.3823 246.9 42.1304 247.04C41.8786 247.174 41.6212 247.272 41.3582 247.333L41.1819 246.721C41.2827 246.709 41.4086 246.673 41.5597 246.612C41.7163 246.544 41.8786 246.463 42.0465 246.368C42.22 246.267 42.3795 246.161 42.525 246.049C42.6704 245.937 42.7824 245.828 42.8607 245.722H43.4483V251.262H42.7768ZM46.912 251.346C46.2852 251.346 45.7844 251.102 45.4095 250.615C45.0345 250.129 44.8471 249.421 44.8471 248.492C44.8471 247.563 45.0345 246.855 45.4095 246.368C45.7844 245.881 46.2852 245.638 46.912 245.638C47.5443 245.638 48.0451 245.881 48.4144 246.368C48.7894 246.855 48.9768 247.563 48.9768 248.492C48.9768 249.421 48.7894 250.129 48.4144 250.615C48.0451 251.102 47.5443 251.346 46.912 251.346ZM46.912 250.741C47.2085 250.741 47.4576 250.657 47.659 250.489C47.8661 250.316 48.0199 250.061 48.1207 249.726C48.227 249.39 48.2801 248.979 48.2801 248.492C48.2801 248.005 48.227 247.594 48.1207 247.258C48.0199 246.922 47.8661 246.67 47.659 246.502C47.4576 246.329 47.2085 246.242 46.912 246.242C46.6154 246.242 46.3636 246.329 46.1565 246.502C45.9551 246.67 45.8012 246.922 45.6949 247.258C45.5941 247.594 45.5438 248.005 45.5438 248.492C45.5438 248.979 45.5941 249.39 45.6949 249.726C45.8012 250.061 45.9551 250.316 46.1565 250.489C46.3636 250.657 46.6154 250.741 46.912 250.741ZM50.4345 250.254C50.5688 250.254 50.6807 250.291 50.7702 250.364C50.8654 250.431 50.9381 250.526 50.9885 250.649C51.0388 250.766 51.064 250.906 51.064 251.069C51.064 251.253 51.0304 251.435 50.9633 251.614C50.9017 251.793 50.8038 251.958 50.6695 252.109C50.5352 252.261 50.3617 252.386 50.1491 252.487L49.7965 252.16C49.9476 252.109 50.0791 252.04 50.1911 251.95C50.3086 251.86 50.4037 251.76 50.4764 251.648C50.5492 251.536 50.5968 251.421 50.6191 251.304L50.5856 251.287C50.5632 251.304 50.5352 251.318 50.5016 251.329C50.468 251.34 50.4177 251.346 50.3505 251.346C50.2834 251.346 50.2134 251.326 50.1407 251.287C50.0735 251.248 50.0148 251.192 49.9644 251.119C49.9141 251.041 49.8889 250.94 49.8889 250.817C49.8889 250.716 49.9141 250.624 49.9644 250.54C50.0148 250.45 50.0791 250.38 50.1575 250.33C50.2414 250.28 50.3337 250.254 50.4345 250.254ZM53.9532 251.346C53.3265 251.346 52.8257 251.102 52.4508 250.615C52.0758 250.129 51.8884 249.421 51.8884 248.492C51.8884 247.563 52.0758 246.855 52.4508 246.368C52.8257 245.881 53.3265 245.638 53.9532 245.638C54.5856 245.638 55.0864 245.881 55.4557 246.368C55.8307 246.855 56.0181 247.563 56.0181 248.492C56.0181 249.421 55.8307 250.129 55.4557 250.615C55.0864 251.102 54.5856 251.346 53.9532 251.346ZM53.9532 250.741C54.2498 250.741 54.4988 250.657 54.7003 250.489C54.9073 250.316 55.0612 250.061 55.162 249.726C55.2683 249.39 55.3214 248.979 55.3214 248.492C55.3214 248.005 55.2683 247.594 55.162 247.258C55.0612 246.922 54.9073 246.67 54.7003 246.502C54.4988 246.329 54.2498 246.242 53.9532 246.242C53.6567 246.242 53.4049 246.329 53.1978 246.502C52.9964 246.67 52.8425 246.922 52.7361 247.258C52.6354 247.594 52.5851 248.005 52.5851 248.492C52.5851 248.979 52.6354 249.39 52.7361 249.726C52.8425 250.061 52.9964 250.316 53.1978 250.489C53.4049 250.657 53.6567 250.741 53.9532 250.741ZM59.1748 251.346C58.548 251.346 58.0472 251.102 57.6723 250.615C57.2974 250.129 57.1099 249.421 57.1099 248.492C57.1099 247.563 57.2974 246.855 57.6723 246.368C58.0472 245.881 58.548 245.638 59.1748 245.638C59.8071 245.638 60.3079 245.881 60.6773 246.368C61.0522 246.855 61.2397 247.563 61.2397 248.492C61.2397 249.421 61.0522 250.129 60.6773 250.615C60.3079 251.102 59.8071 251.346 59.1748 251.346ZM59.1748 250.741C59.4714 250.741 59.7204 250.657 59.9218 250.489C60.1289 250.316 60.2828 250.061 60.3835 249.726C60.4898 249.39 60.543 248.979 60.543 248.492C60.543 248.005 60.4898 247.594 60.3835 247.258C60.2828 246.922 60.1289 246.67 59.9218 246.502C59.7204 246.329 59.4714 246.242 59.1748 246.242C58.8782 246.242 58.6264 246.329 58.4193 246.502C58.2179 246.67 58.064 246.922 57.9577 247.258C57.857 247.594 57.8066 248.005 57.8066 248.492C57.8066 248.979 57.857 249.39 57.9577 249.726C58.064 250.061 58.2179 250.316 58.4193 250.489C58.6264 250.657 58.8782 250.741 59.1748 250.741ZM64.3963 251.346C63.7696 251.346 63.2688 251.102 62.8938 250.615C62.5189 250.129 62.3314 249.421 62.3314 248.492C62.3314 247.563 62.5189 246.855 62.8938 246.368C63.2688 245.881 63.7696 245.638 64.3963 245.638C65.0287 245.638 65.5295 245.881 65.8988 246.368C66.2737 246.855 66.4612 247.563 66.4612 248.492C66.4612 249.421 66.2737 250.129 65.8988 250.615C65.5295 251.102 65.0287 251.346 64.3963 251.346ZM64.3963 250.741C64.6929 250.741 64.9419 250.657 65.1434 250.489C65.3504 250.316 65.5043 250.061 65.605 249.726C65.7113 249.39 65.7645 248.979 65.7645 248.492C65.7645 248.005 65.7113 247.594 65.605 247.258C65.5043 246.922 65.3504 246.67 65.1434 246.502C64.9419 246.329 64.6929 246.242 64.3963 246.242C64.0997 246.242 63.8479 246.329 63.6409 246.502C63.4394 246.67 63.2855 246.922 63.1792 247.258C63.0785 247.594 63.0281 248.005 63.0281 248.492C63.0281 248.979 63.0785 249.39 63.1792 249.726C63.2855 250.061 63.4394 250.316 63.6409 250.489C63.8479 250.657 64.0997 250.741 64.3963 250.741ZM67.9188 250.254C68.0811 250.254 68.2126 250.305 68.3133 250.406C68.4141 250.506 68.4644 250.638 68.4644 250.8C68.4644 250.962 68.4141 251.094 68.3133 251.195C68.2126 251.295 68.0811 251.346 67.9188 251.346C67.7565 251.346 67.625 251.295 67.5243 251.195C67.4236 251.094 67.3732 250.962 67.3732 250.8C67.3732 250.638 67.4236 250.506 67.5243 250.406C67.625 250.305 67.7565 250.254 67.9188 250.254ZM71.4376 251.346C70.8109 251.346 70.31 251.102 69.9351 250.615C69.5602 250.129 69.3727 249.421 69.3727 248.492C69.3727 247.563 69.5602 246.855 69.9351 246.368C70.31 245.881 70.8109 245.638 71.4376 245.638C72.0699 245.638 72.5708 245.881 72.9401 246.368C73.315 246.855 73.5025 247.563 73.5025 248.492C73.5025 249.421 73.315 250.129 72.9401 250.615C72.5708 251.102 72.0699 251.346 71.4376 251.346ZM71.4376 250.741C71.7342 250.741 71.9832 250.657 72.1847 250.489C72.3917 250.316 72.5456 250.061 72.6463 249.726C72.7526 249.39 72.8058 248.979 72.8058 248.492C72.8058 248.005 72.7526 247.594 72.6463 247.258C72.5456 246.922 72.3917 246.67 72.1847 246.502C71.9832 246.329 71.7342 246.242 71.4376 246.242C71.141 246.242 70.8892 246.329 70.6822 246.502C70.4807 246.67 70.3268 246.922 70.2205 247.258C70.1198 247.594 70.0694 248.005 70.0694 248.492C70.0694 248.979 70.1198 249.39 70.2205 249.726C70.3268 250.061 70.4807 250.316 70.6822 250.489C70.8892 250.657 71.141 250.741 71.4376 250.741ZM76.6591 251.346C76.0324 251.346 75.5316 251.102 75.1566 250.615C74.7817 250.129 74.5943 249.421 74.5943 248.492C74.5943 247.563 74.7817 246.855 75.1566 246.368C75.5316 245.881 76.0324 245.638 76.6591 245.638C77.2915 245.638 77.7923 245.881 78.1616 246.368C78.5366 246.855 78.724 247.563 78.724 248.492C78.724 249.421 78.5366 250.129 78.1616 250.615C77.7923 251.102 77.2915 251.346 76.6591 251.346ZM76.6591 250.741C76.9557 250.741 77.2047 250.657 77.4062 250.489C77.6132 250.316 77.7671 250.061 77.8678 249.726C77.9742 249.39 78.0273 248.979 78.0273 248.492C78.0273 248.005 77.9742 247.594 77.8678 247.258C77.7671 246.922 77.6132 246.67 77.4062 246.502C77.2047 246.329 76.9557 246.242 76.6591 246.242C76.3626 246.242 76.1107 246.329 75.9037 246.502C75.7022 246.67 75.5484 246.922 75.442 247.258C75.3413 247.594 75.291 248.005 75.291 248.492C75.291 248.979 75.3413 249.39 75.442 249.726C75.5484 250.061 75.7022 250.316 75.9037 250.489C76.1107 250.657 76.3626 250.741 76.6591 250.741Z" fill="white"/>
<path opacity="0.7" d="M86.1514 246.145V250.762H85.4589L83.5283 247.67L83.0386 246.803H83.0317L83.0596 247.502V250.762H82.528V246.145H83.2205L85.1441 249.223L85.6407 250.111H85.6477L85.6197 249.405V246.145H86.1514ZM89.1757 250.832C88.7374 250.832 88.3573 250.736 88.0356 250.545C87.7185 250.349 87.4713 250.074 87.2941 249.719C87.1216 249.365 87.0353 248.943 87.0353 248.453C87.0353 247.964 87.1263 247.542 87.3081 247.187C87.4946 246.833 87.7535 246.56 88.0845 246.369C88.4156 246.173 88.7957 246.075 89.2247 246.075C89.6817 246.075 90.0524 246.161 90.3369 246.334C90.626 246.507 90.8592 246.772 91.0364 247.131L90.5257 247.411C90.4232 247.145 90.2599 246.945 90.0361 246.81C89.8169 246.67 89.5465 246.6 89.2247 246.6C88.9123 246.6 88.6348 246.674 88.3923 246.824C88.1545 246.968 87.9656 247.18 87.8257 247.46C87.6905 247.735 87.6229 248.066 87.6229 248.453C87.6229 248.84 87.6812 249.174 87.7978 249.454C87.919 249.729 88.0962 249.941 88.3294 250.09C88.5672 250.235 88.8563 250.307 89.1967 250.307C89.3879 250.307 89.5651 250.284 89.7283 250.237C89.8962 250.186 90.0408 250.111 90.162 250.013C90.2879 249.915 90.3858 249.792 90.4558 249.643C90.5257 249.493 90.5607 249.318 90.5607 249.118V248.957H89.0918V248.432H91.0713V250.762H90.6307L90.6027 249.901L90.7216 249.922C90.6004 250.211 90.4092 250.435 90.148 250.594C89.8869 250.752 89.5628 250.832 89.1757 250.832ZM95.6504 246.145V250.762H94.9579L93.0273 247.67L92.5377 246.803H92.5307L92.5587 247.502V250.762H92.0271V246.145H92.7196L94.6431 249.223L95.1398 250.111H95.1468L95.1188 249.405V246.145H95.6504Z" fill="white"/>
<path d="M131.31 206.803H122.601C121.299 206.803 120.243 207.859 120.243 209.162V216.419C120.243 217.721 121.299 218.777 122.601 218.777H131.31C132.612 218.777 133.668 217.721 133.668 216.419V209.162C133.668 207.859 132.612 206.803 131.31 206.803Z" fill="white"/>
<path d="M123.145 205.352V207.892" stroke="white" stroke-width="1.08857" stroke-linecap="round"/>
<path d="M131.128 205.352V207.892" stroke="white" stroke-width="1.08857" stroke-linecap="round"/>
<path d="M127.129 210.941C127.461 210.941 127.747 210.992 127.99 211.094C128.237 211.192 128.426 211.335 128.556 211.521C128.692 211.703 128.759 211.925 128.759 212.186C128.759 212.428 128.699 212.638 128.577 212.815C128.461 212.992 128.291 213.128 128.067 213.221V213.228C128.337 213.326 128.549 213.468 128.703 213.655C128.857 213.841 128.934 214.077 128.934 214.361C128.934 214.632 128.86 214.865 128.71 215.061C128.566 215.256 128.358 215.41 128.088 215.522C127.822 215.629 127.503 215.683 127.129 215.683C126.761 215.683 126.442 215.629 126.171 215.522C125.905 215.41 125.698 215.256 125.549 215.061C125.404 214.865 125.332 214.632 125.332 214.361C125.332 214.081 125.409 213.848 125.563 213.662C125.717 213.47 125.931 213.326 126.206 213.228V213.221C125.982 213.132 125.81 212.999 125.689 212.822C125.567 212.64 125.507 212.428 125.507 212.186C125.507 211.925 125.572 211.703 125.703 211.521C125.838 211.335 126.029 211.192 126.276 211.094C126.523 210.992 126.808 210.941 127.129 210.941ZM127.136 211.682C126.917 211.682 126.742 211.736 126.612 211.843C126.481 211.95 126.416 212.099 126.416 212.291C126.416 212.482 126.481 212.631 126.612 212.738C126.742 212.846 126.917 212.899 127.136 212.899C127.351 212.899 127.521 212.846 127.647 212.738C127.778 212.631 127.843 212.482 127.843 212.291C127.843 212.099 127.78 211.95 127.654 211.843C127.528 211.736 127.356 211.682 127.136 211.682ZM127.136 214.935C127.314 214.935 127.465 214.909 127.591 214.858C127.717 214.806 127.813 214.729 127.878 214.627C127.948 214.524 127.983 214.403 127.983 214.263C127.983 214.123 127.948 214.002 127.878 213.899C127.813 213.797 127.715 213.72 127.584 213.669C127.458 213.613 127.309 213.585 127.136 213.585C126.964 213.585 126.812 213.613 126.682 213.669C126.551 213.72 126.451 213.797 126.381 213.899C126.311 214.002 126.276 214.123 126.276 214.263C126.276 214.403 126.311 214.524 126.381 214.627C126.451 214.729 126.549 214.806 126.675 214.858C126.805 214.909 126.959 214.935 127.136 214.935Z" fill="black"/>
<path d="M62.1985 214.603H64.7344V215.244H61.453V210.646H62.1985V214.603ZM66.9493 211.691C67.2884 211.691 67.5879 211.763 67.848 211.907C68.1081 212.051 68.3102 212.26 68.4541 212.534C68.6028 212.803 68.6771 213.126 68.6771 213.502C68.6771 213.879 68.6028 214.204 68.4541 214.478C68.3102 214.747 68.1081 214.954 67.848 215.098C67.5879 215.242 67.2884 215.314 66.9493 215.314C66.6102 215.314 66.3107 215.242 66.0506 215.098C65.7905 214.954 65.5861 214.747 65.4375 214.478C65.2889 214.204 65.2145 213.879 65.2145 213.502C65.2145 213.126 65.2889 212.803 65.4375 212.534C65.5861 212.26 65.7905 212.051 66.0506 211.907C66.3107 211.763 66.6102 211.691 66.9493 211.691ZM66.9493 212.276C66.7403 212.276 66.5615 212.325 66.4128 212.422C66.2689 212.515 66.1574 212.652 66.0784 212.833C65.9995 213.015 65.96 213.238 65.96 213.502C65.96 213.762 65.9995 213.985 66.0784 214.171C66.1574 214.352 66.2689 214.492 66.4128 214.589C66.5615 214.682 66.7403 214.728 66.9493 214.728C67.1583 214.728 67.3348 214.682 67.4788 214.589C67.6228 214.492 67.7342 214.352 67.8132 214.171C67.8921 213.985 67.9316 213.762 67.9316 213.502C67.9316 213.238 67.8921 213.015 67.8132 212.833C67.7342 212.652 67.6228 212.515 67.4788 212.422C67.3348 212.325 67.1583 212.276 66.9493 212.276ZM71.6215 213.008C71.6215 212.775 71.5565 212.597 71.4264 212.471C71.301 212.341 71.1269 212.276 70.9039 212.276C70.6949 212.276 70.5161 212.325 70.3675 212.422C70.2188 212.52 70.1097 212.678 70.04 212.896L69.413 212.631C69.5013 212.348 69.6731 212.121 69.9286 211.949C70.1886 211.777 70.5231 211.691 70.9318 211.691C71.2105 211.691 71.4566 211.737 71.6703 211.83C71.8839 211.919 72.0511 212.053 72.1719 212.234C72.2973 212.415 72.36 212.648 72.36 212.931V214.485C72.36 214.656 72.4459 214.742 72.6178 214.742C72.7014 214.742 72.7826 214.731 72.8616 214.708L72.8198 215.223C72.713 215.274 72.5783 215.3 72.4157 215.3C72.2671 215.3 72.1324 215.274 72.0116 215.223C71.8955 215.167 71.8026 215.086 71.733 214.979C71.6679 214.868 71.6354 214.731 71.6354 214.568V214.519L71.7887 214.512C71.7469 214.694 71.661 214.845 71.5309 214.965C71.4009 215.081 71.2499 215.17 71.0781 215.23C70.9062 215.286 70.7321 215.314 70.5556 215.314C70.3373 215.314 70.1399 215.279 69.9634 215.209C69.7915 215.14 69.6545 215.035 69.5523 214.896C69.4548 214.752 69.406 214.575 69.406 214.366C69.406 214.106 69.4896 213.892 69.6568 213.725C69.8287 213.558 70.0702 213.444 70.3814 213.384L71.733 213.119L71.726 213.642L70.7437 213.844C70.5486 213.881 70.4023 213.934 70.3048 214.004C70.2072 214.074 70.1585 214.176 70.1585 214.31C70.1585 214.441 70.2072 214.545 70.3048 214.624C70.4069 214.698 70.5416 214.735 70.7088 214.735C70.825 214.735 70.9364 214.722 71.0433 214.694C71.1547 214.666 71.2546 214.622 71.3428 214.561C71.4311 214.496 71.4984 214.415 71.5449 214.317C71.596 214.215 71.6215 214.094 71.6215 213.955V213.008ZM73.5814 215.244V211.761H74.2432L74.292 212.666L74.1944 212.569C74.2595 212.369 74.3524 212.204 74.4731 212.074C74.5985 211.939 74.7448 211.842 74.912 211.781C75.0839 211.721 75.265 211.691 75.4554 211.691C75.7016 211.691 75.9222 211.74 76.1173 211.837C76.317 211.93 76.4749 212.072 76.591 212.262C76.7072 212.453 76.7652 212.694 76.7652 212.987V215.244H76.0198V213.217C76.0198 212.873 75.9478 212.636 75.8038 212.506C75.6645 212.371 75.488 212.304 75.2743 212.304C75.121 212.304 74.9724 212.341 74.8284 212.415C74.6844 212.485 74.5637 212.599 74.4662 212.757C74.3733 212.915 74.3268 213.126 74.3268 213.391V215.244H73.5814ZM80.8876 215.244V212.088C80.8876 211.995 80.8876 211.9 80.8876 211.802C80.8922 211.7 80.8969 211.593 80.9015 211.482C80.7436 211.635 80.5625 211.768 80.3581 211.879C80.1584 211.986 79.9517 212.062 79.738 212.109L79.5987 211.461C79.6962 211.447 79.81 211.415 79.9401 211.363C80.0701 211.312 80.2048 211.247 80.3442 211.168C80.4835 211.089 80.6112 211.006 80.7273 210.918C80.8435 210.825 80.934 210.734 80.9991 210.646H81.6261V215.244H80.8876Z" fill="white"/>
<circle cx="47.629" cy="212.276" r="6.59811" fill="#D9D9D9"/>
<path d="M44.6768 239.92C43.7557 239.92 43.0319 239.587 42.5055 238.921C41.9869 238.248 41.7275 237.265 41.7275 235.972C41.7275 234.679 41.9869 233.7 42.5055 233.034C43.0319 232.361 43.7557 232.024 44.6768 232.024C45.6058 232.024 46.3295 232.361 46.8482 233.034C47.3746 233.7 47.6378 234.679 47.6378 235.972C47.6378 237.265 47.3746 238.248 46.8482 238.921C46.3295 239.587 45.6058 239.92 44.6768 239.92ZM44.6768 238.863C45.0484 238.863 45.358 238.759 45.6058 238.55C45.8612 238.333 46.0509 238.012 46.1747 237.586C46.3063 237.152 46.3721 236.614 46.3721 235.972C46.3721 235.329 46.3063 234.795 46.1747 234.37C46.0509 233.936 45.8612 233.615 45.6058 233.406C45.358 233.189 45.0484 233.081 44.6768 233.081C44.3053 233.081 43.9918 233.189 43.7363 233.406C43.4886 233.615 43.3028 233.936 43.179 234.37C43.0551 234.795 42.9932 235.329 42.9932 235.972C42.9932 236.614 43.0551 237.152 43.179 237.586C43.3028 238.012 43.4886 238.333 43.7363 238.55C43.9918 238.759 44.3053 238.863 44.6768 238.863ZM49.6747 238.236C49.9378 238.236 50.1469 238.314 50.3017 238.468C50.4642 238.615 50.5455 238.817 50.5455 239.072C50.5455 239.328 50.4642 239.533 50.3017 239.688C50.1469 239.842 49.9378 239.92 49.6747 239.92C49.4037 239.92 49.187 239.842 49.0244 239.688C48.8696 239.533 48.7922 239.328 48.7922 239.072C48.7922 238.817 48.8696 238.615 49.0244 238.468C49.187 238.314 49.4037 238.236 49.6747 238.236ZM52.3007 239.804V234.544C52.3007 234.389 52.3007 234.23 52.3007 234.068C52.3084 233.897 52.3161 233.719 52.3239 233.534C52.0607 233.789 51.7588 234.01 51.4182 234.195C51.0853 234.373 50.7408 234.501 50.3848 234.579L50.1525 233.499C50.3151 233.475 50.5048 233.421 50.7215 233.336C50.9382 233.251 51.1627 233.143 51.395 233.011C51.6272 232.879 51.8401 232.74 52.0336 232.593C52.2271 232.438 52.3781 232.287 52.4864 232.14H53.5315V239.804H52.3007ZM55.4281 239.804V238.898C56.1635 238.372 56.7789 237.907 57.2743 237.505C57.7775 237.102 58.18 236.731 58.4819 236.39C58.7838 236.049 59.0006 235.728 59.1322 235.426C59.2715 235.117 59.3412 234.803 59.3412 234.486C59.3412 234.075 59.2134 233.743 58.958 233.487C58.7025 233.232 58.3465 233.104 57.8897 233.104C57.4098 233.104 57.0266 233.266 56.7402 233.592C56.4615 233.909 56.3028 234.346 56.2641 234.904L55.1843 234.404C55.2385 233.917 55.3817 233.495 55.6139 233.139C55.8461 232.783 56.1596 232.508 56.5544 232.314C56.957 232.121 57.4214 232.024 57.9478 232.024C58.3813 232.024 58.7606 232.086 59.0857 232.21C59.4186 232.334 59.6973 232.508 59.9217 232.732C60.1462 232.949 60.3165 233.205 60.4326 233.499C60.5565 233.793 60.6184 234.106 60.6184 234.439C60.6184 234.927 60.4984 235.399 60.2585 235.856C60.0185 236.305 59.6392 236.765 59.1206 237.238C58.6019 237.71 57.9207 238.217 57.0769 238.759V238.782C57.1698 238.766 57.2976 238.759 57.4601 238.759C57.6227 238.751 57.7852 238.747 57.9478 238.747C58.1104 238.739 58.242 238.735 58.3426 238.735H60.7578V239.804H55.4281ZM64.7627 239.92C64.0815 239.92 63.5203 239.773 63.079 239.479C62.6456 239.184 62.3011 238.759 62.0456 238.201L63.2068 237.598C63.3229 237.969 63.4971 238.275 63.7293 238.515C63.9693 238.747 64.3215 238.863 64.7859 238.863C65.111 238.863 65.3859 238.805 65.6103 238.689C65.8426 238.565 66.0206 238.395 66.1445 238.178C66.2683 237.954 66.3302 237.687 66.3302 237.377C66.3302 237.052 66.2722 236.781 66.1561 236.564C66.04 236.347 65.8735 236.185 65.6568 236.076C65.44 235.96 65.1691 235.902 64.844 235.902C64.6195 235.902 64.4105 235.925 64.217 235.972C64.0234 236.018 63.8493 236.092 63.6945 236.193C63.5396 236.285 63.4042 236.409 63.2881 236.564L62.2662 236.367L62.7307 232.14H67.1895V233.208H63.7177L63.439 235.368L63.4158 235.496H63.439C63.617 235.302 63.8454 235.151 64.1241 235.043C64.4105 234.935 64.7472 234.88 65.1343 234.88C65.6297 234.88 66.0554 234.985 66.4115 235.194C66.7676 235.395 67.0463 235.678 67.2476 236.042C67.4488 236.405 67.5494 236.827 67.5494 237.307C67.5494 237.725 67.4798 238.097 67.3404 238.422C67.2011 238.747 67.0037 239.022 66.7483 239.246C66.4928 239.471 66.1948 239.641 65.8542 239.757C65.5213 239.866 65.1575 239.92 64.7627 239.92ZM72.4382 239.804V237.888H68.6993V237.04C68.7148 237.001 68.738 236.955 68.769 236.901C68.8077 236.847 68.8503 236.785 68.8967 236.715L72.0899 232.14H73.611V236.924H74.9115V237.888H73.611V239.804H72.4382ZM69.8605 236.924H72.4382V234.219C72.4382 234.033 72.4421 233.843 72.4498 233.65C72.4653 233.448 72.4769 233.251 72.4847 233.057H72.4614C72.3763 233.243 72.2641 233.448 72.1247 233.673C71.9931 233.89 71.8693 234.079 71.7531 234.242L69.9418 236.82C69.9263 236.835 69.9108 236.851 69.8953 236.866C69.8876 236.882 69.876 236.901 69.8605 236.924ZM78.744 239.92C78.0628 239.92 77.5016 239.773 77.0604 239.479C76.6269 239.184 76.2824 238.759 76.027 238.201L77.1881 237.598C77.3042 237.969 77.4784 238.275 77.7106 238.515C77.9506 238.747 78.3028 238.863 78.7673 238.863C79.0924 238.863 79.3672 238.805 79.5917 238.689C79.8239 238.565 80.0019 238.395 80.1258 238.178C80.2497 237.954 80.3116 237.687 80.3116 237.377C80.3116 237.052 80.2535 236.781 80.1374 236.564C80.0213 236.347 79.8549 236.185 79.6381 236.076C79.4214 235.96 79.1504 235.902 78.8253 235.902C78.6008 235.902 78.3918 235.925 78.1983 235.972C78.0048 236.018 77.8306 236.092 77.6758 236.193C77.521 236.285 77.3855 236.409 77.2694 236.564L76.2476 236.367L76.712 232.14H81.1708V233.208H77.699L77.4203 235.368L77.3971 235.496H77.4203C77.5984 235.302 77.8267 235.151 78.1054 235.043C78.3918 234.935 78.7286 234.88 79.1156 234.88C79.611 234.88 80.0368 234.985 80.3929 235.194C80.749 235.395 81.0276 235.678 81.2289 236.042C81.4302 236.405 81.5308 236.827 81.5308 237.307C81.5308 237.725 81.4611 238.097 81.3218 238.422C81.1824 238.747 80.985 239.022 80.7296 239.246C80.4741 239.471 80.1761 239.641 79.8355 239.757C79.5027 239.866 79.1388 239.92 78.744 239.92ZM86.4196 239.804V237.888H82.6807V237.04C82.6962 237.001 82.7194 236.955 82.7503 236.901C82.7891 236.847 82.8316 236.785 82.8781 236.715L86.0712 232.14H87.5923V236.924H88.8928V237.888H87.5923V239.804H86.4196ZM83.8418 236.924H86.4196V234.219C86.4196 234.033 86.4234 233.843 86.4312 233.65C86.4467 233.448 86.4583 233.251 86.466 233.057H86.4428C86.3576 233.243 86.2454 233.448 86.1061 233.673C85.9745 233.89 85.8506 234.079 85.7345 234.242L83.9231 236.82C83.9076 236.835 83.8921 236.851 83.8767 236.866C83.8689 236.882 83.8573 236.901 83.8418 236.924Z" fill="white"/>
<rect x="168.414" y="192.625" width="115.514" height="93.4526" rx="3.18343" fill="#2E2E2E" stroke="#616161" stroke-width="0.6"/>
<rect x="179.363" y="263.373" width="54.6188" height="15.7713" rx="2.39785" fill="#2E2E2E"/>
<rect x="179.363" y="263.373" width="54.6188" height="15.7713" rx="2.39785" stroke="#474646" stroke-width="0.435973"/>
<path d="M193.06 273.258H192.31L191.284 271.647H190.418V273.258H189.771V269.23H191.413C192.273 269.23 192.822 269.694 192.822 270.426C192.822 271.012 192.493 271.397 191.95 271.543L193.06 273.258ZM190.418 269.785V271.104H191.364C191.889 271.104 192.145 270.89 192.145 270.445C192.145 269.999 191.889 269.785 191.364 269.785H190.418ZM196.4 271.549C196.4 271.702 196.388 271.836 196.376 271.928H194.142C194.197 272.495 194.527 272.801 195.027 272.801C195.436 272.801 195.674 272.636 195.821 272.361L196.339 272.605C196.126 273.051 195.644 273.319 195.039 273.319C194.124 273.319 193.501 272.727 193.501 271.732C193.501 270.738 194.124 270.145 195.003 270.145C195.888 270.145 196.4 270.75 196.4 271.549ZM194.99 270.664C194.539 270.664 194.24 270.933 194.154 271.427H195.76C195.729 270.939 195.442 270.664 194.99 270.664ZM198.879 270.145C199.624 270.145 200.216 270.731 200.216 271.726C200.216 272.727 199.612 273.319 198.861 273.319C198.409 273.319 198.061 273.087 197.878 272.758V274.54H197.225V270.206H197.805L197.836 270.774C198.019 270.402 198.397 270.145 198.879 270.145ZM198.721 272.788C199.245 272.788 199.563 272.398 199.563 271.732C199.563 271.067 199.258 270.67 198.733 270.67C198.22 270.67 197.878 271.079 197.878 271.732C197.878 272.379 198.208 272.788 198.721 272.788ZM203.683 272.819C203.75 272.819 203.835 272.807 203.896 272.788L203.86 273.24C203.774 273.277 203.652 273.307 203.506 273.307C203.182 273.301 202.92 273.161 202.846 272.868C202.645 273.173 202.242 273.319 201.876 273.319C201.296 273.319 200.869 273.039 200.869 272.489C200.869 272.038 201.18 271.738 201.723 271.629L202.81 271.415V271.299C202.81 270.896 202.572 270.658 202.181 270.658C201.821 270.658 201.54 270.817 201.424 271.201L200.875 270.969C201.028 270.475 201.485 270.145 202.206 270.145C202.932 270.145 203.457 270.499 203.457 271.232V272.593C203.457 272.746 203.536 272.819 203.683 272.819ZM202.01 272.813C202.425 272.813 202.81 272.617 202.81 272.129V271.873L202.041 272.031C201.693 272.099 201.528 272.202 201.528 272.44C201.528 272.666 201.717 272.813 202.01 272.813ZM207.022 270.206L205.685 273.618C205.416 274.326 205.105 274.571 204.568 274.571C204.269 274.571 204.019 274.491 203.835 274.357L203.994 273.85C204.147 273.985 204.324 274.046 204.525 274.046C204.745 274.046 204.922 273.96 205.056 273.606L205.19 273.277L204.867 272.52L203.915 270.206H204.647L205.325 272.123L205.502 272.697L205.703 272.068L206.344 270.206H207.022ZM210.159 272.697H212.381V273.258H209.506V269.23H210.159V272.697ZM214.321 270.145C215.212 270.145 215.835 270.738 215.835 271.732C215.835 272.727 215.212 273.319 214.321 273.319C213.43 273.319 212.802 272.727 212.802 271.732C212.802 270.738 213.43 270.145 214.321 270.145ZM214.321 270.658C213.778 270.658 213.455 271.043 213.455 271.732C213.455 272.422 213.778 272.807 214.321 272.807C214.858 272.807 215.182 272.422 215.182 271.732C215.182 271.043 214.858 270.658 214.321 270.658ZM219.287 272.819C219.355 272.819 219.44 272.807 219.501 272.788L219.464 273.24C219.379 273.277 219.257 273.307 219.11 273.307C218.787 273.301 218.524 273.161 218.451 272.868C218.25 273.173 217.847 273.319 217.481 273.319C216.901 273.319 216.474 273.039 216.474 272.489C216.474 272.038 216.785 271.738 217.328 271.629L218.415 271.415V271.299C218.415 270.896 218.177 270.658 217.786 270.658C217.426 270.658 217.145 270.817 217.029 271.201L216.48 270.969C216.632 270.475 217.09 270.145 217.81 270.145C218.537 270.145 219.062 270.499 219.062 271.232V272.593C219.062 272.746 219.141 272.819 219.287 272.819ZM217.615 272.813C218.03 272.813 218.415 272.617 218.415 272.129V271.873L217.646 272.031C217.298 272.099 217.133 272.202 217.133 272.44C217.133 272.666 217.322 272.813 217.615 272.813ZM221.774 270.145C222.42 270.145 222.921 270.518 222.921 271.281V273.258H222.268V271.482C222.268 270.884 221.987 270.683 221.615 270.683C221.212 270.683 220.785 270.939 220.785 271.635V273.258H220.132V270.206H220.711L220.742 270.731C220.943 270.329 221.328 270.145 221.774 270.145Z" fill="white"/>
<path opacity="0.7" d="M180.891 251.262V247.199C180.891 247.104 180.891 247.003 180.891 246.897C180.897 246.785 180.902 246.67 180.908 246.553C180.718 246.737 180.497 246.9 180.245 247.04C179.993 247.174 179.735 247.272 179.472 247.333L179.296 246.721C179.397 246.709 179.523 246.673 179.674 246.612C179.831 246.544 179.993 246.463 180.161 246.368C180.334 246.267 180.494 246.161 180.639 246.049C180.785 245.937 180.897 245.828 180.975 245.722H181.563V251.262H180.891ZM185.026 251.346C184.399 251.346 183.899 251.102 183.524 250.615C183.149 250.129 182.961 249.421 182.961 248.492C182.961 247.563 183.149 246.855 183.524 246.368C183.899 245.881 184.399 245.638 185.026 245.638C185.659 245.638 186.159 245.881 186.529 246.368C186.904 246.855 187.091 247.563 187.091 248.492C187.091 249.421 186.904 250.129 186.529 250.615C186.159 251.102 185.659 251.346 185.026 251.346ZM185.026 250.741C185.323 250.741 185.572 250.657 185.773 250.489C185.98 250.316 186.134 250.061 186.235 249.726C186.341 249.39 186.394 248.979 186.394 248.492C186.394 248.005 186.341 247.594 186.235 247.258C186.134 246.922 185.98 246.67 185.773 246.502C185.572 246.329 185.323 246.242 185.026 246.242C184.73 246.242 184.478 246.329 184.271 246.502C184.069 246.67 183.915 246.922 183.809 247.258C183.708 247.594 183.658 248.005 183.658 248.492C183.658 248.979 183.708 249.39 183.809 249.726C183.915 250.061 184.069 250.316 184.271 250.489C184.478 250.657 184.73 250.741 185.026 250.741ZM188.549 250.254C188.683 250.254 188.795 250.291 188.884 250.364C188.98 250.431 189.052 250.526 189.103 250.649C189.153 250.766 189.178 250.906 189.178 251.069C189.178 251.253 189.145 251.435 189.078 251.614C189.016 251.793 188.918 251.958 188.784 252.109C188.649 252.261 188.476 252.386 188.263 252.487L187.911 252.16C188.062 252.109 188.193 252.04 188.305 251.95C188.423 251.86 188.518 251.76 188.591 251.648C188.663 251.536 188.711 251.421 188.733 251.304L188.7 251.287C188.677 251.304 188.649 251.318 188.616 251.329C188.582 251.34 188.532 251.346 188.465 251.346C188.398 251.346 188.328 251.326 188.255 251.287C188.188 251.248 188.129 251.192 188.079 251.119C188.028 251.041 188.003 250.94 188.003 250.817C188.003 250.716 188.028 250.624 188.079 250.54C188.129 250.45 188.193 250.38 188.272 250.33C188.356 250.28 188.448 250.254 188.549 250.254ZM192.068 251.346C191.441 251.346 190.94 251.102 190.565 250.615C190.19 250.129 190.003 249.421 190.003 248.492C190.003 247.563 190.19 246.855 190.565 246.368C190.94 245.881 191.441 245.638 192.068 245.638C192.7 245.638 193.201 245.881 193.57 246.368C193.945 246.855 194.132 247.563 194.132 248.492C194.132 249.421 193.945 250.129 193.57 250.615C193.201 251.102 192.7 251.346 192.068 251.346ZM192.068 250.741C192.364 250.741 192.613 250.657 192.815 250.489C193.022 250.316 193.175 250.061 193.276 249.726C193.383 249.39 193.436 248.979 193.436 248.492C193.436 248.005 193.383 247.594 193.276 247.258C193.175 246.922 193.022 246.67 192.815 246.502C192.613 246.329 192.364 246.242 192.068 246.242C191.771 246.242 191.519 246.329 191.312 246.502C191.111 246.67 190.957 246.922 190.85 247.258C190.75 247.594 190.699 248.005 190.699 248.492C190.699 248.979 190.75 249.39 190.85 249.726C190.957 250.061 191.111 250.316 191.312 250.489C191.519 250.657 191.771 250.741 192.068 250.741ZM197.289 251.346C196.662 251.346 196.161 251.102 195.787 250.615C195.412 250.129 195.224 249.421 195.224 248.492C195.224 247.563 195.412 246.855 195.787 246.368C196.161 245.881 196.662 245.638 197.289 245.638C197.921 245.638 198.422 245.881 198.792 246.368C199.166 246.855 199.354 247.563 199.354 248.492C199.354 249.421 199.166 250.129 198.792 250.615C198.422 251.102 197.921 251.346 197.289 251.346ZM197.289 250.741C197.586 250.741 197.835 250.657 198.036 250.489C198.243 250.316 198.397 250.061 198.498 249.726C198.604 249.39 198.657 248.979 198.657 248.492C198.657 248.005 198.604 247.594 198.498 247.258C198.397 246.922 198.243 246.67 198.036 246.502C197.835 246.329 197.586 246.242 197.289 246.242C196.992 246.242 196.741 246.329 196.534 246.502C196.332 246.67 196.178 246.922 196.072 247.258C195.971 247.594 195.921 248.005 195.921 248.492C195.921 248.979 195.971 249.39 196.072 249.726C196.178 250.061 196.332 250.316 196.534 250.489C196.741 250.657 196.992 250.741 197.289 250.741ZM202.511 251.346C201.884 251.346 201.383 251.102 201.008 250.615C200.633 250.129 200.446 249.421 200.446 248.492C200.446 247.563 200.633 246.855 201.008 246.368C201.383 245.881 201.884 245.638 202.511 245.638C203.143 245.638 203.644 245.881 204.013 246.368C204.388 246.855 204.575 247.563 204.575 248.492C204.575 249.421 204.388 250.129 204.013 250.615C203.644 251.102 203.143 251.346 202.511 251.346ZM202.511 250.741C202.807 250.741 203.056 250.657 203.258 250.489C203.465 250.316 203.619 250.061 203.719 249.726C203.826 249.39 203.879 248.979 203.879 248.492C203.879 248.005 203.826 247.594 203.719 247.258C203.619 246.922 203.465 246.67 203.258 246.502C203.056 246.329 202.807 246.242 202.511 246.242C202.214 246.242 201.962 246.329 201.755 246.502C201.554 246.67 201.4 246.922 201.293 247.258C201.193 247.594 201.142 248.005 201.142 248.492C201.142 248.979 201.193 249.39 201.293 249.726C201.4 250.061 201.554 250.316 201.755 250.489C201.962 250.657 202.214 250.741 202.511 250.741ZM206.033 250.254C206.195 250.254 206.327 250.305 206.428 250.406C206.528 250.506 206.579 250.638 206.579 250.8C206.579 250.962 206.528 251.094 206.428 251.195C206.327 251.295 206.195 251.346 206.033 251.346C205.871 251.346 205.739 251.295 205.639 251.195C205.538 251.094 205.487 250.962 205.487 250.8C205.487 250.638 205.538 250.506 205.639 250.406C205.739 250.305 205.871 250.254 206.033 250.254ZM209.552 251.346C208.925 251.346 208.424 251.102 208.049 250.615C207.674 250.129 207.487 249.421 207.487 248.492C207.487 247.563 207.674 246.855 208.049 246.368C208.424 245.881 208.925 245.638 209.552 245.638C210.184 245.638 210.685 245.881 211.054 246.368C211.429 246.855 211.617 247.563 211.617 248.492C211.617 249.421 211.429 250.129 211.054 250.615C210.685 251.102 210.184 251.346 209.552 251.346ZM209.552 250.741C209.848 250.741 210.097 250.657 210.299 250.489C210.506 250.316 210.66 250.061 210.761 249.726C210.867 249.39 210.92 248.979 210.92 248.492C210.92 248.005 210.867 247.594 210.761 247.258C210.66 246.922 210.506 246.67 210.299 246.502C210.097 246.329 209.848 246.242 209.552 246.242C209.255 246.242 209.003 246.329 208.796 246.502C208.595 246.67 208.441 246.922 208.335 247.258C208.234 247.594 208.184 248.005 208.184 248.492C208.184 248.979 208.234 249.39 208.335 249.726C208.441 250.061 208.595 250.316 208.796 250.489C209.003 250.657 209.255 250.741 209.552 250.741ZM214.773 251.346C214.147 251.346 213.646 251.102 213.271 250.615C212.896 250.129 212.709 249.421 212.709 248.492C212.709 247.563 212.896 246.855 213.271 246.368C213.646 245.881 214.147 245.638 214.773 245.638C215.406 245.638 215.907 245.881 216.276 246.368C216.651 246.855 216.838 247.563 216.838 248.492C216.838 249.421 216.651 250.129 216.276 250.615C215.907 251.102 215.406 251.346 214.773 251.346ZM214.773 250.741C215.07 250.741 215.319 250.657 215.52 250.489C215.727 250.316 215.881 250.061 215.982 249.726C216.088 249.39 216.142 248.979 216.142 248.492C216.142 248.005 216.088 247.594 215.982 247.258C215.881 246.922 215.727 246.67 215.52 246.502C215.319 246.329 215.07 246.242 214.773 246.242C214.477 246.242 214.225 246.329 214.018 246.502C213.817 246.67 213.663 246.922 213.556 247.258C213.456 247.594 213.405 248.005 213.405 248.492C213.405 248.979 213.456 249.39 213.556 249.726C213.663 250.061 213.817 250.316 214.018 250.489C214.225 250.657 214.477 250.741 214.773 250.741Z" fill="white"/>
<path opacity="0.7" d="M224.266 246.145V250.762H223.573L221.643 247.67L221.153 246.803H221.146L221.174 247.502V250.762H220.642V246.145H221.335L223.258 249.223L223.755 250.111H223.762L223.734 249.405V246.145H224.266ZM227.29 250.832C226.852 250.832 226.472 250.736 226.15 250.545C225.833 250.349 225.586 250.074 225.408 249.719C225.236 249.365 225.15 248.943 225.15 248.453C225.15 247.964 225.241 247.542 225.422 247.187C225.609 246.833 225.868 246.56 226.199 246.369C226.53 246.173 226.91 246.075 227.339 246.075C227.796 246.075 228.167 246.161 228.451 246.334C228.74 246.507 228.973 246.772 229.151 247.131L228.64 247.411C228.537 247.145 228.374 246.945 228.15 246.81C227.931 246.67 227.661 246.6 227.339 246.6C227.027 246.6 226.749 246.674 226.507 246.824C226.269 246.968 226.08 247.18 225.94 247.46C225.805 247.735 225.737 248.066 225.737 248.453C225.737 248.84 225.795 249.174 225.912 249.454C226.033 249.729 226.21 249.941 226.444 250.09C226.681 250.235 226.971 250.307 227.311 250.307C227.502 250.307 227.679 250.284 227.843 250.237C228.01 250.186 228.155 250.111 228.276 250.013C228.402 249.915 228.5 249.792 228.57 249.643C228.64 249.493 228.675 249.318 228.675 249.118V248.957H227.206V248.432H229.186V250.762H228.745L228.717 249.901L228.836 249.922C228.715 250.211 228.523 250.435 228.262 250.594C228.001 250.752 227.677 250.832 227.29 250.832ZM233.765 246.145V250.762H233.072L231.142 247.67L230.652 246.803H230.645L230.673 247.502V250.762H230.141V246.145H230.834L232.757 249.223L233.254 250.111H233.261L233.233 249.405V246.145H233.765Z" fill="white"/>
<path d="M263.945 205.357H258.889C258.133 205.357 257.52 205.97 257.52 206.726V210.94C257.52 211.696 258.133 212.309 258.889 212.309H263.945C264.701 212.309 265.314 211.696 265.314 210.94V206.726C265.314 205.97 264.701 205.357 263.945 205.357Z" fill="white"/>
<path d="M259.205 204.515V205.989" stroke="white" stroke-width="0.631993" stroke-linecap="round"/>
<path d="M263.84 204.515V205.989" stroke="white" stroke-width="0.631993" stroke-linecap="round"/>
<path d="M260.324 210.569V208.872C260.324 208.809 260.324 208.746 260.324 208.681C260.327 208.613 260.33 208.544 260.333 208.474C260.24 208.558 260.138 208.631 260.024 208.693C259.91 208.755 259.794 208.799 259.675 208.823L259.602 208.352C259.664 208.346 259.733 208.329 259.809 208.299C259.887 208.267 259.966 208.229 260.044 208.185C260.125 208.139 260.199 208.092 260.264 208.043C260.331 207.992 260.383 207.94 260.418 207.889H260.873V210.569H260.324ZM261.478 210.569V210.192C261.721 210.026 261.927 209.877 262.095 209.745C262.266 209.609 262.402 209.485 262.505 209.371C262.611 209.255 262.687 209.145 262.733 209.042C262.781 208.939 262.806 208.837 262.806 208.734C262.806 208.609 262.768 208.508 262.692 208.429C262.616 208.348 262.509 208.307 262.371 208.307C262.22 208.307 262.1 208.359 262.014 208.462C261.93 208.564 261.884 208.711 261.876 208.9L261.393 208.717C261.406 208.533 261.455 208.378 261.539 208.25C261.625 208.12 261.742 208.022 261.888 207.954C262.037 207.884 262.207 207.848 262.4 207.848C262.565 207.848 262.707 207.871 262.826 207.917C262.948 207.963 263.048 208.027 263.127 208.108C263.208 208.187 263.269 208.277 263.309 208.38C263.35 208.483 263.37 208.59 263.37 208.701C263.37 208.874 263.327 209.038 263.24 209.193C263.156 209.347 263.026 209.5 262.85 209.651C262.674 209.803 262.451 209.963 262.18 210.131V210.135C262.221 210.132 262.27 210.129 262.327 210.127C262.386 210.124 262.447 210.123 262.509 210.123C262.572 210.12 262.626 210.118 262.672 210.118H263.411V210.569H261.478Z" fill="black"/>
<path d="M200.313 214.603H202.849V215.244H199.567V210.646H200.313V214.603ZM205.064 211.691C205.403 211.691 205.702 211.763 205.962 211.907C206.222 212.051 206.424 212.26 206.568 212.534C206.717 212.803 206.791 213.126 206.791 213.502C206.791 213.879 206.717 214.204 206.568 214.478C206.424 214.747 206.222 214.954 205.962 215.098C205.702 215.242 205.403 215.314 205.064 215.314C204.724 215.314 204.425 215.242 204.165 215.098C203.905 214.954 203.7 214.747 203.552 214.478C203.403 214.204 203.329 213.879 203.329 213.502C203.329 213.126 203.403 212.803 203.552 212.534C203.7 212.26 203.905 212.051 204.165 211.907C204.425 211.763 204.724 211.691 205.064 211.691ZM205.064 212.276C204.855 212.276 204.676 212.325 204.527 212.422C204.383 212.515 204.272 212.652 204.193 212.833C204.114 213.015 204.074 213.238 204.074 213.502C204.074 213.762 204.114 213.985 204.193 214.171C204.272 214.352 204.383 214.492 204.527 214.589C204.676 214.682 204.855 214.728 205.064 214.728C205.273 214.728 205.449 214.682 205.593 214.589C205.737 214.492 205.848 214.352 205.927 214.171C206.006 213.985 206.046 213.762 206.046 213.502C206.046 213.238 206.006 213.015 205.927 212.833C205.848 212.652 205.737 212.515 205.593 212.422C205.449 212.325 205.273 212.276 205.064 212.276ZM209.736 213.008C209.736 212.775 209.671 212.597 209.541 212.471C209.415 212.341 209.241 212.276 209.018 212.276C208.809 212.276 208.63 212.325 208.482 212.422C208.333 212.52 208.224 212.678 208.154 212.896L207.527 212.631C207.615 212.348 207.787 212.121 208.043 211.949C208.303 211.777 208.637 211.691 209.046 211.691C209.325 211.691 209.571 211.737 209.784 211.83C209.998 211.919 210.165 212.053 210.286 212.234C210.412 212.415 210.474 212.648 210.474 212.931V214.485C210.474 214.656 210.56 214.742 210.732 214.742C210.816 214.742 210.897 214.731 210.976 214.708L210.934 215.223C210.827 215.274 210.693 215.3 210.53 215.3C210.381 215.3 210.247 215.274 210.126 215.223C210.01 215.167 209.917 215.086 209.847 214.979C209.782 214.868 209.75 214.731 209.75 214.568V214.519L209.903 214.512C209.861 214.694 209.775 214.845 209.645 214.965C209.515 215.081 209.364 215.17 209.192 215.23C209.02 215.286 208.846 215.314 208.67 215.314C208.452 215.314 208.254 215.279 208.078 215.209C207.906 215.14 207.769 215.035 207.667 214.896C207.569 214.752 207.52 214.575 207.52 214.366C207.52 214.106 207.604 213.892 207.771 213.725C207.943 213.558 208.184 213.444 208.496 213.384L209.847 213.119L209.84 213.642L208.858 213.844C208.663 213.881 208.517 213.934 208.419 214.004C208.321 214.074 208.273 214.176 208.273 214.31C208.273 214.441 208.321 214.545 208.419 214.624C208.521 214.698 208.656 214.735 208.823 214.735C208.939 214.735 209.051 214.722 209.157 214.694C209.269 214.666 209.369 214.622 209.457 214.561C209.545 214.496 209.613 214.415 209.659 214.317C209.71 214.215 209.736 214.094 209.736 213.955V213.008ZM211.696 215.244V211.761H212.357L212.406 212.666L212.309 212.569C212.374 212.369 212.467 212.204 212.587 212.074C212.713 211.939 212.859 211.842 213.026 211.781C213.198 211.721 213.379 211.691 213.57 211.691C213.816 211.691 214.036 211.74 214.232 211.837C214.431 211.93 214.589 212.072 214.705 212.262C214.821 212.453 214.879 212.694 214.879 212.987V215.244H214.134V213.217C214.134 212.873 214.062 212.636 213.918 212.506C213.779 212.371 213.602 212.304 213.389 212.304C213.235 212.304 213.087 212.341 212.943 212.415C212.799 212.485 212.678 212.599 212.58 212.757C212.487 212.915 212.441 213.126 212.441 213.391V215.244H211.696ZM218.184 215.244V214.701C218.625 214.385 218.995 214.106 219.292 213.865C219.594 213.623 219.835 213.4 220.016 213.196C220.197 212.991 220.328 212.799 220.407 212.618C220.49 212.432 220.532 212.244 220.532 212.053C220.532 211.807 220.455 211.607 220.302 211.454C220.149 211.301 219.935 211.224 219.661 211.224C219.373 211.224 219.143 211.322 218.971 211.517C218.804 211.707 218.709 211.97 218.686 212.304L218.038 212.004C218.07 211.712 218.156 211.459 218.296 211.245C218.435 211.031 218.623 210.867 218.86 210.75C219.101 210.634 219.38 210.576 219.696 210.576C219.956 210.576 220.184 210.613 220.379 210.688C220.578 210.762 220.746 210.867 220.88 211.001C221.015 211.131 221.117 211.285 221.187 211.461C221.261 211.638 221.298 211.826 221.298 212.025C221.298 212.318 221.226 212.601 221.082 212.875C220.938 213.145 220.711 213.421 220.4 213.704C220.088 213.988 219.68 214.292 219.173 214.617V214.631C219.229 214.622 219.306 214.617 219.403 214.617C219.501 214.612 219.598 214.61 219.696 214.61C219.793 214.605 219.872 214.603 219.933 214.603H221.382V215.244H218.184Z" fill="white"/>
<circle cx="185.743" cy="212.276" r="6.59811" fill="#D9D9D9"/>
<path d="M182.791 239.92C181.87 239.92 181.146 239.587 180.62 238.921C180.101 238.248 179.842 237.265 179.842 235.972C179.842 234.679 180.101 233.7 180.62 233.034C181.146 232.361 181.87 232.024 182.791 232.024C183.72 232.024 184.444 232.361 184.962 233.034C185.489 233.7 185.752 234.679 185.752 235.972C185.752 237.265 185.489 238.248 184.962 238.921C184.444 239.587 183.72 239.92 182.791 239.92ZM182.791 238.863C183.163 238.863 183.472 238.759 183.72 238.55C183.975 238.333 184.165 238.012 184.289 237.586C184.421 237.152 184.486 236.614 184.486 235.972C184.486 235.329 184.421 234.795 184.289 234.37C184.165 233.936 183.975 233.615 183.72 233.406C183.472 233.189 183.163 233.081 182.791 233.081C182.42 233.081 182.106 233.189 181.851 233.406C181.603 233.615 181.417 233.936 181.293 234.37C181.169 234.795 181.107 235.329 181.107 235.972C181.107 236.614 181.169 237.152 181.293 237.586C181.417 238.012 181.603 238.333 181.851 238.55C182.106 238.759 182.42 238.863 182.791 238.863ZM187.789 238.236C188.052 238.236 188.261 238.314 188.416 238.468C188.578 238.615 188.66 238.817 188.66 239.072C188.66 239.328 188.578 239.533 188.416 239.688C188.261 239.842 188.052 239.92 187.789 239.92C187.518 239.92 187.301 239.842 187.139 239.688C186.984 239.533 186.906 239.328 186.906 239.072C186.906 238.817 186.984 238.615 187.139 238.468C187.301 238.314 187.518 238.236 187.789 238.236ZM190.415 239.804V234.544C190.415 234.389 190.415 234.23 190.415 234.068C190.423 233.897 190.43 233.719 190.438 233.534C190.175 233.789 189.873 234.01 189.532 234.195C189.2 234.373 188.855 234.501 188.499 234.579L188.267 233.499C188.429 233.475 188.619 233.421 188.836 233.336C189.053 233.251 189.277 233.143 189.509 233.011C189.741 232.879 189.954 232.74 190.148 232.593C190.341 232.438 190.492 232.287 190.601 232.14H191.646V239.804H190.415ZM196.132 239.92C195.412 239.92 194.785 239.761 194.251 239.444C193.724 239.119 193.364 238.666 193.171 238.085L194.378 237.516C194.448 237.795 194.556 238.035 194.704 238.236C194.851 238.437 195.044 238.592 195.284 238.701C195.524 238.801 195.822 238.852 196.178 238.852C196.48 238.852 196.736 238.797 196.945 238.689C197.154 238.581 197.312 238.43 197.421 238.236C197.537 238.043 197.595 237.822 197.595 237.574C197.595 237.319 197.544 237.106 197.444 236.936C197.351 236.765 197.2 236.642 196.991 236.564C196.79 236.487 196.53 236.448 196.213 236.448C196.12 236.448 196.023 236.452 195.923 236.46C195.83 236.46 195.729 236.467 195.621 236.483V235.438C195.69 235.446 195.756 235.453 195.818 235.461C195.888 235.461 195.954 235.461 196.016 235.461C196.519 235.461 196.879 235.36 197.095 235.159C197.312 234.958 197.421 234.644 197.421 234.219C197.421 233.855 197.308 233.576 197.084 233.383C196.867 233.189 196.554 233.092 196.143 233.092C195.718 233.092 195.385 233.193 195.145 233.394C194.913 233.588 194.734 233.87 194.611 234.242L193.473 233.766C193.581 233.41 193.763 233.1 194.018 232.837C194.274 232.574 194.587 232.372 194.959 232.233C195.338 232.086 195.752 232.012 196.201 232.012C196.751 232.012 197.208 232.101 197.572 232.28C197.943 232.458 198.218 232.701 198.396 233.011C198.582 233.321 198.675 233.665 198.675 234.044C198.675 234.339 198.632 234.598 198.547 234.822C198.462 235.039 198.346 235.229 198.199 235.391C198.059 235.546 197.904 235.666 197.734 235.751C197.572 235.836 197.405 235.895 197.235 235.925V235.949C197.459 235.956 197.664 236.003 197.85 236.088C198.044 236.165 198.214 236.278 198.361 236.425C198.516 236.564 198.636 236.734 198.721 236.936C198.806 237.137 198.849 237.358 198.849 237.598C198.849 238.062 198.733 238.468 198.5 238.817C198.268 239.165 197.947 239.436 197.537 239.63C197.134 239.823 196.666 239.92 196.132 239.92ZM200.346 239.804V238.898C201.081 238.372 201.697 237.907 202.192 237.505C202.695 237.102 203.098 236.731 203.4 236.39C203.702 236.049 203.918 235.728 204.05 235.426C204.189 235.117 204.259 234.803 204.259 234.486C204.259 234.075 204.131 233.743 203.876 233.487C203.62 233.232 203.264 233.104 202.808 233.104C202.328 233.104 201.944 233.266 201.658 233.592C201.379 233.909 201.221 234.346 201.182 234.904L200.102 234.404C200.156 233.917 200.299 233.495 200.532 233.139C200.764 232.783 201.077 232.508 201.472 232.314C201.875 232.121 202.339 232.024 202.866 232.024C203.299 232.024 203.678 232.086 204.004 232.21C204.336 232.334 204.615 232.508 204.84 232.732C205.064 232.949 205.234 233.205 205.35 233.499C205.474 233.793 205.536 234.106 205.536 234.439C205.536 234.927 205.416 235.399 205.176 235.856C204.936 236.305 204.557 236.765 204.038 237.238C203.52 237.71 202.839 238.217 201.995 238.759V238.782C202.088 238.766 202.215 238.759 202.378 238.759C202.541 238.751 202.703 238.747 202.866 238.747C203.028 238.739 203.16 238.735 203.26 238.735H205.676V239.804H200.346ZM208.705 239.804V234.544C208.705 234.389 208.705 234.23 208.705 234.068C208.713 233.897 208.721 233.719 208.728 233.534C208.465 233.789 208.163 234.01 207.823 234.195C207.49 234.373 207.145 234.501 206.789 234.579L206.557 233.499C206.72 233.475 206.909 233.421 207.126 233.336C207.343 233.251 207.567 233.143 207.799 233.011C208.032 232.879 208.245 232.74 208.438 232.593C208.632 232.438 208.783 232.287 208.891 232.14H209.936V239.804H208.705Z" fill="white"/>
<path d="M313 435H223.828C222.047 435 221.154 432.846 222.414 431.586L311.586 342.414C312.846 341.154 315 342.047 315 343.828V433C315 434.105 314.105 435 313 435Z" fill="#222222" stroke="#333333"/>
<defs>
<linearGradient id="paint0_linear_497_1670" x1="157.5" y1="-1.22964e-08" x2="157" y2="422.5" gradientUnits="userSpaceOnUse">
<stop stop-color="#222222" stop-opacity="0"/>
<stop offset="1" stop-color="#222222"/>
</linearGradient>
<radialGradient id="paint1_radial_497_1670" cx="0" cy="0" r="1" gradientUnits="userSpaceOnUse" gradientTransform="translate(106.624 382) rotate(0.740449) scale(77.3821 29.1397)">
<stop stop-color="white"/>
<stop offset="1" stop-color="white" stop-opacity="0.59"/>
</radialGradient>
</defs>
</svg>
