<svg width="137" height="31" viewBox="0 0 137 31" fill="none" xmlns="http://www.w3.org/2000/svg">
<g clip-path="url(#clip0_1054_4220)">
<path d="M50.1791 25.989C47.7705 25.989 45.1154 25.1626 42.2137 23.5101V19.9358C44.9447 21.7998 47.6093 22.7318 50.2076 22.7318C51.4023 22.7318 52.3506 22.5108 53.0523 22.0688C53.773 21.6076 54.1334 20.9735 54.1334 20.1664C54.1334 19.4362 53.8014 18.8597 53.1377 18.4369C52.4738 17.995 51.4497 17.601 50.0653 17.2551C47.5808 16.6018 45.893 16.0445 45.0016 15.5833C43.0291 14.5649 42.043 13.0372 42.043 11.0002C42.043 9.25154 42.7731 7.86795 44.2334 6.84947C45.6938 5.83101 47.4955 5.32178 49.6386 5.32178C52.2558 5.32178 54.6169 6.09043 56.7221 7.62774V11.202C54.3135 9.4341 51.9524 8.55013 49.6386 8.55013C48.4248 8.55013 47.4196 8.78069 46.6231 9.2419C45.8266 9.70311 45.4283 10.3469 45.4283 11.1732C45.4283 11.6728 45.6559 12.1052 46.111 12.4703C46.5662 12.8162 47.0592 13.0852 47.5903 13.2773C48.1403 13.4503 48.9558 13.6713 50.0368 13.9403C51.1748 14.2286 52.1135 14.5072 52.8532 14.7763C53.6118 15.0453 54.3799 15.4199 55.1574 15.9004C55.935 16.3616 56.5135 16.9476 56.8928 17.6587C57.291 18.3697 57.4902 19.2152 57.4902 20.1952C57.4902 22.0208 56.7979 23.4428 55.4135 24.4613C54.0479 25.4797 52.3031 25.989 50.1791 25.989Z" fill="#AAAAAA"/>
<path d="M64.3402 25.9892C63.6764 25.9892 63.0316 25.9123 62.4057 25.7586C61.7989 25.6049 61.2109 25.3647 60.6419 25.038C60.073 24.6921 59.6083 24.202 59.248 23.5679C58.8876 22.9146 58.7075 22.1555 58.7075 21.2908C58.6886 19.7343 59.2196 18.5525 60.3006 17.7454C61.3816 16.9191 62.9273 16.506 64.9376 16.506H69.5177V15.5835C69.5177 14.738 69.1763 14.1039 68.4936 13.6812C67.8109 13.2392 66.929 13.0182 65.8479 13.0182C63.7807 13.0182 62.5764 13.7099 62.235 15.0936L59.1057 15.1512C59.1437 13.6331 59.798 12.432 61.0686 11.5481C62.3584 10.6642 63.9325 10.2222 65.791 10.2222C67.6686 10.2222 69.2712 10.6834 70.5988 11.6058C71.9453 12.5281 72.6185 13.7196 72.6185 15.18V25.7586H69.5177V23.4526C69.0815 24.0675 68.4177 24.6441 67.5264 25.1822C66.6539 25.7202 65.5919 25.9892 64.3402 25.9892ZM64.5962 23.2509C65.8479 23.2509 66.9763 22.8185 67.9815 21.9538C69.0056 21.089 69.5177 20.0706 69.5177 18.8984H65.5066C64.2738 18.8984 63.354 19.1385 62.7471 19.619C62.1592 20.0802 61.9032 20.6662 61.979 21.3773C62.0359 22.0307 62.3204 22.5111 62.8325 22.8185C63.3445 23.1067 63.9325 23.2509 64.5962 23.2509Z" fill="#AAAAAA"/>
<path d="M75.1194 25.7586L75.0625 13.3353V9.96283C75.0625 8.13724 75.8022 6.76327 77.2814 5.84088C78.7608 4.91851 80.7141 4.76477 83.1417 5.3797L83.1133 7.91626C81.5392 7.49349 80.3443 7.49349 79.5288 7.91626C78.7323 8.3198 78.334 9.01156 78.334 9.99159V10.4817H82.9995V13.3353H78.334L78.3625 25.7586H75.1194Z" fill="#AAAAAA"/>
<path d="M91.6009 25.9892C89.4394 25.9892 87.6093 25.2206 86.1108 23.6832C84.6125 22.1267 83.8633 20.2627 83.8633 18.0913C83.8633 15.9006 84.6219 14.0463 86.1388 12.5281C87.6561 10.9909 89.4768 10.2222 91.6009 10.2222C93.4786 10.2222 95.1284 10.8467 96.5513 12.0958C97.9921 13.3256 98.8744 14.8725 99.1965 16.7366C99.3861 17.6397 99.3963 18.5044 99.2254 19.3307H87.1061C87.2957 20.4645 87.8082 21.3677 88.6429 22.0402C89.4768 22.6936 90.4636 23.0203 91.6009 23.0203C93.346 23.0203 94.74 22.3958 95.7829 21.1467H98.718C98.718 21.1467 98.3788 23.1663 95.7829 24.8939C94.4552 25.6241 93.0612 25.9892 91.6009 25.9892ZM87.1061 16.7653H96.0107C95.8212 15.7469 95.318 14.8918 94.5028 14.2C93.7064 13.5082 92.7297 13.1623 91.5729 13.1623C90.416 13.1623 89.43 13.5178 88.614 14.2288C87.7989 14.9206 87.2957 15.7661 87.1061 16.7653Z" fill="#AAAAAA"/>
<path d="M122.98 25.9892C122.316 25.9892 121.672 25.9123 121.047 25.7586C120.44 25.6049 119.851 25.3647 119.283 25.038C118.713 24.6921 118.249 24.202 117.889 23.5679C117.528 22.9146 117.348 22.1555 117.348 21.2908C117.329 19.7343 117.86 18.5525 118.941 17.7454C120.022 16.9191 121.568 16.506 123.578 16.506H128.158V15.5835C128.158 14.738 127.817 14.1039 127.134 13.6812C126.451 13.2392 125.569 13.0182 124.488 13.0182C122.421 13.0182 121.217 13.7099 120.876 15.0936L117.746 15.1512C117.784 13.6331 118.439 12.432 119.709 11.5481C120.999 10.6642 122.573 10.2222 124.431 10.2222C126.309 10.2222 127.912 10.6834 129.239 11.6058C130.586 12.5281 131.259 13.7196 131.259 15.18V25.7586H128.158V23.4526C127.722 24.0675 127.058 24.6441 126.167 25.1822C125.294 25.7202 124.232 25.9892 122.98 25.9892ZM123.237 23.2509C124.488 23.2509 125.617 22.8185 126.622 21.9538C127.646 21.089 128.158 20.0706 128.158 18.8984H124.147C122.914 18.8984 121.994 19.1385 121.387 19.619C120.799 20.0802 120.543 20.6662 120.62 21.3773C120.676 22.0307 120.961 22.5111 121.473 22.8185C121.985 23.1067 122.573 23.2509 123.237 23.2509Z" fill="#AAAAAA"/>
<path d="M133.633 25.7586V5.84082H136.904V25.7586H133.633Z" fill="#AAAAAA"/>
<path fill-rule="evenodd" clip-rule="evenodd" d="M101.125 5.84082H109.773C111.688 5.84082 113.282 6.50379 114.552 7.82972C115.822 9.13645 116.458 10.7218 116.458 12.5858C116.458 14.469 115.822 16.0544 114.552 17.3418C113.3 18.6101 111.708 19.2538 109.773 19.2731L104.51 19.3019V25.7586H101.125V5.84082ZM109.545 16.1889L104.51 16.2176V8.95389L109.545 8.92504C110.664 8.92504 111.546 9.26131 112.191 9.93392C112.855 10.6064 113.186 11.452 113.186 12.4705C113.186 13.5081 112.855 14.3921 112.191 15.1223C111.527 15.8333 110.645 16.1889 109.545 16.1889Z" fill="#AAAAAA"/>
<path d="M14.1555 0.191406C13.2358 0.191406 12.3536 0.561582 11.7032 1.2205L1.48668 11.5708C1.09972 11.9628 0.906247 12.4766 0.90625 12.9904C0.906253 13.5042 1.09974 14.018 1.48669 14.41L8.1819 21.1928V9.18488C8.1819 8.28875 8.89336 7.56229 9.77795 7.56229C13.5151 7.56229 22.6118 7.56229 23.8525 7.56229L31.1282 0.19151L14.1555 0.191406Z" fill="#AAAAAA"/>
<path d="M8.1819 23.4377H22.2509C23.1355 23.4377 23.8525 22.7112 23.8525 21.8151V9.80713L30.5477 16.5898C30.9347 16.9819 31.1282 17.4957 31.1282 18.0096C31.1282 18.5233 30.9347 19.0371 30.5477 19.4292L20.3312 29.7795C19.6808 30.4383 18.7987 30.8085 17.8789 30.8085L0.90625 30.8084L8.1819 23.4377Z" fill="#AAAAAA"/>
</g>
<defs>
<clipPath id="clip0_1054_4220">
<rect width="136" height="31" fill="white" transform="translate(0.90625)"/>
</clipPath>
</defs>
</svg>
