<svg width="200" height="39" viewBox="0 0 200 39" fill="none" xmlns="http://www.w3.org/2000/svg">
<path d="M176.693 19.5933C175.665 18.8919 174.542 18.4242 173.42 17.8163C172.719 17.4422 171.97 17.0681 171.362 16.5537C170.334 15.7119 170.521 14.0284 171.643 13.2801C173.186 12.2513 175.758 12.8125 176.039 14.9169C176.039 14.9637 176.086 15.0104 176.132 15.0104H178.471C178.517 15.0104 178.564 14.9637 178.564 14.9169C178.424 13.4672 177.863 12.2513 176.834 11.4563C175.852 10.7081 174.729 10.334 173.514 10.334C167.341 10.334 166.779 16.881 170.1 18.9386C170.474 19.1725 173.747 20.8092 174.916 21.5574C176.086 22.2589 176.413 23.5683 175.945 24.5971C175.478 25.5324 174.309 26.1871 173.139 26.0936C171.83 26.0001 170.848 25.2986 170.474 24.223C170.427 24.036 170.38 23.6618 170.38 23.4748C170.38 23.428 170.334 23.3813 170.287 23.3813H167.762C167.715 23.3813 167.668 23.428 167.668 23.4748C167.668 25.2986 168.136 26.3274 169.351 27.2627C170.521 28.1512 171.783 28.5253 173.139 28.5253C176.6 28.5253 178.377 26.5612 178.751 24.5504C179.032 22.5863 178.471 20.8092 176.693 19.5933Z" fill="#AAAAAA"/>
<path d="M66.4704 10.708H65.3481H64.1322C64.0855 10.708 64.0387 10.7548 64.0387 10.7548L61.9343 17.6291C61.8875 17.7227 61.794 17.7227 61.7472 17.6291L59.6428 10.7548C59.6428 10.708 59.5961 10.708 59.5493 10.708H58.3334H57.2111H55.7146C55.6679 10.708 55.6211 10.7548 55.6211 10.8015V28.3382C55.6211 28.385 55.6679 28.4317 55.7146 28.4317H58.2399C58.2867 28.4317 58.3334 28.385 58.3334 28.3382V15.0103C58.3334 14.9168 58.4737 14.87 58.5205 14.9636L60.6249 21.8847L60.7652 22.3523C60.7652 22.3991 60.812 22.3991 60.8587 22.3991H62.8228C62.8696 22.3991 62.9163 22.3523 62.9163 22.3523L63.0566 21.8847L65.161 14.9636C65.2078 14.87 65.3481 14.87 65.3481 15.0103V28.3382C65.3481 28.385 65.3949 28.4317 65.4416 28.4317H67.9669C68.0137 28.4317 68.0604 28.385 68.0604 28.3382V10.8015C68.0604 10.7548 68.0137 10.708 67.9669 10.708H66.4704Z" fill="#AAAAAA"/>
<path d="M137.831 10.708C137.785 10.708 137.738 10.7548 137.738 10.7548L135.633 17.6291C135.587 17.7227 135.493 17.7227 135.446 17.6291L133.342 10.7548C133.342 10.708 133.295 10.708 133.248 10.708H129.367C129.32 10.708 129.273 10.7548 129.273 10.8015V28.3382C129.273 28.385 129.32 28.4317 129.367 28.4317H131.892C131.939 28.4317 131.986 28.385 131.986 28.3382V15.0103C131.986 14.9168 132.126 14.87 132.173 14.9636L134.277 21.8847L134.418 22.3523C134.418 22.3991 134.464 22.3991 134.511 22.3991H136.475C136.522 22.3991 136.569 22.3523 136.569 22.3523L136.709 21.8847L138.813 14.9636C138.86 14.87 139 14.87 139 15.0103V28.3382C139 28.385 139.047 28.4317 139.094 28.4317H141.619C141.666 28.4317 141.713 28.385 141.713 28.3382V10.8015C141.713 10.7548 141.666 10.708 141.619 10.708H137.831Z" fill="#AAAAAA"/>
<path d="M105.096 10.708H100.373H97.8479H93.0779C93.0311 10.708 92.9844 10.7548 92.9844 10.8015V12.9995C92.9844 13.0462 93.0311 13.093 93.0779 13.093H97.7076V28.3382C97.7076 28.385 97.7544 28.4317 97.8011 28.4317H100.326C100.373 28.4317 100.42 28.385 100.42 28.3382V13.093H105.05C105.096 13.093 105.143 13.0462 105.143 12.9995V10.8015C105.19 10.7548 105.143 10.708 105.096 10.708Z" fill="#AAAAAA"/>
<path d="M120.061 28.4316H122.352C122.399 28.4316 122.446 28.3849 122.446 28.2913L117.676 10.7079C117.676 10.6611 117.629 10.6611 117.582 10.6611H116.694H115.15H114.262C114.215 10.6611 114.168 10.7079 114.168 10.7079L109.398 28.2913C109.398 28.3381 109.445 28.4316 109.492 28.4316H111.783C111.83 28.4316 111.877 28.3848 111.877 28.3848L113.28 23.2408C113.28 23.194 113.327 23.194 113.373 23.194H118.471C118.517 23.194 118.564 23.2408 118.564 23.2408L119.967 28.3848C119.967 28.3848 120.014 28.4316 120.061 28.4316ZM113.981 20.6687L115.852 13.7943C115.899 13.7008 115.992 13.7008 116.039 13.7943L117.91 20.6687C117.91 20.7155 117.863 20.809 117.816 20.809H114.122C114.028 20.809 113.981 20.7155 113.981 20.6687Z" fill="#AAAAAA"/>
<path d="M159.44 28.4316H161.731C161.778 28.4316 161.825 28.3849 161.825 28.2913L157.055 10.7079C157.055 10.6611 157.008 10.6611 156.961 10.6611H156.073H154.529H153.641C153.594 10.6611 153.547 10.7079 153.547 10.7079L148.777 28.2913C148.777 28.3381 148.824 28.4316 148.871 28.4316H151.162C151.209 28.4316 151.256 28.3848 151.256 28.3848L152.659 23.2408C152.659 23.194 152.706 23.194 152.752 23.194H157.85C157.896 23.194 157.943 23.2408 157.943 23.2408L159.346 28.3848C159.346 28.3848 159.393 28.4316 159.44 28.4316ZM153.36 20.6687L155.231 13.7943C155.278 13.7008 155.371 13.7008 155.418 13.7943L157.288 20.6687C157.288 20.7155 157.242 20.809 157.195 20.809H153.501C153.407 20.809 153.36 20.7155 153.36 20.6687Z" fill="#AAAAAA"/>
<path d="M78.3491 25.8129V20.3882C78.3491 20.3415 78.3958 20.2947 78.4426 20.2947H85.2234C85.2702 20.2947 85.317 20.2479 85.317 20.2012V18.0033C85.317 17.9565 85.2702 17.9097 85.2234 17.9097H78.4426C78.3958 17.9097 78.3491 17.863 78.3491 17.8162V13.1865C78.3491 13.1398 78.3958 13.093 78.4426 13.093H86.112C86.1587 13.093 86.2055 13.0462 86.2055 12.9995V10.8015C86.2055 10.7548 86.1587 10.708 86.112 10.708H78.3491H75.7302C75.6835 10.708 75.6367 10.7548 75.6367 10.8015V13.093V17.9565V20.3415V25.9532V28.3382C75.6367 28.385 75.6835 28.4317 75.7302 28.4317H78.3491H86.4393C86.4861 28.4317 86.5328 28.385 86.5328 28.3382V26.0467C86.5328 26 86.4861 25.9532 86.4393 25.9532H78.3958C78.3958 25.9064 78.3491 25.8597 78.3491 25.8129Z" fill="#AAAAAA"/>
<path d="M199.889 28.2446L191.097 19.1723C191.051 19.1255 191.051 19.0787 191.097 19.032L199.001 10.8014C199.047 10.7547 199.001 10.6611 198.954 10.6611H195.727C195.68 10.6611 195.68 10.6611 195.68 10.7079L188.946 17.7226C188.9 17.7693 188.806 17.7226 188.806 17.6758V10.8482C188.806 10.8014 188.759 10.7547 188.712 10.7547H186.14C186.094 10.7547 186.047 10.8014 186.047 10.8482V28.3848C186.047 28.4316 186.094 28.4784 186.14 28.4784H188.666C188.712 28.4784 188.759 28.4316 188.759 28.3848V20.6687C188.759 20.5752 188.853 20.5284 188.9 20.622L196.475 28.4784L196.522 28.5251H199.749C199.889 28.4316 199.936 28.2913 199.889 28.2446Z" fill="#AAAAAA"/>
<path d="M38.2723 1.26172L22.9336 12.6722L25.7862 5.93816L38.2723 1.26172Z" fill="#888888" stroke="#888888" stroke-linecap="round" stroke-linejoin="round"/>
<path d="M2.82422 1.26172L18.0694 12.7658L15.3571 5.93816L2.82422 1.26172Z" fill="#E7E7E7" stroke="#E7E7E7" stroke-linecap="round" stroke-linejoin="round"/>
<path d="M32.752 27.6836L28.6367 33.95L37.4284 36.3818L39.9069 27.8239L32.752 27.6836Z" fill="#E7E7E7" stroke="#E7E7E7" stroke-linecap="round" stroke-linejoin="round"/>
<path d="M1.23438 27.8239L3.71289 36.3818L12.4578 33.95L8.38933 27.6836L1.23438 27.8239Z" fill="#E7E7E7" stroke="#E7E7E7" stroke-linecap="round" stroke-linejoin="round"/>
<path d="M11.9903 17.1149L9.55859 20.8093L18.21 21.1835L17.9294 11.8306L11.9903 17.1149Z" fill="#E7E7E7" stroke="#E7E7E7" stroke-linecap="round" stroke-linejoin="round"/>
<path d="M29.1533 17.1147L23.1207 11.7368L22.9336 21.1832L31.585 20.8091L29.1533 17.1147Z" fill="#E7E7E7" stroke="#E7E7E7" stroke-linecap="round" stroke-linejoin="round"/>
<path d="M12.457 33.95L17.6946 31.4247L13.1585 27.8706L12.457 33.95Z" fill="#E7E7E7" stroke="#E7E7E7" stroke-linecap="round" stroke-linejoin="round"/>
<path d="M23.4492 31.4247L28.6401 33.95L27.9386 27.8706L23.4492 31.4247Z" fill="#E7E7E7" stroke="#E7E7E7" stroke-linecap="round" stroke-linejoin="round"/>
<path d="M28.6362 33.9501L23.4453 31.4248L23.8662 34.7918L23.8194 36.2415L28.6362 33.9501Z" fill="#ABABAB" stroke="#ABABAB" stroke-linecap="round" stroke-linejoin="round"/>
<path d="M12.457 33.9501L17.3205 36.2415L17.2738 34.7918L17.6946 31.4248L12.457 33.9501Z" fill="#ABABAB" stroke="#ABABAB" stroke-linecap="round" stroke-linejoin="round"/>
<path d="M17.4155 25.626L13.0664 24.3634L16.1061 22.9604L17.4155 25.626Z" fill="#233447" stroke="#233447" stroke-linecap="round" stroke-linejoin="round"/>
<path d="M23.7266 25.626L24.9892 22.9604L28.0757 24.3634L23.7266 25.626Z" fill="#233447" stroke="#233447" stroke-linecap="round" stroke-linejoin="round"/>
<path d="M12.4552 33.95L13.2035 27.6836L8.38672 27.8239L12.4552 33.95Z" fill="#FFF8F4" stroke="#FFF8F4" stroke-linecap="round" stroke-linejoin="round"/>
<path d="M27.9336 27.6836L28.6351 33.95L32.7503 27.8239L27.9336 27.6836Z" fill="#FFF8F4" stroke="#FFF8F4" stroke-linecap="round" stroke-linejoin="round"/>
<path d="M31.5811 20.8091L22.9297 21.1832L23.7247 25.6258L24.9873 22.9602L28.0738 24.3632L31.5811 20.8091Z" fill="#FFF8F4" stroke="#FFF8F4" stroke-linecap="round" stroke-linejoin="round"/>
<path d="M13.062 24.3632L16.1017 22.9602L17.4111 25.6258L18.2061 21.1832L9.55469 20.8091L13.062 24.3632Z" fill="#FFF8F4" stroke="#FFF8F4" stroke-linecap="round" stroke-linejoin="round"/>
<path d="M9.55859 20.8091L13.1595 27.8705L13.0659 24.3632L9.55859 20.8091Z" fill="#888888" stroke="#888888" stroke-linecap="round" stroke-linejoin="round"/>
<path d="M28.0778 24.3632L27.9375 27.8705L31.5851 20.8091L28.0778 24.3632Z" fill="#888888" stroke="#888888" stroke-linecap="round" stroke-linejoin="round"/>
<path d="M18.2091 21.1831L17.4141 25.6257L18.3961 30.9101L18.6299 23.9422L18.2091 21.1831Z" fill="#888888" stroke="#888888" stroke-linecap="round" stroke-linejoin="round"/>
<path d="M22.9326 21.1831L22.5117 23.9422L22.6988 30.9101L23.7276 25.6257L22.9326 21.1831Z" fill="#888888" stroke="#888888" stroke-linecap="round" stroke-linejoin="round"/>
<path d="M23.728 25.6259L22.6992 30.9103L23.4474 31.4247L27.9368 27.8706L28.0771 24.3633L23.728 25.6259Z" fill="#C5C5C5" stroke="#C5C5C5" stroke-linecap="round" stroke-linejoin="round"/>
<path d="M13.0664 24.3633L13.1599 27.8706L17.6961 31.4247L18.3976 30.9103L17.4155 25.6259L13.0664 24.3633Z" fill="#C5C5C5" stroke="#C5C5C5" stroke-linecap="round" stroke-linejoin="round"/>
<path d="M23.8208 36.2416L23.8676 34.792L23.4467 34.4646H17.6479L17.2738 34.792L17.3205 36.2416L12.457 33.9502L14.1406 35.3531L17.6011 37.7381H23.4934L26.954 35.3531L28.6375 33.9502L23.8208 36.2416Z" fill="#9B9B9B" stroke="#9B9B9B" stroke-linecap="round" stroke-linejoin="round"/>
<path d="M23.4463 31.4246L22.6981 30.9102H18.3958L17.6943 31.4246L17.2734 34.7916L17.6476 34.4642H23.4463L23.8672 34.7916L23.4463 31.4246Z" fill="#161616" stroke="#161616" stroke-linecap="round" stroke-linejoin="round"/>
<path d="M38.9243 13.4205L40.2337 7.10727L38.2696 1.26172L23.4453 12.2981L29.1506 17.1149L37.1941 19.4531L38.9711 17.3954L38.2229 16.8343L39.4388 15.7119L38.5035 14.9637L39.7193 14.0284L38.9243 13.4205Z" fill="#A4A4A4" stroke="#A4A4A4" stroke-linecap="round" stroke-linejoin="round"/>
<path d="M0.90625 7.10727L2.21565 13.4205L1.37389 14.0284L2.58977 14.9637L1.65448 15.7119L2.91712 16.8343L2.12212 17.3954L3.89917 19.4531L11.9894 17.1149L17.6947 12.2981L2.82359 1.26172L0.90625 7.10727Z" fill="#A4A4A4" stroke="#A4A4A4" stroke-linecap="round" stroke-linejoin="round"/>
<path d="M37.1969 19.453L29.1534 17.1147L31.5851 20.8091L27.9375 27.8706L32.7542 27.8238H39.9092L37.1969 19.453Z" fill="#C5C5C5" stroke="#C5C5C5" stroke-linecap="round" stroke-linejoin="round"/>
<path d="M11.9902 17.1147L3.89995 19.453L1.23438 27.8238H8.38933L13.1593 27.8706L9.55844 20.8091L11.9902 17.1147Z" fill="#C5C5C5" stroke="#C5C5C5" stroke-linecap="round" stroke-linejoin="round"/>
<path d="M22.9313 21.1832L23.4457 12.298L25.7839 5.93799H15.3555L17.6937 12.298L18.2081 21.1832L18.3952 23.9891V30.9102H22.6975V23.9891L22.9313 21.1832Z" fill="#C5C5C5" stroke="#C5C5C5" stroke-linecap="round" stroke-linejoin="round"/>
</svg>
