<svg width="92" height="27" viewBox="0 0 92 27" fill="none" xmlns="http://www.w3.org/2000/svg">
<path d="M17.4937 5.13529C16.1787 4.05012 14.3786 3.51392 12.0806 3.51392H6.36112V4.31822H11.9785C13.9318 4.31822 15.6936 4.71399 16.7788 5.65872C17.8639 6.60346 18.6682 7.98227 18.6682 9.69301C18.6682 11.3527 17.9533 12.5655 16.8426 13.4975C15.7319 14.4295 13.7148 14.838 11.7104 14.838H5.26318V15.6423H11.7614C14.1744 15.6423 16.0638 15.1189 17.4299 14.072C18.7831 13.0251 19.4725 11.5442 19.4725 9.64194C19.4725 7.7014 18.8087 6.20769 17.4937 5.13529Z" fill="#AAAAAA"/>
<path d="M17.0083 6.28412C16.1913 5.65855 15.2593 5.16064 12.6038 5.16064H8.18652V5.93941C8.18652 5.93941 10.1654 5.91388 12.5017 5.93941C14.7614 5.96495 15.5912 6.22028 16.3572 6.78202C17.3275 7.49695 17.9403 8.39062 17.9403 9.62899C17.9403 10.8291 17.3275 11.6717 16.3445 12.3994C15.3487 13.1398 13.8166 13.1398 13.1911 13.1654C12.9613 13.1654 9.91003 13.1654 9.91003 13.1654V13.9441C9.91003 13.9441 11.4165 13.9697 12.3612 13.9441C14.506 13.8931 15.7827 13.7654 16.97 12.8845C18.0807 12.0547 18.668 10.9695 18.668 9.59069C18.668 7.77782 17.7488 6.87138 17.0083 6.28412Z" fill="#AAAAAA"/>
<path d="M16.6126 7.31827C15.9998 6.93527 15.4636 6.67993 12.9231 6.67993H9.74415V7.1906H12.8337C15.0806 7.1906 15.9232 7.58637 16.1913 7.75234C16.702 8.05874 17.3659 8.56941 17.3659 9.59074C17.3659 10.2418 16.9829 11.0717 16.4084 11.3909C15.8849 11.6845 14.9274 11.9526 13.255 11.9526H2.88843V12.4633H13.2805C15.3104 12.4633 15.9998 12.2335 16.7148 11.8377C17.4297 11.4419 17.9149 10.6248 17.9149 9.59074C17.9149 8.41621 17.2638 7.7268 16.6126 7.31827Z" fill="#AAAAAA"/>
<path d="M18.6297 12.9739C17.3147 11.8887 15.5146 11.3525 13.2166 11.3525H9.38658V12.1568H13.1017C15.055 12.1568 16.8168 12.5654 17.902 13.4973C18.9872 14.4293 19.8042 15.8209 19.8042 17.5316C19.8042 19.1913 19.1021 20.4041 17.9786 21.3361C16.8551 22.2681 14.8507 22.6766 12.8464 22.6766H6.39917V23.4809H12.8974C15.3103 23.4809 17.1998 22.9575 18.5659 21.9106C19.9319 20.8637 20.6085 19.3828 20.6085 17.4806C20.5958 15.5528 19.9447 14.0591 18.6297 12.9739Z" fill="#AAAAAA"/>
<path d="M18.1446 14.123C17.3275 13.5102 16.3956 12.9995 13.7401 12.9995H7.73975V13.7783C7.73975 13.7783 11.3017 13.7527 13.638 13.7783C15.8977 13.8038 16.7275 14.0592 17.4935 14.6209C18.4638 15.3358 19.0766 16.2295 19.0766 17.4679C19.0766 18.6679 18.4638 19.5105 17.4807 20.2382C16.4849 20.9787 14.9529 20.9787 14.3274 21.0042C14.0976 21.0042 11.0463 21.0042 11.0463 21.0042V21.783C11.0463 21.783 12.5656 21.8085 13.4975 21.783C15.6423 21.7319 16.919 21.6043 18.1063 20.7234C19.217 19.8935 19.8043 18.8084 19.8043 17.4296C19.8043 15.6295 18.8979 14.7103 18.1446 14.123Z" fill="#AAAAAA"/>
<path d="M9.01611 16.7783H14.6462V16.3442H9.01611V16.7783Z" fill="#AAAAAA"/>
<path d="M11.3398 18.2977H14.6081V17.9275H11.3398V18.2977Z" fill="#AAAAAA"/>
<path d="M6.39917 16.7783H8.05884V16.3442H6.39917V16.7783Z" fill="#AAAAAA"/>
<path d="M5.35205 18.3232H10.4204V17.8892H5.35205V18.3232Z" fill="#AAAAAA"/>
<path d="M6.60352 7.15239H8.58236V6.79492H6.60352V7.15239Z" fill="#AAAAAA"/>
<path d="M5.23755 10.0633H9.7442V9.65479H5.23755V10.0633Z" fill="#AAAAAA"/>
<path d="M5.35205 21.7319H10.114V21.2212H5.35205V21.7319Z" fill="#AAAAAA"/>
<path d="M4.17773 23.4297H5.36504V22.6765H4.17773V23.4297Z" fill="#AAAAAA"/>
<path d="M7.13965 8.78646H14.6209V8.37793H7.13965V8.78646Z" fill="#AAAAAA"/>
<path d="M10.8801 10.0633H14.4803V9.65479H10.8801V10.0633Z" fill="#AAAAAA"/>
<path d="M17.7486 15.2335C17.1358 14.8632 16.5996 14.6079 14.0591 14.6079H10.0248V15.1058H13.9825C16.2294 15.1058 17.0848 15.4888 17.3401 15.642C17.838 15.9356 18.5146 16.4208 18.5146 17.4166C18.5146 18.0549 18.1316 18.8465 17.5571 19.1529C17.0337 19.4337 16.0762 19.6891 14.4038 19.6891H4.02441V20.187H14.4165C16.4464 20.187 17.1358 19.9699 17.8508 19.5869C18.5657 19.2039 19.0381 18.4252 19.0381 17.4166C19.0508 16.3059 18.3997 15.642 17.7486 15.2335Z" fill="#AAAAAA"/>
<path d="M28.396 14.1228V18.6805H30.8855C31.9579 18.6805 32.8005 18.4763 33.3878 18.0677C33.9623 17.6975 34.2942 17.0591 34.2815 16.3697C34.2815 14.876 33.0176 14.1228 30.5025 14.1228H28.396ZM28.396 8.69695V12.7823H30.2727C31.2813 12.7823 32.0601 12.5908 32.6346 12.195C33.1963 11.8376 33.5282 11.1992 33.5027 10.5354C33.5027 9.30975 32.5069 8.68418 30.5025 8.68418L28.396 8.69695ZM26.5576 20.021V7.35645H31.0132C32.3665 7.35645 33.4389 7.62455 34.2304 8.16075C35.022 8.69695 35.4177 9.39912 35.4177 10.2545C35.4305 10.9439 35.1752 11.6205 34.7028 12.1312C34.2176 12.6674 33.5665 13.0376 32.7239 13.2674V13.3057C33.7836 13.4079 34.6262 13.727 35.2518 14.276C35.8773 14.7994 36.222 15.5782 36.1965 16.3953C36.1965 17.4805 35.7114 18.3486 34.7538 19.0252C33.7963 19.7019 32.5835 20.0338 31.1153 20.0338H26.5576V20.021Z" fill="#AAAAAA"/>
<path d="M38.2395 20.0211H40.0269V10.9823H38.2395V20.0211ZM39.146 8.67148C38.8523 8.68425 38.5587 8.58211 38.3289 8.40338C38.1119 8.25018 37.9842 7.99484 37.997 7.73951C37.997 7.47141 38.1246 7.21607 38.3289 7.06287C38.5587 6.88414 38.8523 6.78201 39.146 6.79477C39.4524 6.78201 39.746 6.88414 39.9758 7.06287C40.346 7.33097 40.4226 7.84164 40.1673 8.21188C40.1162 8.28848 40.0524 8.35231 39.9758 8.40338C39.746 8.59488 39.4524 8.68425 39.146 8.67148Z" fill="#AAAAAA"/>
<path d="M47.9293 19.9318C47.508 20.1233 46.9463 20.2127 46.2569 20.2127C44.3036 20.2127 43.3205 19.3318 43.3205 17.5572V12.208H41.4055V10.9696H43.3205V8.76094L45.1079 8.28857V10.9696H47.9165V12.208H45.1079V17.3019C45.1079 17.9019 45.2355 18.336 45.4909 18.6041C45.7462 18.8722 46.1675 18.9871 46.7548 18.9871C47.1633 18.9998 47.5718 18.8977 47.9165 18.6807L47.9293 19.9318Z" fill="#AAAAAA"/>
<path d="M64.1812 20.0212H62.5087V12.208C62.5215 11.4548 62.5598 10.6888 62.6492 9.93554H62.6109C62.5087 10.3185 62.3555 10.7015 62.1768 11.059L57.2616 20.0085H56.4318L51.5293 11.1228C51.3378 10.7398 51.1974 10.3441 51.0953 9.92277H51.057C51.1208 10.676 51.1463 11.442 51.1336 12.208V20.0085H49.5122V8.36523H51.7464L56.1637 16.4849C56.419 16.9317 56.6488 17.4041 56.8275 17.8892H56.8914C57.185 17.2509 57.4148 16.7785 57.5808 16.4593L62.0874 8.36523H64.1939V20.0212" fill="#AAAAAA"/>
<path d="M73.2714 15.438L70.5776 15.7444C69.7478 15.8338 69.1222 15.9997 68.7009 16.2423C68.2796 16.4849 68.0626 16.9062 68.0626 17.5062C68.0626 17.9403 68.2796 18.3488 68.6498 18.5914C69.0328 18.8722 69.5563 19.0127 70.2074 19.0127C71.101 19.0127 71.8287 18.7573 72.4032 18.2594C72.965 17.7871 73.2841 17.0849 73.2714 16.3444V15.438ZM75.0587 20.0212H73.2714V18.6041H73.2331C72.4543 19.6893 71.3053 20.2255 69.7988 20.2255C68.6881 20.2255 67.82 19.9829 67.1816 19.5106C66.5688 19.0765 66.2241 18.3616 66.2369 17.6083C66.2369 15.9231 67.4625 14.9401 69.9265 14.6592L73.2714 14.2762C73.2714 12.7442 72.5054 11.9782 70.9734 11.9782C69.6712 11.9655 68.4073 12.3485 67.3348 13.0889V11.608C68.4328 11.0462 69.6967 10.7654 71.1266 10.7654C73.7565 10.7654 75.0587 11.8889 75.0587 14.1358V20.0212Z" fill="#AAAAAA"/>
<path d="M83.357 12.4377C83.0379 12.2462 82.591 12.1441 82.0038 12.1441C81.2633 12.1313 80.5611 12.4505 80.0887 13.025C79.5781 13.6122 79.3227 14.4038 79.3227 15.4123V20.0211H77.5354V10.9823H79.3227V12.8462H79.361C79.5908 12.2462 79.9994 11.7228 80.5356 11.3525C81.0462 10.9951 81.659 10.8163 82.2974 10.8163C82.6549 10.8036 83.0251 10.8419 83.3698 10.944L83.357 12.4377Z" fill="#AAAAAA"/>
<path d="M89.5873 19.9318C89.166 20.1233 88.6042 20.2127 87.9148 20.2127C85.9615 20.2127 84.9785 19.3318 84.9785 17.5572V12.208H83.0635V10.9696H84.9785V8.76094L86.7658 8.28857V10.9696H89.5745V12.208H86.7658V17.3019C86.7658 17.9019 86.8935 18.336 87.1488 18.6041C87.4042 18.8722 87.8255 18.9871 88.4127 18.9871C88.8213 18.9998 89.2298 18.8977 89.5745 18.6807L89.5873 19.9318Z" fill="#AAAAAA"/>
</svg>
