<svg width="76" height="75" viewBox="0 0 76 75" fill="none" xmlns="http://www.w3.org/2000/svg">
<g filter="url(#filter0_bi_906_12919)">
<path d="M37.5001 49.4413L48.7271 55.0781L37.5001 60.7149L26.2731 55.0781L37.5001 49.4413Z" stroke="white" stroke-opacity="0.1" stroke-width="26"/>
</g>
<path d="M37.5 57.2753C37.1646 57.2753 36.8291 57.1986 36.5206 57.045L1.21787 39.4669C0.473001 39.0959 0.00146826 38.3358 3.42114e-06 37.5036C-0.00146142 36.6713 0.467582 35.9097 1.21143 35.5363L36.5142 17.8117C37.1344 17.5003 37.8658 17.5003 38.486 17.8117L73.7887 35.5363C74.5324 35.9097 75.0015 36.6714 75.0001 37.5036C74.9987 38.3359 74.5273 39.0959 73.7823 39.4669L38.4795 57.045C38.1709 57.1986 37.8355 57.2753 37.5 57.2753V57.2753Z" fill="url(#paint0_linear_906_12919)"/>
<g filter="url(#filter1_bii_906_12919)">
<path d="M37.5 39.6972C37.1646 39.6972 36.8291 39.6204 36.5206 39.4669L1.21787 21.8888C0.473001 21.5177 0.00146826 20.7576 3.42114e-06 19.9255C-0.00146142 19.0933 0.467582 18.3316 1.21143 17.9582L36.5142 0.233569C37.1344 -0.0778564 37.8658 -0.0778564 38.486 0.233569L73.7887 17.9582C74.5324 18.3316 75.0015 19.0933 75.0001 19.9255C74.9987 20.7578 74.5273 21.5177 73.7823 21.8888L38.4795 39.4669C38.1709 39.6204 37.8355 39.6972 37.5 39.6972V39.6972Z" fill="white" fill-opacity="0.03"/>
</g>
<g filter="url(#filter2_bi_906_12919)">
<path d="M37.5001 14.2851L48.6472 19.8818L37.5001 25.4322L26.3529 19.8818L37.5001 14.2851Z" stroke="white" stroke-opacity="0.1" stroke-width="26" stroke-linecap="round"/>
</g>
<defs>
<filter id="filter0_bi_906_12919" x="-88" y="-52.8438" width="251" height="215.844" filterUnits="userSpaceOnUse" color-interpolation-filters="sRGB">
<feFlood flood-opacity="0" result="BackgroundImageFix"/>
<feGaussianBlur in="BackgroundImageFix" stdDeviation="44"/>
<feComposite in2="SourceAlpha" operator="in" result="effect1_backgroundBlur_906_12919"/>
<feBlend mode="normal" in="SourceGraphic" in2="effect1_backgroundBlur_906_12919" result="shape"/>
<feColorMatrix in="SourceAlpha" type="matrix" values="0 0 0 0 0 0 0 0 0 0 0 0 0 0 0 0 0 0 127 0" result="hardAlpha"/>
<feOffset dy="2"/>
<feGaussianBlur stdDeviation="1"/>
<feComposite in2="hardAlpha" operator="arithmetic" k2="-1" k3="1"/>
<feColorMatrix type="matrix" values="0 0 0 0 1 0 0 0 0 1 0 0 0 0 1 0 0 0 0.3 0"/>
<feBlend mode="normal" in2="shape" result="effect2_innerShadow_906_12919"/>
</filter>
<filter id="filter1_bii_906_12919" x="-86" y="-86" width="247" height="211.697" filterUnits="userSpaceOnUse" color-interpolation-filters="sRGB">
<feFlood flood-opacity="0" result="BackgroundImageFix"/>
<feGaussianBlur in="BackgroundImageFix" stdDeviation="43"/>
<feComposite in2="SourceAlpha" operator="in" result="effect1_backgroundBlur_906_12919"/>
<feBlend mode="normal" in="SourceGraphic" in2="effect1_backgroundBlur_906_12919" result="shape"/>
<feColorMatrix in="SourceAlpha" type="matrix" values="0 0 0 0 0 0 0 0 0 0 0 0 0 0 0 0 0 0 127 0" result="hardAlpha"/>
<feOffset dy="4"/>
<feGaussianBlur stdDeviation="2"/>
<feComposite in2="hardAlpha" operator="arithmetic" k2="-1" k3="1"/>
<feColorMatrix type="matrix" values="0 0 0 0 1 0 0 0 0 1 0 0 0 0 1 0 0 0 0.15 0"/>
<feBlend mode="normal" in2="shape" result="effect2_innerShadow_906_12919"/>
<feColorMatrix in="SourceAlpha" type="matrix" values="0 0 0 0 0 0 0 0 0 0 0 0 0 0 0 0 0 0 127 0" result="hardAlpha"/>
<feOffset/>
<feGaussianBlur stdDeviation="34"/>
<feComposite in2="hardAlpha" operator="arithmetic" k2="-1" k3="1"/>
<feColorMatrix type="matrix" values="0 0 0 0 1 0 0 0 0 1 0 0 0 0 1 0 0 0 0.05 0"/>
<feBlend mode="normal" in2="effect2_innerShadow_906_12919" result="effect3_innerShadow_906_12919"/>
</filter>
<filter id="filter2_bi_906_12919" x="-88" y="-88" width="251" height="215.697" filterUnits="userSpaceOnUse" color-interpolation-filters="sRGB">
<feFlood flood-opacity="0" result="BackgroundImageFix"/>
<feGaussianBlur in="BackgroundImageFix" stdDeviation="44"/>
<feComposite in2="SourceAlpha" operator="in" result="effect1_backgroundBlur_906_12919"/>
<feBlend mode="normal" in="SourceGraphic" in2="effect1_backgroundBlur_906_12919" result="shape"/>
<feColorMatrix in="SourceAlpha" type="matrix" values="0 0 0 0 0 0 0 0 0 0 0 0 0 0 0 0 0 0 127 0" result="hardAlpha"/>
<feOffset dy="2"/>
<feGaussianBlur stdDeviation="1"/>
<feComposite in2="hardAlpha" operator="arithmetic" k2="-1" k3="1"/>
<feColorMatrix type="matrix" values="0 0 0 0 1 0 0 0 0 1 0 0 0 0 1 0 0 0 0.3 0"/>
<feBlend mode="normal" in2="shape" result="effect2_innerShadow_906_12919"/>
</filter>
<linearGradient id="paint0_linear_906_12919" x1="-2.79397e-07" y1="37.4267" x2="75.0002" y2="37.4267" gradientUnits="userSpaceOnUse">
<stop stop-color="#3BB5FF"/>
<stop offset="1" stop-color="#264794"/>
</linearGradient>
</defs>
</svg>
