<?xml version="1.0" encoding="UTF-8"?>
<svg id="Layer_1" data-name="Layer 1" xmlns="http://www.w3.org/2000/svg" width="468.33" height="67.25" viewBox="0 0 468.33 67.25">
  <defs>
    <style>
      .cls-1 {
        fill: #fff;
        fill-rule: evenodd;
      }
    </style>
  </defs>
  <path class="cls-1" d="M117.56,65.92h-11.21l.75-4.07h-.17c-2.57,3.65-7.56,5.4-11.96,5.4-11.87,0-17.1-9.38-15.11-20.26,2.24-12.37,12.54-20.17,22.58-20.17,6.14,0,9.05,2.99,9.96,5.31h.17s.75-3.98,.75-3.98h11.21s-6.97,37.77-6.97,37.77h0Zm-18.93-9.22c7.06,0,10.54-5.98,11.21-9.63,.83-4.57-1.33-9.63-7.72-9.63s-10.29,5.48-11.04,9.71c-.66,3.57,.83,9.55,7.56,9.55Z"/>
  <path class="cls-1" d="M130.59,28.14h10.54l-.75,3.98h.17c1.25-1.83,3.9-5.31,10.38-5.31l-2.08,11.37c-5.23,.17-9.05,1.25-10.13,6.97l-3.82,20.76h-11.21l6.89-37.78Z"/>
  <polygon class="cls-1" points="158.49 13.45 169.7 13.45 164.47 41.84 164.63 41.84 177.58 28.14 190.87 28.14 173.68 44.75 183.48 65.92 170.78 65.92 163.55 47.74 163.39 47.74 160.07 65.92 148.86 65.92 158.49 13.45"/>
  <path class="cls-1" d="M222.83,54.13c-2.57,4.23-5.81,7.47-9.38,9.63-3.49,2.24-7.47,3.4-11.29,3.4-10.79,0-18.26-8.8-16.19-20.01,1.91-10.54,11.96-20.26,23.41-20.26s18.1,9.13,16.02,20.67c-.25,1.49-.5,2.08-.83,2.99h-28.14c-.17,4.48,3.07,7.14,7.47,7.14,3.49,0,5.56-1.58,7.47-3.57h11.46Zm-7.89-11.29c-.08-2.24-1.49-6.48-7.31-6.48s-8.8,4.23-9.71,6.48h17.02Z"/>
  <path class="cls-1" d="M356.08,65.92h-11.21l.75-4.07h-.17c-2.57,3.65-7.56,5.4-11.96,5.4-11.87,0-17.1-9.38-15.11-20.26,2.24-12.37,12.54-20.17,22.58-20.17,6.14,0,9.05,2.99,9.96,5.31h.17s.75-3.98,.75-3.98h11.21s-6.97,37.77-6.97,37.77h0Zm-18.93-9.22c7.06,0,10.54-5.98,11.21-9.63,.83-4.57-1.33-9.63-7.72-9.63s-10.29,5.48-11.04,9.71c-.66,3.57,.83,9.55,7.56,9.55Z"/>
  <path class="cls-1" d="M427.81,51.56c-3.57,8.55-12.37,15.61-22.58,15.61-11.37,0-18.43-8.97-16.36-20.17,2.08-11.12,12.29-20.09,23.5-20.09,9.96,0,16.77,6.64,16.94,15.86h-11.37c-.75-2.57-2.49-5.31-7.14-5.31-5.31-.25-9.71,4.15-10.71,9.63-1,5.48,1.83,9.63,7.14,9.63,4.65,0,7.39-2.74,9.05-5.06h11.54v-.08Z"/>
  <path class="cls-1" d="M438.36,13.45h11.21l-3.32,18.18h.17c2.49-3.4,6.56-4.73,10.54-4.73,3.57,0,7.64,1.33,9.46,4.15,2.49,3.74,2.24,7.06,1,13.78l-3.9,21.09h-11.21l3.82-20.59c.33-1.83,1.41-7.89-4.57-7.89-6.31,0-7.31,5.65-7.64,7.47l-3.82,21h-11.21l9.46-52.47Z"/>
  <polygon class="cls-1" points="64.59 13.37 44.67 43.25 44.67 13.37 35.04 13.37 35.04 13.37 35.04 13.37 0 65.92 13.53 65.92 33.46 36.03 33.46 65.92 43.17 65.92 63.1 36.03 63.1 65.92 74.3 65.92 74.3 13.37 64.59 13.37"/>
  <path class="cls-1" d="M253.8,28.14h-7.06l2.08-11.12h-9.88l-.83,4.32c-.91,4.9-3.9,6.39-8.05,6.81h-.17s-1.58,8.55-1.58,8.55h5.48l-5.4,29.22h11.21l5.4-29.22h7.06l1.74-8.55Z"/>
  <polygon class="cls-1" points="334.5 0 312.91 13.45 318.89 13.45 298.96 43.25 298.96 13.37 289.25 13.37 269.32 43.25 269.32 13.37 258.12 13.37 258.12 65.92 267.83 65.92 287.76 36.03 287.76 65.92 297.39 65.92 297.39 65.92 297.39 65.92 332.42 13.45 337.9 13.45 334.5 0"/>
  <path class="cls-1" d="M391.12,28.14h-7.06l2.08-11.12h-9.88l-.83,4.32c-.91,4.9-3.9,6.39-8.05,6.81h-.17s-1.58,8.55-1.58,8.55h5.48l-5.4,29.22h11.21l5.4-29.22h7.06l1.74-8.55Z"/>
</svg>