<svg width="40" height="40" viewBox="0 0 40 40" fill="none" xmlns="http://www.w3.org/2000/svg">
<g filter="url(#filter0_bii_445_14856)">
<rect x="3" y="3" width="34" height="34" rx="17" fill="#F0B90B" fill-opacity="0.5"/>
<rect x="3.15" y="3.15" width="33.7" height="33.7" rx="16.85" stroke="url(#paint0_linear_445_14856)" stroke-opacity="0.5" stroke-width="0.3"/>
</g>
<path d="M20 7.85742L23.0086 10.9292L15.4328 18.4821L12.4243 15.4826L20 7.85742Z" fill="black"/>
<path d="M24.5668 12.4109L27.5754 15.4827L15.4326 27.5892L12.4241 24.5896L24.5668 12.4109Z" fill="black"/>
<path d="M10.8659 16.9644L13.8745 20.0361L10.8659 23.0356L7.85742 20.0361L10.8659 16.9644Z" fill="black"/>
<path d="M29.1342 16.9644L32.1428 20.0361L20 32.1425L16.9915 29.143L29.1342 16.9644Z" fill="black"/>
<defs>
<filter id="filter0_bii_445_14856" x="-83" y="-83" width="206" height="206" filterUnits="userSpaceOnUse" color-interpolation-filters="sRGB">
<feFlood flood-opacity="0" result="BackgroundImageFix"/>
<feGaussianBlur in="BackgroundImageFix" stdDeviation="43"/>
<feComposite in2="SourceAlpha" operator="in" result="effect1_backgroundBlur_445_14856"/>
<feBlend mode="normal" in="SourceGraphic" in2="effect1_backgroundBlur_445_14856" result="shape"/>
<feColorMatrix in="SourceAlpha" type="matrix" values="0 0 0 0 0 0 0 0 0 0 0 0 0 0 0 0 0 0 127 0" result="hardAlpha"/>
<feOffset dy="4"/>
<feGaussianBlur stdDeviation="7.5"/>
<feComposite in2="hardAlpha" operator="arithmetic" k2="-1" k3="1"/>
<feColorMatrix type="matrix" values="0 0 0 0 1 0 0 0 0 1 0 0 0 0 1 0 0 0 0.15 0"/>
<feBlend mode="normal" in2="shape" result="effect2_innerShadow_445_14856"/>
<feColorMatrix in="SourceAlpha" type="matrix" values="0 0 0 0 0 0 0 0 0 0 0 0 0 0 0 0 0 0 127 0" result="hardAlpha"/>
<feOffset/>
<feGaussianBlur stdDeviation="34"/>
<feComposite in2="hardAlpha" operator="arithmetic" k2="-1" k3="1"/>
<feColorMatrix type="matrix" values="0 0 0 0 1 0 0 0 0 1 0 0 0 0 1 0 0 0 0.05 0"/>
<feBlend mode="normal" in2="effect2_innerShadow_445_14856" result="effect3_innerShadow_445_14856"/>
</filter>
<linearGradient id="paint0_linear_445_14856" x1="3" y1="1.78571" x2="20" y2="22.4286" gradientUnits="userSpaceOnUse">
<stop stop-color="white"/>
<stop offset="1" stop-color="white" stop-opacity="0"/>
</linearGradient>
</defs>
</svg>
