<svg width="24" height="24" viewBox="0 0 24 24" fill="none" xmlns="http://www.w3.org/2000/svg">
<path d="M4.7 2.1665C3.96668 2.1665 3.3 2.43318 2.8 2.93318C2.26668 3.4665 2 4.13314 2 4.83314C2 5.56646 2.3 6.23314 2.8 6.73314C3.3 7.23314 4 7.53314 4.66668 7.49982C4.66668 7.49982 4.7 7.49982 4.73336 7.49982C5.40004 7.49982 6.03336 7.23314 6.53336 6.73314C7.03336 6.23314 7.33336 5.56646 7.33336 4.83314C7.36668 4.13314 7.06668 3.46646 6.56668 2.96646C6.06668 2.43314 5.4 2.1665 4.7 2.1665ZM6.06668 6.2665C5.7 6.63318 5.2 6.8665 4.66668 6.83318C4.16668 6.83318 3.63336 6.63318 3.26668 6.2665C2.86668 5.89982 2.66668 5.3665 2.66668 4.83318C2.66668 4.29986 2.86668 3.79986 3.26668 3.39986C3.63336 3.03318 4.13336 2.83318 4.7 2.83318C5.2 2.83318 5.7 3.03318 6.06668 3.39986C6.46668 3.79986 6.66668 4.29986 6.66668 4.83318C6.66668 5.3665 6.46668 5.89982 6.06668 6.2665Z" fill="white" stroke="white" stroke-width="0.1"/>
<path d="M6.00005 8.1665H3.30005C2.76673 8.1665 2.33337 8.59982 2.33337 9.1665V20.8332C2.33337 21.3665 2.80005 21.8332 3.33337 21.8332H6.00005C6.53337 21.8332 7.00005 21.3665 7.00005 20.8665V9.1665C7.00005 8.63314 6.53337 8.1665 6.00005 8.1665ZM6.33337 20.8665C6.33337 21.0332 6.16669 21.1665 6.00005 21.1665H3.33337C3.16669 21.1665 3.00005 20.9998 3.00005 20.8332V9.1665C3.00005 8.99982 3.13337 8.83318 3.30005 8.83318H6.00005C6.16673 8.83318 6.33337 8.99986 6.33337 9.1665V20.8665Z" fill="white" stroke="white" stroke-width="0.1"/>
<path d="M17.3333 7.83313H16.6333C15.3333 7.83313 14.1 8.39981 13.3 9.29981V8.83313C13.3 8.49981 12.9667 8.16645 12.6333 8.16645H9.29998C8.99998 8.16645 8.6333 8.43313 8.6333 8.79977V21.2331C8.6333 21.5998 8.99998 21.8331 9.29998 21.8331H12.9667C13.2667 21.8331 13.6333 21.5998 13.6333 21.2331V14.0331C13.6333 12.9331 14.4333 12.0664 15.4667 12.0664C16 12.0664 16.5 12.2664 16.8667 12.6331C17.2 12.9331 17.3333 13.3998 17.3333 13.9998V21.1665C17.3333 21.4998 17.6667 21.8331 18 21.8331H21.3333C21.6667 21.8331 22 21.4998 22 21.1665V12.5665C22 9.89981 19.9667 7.83313 17.3333 7.83313ZM21.3333 21.1331L21.3 21.1665H18.0333L18 13.9998C18 13.1998 17.8 12.5998 17.3667 12.1665C16.8667 11.6665 16.2 11.3998 15.5 11.3998C14.1 11.4331 13 12.5665 13 14.0331V21.1665H9.3333V8.83313H12.6333L12.6666 8.86645V10.9665L13.5666 10.0665L13.5999 10.0331C14.2666 9.09981 15.4333 8.49981 16.6666 8.49981H17.3666C19.5999 8.49981 21.3333 10.2998 21.3333 12.5665V21.1331Z" fill="white" stroke="white" stroke-width="0.1"/>
</svg>
