<svg width="40" height="40" viewBox="0 0 40 40" fill="none" xmlns="http://www.w3.org/2000/svg">
<g filter="url(#filter0_bii_445_14831)">
<rect x="3" y="3" width="34" height="34" rx="17" fill="#F5AC37" fill-opacity="0.25"/>
<rect x="3.15" y="3.15" width="33.7" height="33.7" rx="16.85" stroke="url(#paint0_linear_445_14831)" stroke-opacity="0.5" stroke-width="0.3"/>
</g>
<path d="M21.4172 20.9274H26.3579C26.4633 20.9274 26.513 20.9274 26.5206 20.7883C26.561 20.2817 26.561 19.7723 26.5206 19.2651C26.5206 19.1667 26.472 19.126 26.3661 19.126H16.5333C16.4116 19.126 16.3788 19.1667 16.3788 19.2816V20.7393C16.3788 20.9274 16.3788 20.9274 16.5737 20.9274H21.4172ZM25.9688 17.4224C25.9829 17.3852 25.9829 17.3445 25.9688 17.308C25.8863 17.1269 25.7886 16.9542 25.6751 16.792C25.5043 16.5149 25.303 16.2595 25.0736 16.0301C24.9654 15.8916 24.8402 15.7671 24.6997 15.6616C23.9964 15.0583 23.1603 14.6314 22.2616 14.4168C21.8081 14.3142 21.3447 14.2652 20.8801 14.2693H16.5163C16.3946 14.2693 16.3782 14.3183 16.3782 14.425V17.3322C16.3782 17.4548 16.3782 17.4878 16.5327 17.4878H25.9103C25.9103 17.4878 25.9917 17.4713 26.008 17.4224H25.9683H25.9688ZM25.9688 22.631C25.8308 22.6157 25.6915 22.6157 25.5534 22.631H16.5415C16.4198 22.631 16.3788 22.631 16.3788 22.795V25.6372C16.3788 25.7681 16.3788 25.8012 16.5415 25.8012H20.7022C20.9012 25.8165 21.1001 25.8023 21.2949 25.7605C21.8988 25.7168 22.4927 25.5848 23.0591 25.3672C23.265 25.2952 23.464 25.2015 23.6518 25.0888H23.7085C24.6839 24.5776 25.4762 23.7744 25.9759 22.7885C25.9759 22.7885 26.0326 22.6646 25.9688 22.6322V22.631ZM14.7458 27.2748V27.2258V25.3176V24.6707V22.746C14.7458 22.6393 14.7458 22.6234 14.6159 22.6234H12.8523C12.7546 22.6234 12.7142 22.6234 12.7142 22.4925V20.9363H14.5995C14.7048 20.9363 14.7458 20.9363 14.7458 20.7971V19.2575C14.7458 19.159 14.7458 19.1348 14.6159 19.1348H12.8523C12.7546 19.1348 12.7142 19.1348 12.7142 19.0039V17.5627C12.7142 17.4725 12.7142 17.4483 12.8441 17.4483H14.5913C14.713 17.4483 14.7458 17.4483 14.7458 17.2926V12.8783C14.7458 12.7474 14.7458 12.7144 14.9084 12.7144H21.003C21.4453 12.732 21.8847 12.781 22.3195 12.8618C23.2153 13.0287 24.076 13.3512 24.863 13.8118C25.3849 14.1213 25.8653 14.4952 26.293 14.9257C26.6148 15.2624 26.905 15.6268 27.1625 16.0148C27.4182 16.4081 27.6306 16.8286 27.7973 17.2679C27.8178 17.3823 27.9266 17.4595 28.0402 17.4401H29.4947C29.6814 17.4401 29.6814 17.4401 29.6896 17.6205V18.9638C29.6896 19.0947 29.641 19.1277 29.5105 19.1277H28.3889C28.2754 19.1277 28.2426 19.1277 28.2508 19.2752C28.2953 19.774 28.2953 20.2747 28.2508 20.7735C28.2508 20.9127 28.2508 20.9292 28.4059 20.9292H29.689C29.7458 21.0029 29.689 21.0766 29.689 21.1509C29.6972 21.2459 29.6972 21.342 29.689 21.4369V22.4282C29.689 22.5674 29.6486 22.6086 29.5263 22.6086H27.9904C27.8833 22.588 27.7792 22.657 27.7546 22.7643C27.3889 23.7225 26.8038 24.5817 26.0478 25.2705C25.7717 25.5211 25.4814 25.7569 25.1784 25.9745C24.853 26.1632 24.5365 26.3596 24.203 26.5153C23.5892 26.7936 22.9456 26.9988 22.285 27.1291C21.6577 27.2424 21.0217 27.2937 20.3833 27.2848H14.7434V27.2766L14.7458 27.2748Z" fill="#FEFEFD"/>
<defs>
<filter id="filter0_bii_445_14831" x="-83" y="-83" width="206" height="206" filterUnits="userSpaceOnUse" color-interpolation-filters="sRGB">
<feFlood flood-opacity="0" result="BackgroundImageFix"/>
<feGaussianBlur in="BackgroundImageFix" stdDeviation="43"/>
<feComposite in2="SourceAlpha" operator="in" result="effect1_backgroundBlur_445_14831"/>
<feBlend mode="normal" in="SourceGraphic" in2="effect1_backgroundBlur_445_14831" result="shape"/>
<feColorMatrix in="SourceAlpha" type="matrix" values="0 0 0 0 0 0 0 0 0 0 0 0 0 0 0 0 0 0 127 0" result="hardAlpha"/>
<feOffset dy="4"/>
<feGaussianBlur stdDeviation="7.5"/>
<feComposite in2="hardAlpha" operator="arithmetic" k2="-1" k3="1"/>
<feColorMatrix type="matrix" values="0 0 0 0 1 0 0 0 0 1 0 0 0 0 1 0 0 0 0.15 0"/>
<feBlend mode="normal" in2="shape" result="effect2_innerShadow_445_14831"/>
<feColorMatrix in="SourceAlpha" type="matrix" values="0 0 0 0 0 0 0 0 0 0 0 0 0 0 0 0 0 0 127 0" result="hardAlpha"/>
<feOffset/>
<feGaussianBlur stdDeviation="34"/>
<feComposite in2="hardAlpha" operator="arithmetic" k2="-1" k3="1"/>
<feColorMatrix type="matrix" values="0 0 0 0 1 0 0 0 0 1 0 0 0 0 1 0 0 0 0.05 0"/>
<feBlend mode="normal" in2="effect2_innerShadow_445_14831" result="effect3_innerShadow_445_14831"/>
</filter>
<linearGradient id="paint0_linear_445_14831" x1="3" y1="1.78571" x2="20" y2="22.4286" gradientUnits="userSpaceOnUse">
<stop stop-color="white"/>
<stop offset="1" stop-color="white" stop-opacity="0"/>
</linearGradient>
</defs>
</svg>
