<svg width="24" height="24" viewBox="0 0 24 24" fill="none" xmlns="http://www.w3.org/2000/svg">
<path d="M21.8854 5.68652C21.7836 5.58469 21.6138 5.55074 21.478 5.58469L20.7991 5.82234C21.2064 5.34709 21.478 4.83789 21.6477 4.36264C21.7157 4.19291 21.6817 4.05713 21.5798 3.95526C21.478 3.85344 21.3083 3.81948 21.1725 3.88735C20.222 4.29473 19.4072 4.6342 18.7283 4.83785C18.7283 4.8718 18.6944 4.83785 18.6604 4.83785C18.1172 4.53234 16.7933 3.8534 15.8428 3.8534C13.4326 3.88735 11.4977 5.92416 11.4977 8.40226V8.53804C7.96721 7.8591 6.03227 6.8407 3.92755 4.63416L3.58816 4.29469L3.38447 4.70207C2.23029 6.90861 3.04501 8.91146 4.36892 10.2693C3.7579 10.1675 3.35052 9.96382 2.9771 9.65831C2.84132 9.55648 2.67158 9.52253 2.50185 9.62435C2.36607 9.69226 2.29816 9.89591 2.33212 10.0656C2.80736 11.6611 3.9955 12.9511 5.28546 13.7319C4.67444 13.7319 4.16523 13.664 3.65603 13.3245C3.52025 13.2566 3.31656 13.2566 3.18079 13.3585C3.04501 13.4603 2.9771 13.63 3.04501 13.7997C3.65603 15.531 4.84417 16.4476 6.7452 16.6852C5.76075 17.2623 4.47079 17.7376 2.46793 17.7715C2.26425 17.7715 2.09451 17.9073 2.02664 18.0771C1.95873 18.2807 2.02664 18.4505 2.16242 18.5863C3.38451 19.5707 6.10021 20.1478 9.46094 20.1478C15.4355 20.1478 20.3239 14.8182 20.3239 8.26648V8.16466C21.0707 7.79123 21.6817 7.07834 21.9872 6.09389C22.0212 5.95808 21.9872 5.78834 21.8854 5.68652ZM19.8486 7.62146L19.6449 7.68937V8.26648C19.6449 14.4448 15.0621 19.4689 9.4609 19.4689C6.37173 19.4689 4.30101 18.9597 3.18079 18.4165C5.5231 18.2468 6.88097 17.4999 7.93333 16.6852L8.782 16.0742H7.7636C5.82866 16.0742 4.64052 15.531 3.96158 14.2411C4.57261 14.4448 5.21759 14.4448 5.93048 14.4108C6.20204 14.3769 6.47364 14.3769 6.7452 14.3769L6.84702 13.6979C5.55706 13.3245 4.02945 12.1703 3.28261 10.6088C3.96155 10.9143 4.70835 10.9822 5.38729 10.9822H6.43964L5.59101 10.3712C4.87812 9.86196 2.77345 8.06279 3.79185 5.48283C5.96444 7.62146 8.0352 8.60591 11.7693 9.28484L12.1767 9.35275V8.40226C12.1767 6.29758 13.8061 4.56629 15.8429 4.53234C16.6237 4.49838 17.9137 5.21127 18.2871 5.41496C18.4907 5.51678 18.6944 5.55074 18.8981 5.48287C19.4073 5.31313 20.0183 5.07549 20.6972 4.80393C20.3917 5.31313 19.9844 5.78838 19.4412 6.22971C19.3055 6.33154 19.2715 6.53523 19.3394 6.70496C19.4073 6.87469 19.611 6.9426 19.7807 6.87469L21.1046 6.4334C20.867 6.87465 20.4936 7.38386 19.8486 7.62146Z" fill="white" stroke="white" stroke-width="0.2"/>
</svg>
