<svg width="101" height="49" viewBox="0 0 101 49" fill="none" xmlns="http://www.w3.org/2000/svg">
<path d="M21.7585 2.31152C29.4602 8.25847 38.2938 7.8903 40.8163 7.8903C40.2633 41.71 36.0583 37.2053 21.7585 46.6885C7.45631 37.2053 3.27719 41.71 2.72656 7.8903C5.22321 7.8903 14.0568 8.25612 21.7585 2.31152Z" fill="white"/>
<path d="M21.7573 2.31172L22.8703 0.878915C22.2138 0.372393 21.2985 0.372393 20.6443 0.878915L21.7573 2.31172ZM40.8151 7.89049L42.6317 7.92098C42.6388 7.43556 42.4506 6.96656 42.1094 6.62184C41.7682 6.27478 41.2999 6.08015 40.8128 6.08015V7.89284L40.8151 7.89049ZM21.7573 46.6887L20.7502 48.1965C21.3597 48.6022 22.155 48.6022 22.7645 48.1965L21.7573 46.6887ZM2.72539 7.89049V6.0778C2.2383 6.0778 1.77239 6.27244 1.42883 6.6195C1.08763 6.96656 0.899382 7.43556 0.906442 7.92098L2.72304 7.89049H2.72539ZM20.642 3.74217C28.8919 10.1112 38.3326 9.70084 40.8128 9.70084V6.0778C38.2455 6.0778 30.0214 6.40141 22.868 0.87657L20.642 3.73983V3.74217ZM38.9962 7.86001C38.8597 16.2762 38.502 22.2115 37.8173 26.6084C37.1419 30.9607 36.1772 33.5683 34.9347 35.3998C33.6758 37.3016 32.0969 38.4319 29.7555 39.8248C27.3954 41.2342 24.4116 42.7514 20.7478 45.1785L22.7621 48.1942C26.2471 45.8797 29.1555 44.4046 31.6215 42.9343C34.1088 41.4476 36.2972 39.8131 37.9467 37.4282C39.6127 34.973 40.6951 31.7744 41.4105 27.1618C42.1164 22.596 42.4929 16.4123 42.6317 7.91863L38.9962 7.86001ZM22.7621 45.1785C19.0983 42.7514 16.1193 41.2342 13.7591 39.8248C11.4225 38.4319 9.8459 37.304 8.58934 35.3998C7.34925 33.5683 6.38683 30.9607 5.71384 26.6084C5.03144 22.2091 4.67612 16.2739 4.53964 7.85766L0.906442 7.92098C1.04527 16.4146 1.41942 22.5984 2.123 27.1641C2.83599 31.7744 3.91607 34.9754 5.57736 37.4306C7.22218 39.8131 9.40822 41.4499 11.8931 42.9367C14.3568 44.407 17.2629 45.882 20.7502 48.1965L22.7645 45.1808L22.7621 45.1785ZM2.72539 9.70319C5.17968 9.70319 14.6204 10.1136 22.8703 3.74452L20.6443 0.88126C13.4885 6.40141 5.2644 6.0778 2.72539 6.0778V9.70084V9.70319Z" fill="#AAAAAA"/>
<path d="M58.3239 14.1234H54.6601V24.0545H52.1964V14.1234H48.582V12.1349H58.3239V14.1234ZM64.1643 19.6905H62.2018V24.0545H59.7381V12.1349H64.1831C65.595 12.1349 66.6868 12.4491 67.4516 13.0752C68.2187 13.7037 68.6023 14.5901 68.6023 15.7368C68.6023 16.5505 68.4234 17.2306 68.0681 17.7746C67.7175 18.314 67.1833 18.7454 66.4656 19.069L69.0541 23.9396V24.0545H66.4092L64.1667 19.6905H64.1643ZM62.2018 17.7019H64.1902C64.8091 17.7019 65.2891 17.5471 65.6279 17.2353C65.9668 16.9187 66.1362 16.4848 66.1362 15.9338C66.1362 15.3827 65.9739 14.9301 65.6515 14.6065C65.3338 14.2852 64.8444 14.1234 64.1808 14.1234H62.2018V17.7019ZM79.5348 12.1349V19.9859C79.5348 21.2898 79.123 22.3216 78.3018 23.0814C77.4852 23.8411 76.3675 24.2187 74.951 24.2187C73.5344 24.2187 72.4449 23.8505 71.6237 23.1142C70.8024 22.3779 70.3836 21.3648 70.3671 20.0774V12.1372H72.8308V20.0047C72.8308 20.7856 73.0167 21.3554 73.3885 21.7166C73.7673 22.0707 74.2874 22.2489 74.9486 22.2489C76.3346 22.2489 77.0382 21.5219 77.0593 20.0704V12.1372H79.5325L79.5348 12.1349ZM87.7566 20.9263C87.7566 20.462 87.5918 20.1079 87.2648 19.8617C86.9353 19.6107 86.3447 19.3481 85.4905 19.0761C84.6363 18.797 83.961 18.525 83.4621 18.2577C82.1044 17.526 81.4244 16.5411 81.4244 15.303C81.4244 14.6581 81.6055 14.0859 81.9656 13.5841C82.3326 13.0775 82.855 12.6812 83.5351 12.3975C84.2198 12.1137 84.987 11.9707 85.8341 11.9707C86.6812 11.9707 87.4507 12.1255 88.1189 12.4374C88.7872 12.7422 89.3049 13.176 89.672 13.7388C90.0438 14.3016 90.2297 14.9395 90.2297 15.6547H87.766C87.766 15.1083 87.5942 14.6862 87.2483 14.3861C86.9024 14.0812 86.4176 13.9288 85.7941 13.9288C85.1705 13.9288 84.7234 14.0578 84.3893 14.3134C84.0551 14.5643 83.8881 14.8973 83.8881 15.3123C83.8881 15.6993 84.0834 16.0252 84.4716 16.2855C84.8669 16.5482 85.4435 16.792 86.2059 17.0219C87.6083 17.4416 88.6296 17.9622 89.2696 18.586C89.9097 19.2074 90.2297 19.9836 90.2297 20.9099C90.2297 21.9417 89.8391 22.7507 89.0555 23.3417C88.2719 23.9256 87.2177 24.2187 85.8929 24.2187C84.9728 24.2187 84.1351 24.0522 83.3798 23.7192C82.6244 23.3815 82.0456 22.9196 81.6455 22.3356C81.2502 21.7517 81.0549 21.074 81.0549 20.3049H83.528C83.528 21.6204 84.3163 22.277 85.8929 22.277C86.4788 22.277 86.9353 22.1598 87.2648 21.9253C87.5942 21.6861 87.7566 21.3531 87.7566 20.9263ZM100.908 14.1234H97.2443V24.0545H94.7806V14.1234H91.1662V12.1349H100.908V14.1234Z" fill="#AAAAAA"/>
<path d="M52.9491 34.9002L53.2385 36.3448L53.5915 34.9635L55.6198 28.1021H56.3328L58.3353 34.9635L58.6812 36.3588L58.9895 34.9002L60.6767 28.1021H61.4861L59.093 37.4141H58.3353L56.2175 30.1305L55.9799 29.2089L55.7493 30.1305L53.5797 37.4141H52.822L50.4336 28.1021H51.2431L52.9491 34.9002ZM67.7666 34.8041H63.5239L62.5615 37.4141H61.7332L65.2699 28.1021H66.0206L69.5573 37.4141H68.7361L67.7666 34.8041ZM63.7687 34.1334H67.5172L65.6441 29.0612L63.771 34.1334H63.7687ZM71.7339 36.7481H76.3484V37.4141H70.9386V28.1021H71.7339V36.7481ZM78.6662 36.7481H83.2806V37.4141H77.8708V28.1021H78.6662V36.7481ZM89.9611 32.9492H85.5914V36.7481H90.6176V37.4141H84.8031V28.1021H90.5847V28.7727H85.5914V32.2832H89.9611V32.9492ZM98.7547 28.7727H95.5521V37.4141H94.7638V28.7727H91.5683V28.1021H98.757V28.7727H98.7547Z" fill="#AAAAAA"/>
</svg>
