<?xml version="1.0" encoding="utf-8"?>
<!-- Generator: Adobe Illustrator 26.4.1, SVG Export Plug-In . SVG Version: 6.00 Build 0)  -->
<svg version="1.1" id="Layer_1" xmlns="http://www.w3.org/2000/svg" xmlns:xlink="http://www.w3.org/1999/xlink" x="0px" y="0px"
	 viewBox="0 0 129 30" style="enable-background:new 0 0 129 30;" xml:space="preserve">
<style type="text/css">
	.st0{fill:#FFFFFF;}
	.st1{fill-rule:evenodd;clip-rule:evenodd;fill:#FFFFFF;}
</style>
<g>
	<g>
		<path class="st0" d="M26,25.2c-0.7,0.7-1.4,1.4-2.2,2C21.2,29,18.1,30,15,30c-2.7,0-5.3-0.7-7.6-2.1c-2.3-1.4-4.2-3.3-5.5-5.6
			c-1.3-2.3-2-5-1.9-7.6C0.1,12,0.8,9.4,2.2,7.1C2.3,7,2.4,6.9,2.4,6.8l0.2-0.3c0.3-0.4,0.5-0.7,0.8-1.1l0.2-0.2
			c0,0,0.1-0.1,0.1-0.1C3.8,5,3.9,4.9,4,4.9L4,4.8l2.2,3l0,0C6.2,7.9,6.1,8,6.1,8C6,8.1,6,8.2,5.9,8.2c-1.6,2.2-2.4,4.8-2.2,7.5
			C3.9,18.4,5,21,6.9,22.9s4.4,3.1,7.1,3.4c2.7,0.2,5.4-0.5,7.6-2.1l-1.3-1.8l-2.1-3c0.9-0.6,1.5-1.5,1.9-2.4
			c0.3-0.8,0.4-1.7,0.3-2.6c-0.1-0.9-0.4-1.7-0.9-2.5c-0.5-0.7-1.2-1.3-2-1.8c-0.8-0.4-1.7-0.6-2.6-0.6h-0.2c-1.1,0-2.1,0.4-2.9,1
			l-2.2-3c0.8-0.6,1.7-1,2.7-1.3h0C13.2,6,14.1,5.8,15,5.8c0.3,0,0.5,0,0.8,0C17.4,6,19,6.6,20.3,7.5c1.3,0.9,2.4,2.2,3,3.7
			c0.7,1.5,1,3.1,0.8,4.7s-0.7,3.1-1.7,4.5l1.3,1.8L26,25.2z"/>
		<path class="st1" d="M18.2,19.4c-0.6,0.4-1.2,0.7-1.9,0.9c-0.7,0.2-1.4,0.2-2.2,0.1c-0.7-0.1-1.4-0.4-2-0.7
			c-0.6-0.4-1.2-0.9-1.6-1.5c-0.4-0.6-0.7-1.3-0.9-2c-0.2-0.7-0.2-1.4-0.1-2.2c0.1-0.7,0.4-1.4,0.8-2c0.4-0.6,0.9-1.1,1.5-1.5
			L18.2,19.4z"/>
		<path class="st0" d="M43.8,16.4l2,1.5c-1.3,1.8-2.9,2.5-4.6,2.5c-0.7,0-1.4-0.1-2.1-0.4c-0.7-0.3-1.3-0.7-1.8-1.2
			c-0.5-0.5-0.9-1.1-1.2-1.8c-0.3-0.7-0.4-1.4-0.4-2.1c0-0.7,0.1-1.4,0.4-2.1c0.3-0.7,0.7-1.3,1.2-1.8c0.5-0.5,1.1-0.9,1.8-1.2
			c0.7-0.3,1.4-0.4,2.1-0.4c1.7,0,3.3,0.8,4.6,2.6l-2,1.5C43,12.5,42.2,12,41.3,12c-0.8,0-1.5,0.3-2.1,0.9c-0.5,0.5-0.9,1.3-0.9,2.1
			s0.3,1.5,0.9,2.1c0.5,0.5,1.3,0.9,2.1,0.9C42.2,17.9,43,17.5,43.8,16.4z"/>
		<path class="st0" d="M49.5,13.9c0.7-0.3,1.4-0.5,2.2-0.5l-0.6,2.3c-0.9,0-1.6,0.4-1.6,1v3.5h-2.3v-6.7h2.3V13.9z"/>
		<path class="st0" d="M53.5,23.4l1.5-3.7l-2.5-6.1h2.3l1.3,3.2l1.3-3.2h2.3l-4,9.8H53.5z"/>
		<path class="st0" d="M67.9,16.9c0,0.9-0.4,1.8-1,2.5c-0.3,0.3-0.7,0.6-1.1,0.7c-0.4,0.2-0.9,0.3-1.3,0.3c-0.4,0-0.8-0.2-1.2-0.4
			v3.4h-2.3v-9.8h2.3v0.3c0.3-0.3,0.7-0.4,1.2-0.4c0.5,0,0.9,0.1,1.3,0.2s0.8,0.4,1.1,0.7C67.5,15.1,67.9,16,67.9,16.9z M65.6,16.9
			c0-0.2-0.1-0.5-0.2-0.7c-0.1-0.2-0.3-0.3-0.5-0.4c-0.2-0.1-0.5-0.1-0.7-0.1c-0.2,0-0.4,0.2-0.6,0.3c-0.2,0.2-0.3,0.4-0.3,0.6
			c0,0.2,0,0.5,0.1,0.7c0.1,0.2,0.2,0.4,0.4,0.5c0.2,0.1,0.4,0.2,0.7,0.2c0.2,0,0.3,0,0.5-0.1c0.1-0.1,0.3-0.1,0.4-0.3
			c0.1-0.1,0.2-0.2,0.3-0.4C65.6,17.2,65.6,17.1,65.6,16.9z"/>
		<path class="st0" d="M69.4,17.8v-2.1h-0.8v-2.2h0.8v-2.1h2.3v2.1h1.7v2.2h-1.7v2.1c0,0,0,0.1,0,0.1c0,0,0.1,0.1,0.1,0.1h1.4
			l0.6,2.3h-2c-0.3,0-0.6-0.1-0.9-0.2c-0.3-0.1-0.6-0.3-0.8-0.5c-0.2-0.2-0.4-0.5-0.5-0.8C69.5,18.5,69.4,18.1,69.4,17.8z"/>
		<path class="st0" d="M81.6,16.9c0,0.9-0.4,1.8-1,2.5c-0.7,0.6-1.5,1-2.5,1c-0.5,0-0.9-0.1-1.4-0.2c-0.4-0.2-0.8-0.4-1.2-0.8
			c-0.3-0.3-0.6-0.7-0.8-1.1c-0.2-0.4-0.3-0.9-0.3-1.4c0-0.5,0.1-0.9,0.3-1.4c0.2-0.4,0.4-0.8,0.8-1.1c0.3-0.3,0.7-0.6,1.2-0.8
			c0.4-0.2,0.9-0.3,1.4-0.2c0.5,0,0.9,0.1,1.3,0.3c0.4,0.2,0.8,0.4,1.1,0.7C81.3,15.1,81.6,16,81.6,16.9z M79.3,16.9
			c0-0.3-0.1-0.6-0.4-0.8c-0.2-0.2-0.5-0.3-0.8-0.3s-0.6,0.1-0.8,0.3c-0.2,0.2-0.3,0.5-0.4,0.8c0,0.2,0,0.3,0.1,0.5s0.1,0.3,0.2,0.4
			s0.2,0.2,0.4,0.3c0.1,0.1,0.3,0.1,0.5,0.1c0.2,0,0.3,0,0.5-0.1c0.1-0.1,0.3-0.2,0.4-0.3s0.2-0.2,0.2-0.4
			C79.3,17.2,79.3,17.1,79.3,16.9z"/>
		<path class="st0" d="M89.8,16.9c0,0.9-0.4,1.8-1,2.5c-0.3,0.3-0.7,0.6-1.1,0.7s-0.9,0.3-1.3,0.3c-0.4,0-0.8-0.2-1.2-0.4v3.4h-2.3
			v-9.8h2.3v0.3c0.3-0.3,0.8-0.4,1.2-0.4c0.5,0,0.9,0.1,1.3,0.3s0.8,0.4,1.1,0.7C89.5,15.1,89.8,16,89.8,16.9z M87.5,16.9
			c0-0.2-0.1-0.5-0.2-0.7c-0.1-0.2-0.3-0.3-0.5-0.4c-0.2-0.1-0.5-0.1-0.7-0.1s-0.4,0.2-0.6,0.3c-0.2,0.2-0.3,0.4-0.3,0.6
			c0,0.2,0,0.5,0.1,0.7c0.1,0.2,0.2,0.4,0.4,0.5c0.2,0.1,0.4,0.2,0.7,0.2c0.2,0,0.3,0,0.5-0.1c0.1-0.1,0.3-0.1,0.4-0.3
			c0.1-0.1,0.2-0.2,0.3-0.4C87.5,17.2,87.5,17.1,87.5,16.9z"/>
		<path class="st0" d="M97.8,16.9c0,0.9-0.4,1.8-1,2.5c-0.7,0.6-1.5,1-2.5,1c-0.5,0-0.9-0.1-1.4-0.2c-0.4-0.2-0.8-0.4-1.2-0.8
			c-0.3-0.3-0.6-0.7-0.8-1.1c-0.2-0.4-0.3-0.9-0.3-1.4c0-0.5,0.1-0.9,0.3-1.4c0.2-0.4,0.4-0.8,0.8-1.1c0.3-0.3,0.7-0.6,1.2-0.8
			c0.4-0.2,0.9-0.3,1.4-0.2c0.5,0,0.9,0.1,1.3,0.3c0.4,0.2,0.8,0.4,1.1,0.7C97.4,15.1,97.8,16,97.8,16.9z M95.4,16.9
			c0-0.3-0.1-0.6-0.4-0.8c-0.2-0.2-0.5-0.3-0.8-0.3s-0.6,0.1-0.8,0.3c-0.2,0.2-0.3,0.5-0.4,0.8c0,0.2,0,0.3,0.1,0.5
			c0.1,0.1,0.1,0.3,0.2,0.4c0.1,0.1,0.2,0.2,0.4,0.3c0.1,0.1,0.3,0.1,0.5,0.1c0.2,0,0.3,0,0.5-0.1c0.1-0.1,0.3-0.2,0.4-0.3
			s0.2-0.2,0.2-0.4C95.4,17.2,95.5,17.1,95.4,16.9z"/>
		<path class="st0" d="M99.1,20.3V9.5h2.3v10.8H99.1z"/>
		<path class="st0" d="M103.5,11.3c0-0.2,0-0.3,0.1-0.5c0.1-0.2,0.2-0.3,0.3-0.4c0.1-0.1,0.3-0.2,0.4-0.3c0.2-0.1,0.3-0.1,0.5-0.1
			c0.4,0,0.7,0.1,0.9,0.4s0.4,0.6,0.4,0.9c0,0.4-0.1,0.7-0.4,0.9c-0.2,0.2-0.6,0.4-0.9,0.4c-0.2,0-0.3,0-0.5-0.1
			c-0.2-0.1-0.3-0.2-0.4-0.3c-0.1-0.1-0.2-0.3-0.3-0.4S103.5,11.5,103.5,11.3z M103.6,13.5h2.3v6.7h-2.3V13.5z"/>
		<path class="st0" d="M108.4,17.8v-2.1h-0.8v-2.2h0.8v-2.1h2.3v2.1h1.7v2.2h-1.7v2.1c0,0,0,0.1,0,0.1c0,0,0.1,0.1,0.1,0.1h1.4
			l0.6,2.3h-2c-0.3,0-0.6-0.1-0.9-0.2c-0.3-0.1-0.6-0.3-0.8-0.5c-0.2-0.2-0.4-0.5-0.5-0.8C108.5,18.5,108.4,18.1,108.4,17.8z"/>
		<path class="st0" d="M118.3,13.9v-0.3h2.3v6.7h-2.3V20c-0.3,0.3-0.7,0.4-1.2,0.4c-0.5,0-0.9-0.1-1.3-0.3c-0.4-0.2-0.8-0.4-1.1-0.8
			c-0.3-0.3-0.6-0.7-0.8-1.1s-0.3-0.9-0.3-1.3c0-0.5,0.1-0.9,0.3-1.3c0.2-0.4,0.4-0.8,0.8-1.1c0.3-0.3,0.7-0.6,1.1-0.8
			c0.4-0.2,0.9-0.3,1.3-0.3C117.5,13.4,118,13.6,118.3,13.9z M118.3,16.9c0-0.2-0.1-0.5-0.2-0.6c-0.1-0.2-0.3-0.3-0.5-0.4
			c-0.2-0.1-0.4-0.1-0.7-0.1c-0.2,0-0.4,0.2-0.6,0.3c-0.2,0.2-0.3,0.4-0.3,0.6c0,0.2,0,0.5,0.1,0.7c0.1,0.2,0.2,0.4,0.4,0.5
			c0.2,0.1,0.4,0.2,0.6,0.2c0.3,0,0.6-0.1,0.8-0.4C118.2,17.5,118.3,17.2,118.3,16.9z"/>
		<path class="st0" d="M127.8,14.4c0.6,0.6,0.9,1.4,0.9,2.3v3.6h-2.3v-3.6c0-0.3-0.1-0.5-0.3-0.7c-0.2-0.2-0.4-0.3-0.7-0.3
			c-0.3,0-0.5,0.1-0.7,0.3c-0.2,0.2-0.3,0.4-0.3,0.7v3.6h-2.3v-6.7h2.3v0.3c0.1-0.3,0.6-0.4,1-0.4c0.4,0,0.9,0.1,1.3,0.2
			C127.1,13.8,127.5,14.1,127.8,14.4L127.8,14.4z"/>
		<path class="st1" d="M30,15c0,2.7-0.7,5.4-2.1,7.7l-2.4-3.4c0.9-2.1,1.1-4.4,0.6-6.6c0-0.1,0-0.1,0-0.2v0c0-0.1,0-0.1-0.1-0.2
			s0-0.1,0-0.2c0-0.1-0.1-0.3-0.1-0.4c0,0,0-0.1,0-0.1c0,0,0,0,0-0.1c0-0.1-0.1-0.2-0.1-0.4c0-0.1-0.1-0.2-0.1-0.2
			c0-0.1-0.1-0.2-0.1-0.2c0-0.1-0.1-0.2-0.1-0.2c-0.1-0.2-0.1-0.3-0.2-0.5C25,9.8,25,9.7,25,9.6l0,0c0,0,0,0,0,0
			c0-0.1-0.1-0.1-0.1-0.2c0-0.1-0.1-0.2-0.1-0.2c-0.1-0.2-0.2-0.3-0.3-0.5c-0.6-0.9-1.3-1.7-2.1-2.4L22,6.1l-0.2-0.2
			c-0.1-0.1-0.1-0.1-0.2-0.2c-0.1-0.1-0.1-0.1-0.2-0.1c-0.1-0.1-0.2-0.1-0.2-0.2C21,5.4,21,5.4,20.9,5.3c0,0-0.1-0.1-0.2-0.1
			c-2.9-1.7-6.5-2-9.7-0.9c-0.8,0.3-2.6,1.4-2.6,1.4l-2.2-3l0.3-0.2c0.7-0.5,1.5-0.9,2.3-1.3c4.2-1.9,8.9-1.7,13,0.4
			c0.1,0.1,0.3,0.1,0.4,0.2c0.1,0,0.1,0.1,0.2,0.1l0.2,0.1c0.1,0,0.1,0.1,0.2,0.1c0.1,0.1,0.3,0.2,0.4,0.2l0.2,0.1
			c0.1,0,0.1,0.1,0.2,0.2c0.1,0.1,0.2,0.1,0.2,0.2L24,3.1l0.2,0.2c0.2,0.1,0.4,0.3,0.6,0.5s0.4,0.3,0.5,0.5l0.2,0.2
			c0.1,0.1,0.2,0.2,0.2,0.2C26,4.8,26.2,5,26.3,5.2l0.2,0.2c0.1,0.1,0.1,0.1,0.2,0.2s0.1,0.1,0.1,0.2c0,0.1,0.1,0.1,0.1,0.2l0.1,0.2
			c0.1,0.1,0.1,0.2,0.2,0.2c0,0.1,0.1,0.2,0.2,0.2c0,0,0.1,0.1,0.1,0.1s0.1,0.1,0.1,0.1l0.1,0.2c0.1,0.1,0.1,0.2,0.2,0.3l0.1,0.2
			l0.1,0.2c0,0,0,0,0,0l0,0c0,0,0,0,0,0c0,0,0,0,0,0l0.1,0.2l0,0c0,0.1,0.1,0.2,0.1,0.3c0,0.1,0.1,0.2,0.1,0.3l0.1,0.2l0.1,0.2
			L29,9.5c0,0.1,0.1,0.2,0.1,0.3c0,0,0,0,0,0.1c0,0.1,0.1,0.2,0.1,0.3c0.1,0.2,0.1,0.5,0.2,0.7c0,0.1,0.1,0.2,0.1,0.3v0
			c0.1,0.2,0.1,0.5,0.2,0.7c0,0.1,0,0.2,0.1,0.4c0,0,0,0,0,0c0,0.1,0,0.2,0.1,0.3l0,0.4v0c0,0.1,0,0.2,0,0.4c0,0.2,0,0.5,0.1,0.7
			C30,14.4,30,14.7,30,15z"/>
		<path class="st0" d="M26,25.2c-0.7,0.7-1.4,1.4-2.2,2C21.2,29,18.1,30,15,30C6.7,30,0,23.3,0,15c0-2.8,0.8-5.5,2.2-7.9
			C2.3,7,2.4,6.9,2.4,6.8l0.2-0.3c0.2-0.4,0.5-0.7,0.8-1.1l0.2-0.2c0,0,0.1-0.1,0.1-0.1C3.8,5,3.9,4.9,4,4.9L4,4.8l2.2,3l0,0
			C6.2,7.9,6.1,8,6.1,8C6,8.1,6,8.2,5.9,8.2c-3.8,5-2.7,12.1,2.3,15.8c3.9,3,9.4,3,13.4,0.1l-1.2-1.8l-2.1-3
			c0.9-0.6,1.5-1.5,1.9-2.4c1.1-2.8-0.3-6-3.1-7.1c-0.6-0.2-1.3-0.4-2-0.4h-0.2c-1.1,0-2.1,0.4-2.9,1l-2.2-3c0.8-0.6,1.7-1,2.7-1.3
			C13.2,6,14.1,5.8,15,5.8c0.3,0,0.5,0,0.8,0c5,0.4,8.8,4.9,8.3,9.9c-0.1,1.6-0.7,3.2-1.7,4.5l1.3,1.8L26,25.2z"/>
		<path class="st1" d="M18.2,19.4c-2.4,1.8-5.8,1.3-7.6-1.1c-1.8-2.4-1.3-5.8,1.1-7.6c0.1,0,0.1-0.1,0.2-0.1L18.2,19.4z"/>
		<path class="st0" d="M43.8,16.4l2,1.5c-1.3,1.8-2.9,2.5-4.6,2.5c-3,0.1-5.5-2.3-5.5-5.3c0-3,2.3-5.5,5.3-5.5c0.1,0,0.1,0,0.2,0
			c1.7,0,3.3,0.8,4.6,2.6l-2,1.5c-0.8-1.1-1.7-1.5-2.6-1.5c-1.6,0-2.9,1.3-2.9,2.9c0,1.6,1.3,2.9,2.9,2.9
			C42.2,17.9,43,17.5,43.8,16.4z"/>
		<path class="st0" d="M49.5,13.9c0.7-0.3,1.4-0.5,2.2-0.5l-0.6,2.3c-0.9,0-1.6,0.4-1.6,1v3.5h-2.3v-6.7h2.3L49.5,13.9L49.5,13.9z"
			/>
		<path class="st0" d="M53.5,23.4l1.5-3.7l-2.5-6.1h2.3l1.3,3.2l1.3-3.2h2.3l-4,9.8H53.5z"/>
		<path class="st0" d="M67.9,16.9c0,0.9-0.4,1.8-1,2.5c-0.7,0.6-1.5,1-2.5,1c-0.4,0-0.8-0.2-1.2-0.4v3.4h-2.3v-9.8h2.3v0.3
			c0.3-0.3,0.8-0.4,1.2-0.4c0.9,0,1.8,0.3,2.5,1C67.5,15.1,67.9,16,67.9,16.9z M65.6,16.9c0-0.6-0.5-1.2-1.2-1.2s-1.2,0.5-1.2,1.2
			c0,0.6,0.5,1.2,1.2,1.2C65.1,18.1,65.6,17.6,65.6,16.9z"/>
		<path class="st0" d="M69.4,17.8v-2.1h-0.8v-2.2h0.8v-2.1h2.3v2.1h1.7v2.2h-1.7v2.1c0,0.1,0.1,0.2,0.2,0.2h1.4l0.6,2.3h-2
			C70.5,20.3,69.4,19.2,69.4,17.8C69.4,17.8,69.4,17.8,69.4,17.8z"/>
		<path class="st0" d="M81.6,16.9c0,0.9-0.4,1.8-1,2.5c-0.6,0.6-1.5,1-2.5,1c-1.9,0-3.5-1.5-3.6-3.4c0-1.9,1.5-3.5,3.4-3.6
			c0.1,0,0.1,0,0.2,0c0.9,0,1.8,0.4,2.5,1C81.3,15.1,81.6,16,81.6,16.9z M79.3,16.9c0-0.6-0.6-1.1-1.2-1.1c-0.6,0-1.1,0.5-1.1,1.1
			c0,0.6,0.5,1.2,1.1,1.2C78.7,18.1,79.3,17.6,79.3,16.9C79.3,17,79.3,16.9,79.3,16.9z"/>
		<path class="st0" d="M89.8,16.9c0,0.9-0.4,1.8-1,2.5c-0.7,0.6-1.5,1-2.5,1c-0.4,0-0.8-0.2-1.2-0.4v3.4h-2.3v-9.8h2.3v0.3
			c0.3-0.3,0.8-0.4,1.2-0.4c0.9,0,1.8,0.4,2.5,1C89.4,15.1,89.8,16,89.8,16.9z M87.5,16.9c0-0.6-0.5-1.2-1.2-1.2
			c-0.6,0-1.2,0.5-1.2,1.2c0,0.6,0.5,1.2,1.2,1.2C87,18.1,87.5,17.6,87.5,16.9C87.5,16.9,87.5,16.9,87.5,16.9z"/>
		<path class="st0" d="M97.8,16.9c0,0.9-0.4,1.8-1,2.5c-0.6,0.6-1.5,1-2.5,1c-1.9,0-3.5-1.5-3.6-3.4c0-1.9,1.5-3.5,3.4-3.6
			c0.1,0,0.1,0,0.2,0c0.9,0,1.8,0.4,2.5,1C97.4,15.1,97.8,16,97.8,16.9z M95.4,16.9c0-0.6-0.6-1.1-1.2-1.1c-0.6,0-1.1,0.5-1.1,1.1
			c0,0.6,0.5,1.2,1.1,1.2C94.9,18.1,95.4,17.6,95.4,16.9C95.4,17,95.4,16.9,95.4,16.9z"/>
		<path class="st0" d="M99.1,20.3V9.5h2.3v10.8H99.1z"/>
		<path class="st0" d="M103.5,11.3c0-0.7,0.6-1.3,1.3-1.3c0.7,0,1.3,0.6,1.3,1.3s-0.6,1.3-1.3,1.3C104.1,12.6,103.5,12,103.5,11.3z
			 M103.6,13.5h2.3v6.7h-2.3V13.5z"/>
		<path class="st0" d="M108.4,17.8v-2.1h-0.8v-2.2h0.8v-2.1h2.3v2.1h1.7v2.2h-1.7v2.1c0,0.1,0.1,0.2,0.2,0.2h1.4l0.6,2.3h-2
			C109.5,20.3,108.4,19.2,108.4,17.8C108.4,17.8,108.4,17.8,108.4,17.8z"/>
		<path class="st0" d="M118.3,13.9v-0.3h2.3v6.7h-2.3V20c-0.3,0.3-0.7,0.4-1.2,0.4c-1.9,0-3.5-1.6-3.5-3.5c0-1.9,1.6-3.5,3.5-3.5
			C117.5,13.4,117.9,13.6,118.3,13.9z M118.3,16.9c0-0.6-0.5-1.2-1.2-1.1c-0.6,0-1.2,0.5-1.1,1.2c0,0.6,0.5,1.1,1.2,1.1
			C117.8,18.1,118.3,17.6,118.3,16.9z"/>
		<path class="st0" d="M127.8,14.4c0.6,0.6,0.9,1.4,0.9,2.3v3.6h-2.3v-3.6c0-0.5-0.4-1-0.9-1c-0.5,0-1,0.4-1,0.9v3.6h-2.3v-6.7h2.3
			v0.3c0.1-0.3,0.6-0.4,1-0.4C126.3,13.4,127.1,13.8,127.8,14.4z"/>
	</g>
</g>
</svg>
