<svg width="24" height="24" viewBox="0 0 24 24" fill="none" xmlns="http://www.w3.org/2000/svg">
<g clip-path="url(#clip0_30_3024)">
<path d="M13.3459 10.3442L8.58278 13.0942M8.65521 13.389L10.1205 20.5967C10.2356 21.163 10.2931 21.4461 10.4345 21.5593C10.5572 21.6576 10.7191 21.6924 10.8714 21.6533C11.0468 21.6082 11.2157 21.3738 11.5535 20.905L22.266 6.03661C22.5957 5.579 22.7605 5.3502 22.749 5.17124C22.7389 5.01575 22.657 4.87383 22.5274 4.7874C22.3782 4.68792 22.0976 4.71629 21.5364 4.77301L3.29747 6.61677C2.72431 6.67471 2.43772 6.70368 2.31105 6.83281C2.20104 6.94494 2.15013 7.10226 2.17358 7.25759C2.20058 7.43645 2.41585 7.62783 2.84639 8.0106L8.40279 12.9505C8.47674 13.0162 8.51371 13.0491 8.54305 13.0876C8.56908 13.1218 8.5906 13.1592 8.60708 13.1988C8.62565 13.2435 8.6355 13.292 8.65521 13.389Z" stroke="white" stroke-linecap="round" stroke-linejoin="round"/>
</g>
<defs>
<clipPath id="clip0_30_3024">
<rect width="24" height="24" fill="white"/>
</clipPath>
</defs>
</svg>
