<svg width="18" height="18" viewBox="0 0 18 18" fill="none" xmlns="http://www.w3.org/2000/svg">
<path opacity="0.7" d="M1.41578 4.66C2.23578 3.34 3.35578 2.3 4.77578 1.54C6.17578 0.78 7.73578 0.4 9.41578 0.4C11.0358 0.4 12.4758 0.719999 13.7558 1.34C15.0358 1.96 16.0158 2.82 16.7358 3.92C17.4358 5.02 17.7958 6.26 17.7958 7.66C17.7958 8.7 17.5958 9.64 17.2158 10.44C16.8358 11.26 16.3158 11.9 15.6558 12.34C14.9958 12.8 14.2558 13.02 13.4558 13.02C12.8558 13.02 12.3958 12.88 12.0358 12.6C11.6758 12.32 11.4558 11.96 11.4158 11.52L11.3758 11.22C11.1358 11.76 10.7358 12.2 10.1558 12.52C9.55578 12.84 8.91578 13 8.21578 13C7.53578 13 6.93578 12.84 6.39578 12.52C5.85578 12.2 5.43578 11.76 5.13578 11.18C4.81578 10.6 4.67578 9.94 4.67578 9.18C4.67578 8.36 4.85578 7.6 5.23578 6.88C5.61578 6.18 6.13578 5.62 6.77578 5.2C7.41578 4.8 8.09578 4.58 8.83578 4.58C9.57578 4.58 10.1958 4.72 10.6758 5C11.1558 5.28 11.4758 5.66 11.6358 6.1L11.9358 4.76H13.2158L12.6158 10.46L12.5958 10.72C12.5958 11.12 12.6958 11.4 12.8958 11.6C13.0958 11.8 13.3758 11.88 13.7358 11.88C14.1758 11.88 14.5758 11.7 14.9558 11.32C15.3358 10.96 15.6358 10.44 15.8758 9.78C16.1158 9.14 16.2358 8.42 16.2358 7.62C16.2358 6.46 15.9358 5.44 15.3758 4.56C14.8158 3.68 14.0158 2.98 12.9758 2.5C11.9358 2.02 10.7358 1.76 9.39578 1.76C7.99578 1.76 6.71578 2.1 5.55578 2.74C4.39578 3.38 3.45578 4.26 2.77578 5.38C2.09578 6.5 1.75578 7.72 1.75578 9.06C1.75578 10.44 2.05578 11.64 2.65578 12.64C3.25578 13.66 4.09578 14.44 5.21578 14.98C6.33578 15.52 7.63578 15.78 9.13578 15.78C9.99578 15.78 10.8158 15.68 11.5958 15.46C12.3758 15.26 13.0758 14.94 13.7158 14.54L13.6758 16C13.1558 16.36 12.4758 16.64 11.6358 16.84C10.7958 17.04 9.91578 17.14 8.99578 17.14C7.27578 17.14 5.75578 16.82 4.43578 16.14C3.09578 15.48 2.05578 14.54 1.31578 13.32C0.555781 12.12 0.195781 10.7 0.195781 9.08C0.195781 7.46 0.595781 5.98 1.41578 4.66ZM10.7758 6.44C10.3558 6 9.81578 5.78 9.13578 5.78C8.57578 5.78 8.07578 5.94 7.63578 6.24C7.19578 6.54 6.83578 6.94 6.57578 7.46C6.31578 7.98 6.19578 8.52 6.19578 9.12C6.19578 9.92 6.39578 10.58 6.83578 11.06C7.27578 11.56 7.83578 11.8 8.53578 11.8C9.05578 11.8 9.55578 11.66 9.99578 11.36C10.4358 11.06 10.7758 10.64 11.0358 10.08C11.2758 9.54 11.4158 8.92 11.4158 8.2C11.4158 7.46 11.1958 6.88 10.7758 6.44Z" fill="white"/>
</svg>
