<svg width="130" height="35" viewBox="0 0 130 35" fill="none" xmlns="http://www.w3.org/2000/svg">
<path d="M18.9814 10.1697L16.1421 8.5178C15.6259 8.25969 14.9548 8.25969 14.4386 8.5178L11.5994 10.1697C10.9799 10.5311 10.9799 11.0989 11.5994 11.4603L14.4386 13.1638C14.9548 13.4736 15.6259 13.4736 16.1421 13.1638L18.9814 11.4603C19.3427 11.357 19.5492 10.9441 19.3944 10.5827C19.3427 10.3762 19.1879 10.2213 18.9814 10.1697Z" fill="#AAAAAA"/>
<path d="M23.9371 11.77L16.0853 16.3644C15.5691 16.6225 14.898 16.6225 14.3818 16.3644L9.42604 13.4735C8.80657 13.1122 8.29035 13.3703 8.29035 14.093V22.9204C8.34197 23.3334 8.08386 23.6948 7.67088 23.7464C7.46439 23.798 7.30952 23.7464 7.15466 23.5915L6.3287 23.1269C5.81247 22.8172 5.50274 22.2493 5.45112 21.6815V12.1313C5.50274 11.5119 5.81247 10.9956 6.3287 10.6343L14.4386 5.93665C14.9548 5.67854 15.6259 5.67854 16.1421 5.93665L23.9939 10.4278C24.3552 10.531 24.5617 10.8924 24.5101 11.2538C24.4585 11.5119 24.252 11.6667 24.0455 11.77H23.9371ZM30.0853 8.09963L16.3486 0.201397C15.8324 -0.0567155 15.1613 -0.0567155 14.6451 0.201397L0.908343 8.09963C0.392119 8.40936 0.0823841 8.97721 0.0307617 9.59668V25.3983C0.0823841 26.0178 0.392119 26.534 0.908343 26.8953L14.6451 34.7987C15.1613 35.0569 15.8324 35.0569 16.3486 34.7987L30.0853 26.8953C30.6016 26.534 30.9113 26.0178 30.9629 25.3983V9.59668C30.9113 8.97721 30.6016 8.46098 30.0853 8.09963Z" fill="#AAAAAA"/>
<path d="M47.1774 28.6556C47.1774 28.5524 47.229 28.4492 47.3838 28.3975H47.4355H47.9001C48.0549 28.3975 48.1582 28.5008 48.1582 28.604V31.0819C48.1582 31.1851 48.1066 31.2884 48.0033 31.2884C46.1449 32.6822 43.4605 32.2692 42.0667 30.4108C40.6729 28.5524 41.0859 25.868 42.9443 24.4742C44.1316 23.5967 45.6287 23.3902 46.9709 23.9064C47.3322 24.0613 48.1066 24.371 48.1066 24.6807C48.1066 24.7323 48.1066 24.7323 48.1066 24.784L47.8484 25.1969C47.7968 25.2486 47.7452 25.3002 47.642 25.3002C47.5903 25.3002 47.4871 25.2486 47.4355 25.1969C46.8676 24.784 46.1965 24.5775 45.4738 24.5775C43.667 24.4742 42.1184 25.8164 42.0151 27.6232C41.9119 29.43 43.2541 30.9787 45.0608 31.0819C45.1641 31.0819 45.3189 31.0819 45.4222 31.0819C46.0417 31.0819 46.6611 30.927 47.1257 30.5657L47.0741 28.5524L47.1774 28.6556Z" fill="#AAAAAA"/>
<path d="M55.6951 31.1336C55.7984 31.1336 55.9016 31.2368 55.9533 31.34C55.9533 31.34 55.9533 31.34 55.9533 31.3917V31.8563C55.9533 32.0111 55.85 32.1144 55.7468 32.1144H51.0491C50.9459 32.1144 50.8426 32.0628 50.791 31.9595V31.9079V24.211C50.791 24.0561 50.8943 23.9529 50.9975 23.9529C50.9975 23.9529 50.9975 23.9529 51.0491 23.9529H51.5137C51.617 23.9529 51.7202 24.0561 51.7718 24.1594C51.7718 24.1594 51.7718 24.1594 51.7718 24.211V31.2316H55.7468L55.6951 31.1336Z" fill="#AAAAAA"/>
<path d="M61.5338 31.2368C63.3406 31.2368 64.786 29.7914 64.786 27.9846C64.786 26.1778 63.3406 24.7324 61.5338 24.7324C59.727 24.7324 58.2816 26.1778 58.2816 27.9846C58.2816 29.7914 59.727 31.2368 61.5338 31.2368ZM65.7669 27.9846C65.7152 30.3076 63.8052 32.166 61.4822 32.166C59.1592 32.1144 57.3008 30.2044 57.3008 27.8814C57.3524 25.5584 59.2108 23.7 61.5338 23.7C63.8568 23.7 65.7669 25.5584 65.7669 27.8814C65.7669 27.933 65.7669 27.933 65.7669 27.9846Z" fill="#AAAAAA"/>
<path d="M69.2253 28.2943V31.1335H72.1678C72.9421 31.1335 73.6132 30.514 73.6132 29.6881C73.6132 28.9137 72.9937 28.2426 72.1678 28.2426H69.2253V28.2943ZM71.8064 24.8304H69.2253V27.3599H71.8064C72.5291 27.3599 73.097 26.7404 73.0454 26.0693C73.0454 26.0177 73.0454 26.0177 73.0454 25.9661C73.0454 25.3466 72.5291 24.8304 71.9097 24.8304C71.8581 24.8304 71.8064 24.8304 71.7548 24.8304H71.8064ZM73.3086 27.6748C74.4443 28.3459 74.8057 29.7913 74.1346 30.927C73.7216 31.6497 72.9989 32.0627 72.173 32.0627H68.5594C68.4045 32.0627 68.3013 31.9595 68.3013 31.8562C68.3013 31.8562 68.3013 31.8562 68.3013 31.8046V24.1077C68.3013 23.9528 68.3529 23.8496 68.5078 23.8496H68.5594H71.8116C72.9989 23.798 73.9797 24.6755 74.083 25.8629C74.083 25.9145 74.083 25.9661 74.083 26.0177C74.083 26.6423 73.7732 27.2618 73.3086 27.6748Z" fill="#AAAAAA"/>
<path d="M78.2647 29.3269H81.517L79.9167 25.3003L78.3164 29.3269H78.2647ZM77.2323 31.8564C77.1807 32.0112 77.0774 32.0628 76.9226 32.0628H76.458C76.3031 32.0628 76.2515 32.0628 76.2515 31.8564C76.2515 31.8047 76.2515 31.7531 76.2515 31.7015C79.4521 24.0562 79.4521 24.0562 79.4521 24.0046C79.5037 23.9013 79.6069 23.7981 79.7102 23.7981H80.0199C80.1231 23.7981 80.278 23.9013 80.278 24.0046L83.5302 31.7015C83.5302 31.7531 83.5302 31.8047 83.5302 31.8564C83.5302 31.9596 83.427 32.0628 83.2721 32.0628H82.8075C82.6526 32.0628 82.5494 31.9596 82.4978 31.8564L81.8783 30.2561H77.9034L77.2323 31.8047V31.8564Z" fill="#AAAAAA"/>
<path d="M90.8138 31.1336C90.917 31.1336 91.0203 31.2368 91.0719 31.34C91.0719 31.34 91.0719 31.34 91.0719 31.3917V31.8563C91.0719 32.0111 90.9687 32.1144 90.8654 32.1144H86.1678C86.0645 32.1144 85.9613 32.0628 85.9097 31.9595V31.9079V24.211C85.9097 24.0561 86.0129 23.9529 86.1162 23.9529C86.1162 23.9529 86.1162 23.9529 86.1678 23.9529H86.6324C86.7356 23.9529 86.8389 24.0561 86.8905 24.1594C86.8905 24.1594 86.8905 24.1594 86.8905 24.211V31.2316H90.8654L90.8138 31.1336Z" fill="#AAAAAA"/>
<path d="M44.9578 6.24123V9.64831H47.2292C48.1067 9.64831 48.8294 8.92559 48.8294 8.04801V7.99639C48.8811 7.06718 48.1584 6.34447 47.2292 6.29285H44.9578V6.24123ZM41.0293 3.45362C41.0293 3.24713 41.1842 3.04064 41.3907 2.98901H41.4423H47.9983C50.6827 3.09226 52.7476 5.31202 52.696 7.94477C52.7476 10.5775 50.6827 12.7457 48.0499 12.8489H44.901V17.7014C44.901 18.0111 44.7461 18.166 44.4364 18.166H41.4423C41.1325 18.166 41.0293 18.0111 41.0293 17.7014V3.45362Z" fill="#AAAAAA"/>
<path d="M60.2947 6.18949V9.90631H62.5661C63.5469 9.90631 64.3728 9.08035 64.3728 8.09952C64.3728 7.1187 63.5469 6.29274 62.5661 6.24112H60.3463L60.2947 6.18949ZM56.3662 3.50513C56.3662 3.29864 56.5211 3.09215 56.7276 3.04053H56.7792H63.5417C66.2777 3.14377 68.4459 5.41516 68.3942 8.15115C68.291 9.85469 67.3618 11.455 65.9164 12.3326L68.8588 17.7529C68.9621 17.8562 68.9105 18.0627 68.8072 18.1659C68.7556 18.2175 68.704 18.2175 68.6007 18.2175H64.8839C64.5742 18.2175 64.4709 18.1143 64.3161 17.8045L61.8898 13.2101H60.2895V17.8045C60.3411 18.011 60.1346 18.2175 59.9282 18.2691C59.8765 18.2691 59.8765 18.2691 59.8249 18.2691H56.7792C56.4695 18.2691 56.3662 18.1143 56.3662 17.8045V3.55675V3.50513Z" fill="#AAAAAA"/>
<path d="M79.452 14.6608C81.5685 14.6608 83.3237 12.9056 83.3237 10.7891C83.3237 10.7375 83.3237 10.6859 83.3237 10.6342C83.3237 8.51772 81.6201 6.76256 79.452 6.76256C77.3355 6.76256 75.5803 8.4661 75.5803 10.6342C75.4771 12.7508 77.129 14.6092 79.2455 14.6608C79.2971 14.6608 79.3488 14.6608 79.4004 14.6608H79.452ZM79.452 2.78247C83.7883 2.78247 87.2521 6.2928 87.3038 10.5826C87.3038 14.9189 83.7934 18.3828 79.5036 18.4344C75.1673 18.4344 71.7035 14.9241 71.6519 10.6342C71.6519 6.2928 75.1673 2.83409 79.452 2.78247Z" fill="#AAAAAA"/>
<path d="M97.7314 11.7699H95.3568V15.177H97.7314C98.6606 15.1253 99.3317 14.351 99.3317 13.4734C99.3317 12.5958 98.609 11.8731 97.7314 11.8215V11.7699ZM97.2152 6.03463H95.3568V9.02873H97.2152C98.0411 9.08035 98.7122 8.5125 98.7638 7.68654C98.7638 7.63492 98.7638 7.5833 98.7638 7.53168C98.7638 6.70572 98.1444 6.03463 97.3184 6.03463H97.2668H97.2152ZM91.3818 3.50513C91.3818 3.24702 91.5367 3.04053 91.7432 3.04053H91.7948H98.2992C100.725 3.04053 102.687 5.00218 102.687 7.42843C102.687 8.35764 102.377 9.28684 101.758 10.0612C102.739 10.9904 103.307 12.2809 103.358 13.6231C103.358 16.101 101.345 18.1659 98.8671 18.2175H91.8464C91.6399 18.2691 91.4335 18.0627 91.3818 17.8562C91.3818 17.8045 91.3818 17.8045 91.3818 17.7529V3.50513Z" fill="#AAAAAA"/>
<path d="M108.061 3.50534C108.061 3.19561 108.216 3.04074 108.474 3.04074H111.52C111.726 2.98912 111.933 3.19561 111.984 3.40209C111.984 3.45372 111.984 3.45372 111.984 3.50534V17.7583C112.036 17.9648 111.829 18.1713 111.623 18.2229C111.571 18.2229 111.571 18.2229 111.52 18.2229H108.474C108.164 18.2229 108.061 18.068 108.061 17.7583V3.50534Z" fill="#AAAAAA"/>
<path d="M117.095 3.50525C117.043 3.29876 117.198 3.09228 117.405 3.04065C117.456 3.04065 117.508 3.04065 117.508 3.04065H128.612C128.818 2.98903 129.025 3.1439 129.076 3.40201C129.076 3.45363 129.076 3.45363 129.076 3.50525V6.08638C129.128 6.29287 128.921 6.49936 128.715 6.55098C128.663 6.55098 128.663 6.55098 128.612 6.55098H124.998V17.7582C125.05 17.9647 124.843 18.1712 124.637 18.2228C124.585 18.2228 124.585 18.2228 124.534 18.2228H121.591C121.385 18.2744 121.178 18.0679 121.127 17.8614C121.127 17.8098 121.127 17.8098 121.127 17.7582V6.55098H117.513C117.306 6.6026 117.1 6.39611 117.048 6.18962C117.048 6.138 117.048 6.138 117.048 6.08638V3.50525H117.095Z" fill="#AAAAAA"/>
</svg>
