<svg width="76" height="75" viewBox="0 0 76 75" fill="none" xmlns="http://www.w3.org/2000/svg">
<path d="M63.8672 35.3027H59.4727C58.2582 35.3027 57.2754 36.2855 57.2754 37.5C57.2754 38.7145 58.2582 39.6973 59.4727 39.6973H63.8672C65.0817 39.6973 66.0645 38.7145 66.0645 37.5C66.0645 36.2855 65.0817 35.3027 63.8672 35.3027ZM37.5 57.2754C36.2855 57.2754 35.3027 58.2582 35.3027 59.4727V63.8672C35.3027 65.0817 36.2855 66.0645 37.5 66.0645C38.7145 66.0645 39.6973 65.0817 39.6973 63.8672V59.4727C39.6973 58.2582 38.7145 57.2754 37.5 57.2754Z" fill="url(#paint0_linear_906_12900)"/>
<path d="M11.1328 35.3027H15.5273C16.7418 35.3027 17.7246 36.2855 17.7246 37.5C17.7246 38.7145 16.7418 39.6973 15.5273 39.6973H11.1328C9.91831 39.6973 8.93555 38.7145 8.93555 37.5C8.93555 36.2855 9.91831 35.3027 11.1328 35.3027Z" fill="url(#paint1_linear_906_12900)"/>
<g filter="url(#filter0_bii_906_12900)">
<path d="M37.5 75C58.2107 75 75 58.2107 75 37.5C75 16.7893 58.2107 0 37.5 0C16.7893 0 0 16.7893 0 37.5C0 58.2107 16.7893 75 37.5 75Z" fill="white" fill-opacity="0.12"/>
</g>
<path d="M63.8672 35.3027H59.4727C58.2582 35.3027 57.2754 36.2855 57.2754 37.5C57.2754 38.7145 58.2582 39.6973 59.4727 39.6973H63.8672C65.0817 39.6973 66.0645 38.7145 66.0645 37.5C66.0645 36.2855 65.0817 35.3027 63.8672 35.3027ZM37.5 57.2754C36.2855 57.2754 35.3027 58.2582 35.3027 59.4727V63.8672C35.3027 65.0817 36.2855 66.0645 37.5 66.0645C38.7145 66.0645 39.6973 65.0817 39.6973 63.8672V59.4727C39.6973 58.2582 38.7145 57.2754 37.5 57.2754Z" fill="url(#paint2_linear_906_12900)"/>
<g filter="url(#filter1_bi_906_12900)">
<path d="M37.4459 13.1836V38.641L22.5586 53.5261" stroke="white" stroke-opacity="0.1" stroke-width="2" stroke-linecap="round"/>
</g>
<path d="M11.1328 35.3027H15.5273C16.7418 35.3027 17.7246 36.2855 17.7246 37.5C17.7246 38.7145 16.7418 39.6973 15.5273 39.6973H11.1328C9.91831 39.6973 8.93555 38.7145 8.93555 37.5C8.93555 36.2855 9.91831 35.3027 11.1328 35.3027Z" fill="url(#paint3_linear_906_12900)"/>
<defs>
<filter id="filter0_bii_906_12900" x="-86" y="-86" width="247" height="247" filterUnits="userSpaceOnUse" color-interpolation-filters="sRGB">
<feFlood flood-opacity="0" result="BackgroundImageFix"/>
<feGaussianBlur in="BackgroundImageFix" stdDeviation="43"/>
<feComposite in2="SourceAlpha" operator="in" result="effect1_backgroundBlur_906_12900"/>
<feBlend mode="normal" in="SourceGraphic" in2="effect1_backgroundBlur_906_12900" result="shape"/>
<feColorMatrix in="SourceAlpha" type="matrix" values="0 0 0 0 0 0 0 0 0 0 0 0 0 0 0 0 0 0 127 0" result="hardAlpha"/>
<feOffset dy="4"/>
<feGaussianBlur stdDeviation="2"/>
<feComposite in2="hardAlpha" operator="arithmetic" k2="-1" k3="1"/>
<feColorMatrix type="matrix" values="0 0 0 0 1 0 0 0 0 1 0 0 0 0 1 0 0 0 0.15 0"/>
<feBlend mode="normal" in2="shape" result="effect2_innerShadow_906_12900"/>
<feColorMatrix in="SourceAlpha" type="matrix" values="0 0 0 0 0 0 0 0 0 0 0 0 0 0 0 0 0 0 127 0" result="hardAlpha"/>
<feOffset/>
<feGaussianBlur stdDeviation="34"/>
<feComposite in2="hardAlpha" operator="arithmetic" k2="-1" k3="1"/>
<feColorMatrix type="matrix" values="0 0 0 0 1 0 0 0 0 1 0 0 0 0 1 0 0 0 0.05 0"/>
<feBlend mode="normal" in2="effect2_innerShadow_906_12900" result="effect3_innerShadow_906_12900"/>
</filter>
<filter id="filter1_bi_906_12900" x="-66.4414" y="-75.8164" width="192.888" height="218.343" filterUnits="userSpaceOnUse" color-interpolation-filters="sRGB">
<feFlood flood-opacity="0" result="BackgroundImageFix"/>
<feGaussianBlur in="BackgroundImageFix" stdDeviation="44"/>
<feComposite in2="SourceAlpha" operator="in" result="effect1_backgroundBlur_906_12900"/>
<feBlend mode="normal" in="SourceGraphic" in2="effect1_backgroundBlur_906_12900" result="shape"/>
<feColorMatrix in="SourceAlpha" type="matrix" values="0 0 0 0 0 0 0 0 0 0 0 0 0 0 0 0 0 0 127 0" result="hardAlpha"/>
<feOffset dy="2"/>
<feGaussianBlur stdDeviation="1"/>
<feComposite in2="hardAlpha" operator="arithmetic" k2="-1" k3="1"/>
<feColorMatrix type="matrix" values="0 0 0 0 1 0 0 0 0 1 0 0 0 0 1 0 0 0 0.3 0"/>
<feBlend mode="normal" in2="shape" result="effect2_innerShadow_906_12900"/>
</filter>
<linearGradient id="paint0_linear_906_12900" x1="35.3027" y1="50.6836" x2="66.0645" y2="50.6836" gradientUnits="userSpaceOnUse">
<stop stop-color="#1FFFA3"/>
<stop offset="1" stop-color="#408782"/>
</linearGradient>
<linearGradient id="paint1_linear_906_12900" x1="8.93555" y1="37.5" x2="17.7246" y2="37.5" gradientUnits="userSpaceOnUse">
<stop stop-color="#1FFFA3"/>
<stop offset="1" stop-color="#408782"/>
</linearGradient>
<linearGradient id="paint2_linear_906_12900" x1="35.3027" y1="50.6836" x2="66.0645" y2="50.6836" gradientUnits="userSpaceOnUse">
<stop stop-color="#1FFFA3"/>
<stop offset="1" stop-color="#408782"/>
</linearGradient>
<linearGradient id="paint3_linear_906_12900" x1="8.93555" y1="37.5" x2="17.7246" y2="37.5" gradientUnits="userSpaceOnUse">
<stop stop-color="#1FFFA3"/>
<stop offset="1" stop-color="#408782"/>
</linearGradient>
</defs>
</svg>
