<svg width="35" height="34" viewBox="0 0 35 34" fill="none" xmlns="http://www.w3.org/2000/svg">
<path d="M23.1668 18.2749V24.2249C23.1668 29.1833 21.1835 31.1666 16.2252 31.1666H10.2752C5.31683 31.1666 3.3335 29.1833 3.3335 24.2249V18.2749C3.3335 13.3166 5.31683 11.3333 10.2752 11.3333H16.2252C21.1835 11.3333 23.1668 13.3166 23.1668 18.2749Z" stroke="white" stroke-linecap="round" stroke-linejoin="round"/>
<path d="M31.6668 9.77492V15.7249C31.6668 20.6833 29.6835 22.6666 24.7252 22.6666H23.1668V18.2749C23.1668 13.3166 21.1835 11.3333 16.2252 11.3333H11.8335V9.77492C11.8335 4.81659 13.8168 2.83325 18.7752 2.83325H24.7252C29.6835 2.83325 31.6668 4.81659 31.6668 9.77492Z" stroke="white" stroke-linecap="round" stroke-linejoin="round"/>
</svg>
