<svg width="32" height="32" viewBox="0 0 32 32" fill="none" xmlns="http://www.w3.org/2000/svg">
<g clip-path="url(#clip0_518_20202)">
<path d="M24.6667 18.1666C25.8633 18.1666 26.8333 17.1966 26.8333 16C26.8333 14.8034 25.8633 13.8333 24.6667 13.8333C23.47 13.8333 22.5 14.8034 22.5 16C22.5 17.1966 23.47 18.1666 24.6667 18.1666Z" stroke="white" stroke-linecap="round" stroke-linejoin="round"/>
<path d="M24.6667 9.50002C25.8633 9.50002 26.8333 8.52997 26.8333 7.33335C26.8333 6.13674 25.8633 5.16669 24.6667 5.16669C23.47 5.16669 22.5 6.13674 22.5 7.33335C22.5 8.52997 23.47 9.50002 24.6667 9.50002Z" stroke="white" stroke-linecap="round" stroke-linejoin="round"/>
<path d="M24.6667 26.8333C25.8633 26.8333 26.8333 25.8633 26.8333 24.6667C26.8333 23.47 25.8633 22.5 24.6667 22.5C23.47 22.5 22.5 23.47 22.5 24.6667C22.5 25.8633 23.47 26.8333 24.6667 26.8333Z" stroke="white" stroke-linecap="round" stroke-linejoin="round"/>
<path d="M7.33341 18.1666C8.53003 18.1666 9.50008 17.1966 9.50008 16C9.50008 14.8034 8.53003 13.8333 7.33341 13.8333C6.1368 13.8333 5.16675 14.8034 5.16675 16C5.16675 17.1966 6.1368 18.1666 7.33341 18.1666Z" stroke="white" stroke-linecap="round" stroke-linejoin="round"/>
<path d="M9.5 16H22.5" stroke="white" stroke-linecap="round" stroke-linejoin="round"/>
<path d="M22.5001 7.33331H18.1667C16.0001 7.33331 14.9167 8.41665 14.9167 10.5833V21.4166C14.9167 23.5833 16.0001 24.6666 18.1667 24.6666H22.5001" stroke="white" stroke-linecap="round" stroke-linejoin="round"/>
</g>
<circle cx="24.5" cy="7.5" r="2.5" fill="url(#paint0_radial_518_20202)"/>
<circle cx="24.5" cy="24.5" r="2.5" fill="url(#paint1_radial_518_20202)"/>
<ellipse cx="7.5" cy="16" rx="2.5" ry="2" fill="url(#paint2_radial_518_20202)"/>
<defs>
<radialGradient id="paint0_radial_518_20202" cx="0" cy="0" r="1" gradientUnits="userSpaceOnUse" gradientTransform="translate(24.5 7.5) rotate(90) scale(2)">
<stop offset="0.33666" stop-color="white" stop-opacity="0"/>
<stop offset="1" stop-color="white" stop-opacity="0.7"/>
</radialGradient>
<radialGradient id="paint1_radial_518_20202" cx="0" cy="0" r="1" gradientUnits="userSpaceOnUse" gradientTransform="translate(24.5 24.5) rotate(90) scale(2)">
<stop offset="0.33666" stop-color="white" stop-opacity="0"/>
<stop offset="1" stop-color="white" stop-opacity="0.7"/>
</radialGradient>
<radialGradient id="paint2_radial_518_20202" cx="0" cy="0" r="1" gradientUnits="userSpaceOnUse" gradientTransform="translate(7.5 16) rotate(90) scale(1.5 1.875)">
<stop offset="0.33666" stop-color="white" stop-opacity="0"/>
<stop offset="1" stop-color="white" stop-opacity="0.7"/>
</radialGradient>
<clipPath id="clip0_518_20202">
<rect width="26" height="26" fill="white" transform="translate(3 3)"/>
</clipPath>
</defs>
</svg>
