<svg width="40" height="40" viewBox="0 0 40 40" fill="none" xmlns="http://www.w3.org/2000/svg">
<g filter="url(#filter0_bii_445_14798)">
<rect x="3" y="3" width="34" height="34" rx="17" fill="white" fill-opacity="0.1"/>
<rect x="3.15" y="3.15" width="33.7" height="33.7" rx="16.85" stroke="url(#paint0_linear_445_14798)" stroke-opacity="0.5" stroke-width="0.3"/>
</g>
<path d="M19.7915 9.07153L17.7797 10.2283L12.2976 13.3969L10.2858 14.5537V25.518L12.2976 26.6748L17.83 29.8433L19.8418 31.0001L21.8536 29.8433L27.2855 26.6748L29.2972 25.518V14.5537L27.2855 13.3969L21.8033 10.2283L19.7915 9.07153ZM14.3094 23.2044V16.8672L19.7915 13.6987L25.2737 16.8672V23.2044L19.7915 26.373L14.3094 23.2044Z" fill="#2A5ADA"/>
<defs>
<filter id="filter0_bii_445_14798" x="-83" y="-83" width="206" height="206" filterUnits="userSpaceOnUse" color-interpolation-filters="sRGB">
<feFlood flood-opacity="0" result="BackgroundImageFix"/>
<feGaussianBlur in="BackgroundImageFix" stdDeviation="43"/>
<feComposite in2="SourceAlpha" operator="in" result="effect1_backgroundBlur_445_14798"/>
<feBlend mode="normal" in="SourceGraphic" in2="effect1_backgroundBlur_445_14798" result="shape"/>
<feColorMatrix in="SourceAlpha" type="matrix" values="0 0 0 0 0 0 0 0 0 0 0 0 0 0 0 0 0 0 127 0" result="hardAlpha"/>
<feOffset dy="4"/>
<feGaussianBlur stdDeviation="7.5"/>
<feComposite in2="hardAlpha" operator="arithmetic" k2="-1" k3="1"/>
<feColorMatrix type="matrix" values="0 0 0 0 1 0 0 0 0 1 0 0 0 0 1 0 0 0 0.15 0"/>
<feBlend mode="normal" in2="shape" result="effect2_innerShadow_445_14798"/>
<feColorMatrix in="SourceAlpha" type="matrix" values="0 0 0 0 0 0 0 0 0 0 0 0 0 0 0 0 0 0 127 0" result="hardAlpha"/>
<feOffset/>
<feGaussianBlur stdDeviation="34"/>
<feComposite in2="hardAlpha" operator="arithmetic" k2="-1" k3="1"/>
<feColorMatrix type="matrix" values="0 0 0 0 1 0 0 0 0 1 0 0 0 0 1 0 0 0 0.05 0"/>
<feBlend mode="normal" in2="effect2_innerShadow_445_14798" result="effect3_innerShadow_445_14798"/>
</filter>
<linearGradient id="paint0_linear_445_14798" x1="3" y1="1.78571" x2="20" y2="22.4286" gradientUnits="userSpaceOnUse">
<stop stop-color="white"/>
<stop offset="1" stop-color="white" stop-opacity="0"/>
</linearGradient>
</defs>
</svg>
