<svg width="125" height="35" viewBox="0 0 125 35" fill="none" xmlns="http://www.w3.org/2000/svg">
<g clip-path="url(#clip0_476_627)">
<path d="M12.364 0C7.56194 0 3.67575 3.8862 3.67575 8.68822V11.9445C1.98947 12.2498 0.29834 12.6568 0.29834 13.185V30.1786C0.29834 30.1786 0.29834 30.6486 0.826514 30.8715C2.74054 31.6468 10.2707 34.3119 12.0005 34.9225C12.2234 35.0048 12.2864 35.0048 12.3446 35.0048C12.427 35.0048 12.4657 35.0048 12.6886 34.9225C14.4185 34.3119 21.968 31.6468 23.882 30.8715C24.3714 30.668 24.3908 30.198 24.3908 30.198V13.185C24.3908 12.6568 22.7239 12.2304 21.0328 11.9445V8.68822C21.057 3.8862 17.1466 0 12.364 0ZM12.364 4.15271C15.1938 4.15271 16.9043 5.86321 16.9043 8.69306V11.5229C13.7304 11.3 11.0217 11.3 7.82845 11.5229V8.69306C7.82845 5.85837 9.53896 4.15271 12.364 4.15271ZM12.3446 15.6902C16.2938 15.6902 19.6082 15.9954 19.6082 16.543V27.1452C19.6082 27.31 19.5888 27.3294 19.4434 27.3875C19.3029 27.4505 12.708 29.8297 12.708 29.8297C12.708 29.8297 12.4415 29.9121 12.364 29.9121C12.2816 29.9121 12.0199 29.8103 12.0199 29.8103C12.0199 29.8103 5.42502 27.4311 5.2845 27.3681C5.14397 27.3051 5.11974 27.2858 5.11974 27.1258V16.5236C5.08098 15.976 8.39539 15.6902 12.3446 15.6902Z" fill="#AAAAAA"/>
<path d="M35.5972 27.2898V15.6793H31.355V11.5159H44.5817V15.6793H40.3812V27.2898H35.5972Z" fill="#AAAAAA"/>
<path d="M55.2983 27.2898L53.1216 22.3298H51.3895V27.2898H46.6055V11.5159H55.025C58.7207 11.5159 60.7029 13.9658 60.7029 16.9205C60.7029 19.6436 59.1283 21.084 57.8639 21.7045L60.7214 27.2851H55.2983V27.2898ZM55.8633 16.9205C55.8633 16.0637 55.1037 15.6932 54.3072 15.6932H51.3895V18.1848H54.3072C55.1037 18.1663 55.8633 17.7958 55.8633 16.9205Z" fill="#AAAAAA"/>
<path d="M63.2131 27.2898V11.5159H75.1756V15.6793H67.9787V17.2354H74.9996V21.3989H67.9787V23.1309H75.1756V27.2898H63.2131Z" fill="#AAAAAA"/>
<path d="M77.6626 27.3083V23.5154L83.6739 15.6979H77.6626V11.5344H89.9724V15.2903L83.9425 23.1495H90.1483V27.313L77.6626 27.3083Z" fill="#AAAAAA"/>
<path d="M91.3152 19.4307C91.3152 14.5864 95.0711 11.2612 99.9524 11.2612C104.815 11.2612 108.59 14.5679 108.59 19.4307C108.59 24.2749 104.834 27.5816 99.9524 27.5816C95.0711 27.5816 91.3152 24.2749 91.3152 19.4307ZM103.727 19.4307C103.727 17.2309 102.231 15.4803 99.9339 15.4803C97.6368 15.4803 96.1409 17.2309 96.1409 19.4307C96.1409 21.6305 97.6368 23.3811 99.9339 23.3811C102.249 23.3811 103.727 21.6305 103.727 19.4307Z" fill="#AAAAAA"/>
<path d="M119.283 27.3083L117.106 22.3483H115.374V27.3083H110.59V11.5344H119.01C122.706 11.5344 124.688 13.9843 124.688 16.939C124.688 19.6622 123.113 21.1025 121.849 21.7231L124.706 27.3037H119.283V27.3083ZM119.867 16.9205C119.867 16.0637 119.107 15.6933 118.311 15.6933H115.393V18.1848H118.311C119.112 18.1663 119.867 17.7958 119.867 16.9205Z" fill="#AAAAAA"/>
</g>
<defs>
<clipPath id="clip0_476_627">
<rect width="124.412" height="35" fill="white" transform="translate(0.29834)"/>
</clipPath>
</defs>
</svg>
