<?xml version="1.0" encoding="UTF-8"?>
<svg id="katman_1" data-name="katman 1" xmlns="http://www.w3.org/2000/svg" width="41.62mm" height="15.24mm" viewBox="0 0 117.97 43.21">
  <defs>
    <style>
      .cls-1 {
        fill: #fff;
        fill-rule: evenodd;
      }
    </style>
  </defs>
  <path class="cls-1" d="M42.29,13.01v13.01h6.4v-4.96c0-3.28,.02-5.08,.05-5.32,.07-.51,.25-1,.49-1.37,.44-.66,1.07-.96,1.94-.91,1.12,.06,1.78,.72,1.97,1.98,.03,.19,.05,2.16,.05,5.44v5.14h6.4v-5.99c0-5.05-.01-6.09-.07-6.59-.21-1.8-.82-3.19-1.85-4.23-.89-.89-1.99-1.42-3.35-1.6-.53-.07-1.86-.03-2.33,.07-1.16,.25-2.07,.74-2.89,1.56l-.45,.45V0h-6.35V13.01ZM110.32,.2c-.17,.4-6.68,16.13-6.68,16.15,0,.01,1.7,.02,3.79,.01h3.79s3.37-8.15,3.37-8.15C116.45,3.73,117.97,.05,117.97,.03c0-.02-1.7-.03-3.78-.03h-3.78l-.09,.2ZM28.26,7.59c-1.41,.21-2.48,.6-3.55,1.31-2.15,1.42-3.62,3.83-4.03,6.61-.19,1.28-.11,2.9,.21,4.14,.79,3.12,2.88,5.5,5.64,6.42,1,.33,1.37,.39,2.6,.39,.89,0,1.16-.01,1.48-.08,1.29-.28,2.24-.77,3.03-1.56l.41-.41v1.62h6.17V7.98h-6.17v1.66l-.29-.3c-.74-.78-1.75-1.32-3-1.62-.42-.1-.62-.12-1.41-.13-.51,0-.99,0-1.07,0Zm40.86,.05c-1.75,.23-3.52,.99-4.82,2.05-2.55,2.07-3.79,5.4-3.29,8.82,.55,3.77,3.22,6.72,6.95,7.68,.84,.21,1.59,.3,2.59,.3,1.75,0,3.08-.3,4.54-1.02,2.75-1.36,4.58-3.92,5.03-7.03,.11-.75,.11-2.08,0-2.82-.23-1.54-.8-2.98-1.68-4.2-.35-.49-1.23-1.41-1.71-1.78-1.39-1.08-3.02-1.76-4.79-1.99-.71-.09-2.11-.09-2.81,0Zm20.36,0c-1.73,.23-3.36,.92-4.73,1.99-.48,.37-1.36,1.29-1.71,1.78-.88,1.22-1.45,2.66-1.68,4.2-.11,.74-.11,2.07,0,2.82,.58,4.01,3.48,7.07,7.45,7.86,.76,.15,1.2,.19,2.11,.19,1.73,0,3.22-.34,4.63-1.07,3.75-1.93,5.68-6.08,4.82-10.38-.79-3.97-3.95-6.85-8.1-7.39-.68-.09-2.09-.09-2.79,0ZM0,8s1.73,4.1,3.83,9.07c2.11,4.98,3.83,9.07,3.83,9.1,0,.03-.62,1.51-1.38,3.29-.76,1.78-1.37,3.25-1.37,3.26s1.53,.01,3.4,0h3.4s5.11-12.32,5.11-12.32c2.81-6.77,5.11-12.34,5.11-12.37,0-.05-.68-.06-3.36-.05h-3.37s-2.07,5.26-2.07,5.26c-1.14,2.89-2.08,5.24-2.09,5.22-.01-.01-.94-2.37-2.07-5.25l-2.04-5.22H3.46c-1.91-.02-3.46-.01-3.46,0Zm31.39,5.45c1.28,.29,2.3,1.3,2.65,2.61,.14,.52,.14,1.38,0,1.9-.35,1.31-1.32,2.28-2.63,2.63-.52,.14-1.38,.14-1.9,0-1.12-.29-2.08-1.12-2.49-2.15-.45-1.13-.31-2.55,.34-3.5,.9-1.3,2.41-1.86,4.03-1.49Zm39.84,.01c1.39,.25,2.47,1.28,2.81,2.7,.11,.47,.1,1.32-.02,1.8-.33,1.26-1.27,2.22-2.51,2.56-.43,.12-1.48,.12-1.9,0-1.02-.28-1.83-.96-2.27-1.91-.26-.56-.34-.92-.34-1.6,0-.61,.06-.92,.27-1.44,.25-.63,.73-1.22,1.3-1.59,.74-.49,1.75-.68,2.67-.52Zm20.36,0c1.19,.21,2.18,1,2.62,2.11,.21,.52,.27,.83,.27,1.44,0,.67-.08,1.04-.34,1.6-.44,.94-1.25,1.63-2.27,1.91-.42,.12-1.48,.11-1.9,0-1.23-.34-2.18-1.3-2.51-2.56-.14-.52-.14-1.38,0-1.9,.43-1.6,1.78-2.65,3.44-2.67,.19,0,.5,.03,.7,.06Zm13.56,4.46c-1.85,.23-3.32,1.56-3.72,3.37-.11,.5-.1,1.39,.03,1.9,.39,1.57,1.6,2.74,3.17,3.07,.2,.04,.58,.07,.87,.07,1.21,0,2.17-.39,3.02-1.25,.86-.86,1.25-1.8,1.25-3.04,0-1.51-.69-2.77-1.95-3.54-.74-.46-1.81-.69-2.67-.58Zm-52.71,9.79c-1.29,.43-1.85,1.88-1.18,3.03,.18,.3,.6,.67,.95,.84,.3,.14,.34,.15,.87,.15s.57,0,.87-.15c.4-.19,.85-.62,1.03-1.01,.49-1.04,.04-2.24-1.02-2.75-.32-.15-.4-.17-.8-.18-.35-.01-.51,0-.71,.07Zm-5.34,.1c-1.71,.34-2.84,1.43-3.27,3.16-.06,.26-.11,.61-.12,1.05l-.03,.66h-1.38v1.52s.02,1.52,.02,1.52h.68s.68,.03,.68,.03v7.19h3.71v-7.19h1.26s1.26-.02,1.26-.02v-1.52s.02-1.52,.02-1.52h-2.56l.03-.34c.07-.75,.37-1.16,.96-1.34,.4-.12,.97-.1,1.4,.05,.15,.05,.28,.1,.29,.1s.02-.7,.02-1.55v-1.55l-.27-.1c-.45-.17-.9-.23-1.63-.23-.46,0-.82,.03-1.1,.09Zm15.19,4.66c-.78,.17-1.42,.55-1.83,1.1l-.21,.28v-1.17h-3.76v10.25h3.76v-2.79c0-1.61,.02-2.91,.05-3.07,.06-.37,.28-.82,.49-.97,.54-.41,1.4-.32,1.76,.2,.28,.41,.28,.35,.3,3.64l.02,3h3.75v-3.36c0-3.57-.02-3.98-.21-4.65-.19-.65-.44-1.08-.9-1.54-.44-.44-.82-.67-1.39-.83-.45-.13-1.37-.17-1.81-.07Zm9.48-.03c-.61,.08-1.51,.44-1.99,.79-1.09,.79-1.84,2.03-2.11,3.47-.1,.57-.1,1.72,0,2.27,.18,.93,.54,1.76,1.05,2.43,.68,.9,1.65,1.51,2.73,1.73,.59,.12,1.57,.1,2.07-.05,.57-.17,1.05-.44,1.46-.82l.37-.35v1.03h3.71v-10.25h-3.71v1.06l-.24-.26c-.49-.52-1.18-.87-1.97-1.01-.37-.06-1.05-.08-1.38-.04Zm14.56,.04c-.66,.14-1.42,.6-1.81,1.12l-.16,.21v-1.13h-1.89s-1.89,.02-1.89,.02v5.11s-.02,5.11-.02,5.11h3.8v-2.91c0-3.08,0-3.14,.22-3.56,.2-.39,.59-.62,1.05-.62,.4,0,.62,.08,.87,.32,.4,.4,.39,.25,.4,3.72v3.05h3.77l-.02-3.72c-.02-3.68-.02-3.73-.12-4.12-.06-.22-.21-.61-.34-.87-.19-.39-.29-.54-.59-.83-.39-.39-.72-.61-1.15-.76-.64-.23-1.48-.29-2.13-.15Zm9.9,0c-1.65,.26-3,1.15-3.81,2.5-.24,.41-.43,.88-.58,1.45-.12,.46-.13,.57-.13,1.36,0,.93,.04,1.24,.26,1.91,.57,1.75,1.99,2.99,3.89,3.41,.31,.07,.59,.09,1.28,.09,.98,0,1.36-.07,2.09-.36l.37-.15v-1.72s.02-1.72,.02-1.72l-.31,.18c-.45,.27-.83,.37-1.4,.4-.59,.03-.91-.03-1.34-.25-.39-.2-.7-.52-.9-.94-.14-.29-.15-.35-.15-.8,0-.4,.02-.54,.11-.75,.31-.77,1.03-1.23,2-1.27,.69-.03,.97,.04,1.96,.53,.02,0,.03-.75,.03-1.7v-1.71l-.3-.12c-.9-.36-2.09-.49-3.09-.33Zm8.54,0c-2.86,.5-4.74,3-4.46,5.94,.1,1.04,.37,1.85,.87,2.6,.71,1.07,1.78,1.76,3.22,2.08,.62,.14,2.21,.12,2.88-.02,1.03-.23,1.95-.71,2.61-1.37,.31-.31,.81-.98,.77-1.02-.01-.01-.73-.29-1.6-.62l-1.58-.61-.23,.24c-.29,.29-.52,.43-.88,.52-1.1,.29-2.21-.29-2.39-1.25l-.04-.21h3.53s3.53-.02,3.53-.02v-.86c0-.64-.03-.96-.09-1.25-.25-1.16-.7-2.04-1.44-2.76-.7-.69-1.49-1.11-2.55-1.35-.47-.1-1.67-.13-2.15-.04Zm-53.56,5.33v5.12h3.76v-10.25h-3.76v5.12Zm55.07-2.47c.26,.07,.42,.16,.66,.38,.23,.21,.36,.44,.42,.72l.04,.19h-1.71c-1.93,0-1.78,.04-1.61-.4,.28-.75,1.22-1.13,2.2-.89Zm-32.32,.51c.51,.13,1.07,.59,1.29,1.07,.53,1.12,0,2.41-1.16,2.83-.35,.13-1,.14-1.36,.03-.62-.19-1.16-.73-1.35-1.34-.08-.26-.09-.41-.08-.73,.02-.36,.04-.45,.19-.75,.45-.91,1.45-1.35,2.47-1.09Z"/>
</svg>