<svg width="33" height="32" viewBox="0 0 33 32" fill="none" xmlns="http://www.w3.org/2000/svg">
<path d="M10.2392 4.08579C10.4554 3.8696 10.5635 3.7615 10.6896 3.6842C10.8015 3.61566 10.9234 3.56516 11.051 3.53454C11.1948 3.5 11.3477 3.5 11.6534 3.5H20.3466C20.6523 3.5 20.8052 3.5 20.949 3.53454C21.0766 3.56516 21.1985 3.61566 21.3104 3.6842C21.4365 3.7615 21.5446 3.8696 21.7608 4.08579L27.9142 10.2392C28.1304 10.4554 28.2385 10.5635 28.3158 10.6896C28.3843 10.8015 28.4348 10.9234 28.4655 11.051C28.5 11.1948 28.5 11.3477 28.5 11.6534V20.3466C28.5 20.6523 28.5 20.8052 28.4655 20.949C28.4348 21.0766 28.3843 21.1985 28.3158 21.3104C28.2385 21.4365 28.1304 21.5446 27.9142 21.7608L21.7608 27.9142C21.5446 28.1304 21.4365 28.2385 21.3104 28.3158C21.1985 28.3843 21.0766 28.4348 20.949 28.4655C20.8052 28.5 20.6523 28.5 20.3466 28.5H11.6534C11.3477 28.5 11.1948 28.5 11.051 28.4655C10.9234 28.4348 10.8015 28.3843 10.6896 28.3158C10.5635 28.2385 10.4554 28.1304 10.2392 27.9142L4.08579 21.7608C3.8696 21.5446 3.7615 21.4365 3.6842 21.3104C3.61566 21.1985 3.56516 21.0766 3.53454 20.949C3.5 20.8052 3.5 20.6523 3.5 20.3466V11.6534C3.5 11.3477 3.5 11.1948 3.53454 11.051C3.56516 10.9234 3.61566 10.8015 3.6842 10.6896C3.7615 10.5635 3.8696 10.4554 4.08579 10.2392L10.2392 4.08579Z" stroke="white" stroke-linecap="round" stroke-linejoin="round"/>
<path fill-rule="evenodd" clip-rule="evenodd" d="M15.9957 12.3349C14.7461 10.874 12.6623 10.481 11.0967 11.8188C9.53103 13.1565 9.3106 15.3931 10.5401 16.9753C11.3276 17.9886 13.3445 19.8678 14.6928 21.088C15.1409 21.4934 15.3649 21.6962 15.6332 21.7775C15.8639 21.8474 16.1275 21.8474 16.3582 21.7775C16.6266 21.6962 16.8506 21.4934 17.2986 21.088C18.647 19.8678 20.6638 17.9886 21.4513 16.9753C22.6808 15.3931 22.4873 13.1424 20.8948 11.8188C19.3022 10.4951 17.2453 10.874 15.9957 12.3349Z" stroke="white" stroke-linecap="round" stroke-linejoin="round"/>
<path fill-rule="evenodd" clip-rule="evenodd" d="M10.3752 4.125L3.50024 11V21L11.0002 28.5H21.0002L28.5002 21V11L21.0002 3.5H10.3752V4.125ZM16.0006 12.2502L17.8756 11.0002H20.3756L21.6256 12.8752L22.2506 14.7502L21.6256 17.2502L18.5006 20.3752L16.0006 21.6252L13.5006 20.3752L10.3756 16.6252L9.75059 14.1252L10.3756 12.2502L13.5006 11.0002L14.7506 11.6252L16.0006 12.2502Z" fill="url(#paint0_radial_852_12167)"/>
<defs>
<radialGradient id="paint0_radial_852_12167" cx="0" cy="0" r="1" gradientUnits="userSpaceOnUse" gradientTransform="translate(15.9985 16) rotate(-89.9978) scale(46 26.8676)">
<stop offset="0.1" stop-color="white" stop-opacity="0"/>
<stop offset="0.19" stop-color="white" stop-opacity="0.06"/>
<stop offset="0.35" stop-color="white" stop-opacity="0.21"/>
<stop offset="0.57" stop-color="white" stop-opacity="0.46"/>
<stop offset="0.85" stop-color="white" stop-opacity="0.8"/>
<stop offset="0.973982" stop-color="white"/>
</radialGradient>
</defs>
</svg>
