<svg width="109" height="33" viewBox="0 0 109 33" fill="none" xmlns="http://www.w3.org/2000/svg">
<g clip-path="url(#clip0_906_5105)">
<path d="M37.7768 16.1801C37.7457 15.418 37.8668 14.6573 38.1331 13.9419C38.3995 13.2266 38.8058 12.5707 39.3286 12.0121C39.8514 11.4536 40.4804 11.0034 41.1793 10.6875C41.8782 10.3717 42.6331 10.1964 43.4005 10.1719H43.639C46.605 10.1719 48.3555 11.905 48.8731 13.9328L47.0295 14.5451C46.8639 13.7895 46.4303 13.1182 45.8079 12.6537C45.1855 12.1892 44.4157 11.9624 43.639 12.0148C41.7198 12.0148 39.7948 13.407 39.7948 16.2147C39.7948 19.0224 41.6733 20.3627 43.6622 20.3627C44.4428 20.3839 45.208 20.1444 45.8353 19.6825C46.4627 19.2206 46.9159 18.563 47.1226 17.815L48.9312 18.3927C48.619 19.5338 47.9246 20.5351 46.9625 21.2314C46.0004 21.9277 44.8281 22.2774 43.639 22.2229C42.1114 22.2507 40.6351 21.6749 39.5348 20.6219C38.4344 19.5689 37.8 18.125 37.771 16.6076C37.7651 16.4689 37.771 16.3245 37.7768 16.1801Z" fill="white"/>
<path d="M52.5198 21.9567H50.6123V10.1367H52.5198V14.7584C52.7968 14.4321 53.145 14.173 53.5381 14.0008C53.9312 13.8286 54.3587 13.7478 54.788 13.7647C56.7595 13.7647 57.6958 15.1686 57.6958 16.919V21.9567H55.858V17.2541C55.9131 16.8532 55.8074 16.4469 55.5637 16.1227C55.32 15.7985 54.9579 15.5824 54.5553 15.521C54.4413 15.5093 54.3263 15.5093 54.2122 15.521C53.7711 15.521 53.348 15.6951 53.0361 16.0049C52.7242 16.3148 52.5489 16.735 52.5489 17.1732C52.546 17.2213 52.546 17.2696 52.5489 17.3177L52.5198 21.9567Z" fill="white"/>
<path d="M61.9757 17.4048L64.0229 17.0871C64.4881 17.0293 64.6044 16.7924 64.6044 16.5093C64.6044 15.8392 64.1508 15.3019 63.0924 15.3019C62.6926 15.2698 62.2962 15.3956 61.9892 15.6519C61.6822 15.9082 61.4893 16.2744 61.4523 16.6711V16.7578L59.7076 16.3707C59.853 14.9957 61.1092 13.771 63.0749 13.771C65.5408 13.771 66.4771 15.1575 66.4771 16.7751V20.7208C66.4751 21.1484 66.5081 21.5754 66.5759 21.9976H64.8312C64.7684 21.6625 64.743 21.3215 64.7556 20.9808C64.4908 21.3857 64.1238 21.7145 63.6911 21.9345C63.2584 22.1544 62.7753 22.2579 62.2898 22.2344C61.6267 22.2888 60.969 22.0797 60.461 21.653C59.9529 21.2263 59.636 20.6168 59.5797 19.9583C59.5797 19.9178 59.5797 19.8774 59.5797 19.8427C59.5506 18.3811 60.6032 17.5954 61.9757 17.4048ZM64.6161 18.6815V18.3176L62.5282 18.6295C62.2448 18.6385 61.9758 18.7559 61.7775 18.9572C61.5792 19.1585 61.4668 19.4282 61.464 19.7099C61.4662 19.8494 61.4964 19.9872 61.5528 20.115C61.6092 20.2429 61.6906 20.3583 61.7924 20.4546C61.8942 20.5508 62.0142 20.626 62.1456 20.6757C62.2769 20.7254 62.4169 20.7486 62.5573 20.744H62.6445C62.8826 20.7687 63.1232 20.7464 63.3526 20.6784C63.5819 20.6104 63.7954 20.4979 63.9809 20.3476C64.1663 20.1972 64.3199 20.0119 64.4329 19.8023C64.5459 19.5927 64.6161 19.363 64.6393 19.1264C64.6476 18.9775 64.6379 18.8281 64.6102 18.6815H64.6161Z" fill="white"/>
<path d="M69.7222 9.97542C69.8861 9.97313 70.0489 10.003 70.2012 10.0634C70.3534 10.1238 70.4922 10.2135 70.6094 10.3273C70.7267 10.4411 70.8202 10.5768 70.8845 10.7266C70.9488 10.8764 70.9827 11.0373 70.9842 11.2002C70.9842 11.4439 70.9116 11.6823 70.7756 11.8852C70.6396 12.0881 70.4463 12.2465 70.2199 12.3406C69.9935 12.4347 69.7441 12.4601 69.5032 12.4138C69.2623 12.3675 69.0405 12.2515 68.8658 12.0803C68.6911 11.9091 68.5712 11.6905 68.5212 11.4518C68.4712 11.2131 68.4934 10.9651 68.5849 10.7389C68.6764 10.5128 68.8332 10.3185 69.0356 10.1806C69.238 10.0427 69.4768 9.96728 69.7222 9.96387V9.97542ZM68.7917 21.9918V14.0078H70.6993V21.9571L68.7917 21.9918Z" fill="white"/>
<path d="M75.0433 21.9568H73.1416V14.0075H74.9968V15.0647C75.2387 14.6587 75.586 14.3249 76.0025 14.0982C76.419 13.8716 76.8892 13.7604 77.3638 13.7764C79.3178 13.7764 80.2716 15.1803 80.2716 16.9307V21.9568H78.3699V17.2542C78.3699 16.2779 77.9221 15.4864 76.7241 15.4864C76.5026 15.4879 76.2836 15.5328 76.0795 15.6184C75.8755 15.704 75.6904 15.8287 75.5349 15.9853C75.3794 16.1419 75.2564 16.3275 75.1731 16.5313C75.0897 16.7352 75.0476 16.9533 75.0491 17.1733C75.0491 17.2369 75.0491 17.3004 75.0491 17.364L75.0433 21.9568Z" fill="white"/>
<path d="M82.5752 21.9567V10.1367H84.4827V21.9567H82.5752Z" fill="white"/>
<path d="M87.8843 9.97511C88.1298 9.97397 88.3701 10.0453 88.5747 10.1801C88.7793 10.3149 88.939 10.507 89.0334 10.7321C89.1279 10.9571 89.1529 11.205 89.1053 11.4443C89.0577 11.6835 88.9396 11.9033 88.766 12.0757C88.5924 12.2482 88.3712 12.3655 88.1303 12.4128C87.8895 12.4601 87.64 12.4352 87.4134 12.3414C87.1868 12.2475 86.9934 12.0889 86.8577 11.8857C86.7221 11.6824 86.6502 11.4437 86.6514 11.1999C86.6544 10.876 86.7853 10.5662 87.0159 10.3372C87.2464 10.1081 87.5583 9.97812 87.8843 9.97511ZM86.948 21.9915V14.0075H88.8381V21.9568L86.948 21.9915Z" fill="white"/>
<path d="M93.2113 21.9572H91.3037V14.0079H93.1589V15.0651C93.4012 14.6595 93.7487 14.3261 94.1651 14.0994C94.5814 13.8728 95.0514 13.7614 95.5259 13.7768C97.48 13.7768 98.4337 15.1806 98.4337 16.9311V21.9572H96.5262V17.2546C96.5813 16.8537 96.4756 16.4474 96.2319 16.1232C95.9882 15.799 95.626 15.5829 95.2235 15.5215C95.1075 15.5099 94.9906 15.5099 94.8745 15.5215C94.4303 15.526 94.0058 15.7046 93.6932 16.0183C93.3807 16.332 93.2054 16.7555 93.2054 17.1968C93.1995 17.2641 93.1995 17.3318 93.2054 17.399L93.2113 21.9572Z" fill="white"/>
<path d="M104.942 17.3639L108.298 21.9855H105.972L103.645 18.7099L102.663 19.7383V21.9567H100.772V10.1367H102.663V17.2194L105.733 14.0074H108.263L104.942 17.3639Z" fill="white"/>
<path d="M15.1944 6.93643L23.441 11.639V21.0903L15.2177 25.8218L6.97688 21.1308V11.6852L15.1944 6.93643ZM15.1944 0.00390625L12.1703 1.73704L3.93528 6.48581L0.911133 8.21894V24.6086L3.93528 26.3417L12.1819 31.0443L15.206 32.7774L18.2302 31.0443L26.4477 26.307L29.4719 24.5739V8.16117L26.4477 6.42804L18.2069 1.73704L15.1828 0.00390625H15.1944Z" fill="white"/>
</g>
<defs>
<clipPath id="clip0_906_5105">
<rect width="107.386" height="32.7619" fill="white" transform="translate(0.911133 0.00390625)"/>
</clipPath>
</defs>
</svg>
