<svg width="40" height="40" viewBox="0 0 40 40" fill="none" xmlns="http://www.w3.org/2000/svg">
<g filter="url(#filter0_bii_445_14580)">
<rect x="3" y="3" width="34" height="34" rx="17" fill="#EB9444" fill-opacity="0.25"/>
<rect x="3.15" y="3.15" width="33.7" height="33.7" rx="16.85" stroke="url(#paint0_linear_445_14580)" stroke-opacity="0.5" stroke-width="0.3"/>
</g>
<path fill-rule="evenodd" clip-rule="evenodd" d="M20.0001 33.6608C27.5447 33.6608 33.6608 27.5447 33.6608 20.0001C33.6608 12.4555 27.5447 6.33936 20.0001 6.33936C12.4555 6.33936 6.33936 12.4555 6.33936 20.0001C6.33936 27.5447 12.4555 33.6608 20.0001 33.6608ZM20 32.5679C26.9411 32.5679 32.5678 26.9411 32.5678 20.0001C32.5678 13.059 26.9411 7.4322 20 7.4322C13.059 7.4322 7.43217 13.059 7.43217 20.0001C7.43217 26.9411 13.059 32.5679 20 32.5679Z" fill="#423A4F"/>
<path d="M20 32.5678C26.941 32.5678 32.5678 26.941 32.5678 20C32.5678 13.059 26.941 7.43213 20 7.43213C13.059 7.43213 7.43213 13.059 7.43213 20C7.43213 26.941 13.059 32.5678 20 32.5678Z" fill="#FBFBFB"/>
<path fill-rule="evenodd" clip-rule="evenodd" d="M19.9998 31.6797C22.9604 31.6797 25.6637 30.5781 27.7223 28.7624L26.9963 28.0364C25.1244 29.6674 22.6774 30.6551 19.9998 30.6551C17.2873 30.6551 14.8115 29.6416 12.9305 27.9725L12.2048 28.6981C14.2722 30.5521 17.0043 31.6797 19.9998 31.6797ZM11.3337 27.8306L12.0592 27.1051C10.371 25.2198 9.34438 22.7296 9.34438 19.9998C9.34438 17.322 10.3321 14.875 11.9631 13.0032L11.237 12.2771C9.42139 14.3357 8.31982 17.039 8.31982 19.9998C8.31982 23.0125 9.46056 25.7589 11.3337 27.8306ZM31.6797 19.9998C31.6797 23.0474 30.5124 25.8223 28.6006 27.9021L27.8754 27.1768C29.6021 25.2831 30.6551 22.7644 30.6551 19.9998C30.6551 17.2872 29.6415 14.8115 27.9725 12.9305L28.6975 12.2055L27.8281 11.3361L27.1051 12.0592C25.2198 10.371 22.7296 9.34438 19.9998 9.34438C17.2351 9.34438 14.7163 10.3973 12.8226 12.124L12.0974 11.3988C14.1771 9.48704 16.9521 8.31982 19.9998 8.31982C26.4503 8.31982 31.6797 13.5491 31.6797 19.9998Z" fill="#423A4F"/>
<path fill-rule="evenodd" clip-rule="evenodd" d="M17.827 13.1218C17.82 13.1406 17.8111 13.6231 17.8074 14.1941L17.8006 15.2324L16.4905 15.2395C15.4842 15.2449 15.1756 15.2544 15.159 15.2804C15.1472 15.2991 15.1373 15.6116 15.1371 15.975L15.1367 16.6357L15.7446 16.6444C16.4417 16.6544 16.5399 16.6812 16.7138 16.9089C16.863 17.1043 16.8593 17.0166 16.8516 20.2641L16.8443 23.2922L16.7763 23.3925C16.649 23.5809 16.6089 23.5916 15.9975 23.6017C15.3915 23.6116 15.3923 23.6113 15.3687 23.793C15.3574 23.8769 15.344 23.9604 15.3287 24.0435C15.3158 24.1112 15.2915 24.2525 15.2748 24.3577C15.258 24.4629 15.2222 24.6812 15.1951 24.8428C15.1681 25.0044 15.1521 25.1427 15.1596 25.1501C15.167 25.1577 15.761 25.1637 16.4797 25.1637H17.7862L17.7934 26.2634L17.8006 27.3631H19.0847L19.0983 26.2976L19.112 25.232L19.6376 25.2246L20.1632 25.2172L20.1704 26.2901L20.1775 27.3631H21.4616L21.4753 26.2851L21.489 25.2072L21.5573 25.1881C21.5948 25.1777 21.6932 25.1678 21.7758 25.1662C22.2878 25.1562 23.2875 24.9601 23.7293 24.783C24.8278 24.3428 25.3474 23.6011 25.4664 22.3038C25.5843 21.0166 25.0329 20.1606 23.8386 19.7775C23.5776 19.6937 23.578 19.6997 23.8233 19.5382C24.2749 19.241 24.5306 18.8656 24.6677 18.2988C24.7045 18.1465 24.7101 17.3942 24.6753 17.2788C24.6621 17.2351 24.6362 17.1319 24.6178 17.0492C24.4452 16.2772 23.6613 15.6402 22.5958 15.4061C22.3443 15.3509 21.9543 15.2857 21.6665 15.2506L21.5163 15.2324L21.5026 14.1668L21.489 13.1013L20.8404 13.094L20.1919 13.0867L20.1847 14.1322L20.1775 15.1777H19.1393L19.1321 14.1327L19.125 13.0876H18.4824C17.9933 13.0876 17.8368 13.0958 17.827 13.1218ZM20.4186 16.7497C21.3032 16.825 21.7926 17.0308 22.0737 17.4454C22.2202 17.6615 22.2893 18.2468 22.1925 18.4522C22.1737 18.492 22.143 18.5584 22.1245 18.5997C22.0251 18.8204 21.5853 19.1353 21.2567 19.2209L21.0928 19.2637C20.7402 19.3559 19.5217 19.4383 19.2541 19.3881L19.1524 19.3689L19.1595 18.0657L19.1666 16.7624L19.3169 16.7463C19.5757 16.7187 20.0727 16.7202 20.4186 16.7497ZM20.7376 20.7244C22.311 20.8737 22.9361 21.3541 22.8385 22.3384C22.7518 23.2123 21.6207 23.6674 19.6311 23.629L19.1666 23.6201V20.724L19.3306 20.708C19.6509 20.6769 20.3203 20.6848 20.7376 20.7244Z" fill="#EB9444"/>
<defs>
<filter id="filter0_bii_445_14580" x="-83" y="-83" width="206" height="206" filterUnits="userSpaceOnUse" color-interpolation-filters="sRGB">
<feFlood flood-opacity="0" result="BackgroundImageFix"/>
<feGaussianBlur in="BackgroundImageFix" stdDeviation="43"/>
<feComposite in2="SourceAlpha" operator="in" result="effect1_backgroundBlur_445_14580"/>
<feBlend mode="normal" in="SourceGraphic" in2="effect1_backgroundBlur_445_14580" result="shape"/>
<feColorMatrix in="SourceAlpha" type="matrix" values="0 0 0 0 0 0 0 0 0 0 0 0 0 0 0 0 0 0 127 0" result="hardAlpha"/>
<feOffset dy="4"/>
<feGaussianBlur stdDeviation="7.5"/>
<feComposite in2="hardAlpha" operator="arithmetic" k2="-1" k3="1"/>
<feColorMatrix type="matrix" values="0 0 0 0 1 0 0 0 0 1 0 0 0 0 1 0 0 0 0.15 0"/>
<feBlend mode="normal" in2="shape" result="effect2_innerShadow_445_14580"/>
<feColorMatrix in="SourceAlpha" type="matrix" values="0 0 0 0 0 0 0 0 0 0 0 0 0 0 0 0 0 0 127 0" result="hardAlpha"/>
<feOffset/>
<feGaussianBlur stdDeviation="34"/>
<feComposite in2="hardAlpha" operator="arithmetic" k2="-1" k3="1"/>
<feColorMatrix type="matrix" values="0 0 0 0 1 0 0 0 0 1 0 0 0 0 1 0 0 0 0.05 0"/>
<feBlend mode="normal" in2="effect2_innerShadow_445_14580" result="effect3_innerShadow_445_14580"/>
</filter>
<linearGradient id="paint0_linear_445_14580" x1="3" y1="1.78571" x2="20" y2="22.4286" gradientUnits="userSpaceOnUse">
<stop stop-color="white"/>
<stop offset="1" stop-color="white" stop-opacity="0"/>
</linearGradient>
</defs>
</svg>
