<svg width="40" height="40" viewBox="0 0 40 40" fill="none" xmlns="http://www.w3.org/2000/svg">
<g filter="url(#filter0_bii_445_14813)">
<rect x="3" y="3" width="34" height="34" rx="17" fill="#13B5EC" fill-opacity="0.25"/>
<rect x="3.15" y="3.15" width="33.7" height="33.7" rx="16.85" stroke="url(#paint0_linear_445_14813)" stroke-opacity="0.5" stroke-width="0.3"/>
</g>
<path fill-rule="evenodd" clip-rule="evenodd" d="M21.3272 16.5509L25.3087 14.2284V18.8735L21.3272 16.5509ZM25.3087 26.5047L20 29.6014L14.6913 26.5047V21.0854L20 24.1822L25.3087 21.0854V26.5047ZM14.6913 14.2284L18.6728 16.5509L14.6913 18.8735V14.2284ZM20.6636 17.6569L24.6451 19.9794L20.6636 22.302V17.6569ZM19.3364 22.302L15.3549 19.9794L19.3364 17.6569V22.302ZM24.6451 13.1224L20 15.7767L15.3549 13.1224L20 10.3574L24.6451 13.1224ZM13.3641 12.68V27.1683L20 30.9286L26.6359 27.1683V12.68L20 8.91968L13.3641 12.68Z" fill="white"/>
<defs>
<filter id="filter0_bii_445_14813" x="-83" y="-83" width="206" height="206" filterUnits="userSpaceOnUse" color-interpolation-filters="sRGB">
<feFlood flood-opacity="0" result="BackgroundImageFix"/>
<feGaussianBlur in="BackgroundImageFix" stdDeviation="43"/>
<feComposite in2="SourceAlpha" operator="in" result="effect1_backgroundBlur_445_14813"/>
<feBlend mode="normal" in="SourceGraphic" in2="effect1_backgroundBlur_445_14813" result="shape"/>
<feColorMatrix in="SourceAlpha" type="matrix" values="0 0 0 0 0 0 0 0 0 0 0 0 0 0 0 0 0 0 127 0" result="hardAlpha"/>
<feOffset dy="4"/>
<feGaussianBlur stdDeviation="7.5"/>
<feComposite in2="hardAlpha" operator="arithmetic" k2="-1" k3="1"/>
<feColorMatrix type="matrix" values="0 0 0 0 1 0 0 0 0 1 0 0 0 0 1 0 0 0 0.15 0"/>
<feBlend mode="normal" in2="shape" result="effect2_innerShadow_445_14813"/>
<feColorMatrix in="SourceAlpha" type="matrix" values="0 0 0 0 0 0 0 0 0 0 0 0 0 0 0 0 0 0 127 0" result="hardAlpha"/>
<feOffset/>
<feGaussianBlur stdDeviation="34"/>
<feComposite in2="hardAlpha" operator="arithmetic" k2="-1" k3="1"/>
<feColorMatrix type="matrix" values="0 0 0 0 1 0 0 0 0 1 0 0 0 0 1 0 0 0 0.05 0"/>
<feBlend mode="normal" in2="effect2_innerShadow_445_14813" result="effect3_innerShadow_445_14813"/>
</filter>
<linearGradient id="paint0_linear_445_14813" x1="3" y1="1.78571" x2="20" y2="22.4286" gradientUnits="userSpaceOnUse">
<stop stop-color="white"/>
<stop offset="1" stop-color="white" stop-opacity="0"/>
</linearGradient>
</defs>
</svg>
