<svg width="40" height="40" viewBox="0 0 40 40" fill="none" xmlns="http://www.w3.org/2000/svg">
<g filter="url(#filter0_bii_445_14706)">
<rect x="3" y="3" width="34" height="34" rx="17" fill="#FFA409" fill-opacity="0.25"/>
<rect x="3.15" y="3.15" width="33.7" height="33.7" rx="16.85" stroke="url(#paint0_linear_445_14706)" stroke-opacity="0.5" stroke-width="0.3"/>
</g>
<path d="M26.5886 8.80242C25.8687 9.52233 25.2091 10.3026 24.6229 11.1346L24.4375 11.0742C23.3684 10.7251 22.2605 10.5095 21.144 10.4362C20.8078 10.4104 19.5533 10.4104 19.1438 10.4362C17.9066 10.5181 16.9582 10.7035 15.8805 11.0785C15.8374 11.0958 15.7986 11.1087 15.7598 11.1217C15.1519 10.294 14.4751 9.51802 13.7294 8.80673C17.3074 6.97463 21.4932 6.75477 25.2393 8.1989C25.6402 8.34978 26.0325 8.52653 26.4162 8.7162L26.5886 8.80242Z" fill="#F00500"/>
<path d="M33.2617 25.1533C32.7185 26.7009 31.9038 28.1364 30.8476 29.3866C30.2743 30.0591 29.6406 30.6755 28.9595 31.2359C27.3645 32.5206 25.5022 33.4388 23.5149 33.9216C21.3164 34.4518 19.023 34.4518 16.8245 33.9216C14.8329 33.4388 12.9749 32.5206 11.3799 31.2359C10.6988 30.6755 10.0651 30.0591 9.49176 29.3866C6.45262 25.7957 5.5301 20.8641 7.07769 16.4196C7.37083 15.5962 7.73725 14.803 8.17695 14.0486C8.37956 13.7038 8.62959 13.3158 8.7503 13.1563C9.16414 14.9367 9.67281 16.5015 9.86249 17.0662C9.84956 17.0964 9.83231 17.1309 9.81507 17.161C8.81065 19.1958 8.26748 21.1572 8.13816 23.2436C8.13816 23.2695 8.13384 23.2997 8.13384 23.3255C8.09936 23.9506 8.1166 24.2481 8.22006 24.6403C8.54337 25.8689 9.53918 27.2225 11.0997 28.5503C13.656 30.7229 17.1219 32.2921 19.7472 32.4731C22.4846 32.6585 26.5239 31.0592 29.2138 28.7227C29.6363 28.3477 30.0329 27.9511 30.4036 27.5286C30.6709 27.2182 31.0675 26.6837 31.0373 26.6837C31.0287 26.6837 31.0373 26.6751 31.0546 26.6664C31.0675 26.6578 31.0804 26.6449 31.0718 26.6363C31.0675 26.632 31.0761 26.619 31.0891 26.6147C31.102 26.6104 31.1106 26.6018 31.1063 26.5932C31.102 26.5845 31.1063 26.5759 31.1235 26.5716C31.1365 26.5673 31.1408 26.5544 31.1365 26.5457C31.1322 26.5371 31.1365 26.5285 31.1451 26.5285C31.1537 26.5285 31.1623 26.5156 31.1623 26.5069C31.1623 26.4983 31.171 26.4854 31.1796 26.4854C31.1882 26.4854 31.1968 26.4768 31.1968 26.4681C31.2098 26.4337 31.2313 26.3992 31.2529 26.369C31.3175 26.2698 31.5762 25.8086 31.6107 25.731C31.8564 25.1749 32.0116 24.6791 32.0849 24.1834C32.1193 23.9463 32.1409 23.5109 32.1237 23.4075C32.1193 23.3902 32.1193 23.36 32.115 23.3126C32.1064 23.2264 32.1021 23.0971 32.0935 22.9677C32.0849 22.7738 32.0676 22.5022 32.0547 22.3685C31.8693 20.4114 31.3693 18.8121 30.4209 17.1179C30.3821 17.0533 30.3476 16.9886 30.326 16.9369C30.3174 16.924 30.3131 16.911 30.3088 16.9024C30.4424 16.5015 30.9899 14.8246 31.4253 12.9062L31.4339 12.9149L31.4986 13.0011C31.6107 13.152 31.9081 13.6003 32.0417 13.8158C32.6496 14.8073 33.1238 15.8721 33.46 16.9843C34.2403 19.6613 34.1756 22.5151 33.2617 25.1533Z" fill="#F00500"/>
<path d="M27.6663 20.0019C27.6534 20.0709 27.4508 20.2778 27.2482 20.4287C26.6533 20.8641 25.5885 21.2693 24.5065 21.4633C23.89 21.5754 23.2736 21.5926 23.0882 21.5021C22.9675 21.4418 22.9502 21.3943 22.9934 21.2391C23.0839 20.9158 23.377 20.5623 23.834 20.2304C24.0668 20.0623 25.0108 19.4889 25.4505 19.2475C26.1748 18.8509 26.761 18.6138 27.1576 18.5578C27.2826 18.5406 27.4335 18.5363 27.4809 18.5578C27.5585 18.588 27.6447 18.8165 27.6792 19.0923C27.6965 19.2389 27.6879 19.8855 27.6663 20.0019Z" fill="black"/>
<path d="M17.5098 21.429C17.484 21.4807 17.3547 21.5367 17.2081 21.5583C17.0615 21.5799 16.6132 21.5669 16.3588 21.5367C15.445 21.416 14.475 21.1358 13.768 20.791C13.3714 20.597 13.0869 20.403 12.8757 20.1918L12.755 20.0668L12.7421 19.9029C12.7205 19.6184 12.7248 19.1701 12.7593 19.0106C12.7809 18.877 12.8283 18.7476 12.8929 18.6312C12.9274 18.5881 12.9274 18.5881 13.0826 18.5881C13.2723 18.5881 13.4318 18.6183 13.6904 18.7002C14.2207 18.864 15.0096 19.2606 15.9709 19.8383C16.7641 20.3125 17.0615 20.5453 17.29 20.8643C17.4452 21.0626 17.5486 21.3428 17.5098 21.429Z" fill="black"/>
<path d="M23.6141 27.4297C23.6141 27.4426 23.5624 27.6496 23.4977 27.8953C23.4331 28.141 23.3814 28.3393 23.3814 28.3479C23.3339 28.3522 23.2908 28.3565 23.2434 28.3522H23.1055L22.9158 28.8006C22.8123 29.0463 22.7175 29.2748 22.7045 29.3092L22.6787 29.3696L22.5882 29.223L22.4976 29.0765V27.8824L22.4631 27.891C22.3899 27.9082 21.8682 27.9772 21.6398 27.9987C20.6957 28.0936 19.7473 28.072 18.8076 27.9384C18.6567 27.9168 18.5273 27.8996 18.523 27.9039C18.5187 27.9082 18.523 28.1841 18.5317 28.5247L18.5446 29.1368L18.4713 29.2489C18.4325 29.3092 18.3937 29.361 18.3937 29.3653C18.3808 29.3782 18.3377 29.3092 18.2385 29.1109C18.1308 28.904 18.0532 28.6842 17.9971 28.4557L17.9669 28.3307L17.8333 28.3393L17.6997 28.3522L17.6652 28.1927C17.6479 28.1065 17.6264 27.9729 17.6178 27.8996L17.6048 27.7616L17.4927 27.6625C17.4281 27.6065 17.3634 27.5504 17.3505 27.5418C17.3289 27.5246 17.3203 27.4944 17.3203 27.4685V27.4168L17.8592 27.4211L18.398 27.4254L18.4153 27.4814L18.4325 27.5375L18.6179 27.5461C18.7213 27.5504 19.049 27.559 19.3421 27.5677L19.881 27.5806L20.0189 27.3651L20.1612 27.1495H20.3422L20.3379 26.7012L20.3336 26.2529L20.0965 26.1494C19.3335 25.8131 18.8851 25.4295 18.717 24.9639C18.6825 24.8691 18.6825 24.8346 18.6739 24.4035C18.6696 23.9767 18.6696 23.9379 18.6998 23.8431C18.7601 23.6276 18.9283 23.4594 19.1438 23.4034C19.2171 23.3818 19.4111 23.3818 20.4284 23.3818L21.6268 23.3861L21.7605 23.4508C21.92 23.5284 21.9933 23.5844 22.0838 23.7051C22.1872 23.8431 22.2174 23.9509 22.2174 24.2138C22.2174 24.5889 22.1916 24.9122 22.1528 25.0415C22.0967 25.2183 22.0105 25.3864 21.9027 25.5373C21.6872 25.8131 21.2949 26.089 20.9371 26.2141L20.8336 26.2529L20.838 26.7055L20.8423 27.1581L20.9371 27.1668L21.0319 27.1754L21.1613 27.3694L21.2863 27.5633H21.8639C22.1829 27.5633 22.4631 27.5677 22.489 27.572C22.5321 27.5806 22.5407 27.5763 22.5838 27.503L22.6356 27.4254H23.1313C23.5021 27.4082 23.6141 27.4168 23.6141 27.4297Z" fill="black"/>
<path d="M21.3381 28.6667C21.2561 28.7141 21.2001 28.7357 21.1872 28.7271C21.1742 28.7228 21.1139 28.671 21.0492 28.6236L20.9328 28.5288L20.8121 28.6581C20.5492 28.9426 20.5405 28.9555 20.463 28.9599C20.3423 28.9728 20.3164 28.9512 20.1698 28.7314C20.0922 28.6193 20.0319 28.5245 20.0319 28.5245C20.0319 28.5245 19.9758 28.5158 19.9112 28.5115L19.7905 28.4986L19.7344 28.615L19.6784 28.7314L19.5792 28.7012C19.5016 28.6753 19.424 28.6452 19.3508 28.6107L19.2214 28.546V28.3003L20.3681 28.3046L21.5148 28.3089L21.5191 28.4253C21.5234 28.5633 21.5277 28.5589 21.3381 28.6667Z" fill="black"/>
<path d="M32.1151 23.4077C32.1108 23.3904 32.1108 23.3602 32.1065 23.3128C31.0719 23.2007 28.119 23.1318 25.3773 25.395C25.3773 25.395 24.4936 21.3428 20.3552 21.3428C16.2168 21.3428 14.6821 25.395 14.6821 25.395C12.3629 22.899 9.25907 23.08 8.13825 23.2439C8.13825 23.2697 8.13394 23.2999 8.13394 23.3258C8.09945 23.9508 8.1167 24.2483 8.22016 24.6406C8.54347 25.8692 9.53927 27.2228 11.0998 28.5505C13.6561 30.7232 17.122 32.2923 19.7473 32.4734C22.4847 32.6587 26.524 31.0594 29.2139 28.7229C29.6364 28.3479 30.033 27.9513 30.4037 27.5288C30.671 27.2184 31.0676 26.6839 31.0374 26.6839C31.0288 26.6839 31.0374 26.6753 31.0547 26.6667C31.0676 26.658 31.0805 26.6451 31.0719 26.6365C31.0676 26.6322 31.0762 26.6192 31.0891 26.6149C31.1021 26.6106 31.1107 26.602 31.1064 26.5934C31.1021 26.5848 31.1064 26.5761 31.1236 26.5718C31.1366 26.5675 31.1409 26.5546 31.1366 26.546C31.1323 26.5373 31.1366 26.5287 31.1452 26.5287C31.1538 26.5287 31.1624 26.5158 31.1624 26.5072C31.1624 26.4985 31.1711 26.4856 31.1797 26.4856C31.1883 26.4856 31.1969 26.477 31.1969 26.4684C31.2099 26.4339 31.2314 26.3994 31.253 26.3692C31.3176 26.2701 31.5763 25.8088 31.6108 25.7312C31.8565 25.1751 32.0117 24.6794 32.0849 24.1836C32.1108 23.9465 32.1324 23.5111 32.1151 23.4077ZM21.338 28.6669C21.2561 28.7143 21.2001 28.7359 21.1872 28.7272C21.1742 28.7229 21.1139 28.6712 21.0492 28.6238L20.9328 28.5289L20.8121 28.6583C20.5491 28.9428 20.5405 28.9557 20.4629 28.96C20.3422 28.973 20.3164 28.9514 20.1698 28.7315C20.0922 28.6195 20.0318 28.5246 20.0318 28.5246C20.0318 28.5246 19.9758 28.516 19.9111 28.5117L19.7904 28.4988L19.7344 28.6152L19.6784 28.7315L19.5792 28.7014C19.5016 28.6755 19.424 28.6453 19.3507 28.6108L19.2214 28.5462V28.3005L20.3681 28.3048L21.5148 28.3091L21.5191 28.4255C21.5234 28.5634 21.5277 28.5591 21.338 28.6669ZM23.4935 27.8909C23.4288 28.1367 23.3771 28.335 23.3771 28.3436C23.3296 28.3479 23.2865 28.3522 23.2391 28.3479H23.1012L22.9158 28.8005C22.8123 29.0462 22.7175 29.2747 22.7046 29.3092L22.6787 29.3696L22.5882 29.223L22.4977 29.0764V27.8823L22.4632 27.8909C22.3899 27.9082 21.8683 27.9772 21.6398 27.9987C20.6957 28.0935 19.7473 28.072 18.8076 27.9384C18.6567 27.9168 18.5274 27.8996 18.5231 27.9039C18.5187 27.9082 18.5231 28.1841 18.5317 28.5246L18.5446 29.1368L18.4713 29.2488C18.4325 29.3092 18.3937 29.3609 18.3937 29.3652C18.3808 29.3782 18.3377 29.3092 18.2385 29.1109C18.1308 28.904 18.0532 28.6841 17.9971 28.4557L17.967 28.3306L17.8333 28.3393L17.6997 28.3522L17.6652 28.1927C17.648 28.1065 17.6264 27.9728 17.6178 27.8996L17.6049 27.7616L17.4928 27.6625C17.4281 27.6064 17.3634 27.5504 17.3505 27.5418C17.329 27.5245 17.3203 27.4943 17.3203 27.4685V27.4167L17.8592 27.4211L18.398 27.4254L18.4153 27.4814L18.4325 27.5374L18.6179 27.5461C18.7214 27.5504 19.049 27.559 19.3421 27.5676L19.881 27.5806L20.0189 27.365L20.1612 27.1495H20.3422L20.3379 26.7011L20.3336 26.2528L20.0965 26.1494C19.3335 25.8131 18.8852 25.4294 18.717 24.9639C18.6826 24.869 18.6826 24.8346 18.6739 24.4035C18.6696 23.9767 18.6696 23.9379 18.6998 23.8431C18.7602 23.6275 18.9283 23.4594 19.1438 23.4034C19.2171 23.3818 19.4111 23.3818 20.4284 23.3818L21.6269 23.3861L21.7605 23.4508C21.92 23.5284 21.9933 23.5844 22.0838 23.7051C22.1873 23.8431 22.2174 23.9508 22.2174 24.2138C22.2174 24.5888 22.1916 24.9121 22.1528 25.0415C22.0967 25.2182 22.0105 25.3863 21.9028 25.5372C21.6872 25.8131 21.2949 26.089 20.9371 26.214L20.8337 26.2528L20.838 26.7055L20.8423 27.1581L20.9371 27.1667L21.032 27.1753L21.1613 27.3693L21.2863 27.5633H21.864C22.183 27.5633 22.4632 27.5676 22.489 27.5719C22.5321 27.5806 22.5408 27.5762 22.5839 27.503L22.6356 27.4254H23.1313C23.515 27.4254 23.6271 27.4297 23.6271 27.4426C23.6142 27.4383 23.5581 27.6495 23.4935 27.8909Z" fill="white"/>
<path d="M32.0805 22.9679C32.0719 22.7739 32.0547 22.5023 32.0417 22.3687C31.8564 20.4115 31.3563 18.8122 30.4079 17.1181C30.3691 17.0534 30.3346 16.9887 30.3131 16.937C30.3045 16.9241 30.3002 16.9111 30.2958 16.9025C30.4295 16.5016 30.977 14.8247 31.4123 12.9064C32.0029 10.3026 32.378 7.25918 31.2313 6.34528C31.2313 6.34528 29.2483 6.19871 26.5928 8.80246C25.8729 9.52237 25.2134 10.3026 24.6271 11.1346L24.4417 11.0743C23.3726 10.7251 22.2648 10.5095 21.1482 10.4363C20.812 10.4104 19.5575 10.4104 19.148 10.4363C17.9108 10.5182 16.9624 10.7035 15.8847 11.0786C15.8416 11.0958 15.8028 11.1088 15.764 11.1217C15.1562 10.294 14.4794 9.51806 13.7336 8.80677C10.9704 6.19009 8.91409 6.34097 8.91409 6.34097C7.69843 7.28504 8.11227 10.4664 8.74166 13.1564C9.1555 14.9368 9.66417 16.5016 9.85385 17.0663C9.84092 17.0965 9.82368 17.131 9.80643 17.1612C8.80201 19.1959 8.25884 21.1573 8.12952 23.2438C9.25465 23.08 12.3541 22.8946 14.6777 25.3949C14.6777 25.3949 16.2123 21.3427 20.3507 21.3427C24.4891 21.3427 25.3729 25.3949 25.3729 25.3949C28.1146 23.1317 31.0675 23.205 32.1021 23.3127C32.0978 23.2265 32.0891 23.0972 32.0805 22.9679ZM10.6686 15.4411C10.6686 15.4411 9.05635 11.4105 9.47019 9.10853C9.53916 8.72055 9.66849 8.37999 9.8711 8.12134C9.8711 8.12134 11.6989 8.3024 14.6475 11.5786C14.6475 11.5786 14.0871 11.8502 13.337 12.4279C13.337 12.4279 13.3327 12.4322 13.3284 12.4322C12.5136 13.0573 11.4704 14.0487 10.6686 15.4411ZM17.5099 21.4289C17.484 21.4806 17.3547 21.5367 17.2081 21.5582C17.0616 21.5798 16.6132 21.5668 16.3589 21.5367C15.445 21.416 14.4751 21.1358 13.7681 20.7909C13.3715 20.5969 13.087 20.4029 12.8757 20.1917L12.755 20.0667L12.7421 19.9029C12.7206 19.6183 12.7249 19.17 12.7594 19.0105C12.7809 18.8769 12.8283 18.7476 12.893 18.6312C12.9275 18.5881 12.9275 18.5881 13.0827 18.5881C13.2723 18.5881 13.4318 18.6182 13.6905 18.7001C14.2207 18.864 15.0096 19.2605 15.9709 19.8382C16.7641 20.3124 17.0616 20.5452 17.29 20.8642C17.4452 21.0625 17.5487 21.3427 17.5099 21.4289ZM27.6662 20.002C27.6533 20.071 27.4507 20.2779 27.2481 20.4288C26.6532 20.8642 25.5884 21.2694 24.5064 21.4634C23.8899 21.5755 23.2735 21.5927 23.0881 21.5022C22.9674 21.4418 22.9502 21.3944 22.9933 21.2392C23.0838 20.9159 23.377 20.5624 23.8339 20.2305C24.0667 20.0624 25.0108 19.489 25.4505 19.2476C26.1747 18.851 26.761 18.6139 27.1576 18.5579C27.2826 18.5406 27.4334 18.5363 27.4809 18.5579C27.5585 18.5881 27.6447 18.8165 27.6792 19.0924C27.6964 19.239 27.6878 19.8856 27.6662 20.002ZM26.9506 12.4279L26.942 12.4236C26.2178 11.8459 25.6746 11.5743 25.6746 11.5743C28.5241 8.29809 30.2872 8.11703 30.2872 8.11703C30.4812 8.38 30.6062 8.71624 30.6752 9.10422C31.0761 11.4062 29.5199 15.4411 29.5199 15.4411C28.869 14.2815 27.9939 13.2556 26.9506 12.4279Z" fill="#FFA409"/>
<path d="M30.6796 9.10412C30.3433 9.06102 28.7526 9.05239 26.9507 12.4278L26.9421 12.4235C26.2178 11.8458 25.6747 11.5742 25.6747 11.5742C28.5241 8.298 30.2873 8.11694 30.2873 8.11694C30.4856 8.3799 30.6106 8.71615 30.6796 9.10412Z" fill="#FF9300"/>
<path d="M29.5243 15.4412C28.869 14.2773 27.9982 13.2556 26.9507 12.4279C28.7526 9.05254 30.339 9.06116 30.6796 9.10427C31.0805 11.4106 29.5243 15.4412 29.5243 15.4412Z" fill="#FF8300"/>
<path d="M30.7442 9.11718C30.7227 9.11287 30.7011 9.10856 30.6796 9.10425L30.7442 9.11718Z" fill="#FF8300"/>
<path d="M14.6477 11.5742C14.6477 11.5742 14.0873 11.8458 13.3372 12.4235C13.3372 12.4235 13.3329 12.4278 13.3286 12.4278C11.462 9.04808 9.81955 9.06102 9.46606 9.10412C9.53504 8.71615 9.66437 8.37559 9.86697 8.11694C9.87129 8.11694 11.6991 8.298 14.6477 11.5742Z" fill="#FF9300"/>
<path d="M13.3328 12.4279C12.5137 13.0573 11.4705 14.0445 10.6687 15.4412C10.6687 15.4412 9.05643 11.4106 9.47027 9.10427C9.81945 9.06116 11.4662 9.05254 13.3328 12.4279Z" fill="#FF8300"/>
<path d="M9.47022 9.10425C9.44866 9.10856 9.4228 9.11287 9.40125 9.11718L9.47022 9.10425Z" fill="#FF8300"/>
<path d="M25.1616 17.6785C25.1616 17.6785 23.7822 17.7647 23.9546 16.687C24.127 15.6093 25.2048 15.48 25.5065 15.5231C25.8083 15.5662 27.0153 15.9973 26.7998 16.9026C26.5842 17.8078 26.2825 17.6354 26.11 17.6785C25.9376 17.7216 25.1616 17.6785 25.1616 17.6785Z" fill="white"/>
<path d="M14.9882 17.6785C14.9882 17.6785 13.6087 17.7647 13.7812 16.687C13.9536 15.6093 15.0313 15.48 15.3331 15.5231C15.6348 15.5662 16.8418 15.9973 16.6263 16.9026C16.4108 17.8078 16.109 17.6354 15.9366 17.6785C15.7641 17.7216 14.9882 17.6785 14.9882 17.6785Z" fill="white"/>
<defs>
<filter id="filter0_bii_445_14706" x="-83" y="-83" width="206" height="206" filterUnits="userSpaceOnUse" color-interpolation-filters="sRGB">
<feFlood flood-opacity="0" result="BackgroundImageFix"/>
<feGaussianBlur in="BackgroundImageFix" stdDeviation="43"/>
<feComposite in2="SourceAlpha" operator="in" result="effect1_backgroundBlur_445_14706"/>
<feBlend mode="normal" in="SourceGraphic" in2="effect1_backgroundBlur_445_14706" result="shape"/>
<feColorMatrix in="SourceAlpha" type="matrix" values="0 0 0 0 0 0 0 0 0 0 0 0 0 0 0 0 0 0 127 0" result="hardAlpha"/>
<feOffset dy="4"/>
<feGaussianBlur stdDeviation="7.5"/>
<feComposite in2="hardAlpha" operator="arithmetic" k2="-1" k3="1"/>
<feColorMatrix type="matrix" values="0 0 0 0 1 0 0 0 0 1 0 0 0 0 1 0 0 0 0.15 0"/>
<feBlend mode="normal" in2="shape" result="effect2_innerShadow_445_14706"/>
<feColorMatrix in="SourceAlpha" type="matrix" values="0 0 0 0 0 0 0 0 0 0 0 0 0 0 0 0 0 0 127 0" result="hardAlpha"/>
<feOffset/>
<feGaussianBlur stdDeviation="34"/>
<feComposite in2="hardAlpha" operator="arithmetic" k2="-1" k3="1"/>
<feColorMatrix type="matrix" values="0 0 0 0 1 0 0 0 0 1 0 0 0 0 1 0 0 0 0.05 0"/>
<feBlend mode="normal" in2="effect2_innerShadow_445_14706" result="effect3_innerShadow_445_14706"/>
</filter>
<linearGradient id="paint0_linear_445_14706" x1="3" y1="1.78571" x2="20" y2="22.4286" gradientUnits="userSpaceOnUse">
<stop stop-color="white"/>
<stop offset="1" stop-color="white" stop-opacity="0"/>
</linearGradient>
</defs>
</svg>
