<svg width="76" height="75" viewBox="0 0 76 75" fill="none" xmlns="http://www.w3.org/2000/svg">
<path d="M48.5055 37.3886C47.6111 36.4941 46.3761 36.0339 45.1128 36.1272C43.8512 36.2202 42.6955 36.8562 41.9416 37.8721C41.4064 38.5934 41.1116 39.4855 41.1116 40.3837V40.6275L38.9578 38.4737L42.3733 35.0583C45.1165 32.3149 45.1165 27.8512 42.3733 25.1078C39.6297 22.3644 35.1661 22.3644 32.4227 25.1078C29.6793 27.8512 29.6793 32.3149 32.4227 35.0583L35.8381 38.4737L33.6843 40.6275V40.3837C33.6843 39.4855 33.3896 38.5934 32.8543 37.8721C32.1006 36.8562 30.9447 36.2202 29.6831 36.1272C28.4227 36.0346 27.185 36.494 26.2905 37.3886C25.3721 38.3069 24.8662 39.528 24.8662 40.8266C24.8662 42.1253 25.3719 43.3463 26.2905 44.2647C27.2089 45.1831 28.4297 45.689 29.7286 45.689C30.3365 45.689 30.9275 45.5781 31.4784 45.3661V54.0871C31.4784 54.6962 31.9722 55.19 32.5814 55.19C33.1905 55.19 33.6843 54.6962 33.6843 54.0871V43.7471L37.398 40.0336L41.1116 43.7471V54.0871C41.1116 54.6962 41.6053 55.19 42.2146 55.19C42.8238 55.19 43.3175 54.6962 43.3175 54.0871V45.3661C43.8684 45.5781 44.4594 45.689 45.0674 45.689C46.3661 45.689 47.5871 45.1833 48.5053 44.2647C49.4237 43.3463 49.9296 42.1255 49.9296 40.8266C49.9296 39.5278 49.4237 38.3069 48.5055 37.3886ZM31.4784 42.8253C30.994 43.2508 30.3792 43.483 29.7286 43.483C29.019 43.483 28.3519 43.2066 27.8503 42.7049C27.3487 42.2031 27.0722 41.5361 27.0722 40.8266C27.0722 40.1172 27.3486 39.45 27.8503 38.9483C28.2534 38.5452 28.7977 38.3213 29.3633 38.3213C29.4156 38.3213 29.4684 38.3233 29.5211 38.3272C30.1424 38.3731 30.7115 38.6862 31.0828 39.1866C31.338 39.5305 31.4784 39.9556 31.4784 40.3838V42.8253ZM33.9825 26.6675C34.8949 25.7552 36.1078 25.2528 37.398 25.2528C38.6881 25.2528 39.9011 25.7553 40.8134 26.6675C42.6968 28.5508 42.6968 31.6152 40.8134 33.4984L37.398 36.914L33.9825 33.4986C32.0993 31.6152 32.0993 28.5509 33.9825 26.6675ZM46.9456 42.705C46.444 43.2068 45.7769 43.4831 45.0675 43.4831C44.4169 43.4831 43.8021 43.2508 43.3177 42.8255V40.3838C43.3177 39.9556 43.4581 39.5305 43.7133 39.1865C44.0844 38.6862 44.6537 38.373 45.275 38.3272C45.8944 38.2812 46.5052 38.5078 46.9456 38.9484C47.4474 39.4502 47.7237 40.1172 47.7237 40.8268C47.7237 41.5364 47.4474 42.2033 46.9456 42.705Z" fill="url(#paint0_linear_906_12942)"/>
<path d="M12.4057 26.969H5.47279C4.65941 26.969 4 26.3096 4 25.4962C4 24.6828 4.65941 24.0234 5.47279 24.0234H12.4057C13.2191 24.0234 13.8785 24.6828 13.8785 25.4962C13.8785 26.3096 13.2191 26.969 12.4057 26.969Z" fill="url(#paint1_linear_906_12942)"/>
<path d="M22.9776 7.84783C22.6007 7.84783 22.2237 7.704 21.9362 7.4165L17.0339 2.51415C16.4588 1.93901 16.4588 1.00651 17.0339 0.43136C17.609 -0.143787 18.5415 -0.143787 19.1167 0.43136L24.019 5.33356C24.5942 5.90871 24.5942 6.84121 24.019 7.41636C23.7314 7.704 23.3545 7.84783 22.9776 7.84783Z" fill="url(#paint2_linear_906_12942)"/>
<path d="M13.5295 49.8887C13.1526 49.8887 12.7756 49.7449 12.488 49.4574C11.9129 48.8823 11.9129 47.9498 12.488 47.3746L17.3904 42.4723C17.9655 41.8973 18.898 41.8973 19.4731 42.4723C20.0483 43.0474 20.0483 43.9799 19.4731 44.5551L14.5708 49.4574C14.2833 49.7449 13.9064 49.8887 13.5295 49.8887Z" fill="url(#paint3_linear_906_12942)"/>
<path d="M62.0415 27.1158H68.9745C69.7879 27.1158 70.4473 26.4563 70.4473 25.643C70.4473 24.8296 69.7879 24.1702 68.9745 24.1702H62.0415C61.2282 24.1702 60.5687 24.8296 60.5687 25.643C60.5687 26.4563 61.2282 27.1158 62.0415 27.1158Z" fill="url(#paint4_linear_906_12942)"/>
<path d="M51.4687 7.99431C51.8456 7.99431 52.2225 7.85049 52.51 7.56299L57.4124 2.66064C57.9875 2.08549 57.9875 1.15299 57.4124 0.577844C56.8372 0.00269768 55.9047 0.00269768 55.3296 0.577844L50.4272 5.48005C49.8521 6.05519 49.8521 6.98769 50.4272 7.56284C50.7149 7.85049 51.0918 7.99431 51.4687 7.99431Z" fill="url(#paint5_linear_906_12942)"/>
<path d="M60.9178 50.0352C61.2947 50.0352 61.6716 49.8914 61.9593 49.6039C62.5344 49.0287 62.5344 48.0962 61.9593 47.5211L57.0569 42.6187C56.4818 42.0438 55.5493 42.0438 54.9741 42.6187C54.399 43.1939 54.399 44.1264 54.9741 44.7015L59.8765 49.6039C60.164 49.8914 60.5409 50.0352 60.9178 50.0352Z" fill="url(#paint6_linear_906_12942)"/>
<g filter="url(#filter0_bii_906_12942)">
<path d="M63.2882 25.8897C63.2882 11.6928 51.8611 0.164824 37.7029 0.00173597C23.4861 -0.162087 11.7172 11.29 11.5116 25.5063C11.4019 33.0883 14.5522 39.9363 19.6507 44.7386C21.7492 46.7152 22.9042 49.4946 22.9042 52.3774V59.5349H51.8927V52.3336C51.8927 49.4739 53.0404 46.7176 55.1243 44.7594C60.1496 40.0369 63.2882 33.3298 63.2882 25.8897Z" fill="white" fill-opacity="0.03"/>
</g>
<path d="M48.5055 35.7772C47.6111 34.8828 46.3761 34.4225 45.1128 34.5159C43.8512 34.6088 42.6955 35.2449 41.9416 36.2608C41.4064 36.9821 41.1116 37.8741 41.1116 38.7724V39.0162L38.9578 36.8624L42.3733 33.4469C45.1165 30.7036 45.1165 26.2399 42.3733 23.4965C39.6297 20.7531 35.1661 20.7531 32.4227 23.4965C29.6793 26.2399 29.6793 30.7036 32.4227 33.4469L35.8381 36.8624L33.6843 39.0162V38.7724C33.6843 37.8741 33.3896 36.9821 32.8543 36.2608C32.1006 35.2449 30.9447 34.6088 29.6831 34.5159C28.4227 34.4233 27.185 34.8827 26.2905 35.7772C25.3721 36.6956 24.8662 37.9166 24.8662 39.2153C24.8662 40.514 25.3719 41.735 26.2905 42.6534C27.2089 43.5718 28.4297 44.0777 29.7286 44.0777C30.3365 44.0777 30.9275 43.9668 31.4784 43.7547V52.4757C31.4784 53.0849 31.9722 53.5787 32.5814 53.5787C33.1905 53.5787 33.6843 53.0849 33.6843 52.4757V42.1358L37.398 38.4222L41.1116 42.1358V52.4757C41.1116 53.0849 41.6053 53.5787 42.2146 53.5787C42.8238 53.5787 43.3175 53.0849 43.3175 52.4757V43.7547C43.8684 43.9668 44.4594 44.0777 45.0674 44.0777C46.3661 44.0777 47.5871 43.5719 48.5053 42.6534C49.4237 41.735 49.9296 40.5141 49.9296 39.2153C49.9296 37.9165 49.4237 36.6956 48.5055 35.7772ZM31.4784 41.214C30.994 41.6394 30.3792 41.8716 29.7286 41.8716C29.019 41.8716 28.3519 41.5953 27.8503 41.0936C27.3487 40.5918 27.0722 39.9247 27.0722 39.2153C27.0722 38.5059 27.3486 37.8387 27.8503 37.3369C28.2534 36.9338 28.7977 36.71 29.3633 36.71C29.4156 36.71 29.4684 36.7119 29.5211 36.7159C30.1424 36.7618 30.7115 37.0749 31.0828 37.5753C31.338 37.9191 31.4784 38.3443 31.4784 38.7725V41.214ZM33.9825 25.0562C34.8949 24.1439 36.1078 23.6415 37.398 23.6415C38.6881 23.6415 39.9011 24.144 40.8134 25.0562C42.6968 26.9394 42.6968 30.0038 40.8134 31.8871L37.398 35.3027L33.9825 31.8872C32.0993 30.0038 32.0993 26.9396 33.9825 25.0562ZM46.9456 41.0937C46.444 41.5955 45.7769 41.8718 45.0675 41.8718C44.4169 41.8718 43.8021 41.6394 43.3177 41.2141V38.7725C43.3177 38.3443 43.4581 37.9191 43.7133 37.5752C44.0844 37.0749 44.6537 36.7616 45.275 36.7159C45.8944 36.6699 46.5052 36.8965 46.9456 37.3371C47.4474 37.8388 47.7237 38.5059 47.7237 39.2155C47.7237 39.925 47.4474 40.5919 46.9456 41.0937Z" fill="url(#paint7_linear_906_12942)"/>
<g filter="url(#filter1_bii_906_12942)">
<path d="M37.3982 74.9999C29.3777 74.9999 22.876 68.4981 22.876 60.4777V59.5349H51.9205V60.4777C51.9204 68.4981 45.4186 74.9999 37.3982 74.9999Z" fill="white" fill-opacity="0.03"/>
</g>
<g filter="url(#filter2_bii_906_12942)">
<path d="M50.595 50.9817H24.2024C21.8405 50.9817 19.9258 52.8964 19.9258 55.2583C19.9258 56.4607 20.422 57.5471 21.2208 58.3242C22.4021 59.4733 22.9849 61.1264 22.6639 62.7427C22.5961 63.0843 22.5558 63.4424 22.5558 63.8115C22.5558 66.1734 24.4705 68.0882 26.8324 68.0882H47.9652C50.3271 68.0882 52.2418 66.1734 52.2418 63.8115C52.2418 63.4424 52.2016 63.0843 52.1337 62.7427C51.8127 61.1262 52.3955 59.4732 53.5768 58.3242C54.3756 57.5473 54.8718 56.4607 54.8718 55.2583C54.8716 52.8964 52.9569 50.9817 50.595 50.9817Z" fill="white" fill-opacity="0.03"/>
</g>
<defs>
<filter id="filter0_bii_906_12942" x="-74.4912" y="-86" width="223.779" height="231.535" filterUnits="userSpaceOnUse" color-interpolation-filters="sRGB">
<feFlood flood-opacity="0" result="BackgroundImageFix"/>
<feGaussianBlur in="BackgroundImageFix" stdDeviation="43"/>
<feComposite in2="SourceAlpha" operator="in" result="effect1_backgroundBlur_906_12942"/>
<feBlend mode="normal" in="SourceGraphic" in2="effect1_backgroundBlur_906_12942" result="shape"/>
<feColorMatrix in="SourceAlpha" type="matrix" values="0 0 0 0 0 0 0 0 0 0 0 0 0 0 0 0 0 0 127 0" result="hardAlpha"/>
<feOffset dy="4"/>
<feGaussianBlur stdDeviation="2"/>
<feComposite in2="hardAlpha" operator="arithmetic" k2="-1" k3="1"/>
<feColorMatrix type="matrix" values="0 0 0 0 1 0 0 0 0 1 0 0 0 0 1 0 0 0 0.15 0"/>
<feBlend mode="normal" in2="shape" result="effect2_innerShadow_906_12942"/>
<feColorMatrix in="SourceAlpha" type="matrix" values="0 0 0 0 0 0 0 0 0 0 0 0 0 0 0 0 0 0 127 0" result="hardAlpha"/>
<feOffset/>
<feGaussianBlur stdDeviation="34"/>
<feComposite in2="hardAlpha" operator="arithmetic" k2="-1" k3="1"/>
<feColorMatrix type="matrix" values="0 0 0 0 1 0 0 0 0 1 0 0 0 0 1 0 0 0 0.05 0"/>
<feBlend mode="normal" in2="effect2_innerShadow_906_12942" result="effect3_innerShadow_906_12942"/>
</filter>
<filter id="filter1_bii_906_12942" x="-63.124" y="-26.4651" width="201.045" height="187.465" filterUnits="userSpaceOnUse" color-interpolation-filters="sRGB">
<feFlood flood-opacity="0" result="BackgroundImageFix"/>
<feGaussianBlur in="BackgroundImageFix" stdDeviation="43"/>
<feComposite in2="SourceAlpha" operator="in" result="effect1_backgroundBlur_906_12942"/>
<feBlend mode="normal" in="SourceGraphic" in2="effect1_backgroundBlur_906_12942" result="shape"/>
<feColorMatrix in="SourceAlpha" type="matrix" values="0 0 0 0 0 0 0 0 0 0 0 0 0 0 0 0 0 0 127 0" result="hardAlpha"/>
<feOffset dy="4"/>
<feGaussianBlur stdDeviation="2"/>
<feComposite in2="hardAlpha" operator="arithmetic" k2="-1" k3="1"/>
<feColorMatrix type="matrix" values="0 0 0 0 1 0 0 0 0 1 0 0 0 0 1 0 0 0 0.15 0"/>
<feBlend mode="normal" in2="shape" result="effect2_innerShadow_906_12942"/>
<feColorMatrix in="SourceAlpha" type="matrix" values="0 0 0 0 0 0 0 0 0 0 0 0 0 0 0 0 0 0 127 0" result="hardAlpha"/>
<feOffset/>
<feGaussianBlur stdDeviation="34"/>
<feComposite in2="hardAlpha" operator="arithmetic" k2="-1" k3="1"/>
<feColorMatrix type="matrix" values="0 0 0 0 1 0 0 0 0 1 0 0 0 0 1 0 0 0 0.05 0"/>
<feBlend mode="normal" in2="effect2_innerShadow_906_12942" result="effect3_innerShadow_906_12942"/>
</filter>
<filter id="filter2_bii_906_12942" x="-66.0742" y="-35.0183" width="206.946" height="189.106" filterUnits="userSpaceOnUse" color-interpolation-filters="sRGB">
<feFlood flood-opacity="0" result="BackgroundImageFix"/>
<feGaussianBlur in="BackgroundImageFix" stdDeviation="43"/>
<feComposite in2="SourceAlpha" operator="in" result="effect1_backgroundBlur_906_12942"/>
<feBlend mode="normal" in="SourceGraphic" in2="effect1_backgroundBlur_906_12942" result="shape"/>
<feColorMatrix in="SourceAlpha" type="matrix" values="0 0 0 0 0 0 0 0 0 0 0 0 0 0 0 0 0 0 127 0" result="hardAlpha"/>
<feOffset dy="4"/>
<feGaussianBlur stdDeviation="2"/>
<feComposite in2="hardAlpha" operator="arithmetic" k2="-1" k3="1"/>
<feColorMatrix type="matrix" values="0 0 0 0 1 0 0 0 0 1 0 0 0 0 1 0 0 0 0.15 0"/>
<feBlend mode="normal" in2="shape" result="effect2_innerShadow_906_12942"/>
<feColorMatrix in="SourceAlpha" type="matrix" values="0 0 0 0 0 0 0 0 0 0 0 0 0 0 0 0 0 0 127 0" result="hardAlpha"/>
<feOffset/>
<feGaussianBlur stdDeviation="34"/>
<feComposite in2="hardAlpha" operator="arithmetic" k2="-1" k3="1"/>
<feColorMatrix type="matrix" values="0 0 0 0 1 0 0 0 0 1 0 0 0 0 1 0 0 0 0.05 0"/>
<feBlend mode="normal" in2="effect2_innerShadow_906_12942" result="effect3_innerShadow_906_12942"/>
</filter>
<linearGradient id="paint0_linear_906_12942" x1="24.8662" y1="39.1202" x2="49.9296" y2="39.1202" gradientUnits="userSpaceOnUse">
<stop stop-color="#DE91F2"/>
<stop offset="1" stop-color="#8C47F5"/>
</linearGradient>
<linearGradient id="paint1_linear_906_12942" x1="4" y1="25.4962" x2="13.8785" y2="25.4962" gradientUnits="userSpaceOnUse">
<stop stop-color="#DE91F2"/>
<stop offset="1" stop-color="#8C47F5"/>
</linearGradient>
<linearGradient id="paint2_linear_906_12942" x1="16.6025" y1="3.92392" x2="24.4504" y2="3.92392" gradientUnits="userSpaceOnUse">
<stop stop-color="#DE91F2"/>
<stop offset="1" stop-color="#8C47F5"/>
</linearGradient>
<linearGradient id="paint3_linear_906_12942" x1="12.0566" y1="45.9649" x2="19.9045" y2="45.9649" gradientUnits="userSpaceOnUse">
<stop stop-color="#DE91F2"/>
<stop offset="1" stop-color="#8C47F5"/>
</linearGradient>
<linearGradient id="paint4_linear_906_12942" x1="70.4473" y1="25.643" x2="60.5687" y2="25.643" gradientUnits="userSpaceOnUse">
<stop stop-color="#DE91F2"/>
<stop offset="1" stop-color="#8C47F5"/>
</linearGradient>
<linearGradient id="paint5_linear_906_12942" x1="57.8438" y1="4.0704" x2="49.9959" y2="4.0704" gradientUnits="userSpaceOnUse">
<stop stop-color="#DE91F2"/>
<stop offset="1" stop-color="#8C47F5"/>
</linearGradient>
<linearGradient id="paint6_linear_906_12942" x1="62.3906" y1="46.1114" x2="54.5428" y2="46.1114" gradientUnits="userSpaceOnUse">
<stop stop-color="#DE91F2"/>
<stop offset="1" stop-color="#8C47F5"/>
</linearGradient>
<linearGradient id="paint7_linear_906_12942" x1="24.8662" y1="37.5088" x2="49.9296" y2="37.5088" gradientUnits="userSpaceOnUse">
<stop stop-color="#DE91F2"/>
<stop offset="1" stop-color="#8C47F5"/>
</linearGradient>
</defs>
</svg>
