<svg width="169" height="35" viewBox="0 0 169 35" fill="none" xmlns="http://www.w3.org/2000/svg">
<path d="M63.1196 22.5946C63.1196 26.5175 65.7688 29.2431 69.1313 29.2431C70.8635 29.2686 72.5192 28.5044 73.5891 27.1543V29.0648H76.2383V16.3027H73.5127V18.1368C72.4173 16.7867 70.7871 16.0225 69.0549 16.048C65.7434 16.048 63.1196 18.5953 63.1196 22.5946ZM73.5127 22.5946C73.691 24.7853 72.0607 26.6958 69.87 26.8741C69.8191 26.8741 69.7427 26.8741 69.6917 26.8741C67.6793 26.8741 65.8707 25.2438 65.8707 22.4927C65.6924 20.353 67.2972 18.468 69.437 18.2896H69.7172C71.6786 18.3151 73.5127 19.869 73.5127 22.5946ZM80.798 28.9884H83.4472V11.8449H80.798V28.9884ZM90.7326 18.1368V16.2263H88.0834V35.0001H90.7326V27.0779C91.8534 28.377 93.4837 29.1412 95.1904 29.1667C98.5529 29.1667 101.202 26.4411 101.202 22.5182C101.202 18.5953 98.5529 15.9461 95.1904 15.9461C93.4582 15.9971 91.8279 16.7867 90.7326 18.1368ZM98.4764 22.5946C98.6548 24.8363 96.9735 26.7977 94.7319 26.9505C94.6809 26.9505 94.63 26.9505 94.5536 26.9505C92.5412 26.9505 90.7326 25.3967 90.7326 22.671C90.5543 20.4803 92.1846 18.5699 94.3752 18.3915H94.5536C96.6933 18.3661 98.451 20.0982 98.4764 22.2635C98.4764 22.2889 98.4764 22.3144 98.4764 22.3144V22.5946ZM104.947 28.9884H107.596V21.8814C107.596 19.5124 108.87 18.3151 110.78 18.3151C112.69 18.3151 113.964 19.5124 113.964 21.8814V28.9884H116.613V21.4228C116.613 17.8566 114.423 15.9461 111.519 15.9461C110.016 15.8442 108.538 16.5065 107.596 17.6783V11.8449H104.947V28.9884ZM120.256 22.5946C120.256 26.5175 122.905 29.2431 126.268 29.2431C128 29.2686 129.656 28.5044 130.726 27.1543V29.0648H133.375V16.3027H130.726V18.1368C129.63 16.7867 128 16.0225 126.268 16.048C122.905 16.048 120.256 18.5953 120.256 22.5946ZM130.726 22.5946C130.904 24.7853 129.274 26.6958 127.083 26.8741C127.032 26.8741 126.955 26.8741 126.905 26.8741C124.892 26.8741 123.084 25.2438 123.084 22.4927C122.905 20.353 124.51 18.468 126.65 18.2896H126.93C129.121 18.3661 130.853 20.2001 130.776 22.3908C130.751 22.4672 130.751 22.5437 130.726 22.5946ZM140.66 18.1368V11.8449H138.011V28.9884H140.66V27.1543C141.755 28.5044 143.386 29.2686 145.118 29.2431C148.48 29.2431 151.13 26.5175 151.13 22.5946C151.13 18.6717 148.48 16.0225 145.118 16.0225C143.386 15.9716 141.73 16.7613 140.66 18.1368ZM148.429 22.5946C148.608 24.8363 146.926 26.7977 144.685 26.9505C144.634 26.9505 144.583 26.9505 144.507 26.9505C142.494 26.9505 140.686 25.3967 140.686 22.671C140.507 20.4803 142.138 18.5699 144.328 18.3915H144.507C146.646 18.3661 148.404 20.0982 148.429 22.2635C148.429 22.2889 148.429 22.3144 148.429 22.3144V22.5946ZM154.798 28.9884H157.447V16.2263H154.798V28.9884ZM156.173 14.5706C157.065 14.5706 157.804 13.8573 157.804 12.9403C157.804 12.9403 157.804 12.9403 157.804 12.9148C157.778 11.9978 157.065 11.259 156.173 11.1826C155.256 11.2081 154.517 11.9213 154.441 12.8129C154.467 13.7809 155.231 14.5451 156.173 14.5706ZM162.542 25.4221C162.542 27.9695 163.994 28.9884 166.184 28.9884H168.273V26.7977H166.643C165.547 26.7977 165.191 26.4411 165.191 25.4221V18.417H168.299V16.2263H165.191V13.0422H162.542V16.2263H160.988V18.417H162.542V25.4221Z" fill="#AAAAAA"/>
<path d="M34.7671 16.8633L31.4047 13.6791L31.1245 13.9593L26.9214 18.0605L22.7183 13.9593L22.3617 13.6791L21.8268 13.1442L20.9097 12.2271C18.6681 10.3421 15.8151 9.29772 12.8857 9.3232C6.23715 9.3232 0.862305 14.698 0.862305 21.3466C0.862305 27.9951 6.23715 33.3699 12.8857 33.3699C15.8151 33.3699 18.6681 32.351 20.9097 30.466C21.2663 30.2112 21.572 29.9055 21.8268 29.5489L22.3617 29.014L22.6419 28.7338L26.845 24.6326L31.0481 28.7338L31.3283 29.014L34.6907 25.8298L30.131 21.372L34.7671 16.8633ZM18.9992 25.7789L18.5407 26.2374L18.4388 26.3393C18.1586 26.6959 17.802 27.0016 17.4454 27.2563C16.0953 28.2498 14.465 28.7847 12.8092 28.8102C8.68258 28.8611 5.29464 25.5496 5.2437 21.423C5.2437 21.3975 5.2437 21.372 5.2437 21.3211C5.26917 17.1689 8.65711 13.832 12.8092 13.8574C14.4905 13.8574 16.1208 14.4178 17.4454 15.4113C17.8275 15.666 18.1586 15.9717 18.4388 16.3283L18.5407 16.4302L18.9992 16.8887L23.5589 21.3466L18.9992 25.7789ZM40.8807 9.29772C39.7599 9.32319 38.6645 9.47604 37.5947 9.75624V0H32.8567V12.2017L36.2191 15.3858C37.5692 14.3924 39.1995 13.8574 40.8552 13.832C44.9819 13.832 48.3189 17.1689 48.3189 21.2956C48.3189 25.4223 44.9819 28.7592 40.8552 28.7592C39.174 28.7592 37.5437 28.1988 36.2191 27.2054L32.8567 30.3895C35.0983 32.2746 37.9513 33.319 40.8807 33.2935C47.6056 33.3444 53.0824 27.9696 53.1843 21.2701C53.1333 14.5707 47.6566 9.17036 40.9317 9.24678C40.9062 9.29773 40.9062 9.29772 40.8807 9.29772Z" fill="#AAAAAA"/>
</svg>
