<svg width="192" height="35" viewBox="0 0 192 35" fill="none" xmlns="http://www.w3.org/2000/svg">
<path d="M56.1199 24.7218L43.7915 3.34303C41.0882 -1.11033 34.5061 -1.16257 31.8941 3.52587L18.965 25.7535C16.549 29.8281 19.5396 34.9475 24.3717 34.9475H50.2952C55.1665 34.9475 58.8232 29.6975 56.1199 24.7218Z" fill="#C5C5C5"/>
<path d="M38.3455 26.3804L37.588 25.0484C36.8828 23.8207 35.3157 21.1566 35.3157 21.1566L24.881 3.05582C22.1907 -0.966571 15.7914 -1.30612 13.088 3.7741L0.955586 24.761C-1.55188 29.1752 1.42574 34.9084 6.88469 34.9476H32.6645H43.6608H50.2037C43.5172 34.9998 41.3754 31.539 38.3455 26.3804Z" fill="#A4A4A4"/>
<path d="M38.3456 26.3804L37.5882 25.0483C36.8829 23.8207 35.3158 21.1566 35.3158 21.1566L28.5117 9.35059L18.9128 25.8058C16.4967 29.8804 19.4874 34.9998 24.3195 34.9998H32.6124H43.6087H50.1908C43.465 34.9476 41.3755 31.539 38.3456 26.3804Z" fill="url(#paint0_linear_476_614)"/>
<path d="M105.499 32.9757V4.06152H129.528V5.88988C129.528 7.33951 128.366 8.50182 126.916 8.50182H111.493V16.2723H126.916V20.7126H111.493V28.4832H126.916C128.353 28.4832 129.528 29.6455 129.528 31.0951V32.9235L105.499 32.9757Z" fill="#AAAAAA"/>
<path d="M164.045 4.06152H158.39C157.332 4.06152 156.392 4.50555 155.726 5.34137L148.896 13.9477L142.066 5.40667C141.4 4.57085 140.459 4.12682 139.401 4.12682H133.747L145.239 18.5578L133.747 32.9888H139.401C140.459 32.9888 141.4 32.5447 142.066 31.7089L148.896 23.1679L155.778 31.7742C156.444 32.5447 157.385 33.0541 158.442 33.0541H164.097L152.605 18.6231L164.045 4.06152Z" fill="#AAAAAA"/>
<path d="M86.6795 29.9196L94.5545 16.1547V32.9103H100.549V4.00915H96.8269C95.6646 4.00915 94.5545 4.62296 93.9929 5.6808L84.5638 22.8804L75.1347 5.66774C74.5731 4.6099 73.4631 3.99609 72.3008 3.99609H68.5918V32.9103H74.5862V16.1547L82.4612 29.9196H86.6795Z" fill="#AAAAAA"/>
<path d="M179.704 33.3021C171.385 33.4066 164.607 26.8637 164.555 18.5447C164.555 13.9868 165.939 10.2126 168.551 7.61371C171.163 5.05401 174.937 3.66968 179.43 3.66968C184.706 3.66968 188.859 5.49804 191.863 9.05028L189.982 10.6566C188.82 11.6492 187.096 11.7145 185.816 10.7742C184.144 9.4943 182.042 8.8805 179.652 8.8805C173.775 8.8805 170.275 12.4327 170.275 18.4271C170.275 24.4738 173.879 28.1958 179.652 28.1958C182.094 28.1958 184.144 27.5298 185.816 26.3152C187.043 25.3749 188.754 25.4271 189.982 26.4327L191.863 28.0391C188.859 31.526 184.863 33.3021 179.704 33.3021Z" fill="#AAAAAA"/>
<defs>
<linearGradient id="paint0_linear_476_614" x1="16.0877" y1="18.3639" x2="44.1694" y2="29.3888" gradientUnits="userSpaceOnUse">
<stop stop-color="white" stop-opacity="0"/>
<stop offset="1" stop-color="#AFB2B8"/>
</linearGradient>
</defs>
</svg>
