<svg width="40" height="40" viewBox="0 0 40 40" fill="none" xmlns="http://www.w3.org/2000/svg">
<g filter="url(#filter0_bii_445_14534)">
<rect x="3" y="3" width="34" height="34" rx="17" fill="#EC1C79" fill-opacity="0.25"/>
<rect x="3.15" y="3.15" width="33.7" height="33.7" rx="16.85" stroke="url(#paint0_linear_445_14534)" stroke-opacity="0.5" stroke-width="0.3"/>
</g>
<path d="M15.6565 29.9109C20.6925 29.9109 20.6925 29.8359 21.5464 29.5824C22.6623 29.2512 18.3958 26.2979 15.6565 26.2979C12.9172 26.2979 10.6965 27.1067 10.6965 28.1044C10.6965 29.1021 12.9173 29.9109 15.6565 29.9109Z" fill="black"/>
<path d="M27.0915 14.5488L27.3231 14.7984L27.1206 15.0722C20.5527 23.9525 16.7692 27.9733 15.1638 27.434C14.186 27.1055 13.2054 26.1177 12.2248 24.6832C11.8801 24.179 11.5565 23.6481 11.2621 23.1198C11.0661 22.7679 10.9002 22.447 10.814 22.2663C10.7041 22.0358 10.6577 21.8937 10.6209 21.7072C10.6187 21.6958 10.6187 21.6958 10.6165 21.6848C10.6012 21.6056 10.5958 21.5806 10.5844 21.5373C10.3867 20.7924 10.2856 20.0207 10.2856 19.2361C10.2856 14.2929 14.2929 10.2856 19.2361 10.2856C20.7847 10.2856 22.277 10.6798 23.5996 11.4196L23.6338 11.441C24.7166 12.1949 25.8684 13.2308 27.0915 14.5488ZM23.1812 12.1265C21.9847 11.461 20.6366 11.1068 19.2361 11.1068C14.7464 11.1068 11.1068 14.7464 11.1068 19.2361C11.1068 19.9495 11.1986 20.6504 11.378 21.3267C11.3958 21.3936 11.4038 21.4314 11.4226 21.5284C11.4246 21.5386 11.4246 21.5386 11.4265 21.5482C11.4503 21.6686 11.4753 21.7453 11.5552 21.913C11.6338 22.0779 11.7918 22.3833 11.9794 22.7201C12.2623 23.2279 12.5733 23.7379 12.9027 24.2198C13.7887 25.5158 14.6673 26.401 15.4253 26.6556C16.4363 26.9952 20.2421 22.9665 26.2567 14.8589C25.1647 13.7064 24.139 12.7955 23.1812 12.1265Z" fill="black"/>
<path d="M23.1811 12.1266C21.9846 11.4612 20.6365 11.1069 19.236 11.1069C14.7463 11.1069 11.1067 14.7465 11.1067 19.2362C11.1067 19.9496 11.1985 20.6506 11.3779 21.3269C11.3957 21.3937 11.4037 21.4315 11.4225 21.5285C11.4245 21.5387 11.4245 21.5387 11.4264 21.5484C11.4502 21.6688 11.4752 21.7455 11.5551 21.9131C11.6337 22.078 11.7917 22.3835 11.9793 22.7203C12.2623 23.2281 12.5732 23.7381 12.9026 24.22C13.7886 25.516 14.6672 26.4011 15.4252 26.6558C16.4362 26.9954 20.242 22.9666 26.2566 14.8591C25.1647 13.7065 24.1389 12.7957 23.1811 12.1266Z" fill="#EC1C79"/>
<path d="M20.8784 29.8288C15.9352 29.8288 11.928 25.8216 11.928 20.8784C11.928 15.9352 15.9352 11.928 20.8784 11.928C25.8216 11.928 29.8288 15.9352 29.8288 20.8784C29.8288 25.8216 25.8216 29.8288 20.8784 29.8288ZM20.8784 29.0077C25.3681 29.0077 29.0077 25.3681 29.0077 20.8784C29.0077 16.3887 25.3681 12.7491 20.8784 12.7491C16.3887 12.7491 12.7491 16.3887 12.7491 20.8784C12.7491 25.3681 16.3887 29.0077 20.8784 29.0077Z" fill="black"/>
<path d="M20.8785 29.0076C25.3682 29.0076 29.0078 25.368 29.0078 20.8783C29.0078 16.3886 25.3682 12.749 20.8785 12.749C16.3889 12.749 12.7493 16.3886 12.7493 20.8783C12.7493 25.368 16.3889 29.0076 20.8785 29.0076Z" fill="white"/>
<path fill-rule="evenodd" clip-rule="evenodd" d="M14.7972 22.5435L13.7212 19.3017H14.6639L15.2249 21.164L15.8456 19.2925H16.6136L17.2343 21.164L17.7954 19.3017H18.7196L17.6436 22.5435H16.8665L16.2181 20.6904L15.5743 22.5435H14.7972ZM19.0737 22.5205V19.3017H21.6626V20.0604H19.9566V20.5478H21.5016V21.2514H19.9566V21.7618H21.6856V22.5205H19.0737ZM22.9271 22.5205V20.0834H21.9615V19.3017H24.7849V20.0834H23.8192V22.5205H22.9271ZM25.1757 22.5205V19.3017H26.0678V20.5065H27.2128V19.3017H28.1049V22.5205H27.2128V21.2974H26.0678V22.5205H25.1757Z" fill="black"/>
<path d="M10.8192 18.3334C10.5921 18.2198 10.5 17.9436 10.6136 17.7165C10.7272 17.4893 11.0034 17.3972 11.2305 17.5108L12.5443 18.1677C12.7715 18.2813 12.8636 18.5575 12.75 18.7847C12.6364 19.0118 12.3602 19.1039 12.1331 18.9903L10.8192 18.3334Z" fill="black"/>
<path d="M10.6676 20.512C10.4371 20.4056 10.3364 20.1324 10.4428 19.9018C10.5492 19.6712 10.8224 19.5705 11.053 19.677L12.3668 20.2833C12.5974 20.3897 12.6981 20.6629 12.5917 20.8935C12.4853 21.1241 12.2121 21.2248 11.9815 21.1183L10.6676 20.512Z" fill="black"/>
<defs>
<filter id="filter0_bii_445_14534" x="-83" y="-83" width="206" height="206" filterUnits="userSpaceOnUse" color-interpolation-filters="sRGB">
<feFlood flood-opacity="0" result="BackgroundImageFix"/>
<feGaussianBlur in="BackgroundImageFix" stdDeviation="43"/>
<feComposite in2="SourceAlpha" operator="in" result="effect1_backgroundBlur_445_14534"/>
<feBlend mode="normal" in="SourceGraphic" in2="effect1_backgroundBlur_445_14534" result="shape"/>
<feColorMatrix in="SourceAlpha" type="matrix" values="0 0 0 0 0 0 0 0 0 0 0 0 0 0 0 0 0 0 127 0" result="hardAlpha"/>
<feOffset dy="4"/>
<feGaussianBlur stdDeviation="7.5"/>
<feComposite in2="hardAlpha" operator="arithmetic" k2="-1" k3="1"/>
<feColorMatrix type="matrix" values="0 0 0 0 1 0 0 0 0 1 0 0 0 0 1 0 0 0 0.15 0"/>
<feBlend mode="normal" in2="shape" result="effect2_innerShadow_445_14534"/>
<feColorMatrix in="SourceAlpha" type="matrix" values="0 0 0 0 0 0 0 0 0 0 0 0 0 0 0 0 0 0 127 0" result="hardAlpha"/>
<feOffset/>
<feGaussianBlur stdDeviation="34"/>
<feComposite in2="hardAlpha" operator="arithmetic" k2="-1" k3="1"/>
<feColorMatrix type="matrix" values="0 0 0 0 1 0 0 0 0 1 0 0 0 0 1 0 0 0 0.05 0"/>
<feBlend mode="normal" in2="effect2_innerShadow_445_14534" result="effect3_innerShadow_445_14534"/>
</filter>
<linearGradient id="paint0_linear_445_14534" x1="3" y1="1.78571" x2="20" y2="22.4286" gradientUnits="userSpaceOnUse">
<stop stop-color="white"/>
<stop offset="1" stop-color="white" stop-opacity="0"/>
</linearGradient>
</defs>
</svg>
