<svg width="80" height="35" viewBox="0 0 80 35" fill="none" xmlns="http://www.w3.org/2000/svg">
<path d="M0.709961 5.25109H5.96105V26.2554H11.2121V0H5.96105C3.07512 0 0.709961 2.36516 0.709961 5.25109ZM16.4632 26.2771H21.7143V15.775C21.7143 12.889 19.3491 10.5239 16.4632 10.5239V26.2771ZM26.9654 10.5239V26.2771H32.2165V15.775H37.4893V21.026C37.4893 23.912 39.8544 26.2771 42.7404 26.2771V15.775C42.7404 12.889 40.3752 10.5239 37.4893 10.5239H26.9654ZM74.2469 10.5239H68.9958V5.27279C68.9958 2.38686 66.6306 0.0217 63.7447 0.0217V21.026H53.2425V15.775H58.4936V10.5239H53.2425C50.3566 10.5239 47.9914 12.889 47.9914 15.775V21.026C47.9914 23.912 50.3566 26.2771 53.2425 26.2771H68.9958V15.775H74.2469V21.026C74.2469 23.912 76.612 26.2771 79.498 26.2771V15.775C79.5197 12.889 77.1545 10.5239 74.2469 10.5239ZM16.4632 5.25109H21.7143C21.7143 2.36516 19.3491 0 16.4632 0V5.25109Z" fill="#AAAAAA"/>
<path d="M8.89051 31.5283V34.9133H8.41313L6.52534 32.5698V34.9133H5.96118V31.5283H6.43855L8.32634 33.8934V31.5283H8.89051ZM19.588 34.935H17.5483V31.55H19.5446V32.1142H18.1558V32.9604H19.3927V33.5246H18.1558V34.3925H19.588V34.935ZM28.224 32.0925H29.3307V34.935H29.9382V32.0925H31.0449V31.5283H28.2024V32.0925H28.224ZM43.9122 31.5283H44.4981L43.5216 34.9133H42.9575L42.1329 32.4613L41.3084 34.9133H40.7442L39.7244 31.5283H40.397L41.0914 33.9585L41.8508 31.5283H42.4584L43.2396 33.9585L43.9122 31.5283ZM53.6549 32.0274C53.3295 32.3528 53.1559 32.7868 53.1559 33.2642C53.1559 33.785 53.3295 34.1972 53.6549 34.5227C54.0021 34.8482 54.4144 35.0001 54.9352 35.0001C55.4559 35.0001 55.8682 34.8265 56.2154 34.501C56.5626 34.1755 56.7361 33.7416 56.7361 33.2425C56.7361 32.7217 56.5626 32.3094 56.2154 31.984C55.8682 31.6585 55.4559 31.5066 54.9352 31.5066C54.4144 31.5283 54.0021 31.7019 53.6549 32.0274ZM54.1106 34.1321C53.8936 33.9151 53.7851 33.6114 53.7851 33.2859C53.7851 32.9387 53.8936 32.6566 54.1106 32.4179C54.3276 32.201 54.6097 32.0925 54.9352 32.0925C55.2606 32.0925 55.5427 32.201 55.7597 32.4179C55.9767 32.6349 56.0852 32.9387 56.0852 33.2859C56.0852 33.6331 55.9767 33.9151 55.7814 34.1321C55.5644 34.3491 55.304 34.4793 54.9352 34.4793C54.6097 34.4793 54.3276 34.3708 54.1106 34.1321ZM65.9798 33.6548V34.935H65.3722V31.55C65.5458 31.55 65.7194 31.55 65.9364 31.55C66.1317 31.55 66.3053 31.55 66.4355 31.55C67.26 31.55 67.6723 31.8972 67.6723 32.5915C67.6723 32.8519 67.6072 33.0689 67.477 33.2425C67.3468 33.3944 67.1949 33.5246 67.0213 33.568L68.1063 34.9567H67.3685L66.4138 33.6765H65.9798V33.6548ZM66.3921 32.0925C66.3704 32.0925 66.3487 32.0925 66.3053 32.0925C66.2619 32.0925 66.2185 32.0925 66.1534 32.0925H65.9798V33.1123H66.3704C66.5657 33.1123 66.7175 33.0689 66.8477 32.9821C66.9779 32.8953 67.043 32.7651 67.043 32.5915C67.043 32.2443 66.826 32.0925 66.3921 32.0925ZM76.7424 34.935H77.3499V33.1774L78.7603 34.935H79.5198L78.0226 33.1123L79.433 31.5283H78.7169L77.3716 33.134V31.5283H76.7641V34.935H76.7424Z" fill="#AAAAAA"/>
</svg>
