<svg width="33" height="32" viewBox="0 0 33 32" fill="none" xmlns="http://www.w3.org/2000/svg">
<path fill-rule="evenodd" clip-rule="evenodd" d="M16.0005 28.5005C22.904 28.5005 28.5005 22.904 28.5005 16.0005C28.5005 9.09693 22.904 3.50049 16.0005 3.50049C9.09693 3.50049 3.50049 9.09693 3.50049 16.0005C3.50049 22.904 9.09693 28.5005 16.0005 28.5005ZM16.0001 23.5001C20.1422 23.5001 23.5001 20.1422 23.5001 16.0001C23.5001 11.858 20.1422 8.50011 16.0001 8.50011C11.858 8.50011 8.50011 11.858 8.50011 16.0001C8.50011 20.1422 11.858 23.5001 16.0001 23.5001Z" fill="url(#paint0_radial_852_12218)"/>
<path d="M9.64777 5.23206C11.5093 4.13156 13.6809 3.5 16 3.5C22.9036 3.5 28.5 9.09644 28.5 16C28.5 16.0414 28.4998 16.0828 28.4994 16.1241M5.22643 9.65731C4.1294 11.5167 3.5 13.6848 3.5 16C3.5 21.8245 7.48367 26.7186 12.875 28.1062M26.8846 22.1507C25.234 25.0653 22.4467 27.2512 19.125 28.1062M18.6116 8.96722C17.7983 8.66509 16.9185 8.5 16 8.5C11.8579 8.5 8.5 11.8579 8.5 16C8.5 16.9234 8.66689 17.8079 8.97215 18.6249M23.0314 13.3846C23.3344 14.1989 23.5 15.0801 23.5 16C23.5 20.1421 20.1421 23.5 16 23.5C15.0877 23.5 14.2134 23.3371 13.4047 23.0388M16 13.5V18.5" stroke="white" stroke-linecap="round" stroke-linejoin="round"/>
<defs>
<radialGradient id="paint0_radial_852_12218" cx="0" cy="0" r="1" gradientUnits="userSpaceOnUse" gradientTransform="translate(16.0005 16.0005) rotate(90) scale(12.5)">
<stop offset="0.416667" stop-color="white" stop-opacity="0.7"/>
<stop offset="1" stop-color="white" stop-opacity="0"/>
</radialGradient>
</defs>
</svg>
