<svg width="127" height="43" viewBox="0 0 127 43" fill="none" xmlns="http://www.w3.org/2000/svg">
<g clip-path="url(#clip0_1054_4147)">
<mask id="mask0_1054_4147" style="mask-type:luminance" maskUnits="userSpaceOnUse" x="0" y="0" width="127" height="43">
<path d="M126.906 0H0.90625V42.7433H126.906V0Z" fill="white"/>
</mask>
<g mask="url(#mask0_1054_4147)">
<path d="M56.2036 31.2043H51.2852V19.0718H56.2036V31.2043Z" fill="#AAAAAA"/>
<path d="M53.7468 18.1387C53.0614 18.1387 52.4049 17.8705 51.9206 17.3932C51.4362 16.9159 51.1641 16.2686 51.1641 15.5935C51.1641 14.9185 51.4362 14.2711 51.9206 13.7938C52.4049 13.3165 53.0614 13.0483 53.7468 13.0483C54.4317 13.0483 55.0887 13.3165 55.5731 13.7938C56.0575 14.2711 56.3296 14.9185 56.3296 15.5935C56.3296 16.2686 56.0575 16.9159 55.5731 17.3932C55.0887 17.8705 54.4317 18.1387 53.7468 18.1387Z" fill="#AAAAAA"/>
<path d="M75.2933 31.2041H58.7461L67.1866 18.9687H59.4423V15.127H75.3075L66.891 27.352H75.3075L75.2933 31.2041Z" fill="#AAAAAA"/>
<path d="M94.8889 24.0008C94.9251 25.2194 94.656 26.4281 94.1059 27.5201C93.6235 28.4472 92.9111 29.239 92.035 29.8217C91.1849 30.3827 90.2425 30.7947 89.2502 31.0395C88.28 31.2849 87.2828 31.4105 86.2811 31.4134C84.9074 31.4174 83.5435 31.1852 82.2506 30.7274C80.948 30.2674 79.8091 29.4453 78.9717 28.3605C78.0897 27.2469 77.6499 25.797 77.6524 24.011V15.127H82.56V22.7488C82.5306 23.6469 82.6894 24.5413 83.0267 25.3763C83.2836 26.0053 83.7371 26.5375 84.3215 26.8959C84.9192 27.2268 85.5957 27.3927 86.2811 27.3761C86.9523 27.3892 87.6147 27.2245 88.1991 26.8992C88.7855 26.5485 89.2409 26.0203 89.4973 25.3934C89.8341 24.5608 89.993 23.6686 89.9636 22.7728V15.127H94.882L94.8889 24.0008Z" fill="#AAAAAA"/>
<path d="M117.724 31.2041H112.802V21.8878L108.367 27.28H107.977L103.529 21.8878V31.2007H98.75V15.127H103.212L108.225 21.1606L113.261 15.127H117.724V31.2041Z" fill="#AAAAAA"/>
<path d="M126.781 31.2043H121.863V19.0718H126.781V31.2043Z" fill="#AAAAAA"/>
<path d="M124.321 18.1387C123.982 18.1387 123.646 18.0729 123.333 17.945C123.019 17.817 122.735 17.6296 122.495 17.3932C122.255 17.1569 122.065 16.8763 121.935 16.5675C121.805 16.2587 121.738 15.9277 121.738 15.5935C121.738 15.2593 121.805 14.9283 121.935 14.6195C122.065 14.3107 122.255 14.0301 122.495 13.7938C122.735 13.5574 123.019 13.37 123.333 13.2421C123.646 13.1141 123.982 13.0483 124.321 13.0483C125.006 13.0483 125.663 13.3165 126.147 13.7938C126.632 14.2711 126.904 14.9185 126.904 15.5935C126.904 16.2686 126.632 16.9159 126.147 17.3932C125.663 17.8705 125.006 18.1387 124.321 18.1387Z" fill="#AAAAAA"/>
<path d="M1.14544 19.425L14.8318 0L21.7202 9.84115L14.7343 19.6857H1.28467C1.25412 19.6852 1.22429 19.6766 1.19828 19.6608C1.17227 19.645 1.15104 19.6226 1.13682 19.596C1.12259 19.5693 1.11588 19.5394 1.1174 19.5093C1.11891 19.4792 1.1286 19.4502 1.14544 19.425Z" fill="#C5C5C5"/>
<path d="M42.29 19.425L28.6037 0L21.7188 9.84115L28.7011 19.6857H42.1508C42.1813 19.6852 42.2112 19.6766 42.2372 19.6608C42.2632 19.645 42.2844 19.6226 42.2986 19.596C42.3129 19.5693 42.3196 19.5394 42.318 19.5093C42.3166 19.4792 42.3069 19.4502 42.29 19.425Z" fill="#C5C5C5"/>
<path d="M42.5274 22.231C42.563 24.9463 42.0512 27.6417 41.0213 30.1605C39.9915 32.6793 38.4644 34.9716 36.5285 36.9042C34.5926 38.8367 32.2865 40.3712 29.744 41.4185C27.2016 42.4658 24.4734 43.0052 21.7177 43.0052C18.9621 43.0052 16.2339 42.4658 13.6914 41.4185C11.1489 40.3712 8.84285 38.8367 6.90696 36.9042C4.97104 34.9716 3.44388 32.6793 2.41408 30.1605C1.38429 27.6417 0.872354 24.9463 0.907991 22.231H14.1349C14.1133 23.2248 14.2932 24.213 14.6642 25.1374C15.0352 26.0619 15.5898 26.904 16.2954 27.6144C17.0011 28.3249 17.8436 28.8893 18.7735 29.2746C19.7034 29.66 20.702 29.8585 21.7107 29.8585C22.7195 29.8585 23.7182 29.66 24.6481 29.2746C25.578 28.8893 26.4204 28.3249 27.126 27.6144C27.8317 26.904 28.3862 26.0619 28.7573 25.1374C29.1283 24.213 29.3082 23.2248 29.2866 22.231H42.5274Z" fill="#A4A4A4"/>
</g>
</g>
<defs>
<clipPath id="clip0_1054_4147">
<rect width="126" height="43" fill="white" transform="translate(0.90625)"/>
</clipPath>
</defs>
</svg>
