<svg width="150" height="37" viewBox="0 0 150 37" fill="none" xmlns="http://www.w3.org/2000/svg">
<g clip-path="url(#clip0_906_5087)">
<mask id="mask0_906_5087" style="mask-type:luminance" maskUnits="userSpaceOnUse" x="0" y="0" width="150" height="36">
<path d="M149.737 0H0V35.6931H149.737V0Z" fill="white"/>
</mask>
<g mask="url(#mask0_906_5087)">
<path fill-rule="evenodd" clip-rule="evenodd" d="M30.8691 5.4785L31.057 6.61398C31.205 7.67028 31.2735 8.73621 31.2621 9.8028C31.2608 12.1598 30.9766 14.508 30.4152 16.7972C29.6561 19.9072 28.3338 22.8519 26.514 25.4855C24.4111 28.5101 21.3704 31.4851 16.9382 33.8754L16.3959 34.1677L15.8538 33.8754C11.4216 31.4851 8.38216 28.5101 6.27797 25.4855C4.45814 22.8519 3.13593 19.9072 2.37677 16.7972C1.81556 14.5085 1.53122 12.1606 1.52987 9.80405C1.51841 8.73745 1.58701 7.67152 1.73507 6.61522L1.92285 5.47974C1.93888 5.38715 1.93642 5.29228 1.91563 5.20063C1.89484 5.10899 1.85611 5.02236 1.80168 4.94575C1.74726 4.86913 1.67821 4.80405 1.59852 4.75425C1.51882 4.70444 1.43006 4.67089 1.33735 4.65556C1.24464 4.64021 1.14981 4.64337 1.05832 4.66484C0.96683 4.68631 0.8805 4.72569 0.804296 4.78069C0.728092 4.83568 0.663526 4.90521 0.614316 4.98527C0.565105 5.06534 0.532225 5.15435 0.51757 5.24718L0.329786 6.38265C0.168264 7.51576 0.0930168 8.6595 0.104692 9.80405C0.105587 12.2767 0.403705 14.7402 0.992627 17.1417C1.79429 20.4212 3.18986 23.5261 5.11022 26.3026C7.33007 29.4977 10.5498 32.6392 15.1835 35.1327L16.0639 35.6066C16.1677 35.6627 16.2837 35.692 16.4016 35.692C16.5194 35.692 16.6355 35.6627 16.7392 35.6066L17.6184 35.1327C22.2472 32.638 25.4681 29.4977 27.6917 26.3026C29.6111 23.5262 31.0058 20.4218 31.8068 17.143C32.3957 14.7415 32.6938 12.2779 32.6947 9.80529C32.7064 8.66075 32.6311 7.51701 32.4697 6.3839L32.2818 5.24843C32.2672 5.15559 32.2343 5.06658 32.1851 4.98652C32.136 4.90645 32.0713 4.83692 31.9951 4.78193C31.9189 4.72693 31.8326 4.68756 31.7411 4.66609C31.6496 4.64461 31.5548 4.64146 31.4621 4.6568C31.3694 4.67214 31.2806 4.70568 31.2009 4.75549C31.1212 4.80529 31.0521 4.87037 30.9978 4.94699C30.9434 5.0236 30.9046 5.11023 30.8838 5.20188C30.863 5.29353 30.8606 5.38839 30.8766 5.48099L30.8691 5.4785Z" fill="white"/>
<path fill-rule="evenodd" clip-rule="evenodd" d="M5.8144 4.70587L16.3979 1.47233L27.2176 4.77552C27.3987 4.82967 27.594 4.80986 27.7606 4.72043C27.9271 4.63099 28.0515 4.47921 28.1063 4.2983C28.1613 4.11739 28.1423 3.9221 28.0536 3.75514C27.9649 3.58819 27.8137 3.46318 27.633 3.40748L16.6055 0.0408733C16.4702 -0.000603585 16.3255 -0.000603585 16.1901 0.0408733L5.39778 3.33535C5.30759 3.36231 5.22362 3.40682 5.15067 3.46632C5.07773 3.52583 5.01727 3.59916 4.97273 3.68209C4.92821 3.76502 4.9005 3.85594 4.89119 3.94961C4.88189 4.04328 4.89118 4.13787 4.91853 4.22794C4.94588 4.31802 4.99075 4.4018 5.05056 4.47449C5.11037 4.54718 5.18396 4.60733 5.26708 4.65151C5.3502 4.69568 5.44124 4.72301 5.53494 4.73191C5.62866 4.74081 5.72321 4.73112 5.81316 4.70338L5.8144 4.70587Z" fill="white"/>
<path fill-rule="evenodd" clip-rule="evenodd" d="M0.588016 5.68812L15.7611 35.3026C15.8202 35.4183 15.91 35.5157 16.0206 35.5839C16.1311 35.6523 16.2583 35.6891 16.3883 35.6902C16.5182 35.6914 16.646 35.6569 16.7578 35.5905C16.8695 35.5242 16.961 35.4284 17.0222 35.3137L26.2753 18.008L26.2889 17.9807L32.2115 5.66822C32.2917 5.49831 32.3017 5.30358 32.2391 5.12636C32.1767 4.94914 32.0467 4.80376 31.8776 4.72182C31.7085 4.63989 31.5138 4.62801 31.336 4.68879C31.1582 4.74957 31.0116 4.87808 30.9279 5.04638L25.0154 17.3488L16.4165 33.442L1.85534 5.03643C1.81337 4.9521 1.75509 4.87692 1.68386 4.81527C1.61263 4.75362 1.52988 4.70671 1.44039 4.67727C1.35091 4.64782 1.25647 4.63644 1.16255 4.64375C1.06863 4.65108 0.977093 4.67697 0.89325 4.71991C0.809403 4.76286 0.734917 4.82202 0.674101 4.89397C0.613286 4.96591 0.567353 5.04921 0.538963 5.13903C0.510572 5.22886 0.500289 5.32342 0.508709 5.41725C0.51713 5.51108 0.544086 5.6023 0.588016 5.68563V5.68812Z" fill="white"/>
<path fill-rule="evenodd" clip-rule="evenodd" d="M7.85165 18.8767H24.7244C24.9132 18.8767 25.0943 18.8017 25.2279 18.6682C25.3614 18.5347 25.4364 18.3536 25.4364 18.1647C25.4364 17.9759 25.3614 17.7948 25.2279 17.6613C25.0943 17.5278 24.9132 17.4527 24.7244 17.4527H7.85165C7.66281 17.4527 7.48171 17.5278 7.34819 17.6613C7.21467 17.7948 7.13965 17.9759 7.13965 18.1647C7.13965 18.3536 7.21467 18.5347 7.34819 18.6682C7.48171 18.8017 7.66281 18.8767 7.85165 18.8767ZM54.9142 12.733H43.9377C43.748 12.734 43.5663 12.8099 43.4322 12.944C43.2981 13.0781 43.2223 13.2597 43.2214 13.4494V22.2595C43.2226 22.449 43.2986 22.6305 43.4326 22.7646C43.5666 22.8987 43.7481 22.9745 43.9377 22.9759H54.9142V24.4682H43.9377C43.6481 24.4695 43.3611 24.4135 43.0932 24.3033C42.8254 24.193 42.5821 24.0309 42.3773 23.8261C42.1725 23.6213 42.0104 23.3779 41.9001 23.1102C41.7899 22.8423 41.7339 22.5553 41.7352 22.2657V13.4556C41.7339 13.166 41.7899 12.879 41.9001 12.6112C42.0104 12.3433 42.1725 12.1 42.3773 11.8952C42.5821 11.6904 42.8254 11.5283 43.0932 11.4181C43.3611 11.3078 43.6481 11.2518 43.9377 11.2531H54.9142V12.733ZM75.5254 11.2456V12.738H64.9543V17.0995H73.451V18.6044H64.9531V22.9734H75.5242V24.4658H63.4607V11.2456H75.5254Z" fill="white"/>
<path d="M97.2935 13.4662V17.339C97.2953 17.6286 97.2391 17.9154 97.1285 18.1832C97.0178 18.4509 96.8563 18.6943 96.6511 18.899C96.4467 19.1038 96.2031 19.2659 95.9354 19.3762C95.6677 19.4865 95.3804 19.5427 95.0913 19.5415H93.0728L97.2204 24.4602H95.2564L91.1267 19.5415H86.2762C86.0363 19.5293 85.7972 19.5049 85.5598 19.4682V24.4602H84.0674V11.2637H95.0797C95.3697 11.2625 95.6561 11.3187 95.9238 11.429C96.1924 11.5393 96.4351 11.7015 96.6404 11.9063C96.8447 12.111 97.0071 12.3543 97.1168 12.622C97.2275 12.8898 97.2837 13.1767 97.2828 13.4662H97.2935ZM86.2812 18.0367H95.0913C95.1832 18.0379 95.2742 18.0207 95.3599 17.9859C95.4446 17.9513 95.5223 17.9 95.5874 17.835C95.6525 17.7699 95.7034 17.6925 95.7382 17.6074C95.773 17.5222 95.79 17.4309 95.7891 17.339V13.4662C95.79 13.373 95.773 13.2803 95.7391 13.1936C95.7043 13.107 95.6525 13.028 95.5874 12.9613C95.5241 12.8931 95.4473 12.8389 95.3616 12.8025C95.276 12.766 95.1832 12.7482 95.0904 12.7499H86.2799C86.0902 12.7508 85.9086 12.8267 85.7744 12.9608C85.6403 13.0949 85.5645 13.2766 85.5635 13.4662V17.339C85.5616 17.4322 85.5794 17.5246 85.6159 17.6104C85.6523 17.6961 85.7066 17.7732 85.7749 17.8365C85.8418 17.9018 85.9209 17.9532 86.0078 17.9875C86.0947 18.022 86.1876 18.0387 86.2812 18.0367Z" fill="white"/>
<path fill-rule="evenodd" clip-rule="evenodd" d="M105.187 11.2456H118.397V12.738H112.552V24.4669H111.059V12.738H105.187V11.2456ZM126.403 24.4608V11.2456H127.896V24.4608H126.403ZM147.731 11.2456H149.64L144.116 17.8532L149.658 24.4608H147.731L142.812 18.6056H138.554V24.4608H137.051V11.2456H138.557V17.0995H142.815L147.731 11.2456Z" fill="white"/>
</g>
</g>
<path d="M70.2947 30.2593H70.7284L68.7769 34.7695H68.4126L67.3978 32.3843L66.383 34.7695H66.0187L64.0671 30.2593H64.4921L66.2182 34.2925L67.1636 32.0721L66.4003 30.268H66.7733L67.3978 31.7598L68.0136 30.268H68.3952L67.632 32.0721L68.5774 34.2925L70.2947 30.2593ZM77.2827 30.2593H77.7163L75.7648 34.7695H75.4005L74.3857 32.3843L73.3709 34.7695H73.0066L71.0551 30.2593H71.4801L73.2061 34.2925L74.1515 32.0721L73.3882 30.268H73.7612L74.3857 31.7598L75.0015 30.268H75.3832L74.6199 32.0721L75.5653 34.2925L77.2827 30.2593ZM84.2706 30.2593H84.7043L82.7527 34.7695H82.3884L81.3736 32.3843L80.3588 34.7695H79.9945L78.043 30.2593H78.468L80.194 34.2925L81.1395 32.0721L80.3762 30.268H80.7491L81.3736 31.7598L81.9895 30.268H82.3711L81.6078 32.0721L82.5532 34.2925L84.2706 30.2593ZM85.0322 34.7695V34.0323H85.4139V34.7695H85.0322ZM86.3485 32.4971C86.3485 32.179 86.4034 31.8784 86.5133 31.595C86.6232 31.3117 86.7764 31.0659 86.973 30.8578C87.1696 30.6496 87.4038 30.4848 87.6755 30.3634C87.9473 30.242 88.2451 30.1812 88.5689 30.1812C88.9795 30.1812 89.3409 30.2738 89.6531 30.4588C89.9654 30.6438 90.1995 30.9011 90.3557 31.2307L89.9307 31.3695C89.7977 31.1209 89.6068 30.9272 89.3582 30.7884C89.1154 30.6438 88.8465 30.5716 88.5516 30.5716C88.3029 30.5716 88.0716 30.6207 87.8577 30.719C87.6437 30.8173 87.4558 30.9532 87.2939 31.1267C87.1378 31.3001 87.0135 31.5054 86.921 31.7425C86.8284 31.9738 86.7822 32.2253 86.7822 32.4971C86.7822 32.7688 86.8284 33.0262 86.921 33.269C87.0193 33.5061 87.1465 33.7143 87.3026 33.8935C87.4645 34.067 87.6524 34.2058 87.8664 34.3098C88.0861 34.4139 88.3174 34.466 88.5602 34.466C88.7164 34.466 88.8696 34.4428 89.0199 34.3966C89.1761 34.3503 89.3177 34.2896 89.4449 34.2144C89.5779 34.1393 89.6907 34.0525 89.7832 33.9542C89.8815 33.8501 89.948 33.7432 89.9827 33.6333L90.4077 33.7547C90.3499 33.9109 90.2603 34.0583 90.1388 34.1971C90.0232 34.3301 89.8844 34.4457 89.7225 34.544C89.5606 34.6423 89.3813 34.7175 89.1847 34.7695C88.9881 34.8274 88.7858 34.8563 88.5776 34.8563C88.2596 34.8563 87.9647 34.7956 87.6929 34.6741C87.4211 34.5469 87.1841 34.3763 86.9817 34.1624C86.7851 33.9427 86.6289 33.6911 86.5133 33.4078C86.4034 33.1245 86.3485 32.8209 86.3485 32.4971ZM93.2616 34.8563C92.9436 34.8563 92.6487 34.7956 92.3769 34.6741C92.1052 34.5469 91.8681 34.3763 91.6657 34.1624C91.4691 33.9427 91.313 33.6911 91.1973 33.4078C91.0875 33.1245 91.0325 32.8209 91.0325 32.4971C91.0325 32.179 91.0875 31.8813 91.1973 31.6037C91.313 31.3204 91.4691 31.0746 91.6657 30.8665C91.8623 30.6525 92.0936 30.4848 92.3596 30.3634C92.6314 30.242 92.9234 30.1812 93.2356 30.1812C93.5536 30.1812 93.8485 30.2449 94.1203 30.3721C94.3921 30.4935 94.6263 30.6612 94.8229 30.8751C95.0195 31.0833 95.1727 31.329 95.2826 31.6124C95.3924 31.8899 95.4473 32.1848 95.4473 32.4971C95.4473 32.526 95.4473 32.5636 95.4473 32.6098C95.4473 32.6503 95.4445 32.6763 95.4387 32.6879H91.4836C91.5009 32.9481 91.5616 33.191 91.6657 33.4165C91.7698 33.6362 91.8999 33.827 92.056 33.9889C92.2179 34.1508 92.4029 34.278 92.6111 34.3705C92.8193 34.4631 93.0419 34.5093 93.279 34.5093C93.4351 34.5093 93.5883 34.4891 93.7387 34.4486C93.889 34.4024 94.0278 34.3416 94.155 34.2665C94.288 34.1913 94.4036 34.1017 94.5019 33.9976C94.606 33.8877 94.687 33.7692 94.7448 33.642L95.1264 33.7461C95.0628 33.908 94.9674 34.0583 94.8402 34.1971C94.7188 34.3301 94.5742 34.4457 94.4065 34.544C94.2446 34.6423 94.0654 34.7175 93.8688 34.7695C93.6722 34.8274 93.4698 34.8563 93.2616 34.8563ZM95.031 32.3409C95.0137 32.075 94.953 31.8321 94.8489 31.6124C94.7506 31.3926 94.6205 31.2047 94.4586 31.0486C94.3024 30.8867 94.1203 30.7624 93.9121 30.6756C93.704 30.5831 93.4814 30.5369 93.2443 30.5369C93.0072 30.5369 92.7846 30.5831 92.5764 30.6756C92.3683 30.7624 92.1832 30.8867 92.0213 31.0486C91.8652 31.2047 91.738 31.3955 91.6397 31.621C91.5472 31.8408 91.4922 32.0807 91.4749 32.3409H95.031ZM98.5352 30.6496C98.1304 30.6612 97.7748 30.7826 97.4683 31.0139C97.1677 31.2394 96.9566 31.5517 96.8352 31.9506V34.7695H96.4015V30.2593H96.8178V31.3695C96.974 31.0515 97.1792 30.7942 97.4337 30.5976C97.6939 30.3952 97.9714 30.2795 98.2663 30.2506C98.3241 30.2449 98.3762 30.242 98.4224 30.242C98.4687 30.242 98.5063 30.242 98.5352 30.242V30.6496ZM101.37 34.5527C101.347 34.5643 101.306 34.5874 101.248 34.6221C101.196 34.651 101.127 34.6799 101.04 34.7088C100.959 34.7377 100.867 34.7637 100.763 34.7869C100.659 34.81 100.546 34.8216 100.424 34.8216C100.303 34.8216 100.187 34.8042 100.078 34.7695C99.9734 34.7348 99.8809 34.6828 99.8 34.6134C99.719 34.544 99.6554 34.4602 99.6091 34.3619C99.5629 34.2636 99.5398 34.1479 99.5398 34.0149V30.6149H98.9066V30.2593H99.5398V28.7154H99.9734V30.2593H101.023V30.6149H99.9734V33.9109C99.9734 34.0785 100.031 34.2058 100.147 34.2925C100.263 34.3734 100.393 34.4139 100.537 34.4139C100.716 34.4139 100.87 34.385 100.997 34.3272C101.13 34.2636 101.211 34.2231 101.24 34.2058L101.37 34.5527ZM102.136 34.7695V30.2593H102.57V34.7695H102.136ZM102.136 29.2358V28.4379H102.57V29.2358H102.136ZM107.193 34.7695L105.432 32.3583L104.365 33.3384V34.7695H103.932V28.4379H104.365V32.8614L107.106 30.268H107.609L105.727 32.0981L107.67 34.7695H107.193ZM108.368 34.7695V34.0323H108.749V34.7695H108.368ZM109.684 32.4971C109.684 32.179 109.739 31.8784 109.849 31.595C109.959 31.3117 110.112 31.0659 110.308 30.8578C110.505 30.6496 110.739 30.4848 111.011 30.3634C111.283 30.242 111.581 30.1812 111.904 30.1812C112.315 30.1812 112.676 30.2738 112.989 30.4588C113.301 30.6438 113.535 30.9011 113.691 31.2307L113.266 31.3695C113.133 31.1209 112.942 30.9272 112.694 30.7884C112.451 30.6438 112.182 30.5716 111.887 30.5716C111.638 30.5716 111.407 30.6207 111.193 30.719C110.979 30.8173 110.791 30.9532 110.629 31.1267C110.473 31.3001 110.349 31.5054 110.256 31.7425C110.164 31.9738 110.118 32.2253 110.118 32.4971C110.118 32.7688 110.164 33.0262 110.256 33.269C110.355 33.5061 110.482 33.7143 110.638 33.8935C110.8 34.067 110.988 34.2058 111.202 34.3098C111.422 34.4139 111.653 34.466 111.896 34.466C112.052 34.466 112.205 34.4428 112.355 34.3966C112.512 34.3503 112.653 34.2896 112.78 34.2144C112.913 34.1393 113.026 34.0525 113.119 33.9542C113.217 33.8501 113.283 33.7432 113.318 33.6333L113.743 33.7547C113.685 33.9109 113.596 34.0583 113.474 34.1971C113.359 34.3301 113.22 34.4457 113.058 34.544C112.896 34.6423 112.717 34.7175 112.52 34.7695C112.324 34.8274 112.121 34.8563 111.913 34.8563C111.595 34.8563 111.3 34.7956 111.028 34.6741C110.757 34.5469 110.52 34.3763 110.317 34.1624C110.121 33.9427 109.964 33.6911 109.849 33.4078C109.739 33.1245 109.684 32.8209 109.684 32.4971ZM116.571 34.8563C116.253 34.8563 115.958 34.7956 115.686 34.6741C115.42 34.5469 115.189 34.3763 114.992 34.1624C114.796 33.9484 114.643 33.6998 114.533 33.4165C114.423 33.1331 114.368 32.8353 114.368 32.5231C114.368 32.2051 114.423 31.9044 114.533 31.621C114.648 31.3377 114.805 31.0891 115.001 30.8751C115.198 30.6612 115.429 30.4935 115.695 30.3721C115.967 30.2449 116.259 30.1812 116.571 30.1812C116.883 30.1812 117.172 30.2449 117.438 30.3721C117.704 30.4935 117.936 30.6612 118.132 30.8751C118.335 31.0891 118.491 31.3377 118.601 31.621C118.716 31.9044 118.774 32.2051 118.774 32.5231C118.774 32.8353 118.716 33.1331 118.601 33.4165C118.491 33.6998 118.338 33.9484 118.141 34.1624C117.944 34.3763 117.71 34.5469 117.438 34.6741C117.172 34.7956 116.883 34.8563 116.571 34.8563ZM114.802 32.5404C114.802 32.8064 114.848 33.058 114.94 33.295C115.033 33.5263 115.157 33.7287 115.313 33.9022C115.475 34.0757 115.663 34.2144 115.877 34.3185C116.091 34.4168 116.32 34.466 116.562 34.466C116.805 34.466 117.034 34.4168 117.248 34.3185C117.462 34.2144 117.649 34.0728 117.811 33.8935C117.973 33.7143 118.1 33.509 118.193 33.2777C118.286 33.0406 118.332 32.7862 118.332 32.5144C118.332 32.2484 118.286 31.9998 118.193 31.7685C118.1 31.5314 117.973 31.3261 117.811 31.1527C117.649 30.9734 117.462 30.8318 117.248 30.7277C117.039 30.6236 116.814 30.5716 116.571 30.5716C116.328 30.5716 116.1 30.6236 115.886 30.7277C115.672 30.8318 115.484 30.9734 115.322 31.1527C115.166 31.3319 115.039 31.543 114.94 31.7858C114.848 32.0229 114.802 32.2745 114.802 32.5404ZM126.44 34.7695H126.006V32.2542C126.006 31.6818 125.916 31.2597 125.737 30.9879C125.564 30.7161 125.295 30.5802 124.931 30.5802C124.746 30.5802 124.569 30.6149 124.401 30.6843C124.234 30.7537 124.081 30.852 123.942 30.9792C123.803 31.1006 123.682 31.2481 123.578 31.4216C123.479 31.5892 123.401 31.7772 123.343 31.9853V34.7695H122.91V32.2542C122.91 31.676 122.823 31.2539 122.649 30.9879C122.476 30.7161 122.207 30.5802 121.843 30.5802C121.658 30.5802 121.481 30.6149 121.314 30.6843C121.152 30.7479 121.001 30.8433 120.863 30.9705C120.724 31.092 120.6 31.2394 120.49 31.4129C120.386 31.5806 120.305 31.7685 120.247 31.9767V34.7695H119.813V30.2593H120.221V31.3348C120.406 30.9705 120.649 30.6872 120.949 30.4848C121.25 30.2824 121.583 30.1812 121.947 30.1812C122.329 30.1812 122.638 30.294 122.875 30.5195C123.112 30.745 123.254 31.0399 123.3 31.4042C123.728 30.5889 124.318 30.1812 125.069 30.1812C125.561 30.1812 125.911 30.3576 126.119 30.7103C126.333 31.0573 126.44 31.5459 126.44 32.1762V34.7695Z" fill="white"/>
<defs>
<clipPath id="clip0_906_5087">
<rect width="149.911" height="35.6931" fill="white"/>
</clipPath>
</defs>
</svg>
