<svg width="130" height="39" viewBox="0 0 130 39" fill="none" xmlns="http://www.w3.org/2000/svg">
<path d="M24.6677 7.74276C22.8104 6.21 20.2678 5.45264 17.0219 5.45264H8.94337V6.58868H16.8777C19.6366 6.58868 22.1251 7.14769 23.6579 8.48209C25.1906 9.8165 26.3267 11.764 26.3267 14.1804C26.3267 16.5246 25.3169 18.2377 23.748 19.554C22.1792 20.8704 19.3301 21.4475 16.499 21.4475H7.39258V22.5835H16.5711C19.9793 22.5835 22.6481 21.8442 24.5775 20.3655C26.489 18.8868 27.4627 16.7951 27.4627 14.1082C27.4627 11.3673 26.5251 9.25749 24.6677 7.74276Z" fill="#AAAAAA"/>
<path d="M23.9839 9.36567C22.8298 8.48208 21.5134 7.77881 17.7627 7.77881H11.5234V8.87879C11.5234 8.87879 14.3185 8.84273 17.6184 8.87879C20.8102 8.91486 21.9823 9.2755 23.0642 10.0689C24.4347 11.0788 25.3003 12.341 25.3003 14.0902C25.3003 15.7852 24.4347 16.9754 23.0462 18.0032C21.6397 19.0491 19.4758 19.0491 18.5922 19.0852C18.2676 19.0852 13.9578 19.0852 13.9578 19.0852V20.1852C13.9578 20.1852 16.0857 20.2212 17.4201 20.1852C20.4495 20.113 22.2528 19.9327 23.9298 18.6885C25.4986 17.5164 26.3281 15.9836 26.3281 14.0361C26.3281 11.4755 25.0298 10.1952 23.9839 9.36567Z" fill="#AAAAAA"/>
<path d="M23.424 10.8264C22.5584 10.2855 21.8011 9.9248 18.2126 9.9248H13.7225V10.6461H18.0864C21.2601 10.6461 22.4502 11.2051 22.8289 11.4395C23.5502 11.8723 24.4879 12.5936 24.4879 14.0362C24.4879 14.9559 23.9469 16.128 23.1355 16.5788C22.3961 16.9935 21.0437 17.3722 18.6814 17.3722H4.03906V18.0935H18.7175C21.5847 18.0935 22.5584 17.7689 23.5683 17.2099C24.5781 16.6509 25.2633 15.4968 25.2633 14.0362C25.2633 12.3772 24.3436 11.4035 23.424 10.8264Z" fill="#AAAAAA"/>
<path d="M26.2732 18.815C24.4158 17.2823 21.8732 16.5249 18.6274 16.5249H13.2176V17.6609H18.4651C21.2241 17.6609 23.7126 18.238 25.2453 19.5544C26.7781 20.8707 27.9322 22.8363 27.9322 25.2526C27.9322 27.5969 26.9404 29.3099 25.3535 30.6263C23.7667 31.9427 20.9356 32.5197 18.1045 32.5197H8.99805V33.6558H18.1766C21.5847 33.6558 24.2535 32.9164 26.183 31.4378C28.1125 29.9591 29.0682 27.8673 29.0682 25.1805C29.0502 22.4576 28.1305 20.3478 26.2732 18.815Z" fill="#AAAAAA"/>
<path d="M25.5871 20.4374C24.433 19.5719 23.1167 18.8506 19.3659 18.8506H10.8906V19.9506C10.8906 19.9506 15.9217 19.9145 19.2216 19.9506C22.4134 19.9866 23.5855 20.3473 24.6674 21.1407C26.0379 22.1505 26.9035 23.4128 26.9035 25.162C26.9035 26.857 26.0379 28.0472 24.6494 29.075C23.2429 30.1209 21.079 30.1209 20.1954 30.157C19.8708 30.157 15.561 30.157 15.561 30.157V31.2569C15.561 31.2569 17.7069 31.293 19.0233 31.2569C22.0527 31.1848 23.856 31.0045 25.533 29.7602C27.1018 28.5881 27.9313 27.0554 27.9313 25.1079C27.9313 22.5653 26.651 21.2669 25.5871 20.4374Z" fill="#AAAAAA"/>
<path d="M12.6953 24.1883H20.6476V23.5752H12.6953V24.1883Z" fill="#AAAAAA"/>
<path d="M15.9766 26.334H20.5929V25.811H15.9766V26.334Z" fill="#AAAAAA"/>
<path d="M8.99805 24.1883H11.3423V23.5752H8.99805V24.1883Z" fill="#AAAAAA"/>
<path d="M7.51953 26.3699H14.6784V25.7568H7.51953V26.3699Z" fill="#AAAAAA"/>
<path d="M9.28711 10.5918H12.0821V10.0869H9.28711V10.5918Z" fill="#AAAAAA"/>
<path d="M7.35742 14.7035H13.7229V14.1265H7.35742V14.7035Z" fill="#AAAAAA"/>
<path d="M7.51953 31.1847H14.2457V30.4634H7.51953V31.1847Z" fill="#AAAAAA"/>
<path d="M5.86133 33.583H7.53835V32.519H5.86133V33.583Z" fill="#AAAAAA"/>
<path d="M10.0449 12.8998H20.612V12.3228H10.0449V12.8998Z" fill="#AAAAAA"/>
<path d="M15.3281 14.7035H20.4133V14.1265H15.3281V14.7035Z" fill="#AAAAAA"/>
<path d="M25.0295 22.0066C24.1639 21.4837 23.4065 21.123 19.8181 21.123H14.1198V21.8263H19.7099C22.8836 21.8263 24.0918 22.3673 24.4524 22.5837C25.1557 22.9984 26.1114 23.6837 26.1114 25.0902C26.1114 25.9918 25.5704 27.1098 24.759 27.5426C24.0196 27.9393 22.6672 28.3 20.3049 28.3H5.64453V29.0032H20.323C23.1901 29.0032 24.1639 28.6967 25.1737 28.1557C26.1835 27.6147 26.8507 26.5148 26.8507 25.0902C26.8688 23.5214 25.9491 22.5837 25.0295 22.0066Z" fill="#AAAAAA"/>
<path d="M40.0674 20.4376V26.8752H43.5837C45.0984 26.8752 46.2886 26.5867 47.1181 26.0096C47.9295 25.4867 48.3984 24.5851 48.3804 23.6113C48.3804 21.5015 46.5951 20.4376 43.0427 20.4376H40.0674ZM40.0674 12.7738V18.5442H42.7182C44.1427 18.5442 45.2427 18.2737 46.0542 17.7147C46.8476 17.2098 47.3164 16.3082 47.2804 15.3705C47.2804 13.6393 45.8738 12.7558 43.0427 12.7558L40.0674 12.7738ZM37.4707 28.7686V10.8804H43.764C45.6755 10.8804 47.1902 11.2591 48.3082 12.0164C49.4262 12.7738 49.9853 13.7656 49.9853 14.9737C50.0033 15.9475 49.6426 16.9032 48.9754 17.6245C48.2902 18.3819 47.3705 18.9048 46.1804 19.2294V19.2835C47.6771 19.4278 48.8672 19.8786 49.7508 20.654C50.6344 21.3933 51.1213 22.4933 51.0852 23.6474C51.0852 25.1801 50.4 26.4063 49.0476 27.3621C47.6951 28.3178 45.982 28.7866 43.9083 28.7866H37.4707V28.7686Z" fill="#AAAAAA"/>
<path d="M53.9708 28.7686H56.4954V16.0016H53.9708V28.7686ZM55.2511 12.7377C54.8364 12.7558 54.4216 12.6115 54.097 12.3591C53.7905 12.1427 53.6102 11.782 53.6282 11.4214C53.6282 11.0427 53.8085 10.682 54.097 10.4656C54.4216 10.2132 54.8364 10.0689 55.2511 10.087C55.6839 10.0689 56.0986 10.2132 56.4232 10.4656C56.9462 10.8443 57.0544 11.5656 56.6937 12.0886C56.6216 12.1968 56.5314 12.2869 56.4232 12.3591C56.0986 12.6295 55.6839 12.7558 55.2511 12.7377Z" fill="#AAAAAA"/>
<path d="M67.658 28.6424C67.0629 28.9129 66.2695 29.0391 65.2957 29.0391C62.5367 29.0391 61.1482 27.7949 61.1482 25.2884V17.7328H58.4434V15.9836H61.1482V12.864L63.6728 12.1968V15.9836H67.6399V17.7328H63.6728V24.9277C63.6728 25.7752 63.8531 26.3883 64.2138 26.767C64.5744 27.1457 65.1695 27.308 65.999 27.308C66.576 27.326 67.1531 27.1818 67.6399 26.8752L67.658 28.6424Z" fill="#AAAAAA"/>
<path d="M90.6139 28.7684H88.2516V17.7325C88.2696 16.6686 88.3237 15.5866 88.45 14.5227H88.3959C88.2516 15.0637 88.0352 15.6046 87.7828 16.1095L80.8402 28.7503H79.6681L72.7437 16.1997C72.4732 15.6587 72.2748 15.0997 72.1306 14.5047H72.0765C72.1666 15.5686 72.2027 16.6505 72.1847 17.7325V28.7503H69.8945V12.3047H73.0502L79.2895 23.7734C79.6501 24.4045 79.9747 25.0717 80.2271 25.7569H80.3173C80.7321 24.8553 81.0566 24.1881 81.2911 23.7373L87.6565 12.3047H90.6319V28.7684" fill="#AAAAAA"/>
<path d="M103.454 22.2952L99.6491 22.728C98.477 22.8542 97.5934 23.0886 96.9983 23.4313C96.4033 23.7739 96.0967 24.3689 96.0967 25.2165C96.0967 25.8296 96.4033 26.4066 96.9262 26.7492C97.4672 27.1459 98.2065 27.3443 99.1262 27.3443C100.388 27.3443 101.416 26.9837 102.228 26.2804C103.021 25.6132 103.472 24.6214 103.454 23.5755V22.2952ZM105.979 28.7689H103.454V26.7673H103.4C102.3 28.3 100.677 29.0574 98.5491 29.0574C96.9803 29.0574 95.7541 28.7148 94.8525 28.0476C93.9869 27.4345 93.5 26.4246 93.5181 25.3607C93.5181 22.9804 95.2492 21.5919 98.7294 21.1952L103.454 20.6542C103.454 18.4903 102.372 17.4084 100.208 17.4084C98.3688 17.3904 96.5836 17.9313 95.0689 18.9772V16.8855C96.6196 16.092 98.4049 15.6953 100.425 15.6953C104.139 15.6953 105.979 17.2822 105.979 20.4559V28.7689Z" fill="#AAAAAA"/>
<path d="M117.697 18.0576C117.247 17.7871 116.615 17.6429 115.786 17.6429C114.74 17.6249 113.748 18.0757 113.081 18.8871C112.36 19.7166 111.999 20.8346 111.999 22.2592V28.7689H109.475V16.0019H111.999V18.6347H112.053C112.378 17.7871 112.955 17.0478 113.712 16.5249C114.434 16.02 115.299 15.7675 116.201 15.7675C116.706 15.7495 117.229 15.8036 117.715 15.9478L117.697 18.0576Z" fill="#AAAAAA"/>
<path d="M126.498 28.6424C125.903 28.9129 125.109 29.0391 124.136 29.0391C121.377 29.0391 119.988 27.7949 119.988 25.2884V17.7328H117.283V15.9836H119.988V12.864L122.513 12.1968V15.9836H126.48V17.7328H122.513V24.9277C122.513 25.7752 122.693 26.3883 123.054 26.767C123.414 27.1457 124.009 27.308 124.839 27.308C125.416 27.326 125.993 27.1818 126.48 26.8752L126.498 28.6424Z" fill="#AAAAAA"/>
</svg>
