<svg width="40" height="40" viewBox="0 0 40 40" fill="none" xmlns="http://www.w3.org/2000/svg">
<g filter="url(#filter0_bii_1407_5376)">
<rect x="3" y="3" width="34" height="34" rx="17" fill="#4112A2" fill-opacity="0.4"/>
<rect x="3.15" y="3.15" width="33.7" height="33.7" rx="16.85" stroke="url(#paint0_linear_1407_5376)" stroke-opacity="0.5" stroke-width="0.3"/>
</g>
<path d="M13.3914 20.4968C13.3914 22.6962 12.4075 24.4778 11.1973 24.4778C9.98705 24.4778 9 22.6962 9 20.4968C9 18.2975 9.98391 16.5158 11.1941 16.5158C12.4044 16.5158 13.3883 18.2975 13.3883 20.4968M15.4064 20.4968C15.4064 21.2089 15.3058 21.9177 15.1015 22.5601C14.9035 23.1835 14.6174 23.7785 14.2527 24.3291C14.0327 24.6614 13.558 25.4019 13.9573 25.6867C14.0264 25.7341 14.1176 25.769 14.2433 25.7879C15.0166 25.8987 15.727 25.4114 16.2489 24.9145C16.8178 24.3734 17.2768 23.7278 17.5911 23.0158C18.2921 21.4304 18.2921 19.5665 17.5911 17.9842C17.2768 17.2753 16.8178 16.6266 16.2489 16.0855C15.727 15.5886 15.0135 15.1013 14.2433 15.2121C14.1176 15.231 14.0264 15.2659 13.9573 15.3133C13.5549 15.5981 14.0327 16.3386 14.2527 16.6709C14.6174 17.2184 14.9035 17.8165 15.1015 18.4399C15.3058 19.0823 15.4064 19.7911 15.4064 20.5032M20.1436 20.5032C20.1436 21.4146 20.0116 22.3259 19.7507 23.1456C19.4961 23.943 19.1283 24.7088 18.663 25.4114C18.3801 25.8354 17.7703 26.7848 18.2858 27.1487C18.3738 27.2088 18.4933 27.2563 18.6505 27.2784C19.6407 27.4208 20.5523 26.7943 21.2218 26.1582C21.9511 25.4652 22.539 24.6361 22.9413 23.7278C23.8278 21.7278 23.8309 19.288 22.9413 17.2785C22.539 16.3703 21.9511 15.5412 21.2218 14.8481C20.5523 14.2121 19.6407 13.5855 18.6505 13.7279C18.4902 13.75 18.3707 13.7943 18.2858 13.8576C17.7703 14.2216 18.3801 15.1709 18.663 15.595C19.1283 16.2975 19.4961 17.0633 19.7507 17.8608C20.0116 18.6804 20.1436 19.5918 20.1436 20.5032ZM25.6541 20.5032C25.6541 21.6424 25.4907 22.7816 25.1638 23.8069C24.8463 24.8038 24.3873 25.7626 23.8058 26.6392C23.4537 27.1708 22.693 28.3576 23.3343 28.8132C23.4443 28.8892 23.592 28.9462 23.7901 28.9746C25.0286 29.1518 26.1665 28.3702 27.0058 27.5727C27.9174 26.7057 28.653 25.6709 29.156 24.5316C30.2813 21.9905 30.2813 19.0063 29.156 16.4684C28.653 15.3323 27.9174 14.2943 27.0058 13.4273C26.1697 12.6298 25.0286 11.8482 23.7932 12.0254C23.5952 12.0538 23.4443 12.1108 23.3374 12.1868C22.693 12.6424 23.4569 13.8292 23.8089 14.3608C24.3905 15.2405 24.8494 16.1962 25.1669 17.1931C25.4938 18.2184 25.6573 19.3576 25.6573 20.4968" fill="white"/>
<defs>
<filter id="filter0_bii_1407_5376" x="-83" y="-83" width="206" height="206" filterUnits="userSpaceOnUse" color-interpolation-filters="sRGB">
<feFlood flood-opacity="0" result="BackgroundImageFix"/>
<feGaussianBlur in="BackgroundImageFix" stdDeviation="43"/>
<feComposite in2="SourceAlpha" operator="in" result="effect1_backgroundBlur_1407_5376"/>
<feBlend mode="normal" in="SourceGraphic" in2="effect1_backgroundBlur_1407_5376" result="shape"/>
<feColorMatrix in="SourceAlpha" type="matrix" values="0 0 0 0 0 0 0 0 0 0 0 0 0 0 0 0 0 0 127 0" result="hardAlpha"/>
<feOffset dy="4"/>
<feGaussianBlur stdDeviation="7.5"/>
<feComposite in2="hardAlpha" operator="arithmetic" k2="-1" k3="1"/>
<feColorMatrix type="matrix" values="0 0 0 0 1 0 0 0 0 1 0 0 0 0 1 0 0 0 0.15 0"/>
<feBlend mode="normal" in2="shape" result="effect2_innerShadow_1407_5376"/>
<feColorMatrix in="SourceAlpha" type="matrix" values="0 0 0 0 0 0 0 0 0 0 0 0 0 0 0 0 0 0 127 0" result="hardAlpha"/>
<feOffset/>
<feGaussianBlur stdDeviation="34"/>
<feComposite in2="hardAlpha" operator="arithmetic" k2="-1" k3="1"/>
<feColorMatrix type="matrix" values="0 0 0 0 1 0 0 0 0 1 0 0 0 0 1 0 0 0 0.05 0"/>
<feBlend mode="normal" in2="effect2_innerShadow_1407_5376" result="effect3_innerShadow_1407_5376"/>
</filter>
<linearGradient id="paint0_linear_1407_5376" x1="3" y1="1.78571" x2="20" y2="22.4286" gradientUnits="userSpaceOnUse">
<stop stop-color="white"/>
<stop offset="1" stop-color="white" stop-opacity="0"/>
</linearGradient>
</defs>
</svg>
