<svg width="32" height="32" viewBox="0 0 32 32" fill="none" xmlns="http://www.w3.org/2000/svg">
<path d="M7 8.5L10.5 6.5L11 7L12.5 9H19.5L21 7H23.5L26 9.5L26.5 19L26 25.5L23 27.5L11.5 28L7.5 26.5L6 24L5.5 11L7 8.5Z" fill="url(#paint0_radial_1616_5941)"/>
<path d="M11.333 16.2334H19.4997" stroke="white" stroke-miterlimit="10" stroke-linecap="round" stroke-linejoin="round"/>
<path d="M11.333 20.9004H16.443" stroke="white" stroke-miterlimit="10" stroke-linecap="round" stroke-linejoin="round"/>
<path d="M13.6663 9.00016H18.333C20.6663 9.00016 20.6663 7.8335 20.6663 6.66683C20.6663 4.3335 19.4997 4.3335 18.333 4.3335H13.6663C12.4997 4.3335 11.333 4.3335 11.333 6.66683C11.333 9.00016 12.4997 9.00016 13.6663 9.00016Z" stroke="white" stroke-miterlimit="10" stroke-linecap="round" stroke-linejoin="round"/>
<path d="M20.6667 6.68994C24.5517 6.89994 26.5 8.33494 26.5 13.6666V20.6666C26.5 25.3333 25.3333 27.6666 19.5 27.6666H12.5C6.66667 27.6666 5.5 25.3333 5.5 20.6666V13.6666C5.5 8.34661 7.44833 6.89994 11.3333 6.68994" stroke="white" stroke-miterlimit="10" stroke-linecap="round" stroke-linejoin="round"/>
<defs>
<radialGradient id="paint0_radial_1616_5941" cx="0" cy="0" r="1" gradientUnits="userSpaceOnUse" gradientTransform="translate(15.656 17.0213) rotate(-90) scale(35.1319 20.9437)">
<stop offset="0.1" stop-color="white" stop-opacity="0"/>
<stop offset="0.19" stop-color="white" stop-opacity="0.06"/>
<stop offset="0.35" stop-color="white" stop-opacity="0.21"/>
<stop offset="0.57" stop-color="white" stop-opacity="0.46"/>
<stop offset="0.85" stop-color="white" stop-opacity="0.8"/>
<stop offset="1" stop-color="white"/>
</radialGradient>
</defs>
</svg>
