<svg width="365" height="93" viewBox="0 0 365 93" fill="none" xmlns="http://www.w3.org/2000/svg">
<path d="M126.804 58.0557H142.455V61.0236H123.431V27.5674H126.804V58.0557Z" fill="#A4A4A4"/>
<path d="M164.31 49.2954V49.9699C164.325 50.2395 164.325 50.5097 164.31 50.7793H145.826C145.857 51.8464 146.085 52.8985 146.5 53.8821C146.908 54.8451 147.504 55.7167 148.254 56.4453C148.99 57.1873 149.86 57.7825 150.818 58.1991C152.015 58.6776 153.305 58.8777 154.59 58.7842C155.876 58.6907 157.124 58.3061 158.239 57.6594C159.328 56.9726 160.25 56.0507 160.937 54.9614L163.366 56.85C162.237 58.3902 160.757 59.6388 159.048 60.4924C157.437 61.2168 155.688 61.5849 153.921 61.5717C152.353 61.611 150.793 61.3357 149.334 60.7622C147.964 60.2136 146.724 59.3867 145.691 58.334C144.655 57.287 143.83 56.0504 143.262 54.6916C142.695 53.2301 142.42 51.6719 142.453 50.1048C142.43 48.5385 142.705 46.9822 143.262 45.5181C143.824 44.156 144.649 42.9182 145.691 41.8757C146.687 40.8409 147.879 40.0154 149.199 39.4474C150.61 38.8699 152.127 38.5942 153.651 38.638C155.22 38.5873 156.782 38.8629 158.239 39.4474C159.529 39.9963 160.682 40.8259 161.612 41.8757C162.516 42.8965 163.204 44.0896 163.636 45.3832C164.06 46.6448 164.288 47.9644 164.31 49.2954ZM161.072 48.2162C161.03 46.3209 160.312 44.5031 159.048 43.0898C158.364 42.4001 157.541 41.8632 156.634 41.5145C155.727 41.1657 154.756 41.0129 153.786 41.0662C152.77 41.041 151.76 41.2247 150.818 41.6059C149.914 41.9884 149.09 42.5376 148.389 43.2247C147.67 43.8759 147.075 44.6531 146.635 45.5181C146.242 46.3669 146.013 47.2823 145.961 48.2162H161.072Z" fill="#A4A4A4"/>
<path d="M169.972 65.491C170.965 66.69 172.209 67.657 173.615 68.324C174.983 69.0192 176.48 69.4259 178.012 69.5187C179.544 69.6115 181.078 69.3886 182.52 68.8636C183.557 68.4571 184.482 67.8097 185.219 66.975C185.897 66.1893 186.402 65.2701 186.703 64.2769C187.046 63.185 187.228 62.0488 187.243 60.9043V56.7223H187.108C186.235 58.1339 184.969 59.2594 183.465 59.96C181.993 60.6728 180.378 61.0418 178.742 61.0392C177.131 61.0786 175.527 60.8036 174.02 60.2298C172.662 59.721 171.423 58.9406 170.377 57.9364C169.382 56.9352 168.602 55.7417 168.083 54.4289C167.534 53.0097 167.259 51.4989 167.274 49.9771C167.256 48.455 167.53 46.9436 168.083 45.5252C168.605 44.1742 169.384 42.9372 170.377 41.8828C171.41 40.8301 172.651 40.0032 174.02 39.4545C175.513 38.8205 177.12 38.4992 178.742 38.5102C180.378 38.5028 181.994 38.8721 183.465 39.5895C184.915 40.3176 186.131 41.4397 186.973 42.8271H187.108V38.9149H190.346V60.7694C190.316 62.0454 190.134 63.3133 189.806 64.5467C189.465 65.9306 188.82 67.2211 187.917 68.324C186.931 69.5295 185.686 70.4977 184.274 71.157C182.401 71.9558 180.372 72.3245 178.338 72.2362C176.342 72.2257 174.368 71.8127 172.536 71.0221C170.758 70.2755 169.151 69.1737 167.813 67.7844L169.972 65.491ZM170.647 49.7073C170.623 50.8547 170.806 51.9971 171.187 53.0799C171.548 54.075 172.097 54.9911 172.806 55.7779C173.516 56.5824 174.39 57.2263 175.369 57.6666C176.48 58.1297 177.674 58.3593 178.877 58.3411C180.08 58.3483 181.271 58.1191 182.385 57.6666C183.397 57.2753 184.316 56.678 185.084 55.9128C185.843 55.1399 186.44 54.2224 186.838 53.2148C187.287 52.1001 187.516 50.909 187.512 49.7073C187.526 48.0254 187.048 46.3763 186.137 44.9623C185.226 43.5483 183.922 42.4311 182.385 41.7479C181.322 41.2841 180.172 41.054 179.012 41.0734C177.808 41.0472 176.612 41.2772 175.504 41.7479C174.529 42.1951 173.657 42.838 172.941 43.6366C172.232 44.4234 171.683 45.3395 171.321 46.3347C170.895 47.4089 170.666 48.5516 170.647 49.7073Z" fill="#A4A4A4"/>
<path d="M210.185 46.7347C210.259 45.951 210.165 45.1605 209.909 44.416C209.653 43.6716 209.241 42.9903 208.701 42.4178C207.447 41.4079 205.851 40.9242 204.248 41.0687C203.001 41.0509 201.763 41.2801 200.605 41.7433C199.546 42.1817 198.584 42.8233 197.772 43.6319L195.883 41.4735C196.928 40.4692 198.168 39.6889 199.526 39.1801C201.158 38.5383 202.899 38.2177 204.653 38.2358C205.798 38.2399 206.936 38.422 208.026 38.7754C209.013 39.0897 209.93 39.5938 210.724 40.2593C211.55 40.9508 212.197 41.8296 212.613 42.8225C213.077 43.933 213.306 45.1269 213.288 46.33V56.0431C213.288 56.8525 213.333 57.7519 213.423 58.7412C213.464 59.5106 213.554 60.2766 213.693 61.0345H210.724C210.634 60.4949 210.545 59.9103 210.455 59.2808C210.377 58.6539 210.332 58.0236 210.32 57.3921H210.185C209.354 58.7407 208.193 59.8551 206.812 60.6298C205.377 61.2989 203.806 61.6224 202.224 61.5741L199.661 61.1694C198.782 60.9205 197.958 60.5086 197.232 59.9553C196.467 59.4216 195.823 58.732 195.343 57.9317C194.853 56.9735 194.62 55.9042 194.668 54.8289C194.601 53.3593 195.082 51.9171 196.018 50.7818C196.957 49.7127 198.17 48.9198 199.526 48.4885C201.144 47.9666 202.821 47.6494 204.518 47.5441L210.32 47.2743L210.185 46.7347ZM209.24 49.9724H205.327L201.684 50.6469C200.684 50.9314 199.762 51.4387 198.986 52.1309C198.627 52.4511 198.344 52.8473 198.157 53.2907C197.97 53.7341 197.885 54.2135 197.907 54.694C197.864 55.3922 198.004 56.0894 198.311 56.7176C198.596 57.2625 199.014 57.7266 199.526 58.0666L201.145 58.7412L203.034 59.011C204.05 59.0401 205.061 58.8563 206.002 58.4714C206.827 58.0893 207.563 57.5377 208.161 56.8525C208.75 56.1792 209.208 55.4013 209.51 54.5591C209.809 53.6457 209.946 52.6869 209.915 51.7262V50.1073L209.24 49.9724Z" fill="#A4A4A4"/>
<path d="M222.46 61.0364H219.222V25.2868H222.46V61.0364Z" fill="#A4A4A4"/>
<path d="M241.623 42.5418L257.544 27.5674H262.401L245.535 42.8116L263.345 61.0236H258.353L241.623 43.2163V61.0236H238.249V27.5674H241.623V42.5418Z" fill="#A4A4A4"/>
<path d="M285.876 49.9562C285.908 51.5233 285.633 53.0815 285.066 54.5429C284.504 55.905 283.679 57.1428 282.637 58.1853C281.557 59.2445 280.272 60.0709 278.859 60.6136C277.351 61.1809 275.748 61.4556 274.137 61.423C272.526 61.459 270.922 61.1842 269.415 60.6136C268.003 60.0709 266.717 59.2445 265.637 58.1853C264.595 57.1428 263.77 55.905 263.208 54.5429C262.028 51.5523 262.028 48.2251 263.208 45.2345C263.767 43.8708 264.593 42.6324 265.637 41.5921C266.717 40.533 268.003 39.7065 269.415 39.1639C270.922 38.5933 272.526 38.3185 274.137 38.3544C275.748 38.3218 277.351 38.5965 278.859 39.1639C280.272 39.7065 281.557 40.533 282.637 41.5921C283.681 42.6324 284.507 43.8708 285.066 45.2345C285.65 46.7381 285.926 48.3439 285.876 49.9562ZM282.502 49.9562C282.531 48.7644 282.348 47.5769 281.963 46.4487C281.611 45.4086 281.061 44.4466 280.344 43.6157C279.586 42.8049 278.666 42.1616 277.645 41.727C276.538 41.2523 275.341 41.0222 274.137 41.0525C272.932 41.0178 271.735 41.2481 270.629 41.727C269.656 42.1775 268.784 42.8199 268.065 43.6157C267.348 44.4466 266.798 45.4086 266.446 46.4487C265.675 48.6772 265.675 51.1002 266.446 53.3288C266.798 54.3688 267.348 55.3309 268.065 56.1618C268.779 56.9632 269.652 57.6066 270.629 58.0504C271.737 58.5212 272.933 58.7511 274.137 58.7249C275.341 58.747 276.536 58.5173 277.645 58.0504C278.67 57.6231 279.591 56.9788 280.344 56.1618C281.061 55.3309 281.611 54.3688 281.963 53.3288C282.332 52.2433 282.515 51.1028 282.502 49.9562Z" fill="#A4A4A4"/>
<path d="M290.328 41.4642C290.328 40.5649 290.283 39.7105 290.193 38.9011H293.296C293.386 39.5306 293.431 40.2051 293.431 40.9246C293.431 41.6441 293.431 42.2287 293.431 42.6784H293.566C294.204 41.4012 295.185 40.3268 296.4 39.5756C297.686 38.7509 299.189 38.3282 300.717 38.3614H302.876L302.471 41.4642H300.178C299.35 41.4459 298.526 41.5832 297.749 41.8689C296.964 42.1931 296.27 42.7023 295.725 43.3529C295.12 44.1159 294.662 44.9852 294.376 45.9161C293.991 47.1373 293.809 48.4133 293.836 49.6934V61.0253H290.598V43.7576C290.463 43.218 290.463 42.4086 290.328 41.4642Z" fill="#A4A4A4"/>
<path d="M308 38.9014C308.09 39.5309 308.135 40.2055 308.135 40.925C308.135 41.6444 308.135 42.229 308.135 42.6787H308.27C308.961 41.3501 310.045 40.2667 311.373 39.5759C312.727 38.7928 314.262 38.3745 315.826 38.3618C317.008 38.2811 318.193 38.4699 319.292 38.914C320.39 39.358 321.373 40.0456 322.167 40.925C323.656 42.7985 324.422 45.1443 324.326 47.5353V61.0257H321.088V48.7494C321.098 47.7089 321.008 46.6698 320.818 45.6466C320.668 44.7825 320.346 43.9571 319.874 43.2183C319.405 42.515 318.751 41.9548 317.985 41.5995C317.05 41.1933 316.034 41.0086 315.016 41.0599C314.179 41.074 313.353 41.2576 312.588 41.5995C311.756 41.9703 311.018 42.5236 310.429 43.2183C309.763 44.0125 309.259 44.929 308.945 45.9164C308.545 47.1806 308.363 48.5034 308.405 49.8286V61.1606H305.167V43.7579C305.167 43.2183 305.167 42.4089 305.167 41.4646C305.167 40.5202 305.032 39.7108 305.032 38.9014H308Z" fill="#A4A4A4"/>
<path d="M350.233 49.2902V49.9647C350.248 50.2343 350.248 50.5045 350.233 50.7741H331.883C331.914 51.8412 332.143 52.8933 332.558 53.8769C332.965 54.8399 333.562 55.7115 334.312 56.4401C335.047 57.1821 335.917 57.7773 336.876 58.1939C338.072 58.6724 339.363 58.8725 340.648 58.779C341.934 58.6855 343.181 58.3009 344.296 57.6542C345.386 56.9674 346.308 56.0455 346.995 54.9562L349.424 56.8448C348.295 58.385 346.814 59.6336 345.106 60.4872C343.494 61.2116 341.746 61.5797 339.979 61.5665C338.411 61.6058 336.851 61.3305 335.391 60.757C334.022 60.2084 332.782 59.3815 331.748 58.3288C330.712 57.2818 329.888 56.0452 329.32 54.6864C328.753 53.2249 328.478 51.6667 328.51 50.0996C328.488 48.5333 328.763 46.977 329.32 45.5129C329.882 44.1508 330.707 42.913 331.748 41.8705C332.744 40.8357 333.937 40.0102 335.256 39.4422C336.668 38.8647 338.185 38.589 339.709 38.6328C341.278 38.5821 342.84 38.8577 344.296 39.4422C345.587 39.9911 346.739 40.8207 347.67 41.8705C348.574 42.8913 349.262 44.0844 349.693 45.378C350.072 46.6468 350.254 47.9662 350.233 49.2902ZM346.995 48.211C346.952 46.3157 346.235 44.4979 344.971 43.0846C344.287 42.3949 343.464 41.858 342.557 41.5093C341.65 41.1605 340.679 41.0077 339.709 41.061C338.693 41.0358 337.683 41.2195 336.741 41.6007C335.837 41.9832 335.013 42.5324 334.312 43.2195C333.641 43.882 333.092 44.6585 332.693 45.5129C332.3 46.3617 332.071 47.2771 332.018 48.211H346.995Z" fill="#A4A4A4"/>
<path d="M364.804 41.6024H358.598V54.5532C358.592 55.2371 358.683 55.9183 358.867 56.5768C358.988 57.0312 359.22 57.4484 359.542 57.7909L360.621 58.4654H363.32L364.669 57.9258V60.7588L362.915 61.2984H360.891L359.002 61.0286C358.309 60.8605 357.664 60.5376 357.113 60.0843C356.535 59.6113 356.073 59.0111 355.764 58.3305C355.367 57.3933 355.183 56.3797 355.224 55.3627V41.6024H350.637V38.9044H355.224V32.6988H358.463V38.9044H364.669L364.804 41.6024Z" fill="#A4A4A4"/>
<path d="M0.443359 0.417969L10.5627 9.59144V82.9792H81.9379V9.59144H40.9208L31.2062 0.417969H92.1922V92.1527H0.443359V0.417969Z" fill="#A4A4A4"/>
<path d="M27.1607 0.417969L36.8753 9.59144V42.9127L51.8519 26.8592H64.3999L47.6692 44.5316L65.3444 65.7115H52.5265L36.8753 45.8806V65.7115H27.1607V0.417969Z" fill="#A4A4A4"/>
</svg>
