<svg width="32" height="32" viewBox="0 0 32 32" fill="none" xmlns="http://www.w3.org/2000/svg">
<path fill-rule="evenodd" clip-rule="evenodd" d="M16 2.66675C8.63329 2.66675 2.66663 8.63341 2.66663 16.0001C2.66663 21.9001 6.48329 26.8834 11.7833 28.6501C12.45 28.7667 12.7 28.3667 12.7 28.0167C12.7 27.7001 12.6833 26.6501 12.6833 25.5334C9.33329 26.1501 8.46663 24.7167 8.19996 23.9667C8.04996 23.5834 7.39996 22.4001 6.83329 22.0834C6.36663 21.8334 5.69996 21.2167 6.81663 21.2001C7.86663 21.1834 8.61663 22.1667 8.86663 22.5667C10.0666 24.5834 11.9833 24.0167 12.75 23.6667C12.8666 22.8001 13.2166 22.2167 13.6 21.8834C10.6333 21.5501 7.53329 20.4001 7.53329 15.3001C7.53329 13.8501 8.04996 12.6501 8.89996 11.7167C8.76663 11.3834 8.29996 10.0167 9.03329 8.18341C9.03329 8.18341 10.15 7.83341 12.7 9.55008C13.7666 9.25008 14.9 9.10008 16.0333 9.10008C17.1666 9.10008 18.3 9.25008 19.3666 9.55008C21.9166 7.81675 23.0333 8.18341 23.0333 8.18341C23.7666 10.0167 23.3 11.3834 23.1666 11.7167C24.0166 12.6501 24.5333 13.8334 24.5333 15.3001C24.5333 20.4167 21.4166 21.5501 18.45 21.8834C18.9333 22.3001 19.35 23.1001 19.35 24.3501C19.35 26.1334 19.3333 27.5667 19.3333 28.0167C19.3333 28.3667 19.5833 28.7834 20.25 28.6501C22.8969 27.7565 25.1969 26.0554 26.8264 23.7861C28.4558 21.5169 29.3326 18.7938 29.3333 16.0001C29.3333 8.63341 23.3666 2.66675 16 2.66675Z" stroke="white" stroke-linejoin="round"/>
</svg>
