<svg width="278" height="261" viewBox="0 0 278 261" fill="none" xmlns="http://www.w3.org/2000/svg">
<rect x="0.5" y="0.752686" width="277" height="259" rx="3.5" fill="url(#paint0_linear_4013_294)" style=""/>
<rect x="0.5" y="0.752686" width="277" height="259" rx="3.5" stroke="black" style="stroke:black;stroke-opacity:1;"/>
<g clip-path="url(#clip0_4013_294)">
<path d="M112.875 128.503V97.6277C112.875 96.3679 113.375 95.1597 114.266 94.2689C115.157 93.3781 116.365 92.8777 117.625 92.8777H160.375C161.635 92.8777 162.843 93.3781 163.734 94.2689C164.625 95.1597 165.125 96.3679 165.125 97.6277V128.503" stroke="black" style="stroke:black;stroke-opacity:1;" stroke-width="1.5" stroke-linecap="round" stroke-linejoin="round"/>
<path d="M108.125 128.503H169.875V133.253C169.875 134.512 169.375 135.721 168.484 136.611C167.593 137.502 166.385 138.003 165.125 138.003H112.875C111.615 138.003 110.407 137.502 109.516 136.611C108.625 135.721 108.125 134.512 108.125 133.253V128.503Z" stroke="black" style="stroke:black;stroke-opacity:1;" stroke-width="1.5" stroke-linecap="round" stroke-linejoin="round"/>
<path d="M143.75 102.378H134.25" stroke="black" style="stroke:black;stroke-opacity:1;" stroke-width="1.5" stroke-linecap="round" stroke-linejoin="round"/>
</g>
<path d="M60.3766 180.253L56.6146 167.293H58.5856L61.3126 177.094L64.0396 167.302L66.0196 167.293L68.7466 177.094L71.4736 167.293H73.4536L69.6826 180.253H67.8106L65.0296 170.56L62.2486 180.253H60.3766ZM74.6036 180.253V167.293H82.8836V169.066H76.4846V172.702H81.8036V174.475H76.4846V178.48H82.8836V180.253H74.6036ZM84.685 180.253V167.293H89.779C90.601 167.293 91.291 167.461 91.849 167.797C92.407 168.133 92.827 168.568 93.109 169.102C93.391 169.63 93.532 170.188 93.532 170.776C93.532 171.49 93.355 172.102 93.001 172.612C92.653 173.122 92.182 173.47 91.588 173.656L91.57 173.215C92.398 173.419 93.034 173.818 93.478 174.412C93.922 175 94.144 175.687 94.144 176.473C94.144 177.235 93.991 177.898 93.685 178.462C93.385 179.026 92.944 179.467 92.362 179.785C91.786 180.097 91.087 180.253 90.265 180.253H84.685ZM86.593 178.462H89.977C90.403 178.462 90.784 178.381 91.12 178.219C91.462 178.057 91.729 177.826 91.921 177.526C92.119 177.22 92.218 176.857 92.218 176.437C92.218 176.047 92.131 175.696 91.957 175.384C91.789 175.066 91.543 174.817 91.219 174.637C90.901 174.451 90.526 174.358 90.094 174.358H86.593V178.462ZM86.593 172.585H89.752C90.1 172.585 90.412 172.516 90.688 172.378C90.97 172.234 91.192 172.03 91.354 171.766C91.522 171.496 91.606 171.172 91.606 170.794C91.606 170.29 91.438 169.876 91.102 169.552C90.766 169.228 90.316 169.066 89.752 169.066H86.593V172.585ZM98.8185 180.253V167.293H102.878C102.998 167.293 103.22 167.296 103.544 167.302C103.874 167.308 104.189 167.332 104.489 167.374C105.503 167.5 106.355 167.863 107.045 168.463C107.741 169.063 108.266 169.825 108.62 170.749C108.974 171.667 109.151 172.675 109.151 173.773C109.151 174.877 108.974 175.891 108.62 176.815C108.266 177.733 107.741 178.492 107.045 179.092C106.355 179.686 105.503 180.046 104.489 180.172C104.189 180.214 103.874 180.238 103.544 180.244C103.22 180.25 102.998 180.253 102.878 180.253H98.8185ZM100.745 178.462H102.878C103.082 178.462 103.325 178.456 103.607 178.444C103.889 178.432 104.138 178.408 104.354 178.372C105.014 178.246 105.548 177.961 105.956 177.517C106.37 177.067 106.673 176.515 106.865 175.861C107.057 175.207 107.153 174.511 107.153 173.773C107.153 173.011 107.054 172.306 106.856 171.658C106.658 171.004 106.352 170.458 105.938 170.02C105.53 169.576 105.002 169.294 104.354 169.174C104.138 169.132 103.886 169.108 103.598 169.102C103.316 169.09 103.076 169.084 102.878 169.084H100.745V178.462ZM110.886 180.253V167.293H119.166V169.066H112.767V172.702H118.086V174.475H112.767V178.48H119.166V180.253H110.886ZM124.01 180.253L119.798 167.293H121.751L125.342 178.354L128.978 167.293H130.931L126.719 180.253H124.01ZM131.928 180.253V167.293H140.208V169.066H133.809V172.702H139.128V174.475H133.809V178.48H140.208V180.253H131.928ZM142.189 180.253V167.293H144.07V178.48H149.938V180.253H142.189ZM156.164 180.523C154.868 180.523 153.764 180.241 152.852 179.677C151.94 179.107 151.241 178.315 150.755 177.301C150.275 176.287 150.035 175.111 150.035 173.773C150.035 172.435 150.275 171.259 150.755 170.245C151.241 169.231 151.94 168.442 152.852 167.878C153.764 167.308 154.868 167.023 156.164 167.023C157.454 167.023 158.555 167.308 159.467 167.878C160.385 168.442 161.084 169.231 161.564 170.245C162.044 171.259 162.284 172.435 162.284 173.773C162.284 175.111 162.044 176.287 161.564 177.301C161.084 178.315 160.385 179.107 159.467 179.677C158.555 180.241 157.454 180.523 156.164 180.523ZM156.164 178.732C157.082 178.744 157.844 178.543 158.45 178.129C159.062 177.709 159.521 177.127 159.827 176.383C160.133 175.633 160.286 174.763 160.286 173.773C160.286 172.783 160.133 171.919 159.827 171.181C159.521 170.437 159.062 169.858 158.45 169.444C157.844 169.03 157.082 168.82 156.164 168.814C155.246 168.802 154.481 169.003 153.869 169.417C153.263 169.831 152.807 170.413 152.501 171.163C152.195 171.913 152.039 172.783 152.033 173.773C152.027 174.763 152.177 175.63 152.483 176.374C152.789 177.112 153.248 177.688 153.86 178.102C154.478 178.516 155.246 178.726 156.164 178.732ZM163.719 180.253V167.293H168.957C169.083 167.293 169.239 167.299 169.425 167.311C169.611 167.317 169.788 167.335 169.956 167.365C170.676 167.479 171.276 167.725 171.756 168.103C172.242 168.481 172.605 168.958 172.845 169.534C173.085 170.11 173.205 170.746 173.205 171.442C173.205 172.144 173.085 172.783 172.845 173.359C172.605 173.935 172.242 174.412 171.756 174.79C171.276 175.168 170.676 175.414 169.956 175.528C169.788 175.552 169.608 175.57 169.416 175.582C169.23 175.594 169.077 175.6 168.957 175.6H165.6V180.253H163.719ZM165.6 173.818H168.885C169.005 173.818 169.137 173.812 169.281 173.8C169.431 173.788 169.572 173.767 169.704 173.737C170.088 173.647 170.397 173.482 170.631 173.242C170.865 172.996 171.033 172.714 171.135 172.396C171.237 172.078 171.288 171.76 171.288 171.442C171.288 171.124 171.237 170.809 171.135 170.497C171.033 170.179 170.865 169.9 170.631 169.66C170.397 169.414 170.088 169.246 169.704 169.156C169.572 169.12 169.431 169.096 169.281 169.084C169.137 169.072 169.005 169.066 168.885 169.066H165.6V173.818ZM174.644 180.253V167.293H176.345L181.043 177.04L185.714 167.293H187.433V180.244H185.651V171.379L181.466 180.253H180.611L176.417 171.379V180.253H174.644ZM189.595 180.253V167.293H197.875V169.066H191.476V172.702H196.795V174.475H191.476V178.48H197.875V180.253H189.595ZM199.676 180.253V167.293H201.584L207.965 176.923V167.293H209.873V180.253H207.965L201.584 170.614V180.253H199.676ZM215.256 180.253V169.066H210.945V167.293H221.448V169.066H217.137V180.253H215.256Z" fill="white" style="fill:white;fill-opacity:1;"/>
<defs>
<linearGradient id="paint0_linear_4013_294" x1="139" y1="0.252686" x2="139" y2="260.253" gradientUnits="userSpaceOnUse">
<stop stop-color="#06A5FF" style="stop-color:#06A5FF;stop-color:color(display-p3 0.0222 0.6480 1.0000);stop-opacity:1;"/>
<stop offset="1" stop-color="#0C0C0C" style="stop-color:#0C0C0C;stop-color:color(display-p3 0.0486 0.0478 0.0478);stop-opacity:1;"/>
</linearGradient>
<clipPath id="clip0_4013_294">
<rect width="76" height="76" fill="white" style="fill:white;fill-opacity:1;" transform="translate(101 76.2527)"/>
</clipPath>
</defs>
</svg>
