<svg width="278" height="261" viewBox="0 0 278 261" fill="none" xmlns="http://www.w3.org/2000/svg">
<rect x="0.5" y="0.752686" width="277" height="259" rx="3.5" fill="url(#paint0_linear_4013_294)" style=""/>
<rect x="0.5" y="0.752686" width="277" height="259" rx="3.5" stroke="black" style="stroke:black;stroke-opacity:1;"/>
<g clip-path="url(#clip0_4013_294)">
<path d="M117.625 116.628C122.664 116.628 127.497 118.629 131.06 122.193C134.623 125.756 136.625 130.589 136.625 135.628" stroke="#070707" style="stroke:#070707;stroke:color(display-p3 0.0292 0.0292 0.0292);stroke-opacity:1;" stroke-width="1.5" stroke-linecap="round" stroke-linejoin="round"/>
<path d="M117.625 102.378C126.443 102.378 134.901 105.881 141.136 112.116C147.372 118.352 150.875 126.809 150.875 135.628" stroke="#070707" style="stroke:#070707;stroke:color(display-p3 0.0292 0.0292 0.0292);stroke-opacity:1;" stroke-width="1.5" stroke-linecap="round" stroke-linejoin="round"/>
<path d="M117.625 88.1277C123.863 88.1277 130.039 89.3563 135.802 91.7434C141.565 94.1305 146.802 97.6293 151.213 102.04C155.623 106.451 159.122 111.687 161.509 117.45C163.896 123.213 165.125 129.39 165.125 135.628" stroke="#070707" style="stroke:#070707;stroke:color(display-p3 0.0292 0.0292 0.0292);stroke-opacity:1;" stroke-width="1.5" stroke-linecap="round" stroke-linejoin="round"/>
<path d="M118.812 137.409C120.452 137.409 121.781 136.08 121.781 134.44C121.781 132.801 120.452 131.471 118.812 131.471C117.173 131.471 115.844 132.801 115.844 134.44C115.844 136.08 117.173 137.409 118.812 137.409Z" fill="#070707" style="fill:#070707;fill:color(display-p3 0.0292 0.0292 0.0292);fill-opacity:1;"/>
</g>
<path d="M55.1042 180.253V167.293H56.9852V180.253H55.1042ZM59.3278 180.253V167.293H61.2358L67.6168 176.923V167.293H69.5248V180.253H67.6168L61.2358 170.614V180.253H59.3278ZM74.9078 180.253V169.066H70.5968V167.293H81.0998V169.066H76.7888V180.253H74.9078ZM82.1801 180.253V167.293H90.4601V169.066H84.0611V172.702H89.3801V174.475H84.0611V178.48H90.4601V180.253H82.1801ZM92.2615 180.253V167.293H97.4995C97.6255 167.293 97.7815 167.299 97.9675 167.311C98.1535 167.317 98.3305 167.335 98.4985 167.365C99.2185 167.479 99.8185 167.725 100.299 168.103C100.785 168.481 101.148 168.958 101.388 169.534C101.628 170.11 101.748 170.746 101.748 171.442C101.748 172.474 101.484 173.365 100.956 174.115C100.428 174.859 99.6355 175.324 98.5795 175.51L97.8145 175.6H94.1425V180.253H92.2615ZM99.8395 180.253L97.2835 174.979L99.1825 174.493L101.991 180.253H99.8395ZM94.1425 173.818H97.4275C97.5475 173.818 97.6795 173.812 97.8235 173.8C97.9735 173.788 98.1145 173.767 98.2465 173.737C98.6305 173.647 98.9395 173.482 99.1735 173.242C99.4075 172.996 99.5755 172.714 99.6775 172.396C99.7795 172.078 99.8305 171.76 99.8305 171.442C99.8305 171.124 99.7795 170.809 99.6775 170.497C99.5755 170.179 99.4075 169.9 99.1735 169.66C98.9395 169.414 98.6305 169.246 98.2465 169.156C98.1145 169.12 97.9735 169.096 97.8235 169.084C97.6795 169.072 97.5475 169.066 97.4275 169.066H94.1425V173.818ZM103.609 180.253V167.293H105.517L111.898 176.923V167.293H113.806V180.253H111.898L105.517 170.614V180.253H103.609ZM115.958 180.253V167.293H124.238V169.066H117.839V172.702H123.158V174.475H117.839V178.48H124.238V180.253H115.958ZM129.27 180.253V169.066H124.959V167.293H135.462V169.066H131.151V180.253H129.27ZM143.939 180.523C143.009 180.523 142.169 180.364 141.419 180.046C140.675 179.722 140.06 179.263 139.574 178.669C139.094 178.069 138.782 177.358 138.638 176.536L140.6 176.239C140.798 177.031 141.212 177.649 141.842 178.093C142.472 178.531 143.207 178.75 144.047 178.75C144.569 178.75 145.049 178.669 145.487 178.507C145.925 178.339 146.276 178.102 146.54 177.796C146.81 177.484 146.945 177.112 146.945 176.68C146.945 176.446 146.903 176.239 146.819 176.059C146.741 175.879 146.63 175.723 146.486 175.591C146.348 175.453 146.177 175.336 145.973 175.24C145.775 175.138 145.556 175.051 145.316 174.979L141.995 173.998C141.671 173.902 141.341 173.779 141.005 173.629C140.669 173.473 140.36 173.272 140.078 173.026C139.802 172.774 139.577 172.465 139.403 172.099C139.229 171.727 139.142 171.277 139.142 170.749C139.142 169.951 139.346 169.276 139.754 168.724C140.168 168.166 140.726 167.746 141.428 167.464C142.13 167.176 142.916 167.032 143.786 167.032C144.662 167.044 145.445 167.2 146.135 167.5C146.831 167.8 147.407 168.232 147.863 168.796C148.325 169.354 148.643 170.032 148.817 170.83L146.801 171.172C146.711 170.686 146.519 170.269 146.225 169.921C145.931 169.567 145.571 169.297 145.145 169.111C144.719 168.919 144.257 168.82 143.759 168.814C143.279 168.802 142.838 168.874 142.436 169.03C142.04 169.186 141.722 169.405 141.482 169.687C141.248 169.969 141.131 170.293 141.131 170.659C141.131 171.019 141.236 171.31 141.446 171.532C141.656 171.754 141.914 171.931 142.22 172.063C142.532 172.189 142.841 172.294 143.147 172.378L145.541 173.053C145.841 173.137 146.18 173.251 146.558 173.395C146.942 173.533 147.311 173.728 147.665 173.98C148.025 174.232 148.322 174.568 148.556 174.988C148.79 175.402 148.907 175.924 148.907 176.554C148.907 177.208 148.775 177.784 148.511 178.282C148.247 178.774 147.884 179.188 147.422 179.524C146.966 179.854 146.438 180.103 145.838 180.271C145.238 180.439 144.605 180.523 143.939 180.523ZM155.874 180.523C154.578 180.523 153.474 180.241 152.562 179.677C151.65 179.107 150.951 178.315 150.465 177.301C149.985 176.287 149.745 175.111 149.745 173.773C149.745 172.435 149.985 171.259 150.465 170.245C150.951 169.231 151.65 168.442 152.562 167.878C153.474 167.308 154.578 167.023 155.874 167.023C157.164 167.023 158.265 167.308 159.177 167.878C160.095 168.442 160.794 169.231 161.274 170.245C161.754 171.259 161.994 172.435 161.994 173.773C161.994 175.111 161.754 176.287 161.274 177.301C160.794 178.315 160.095 179.107 159.177 179.677C158.265 180.241 157.164 180.523 155.874 180.523ZM155.874 178.732C156.792 178.744 157.554 178.543 158.16 178.129C158.772 177.709 159.231 177.127 159.537 176.383C159.843 175.633 159.996 174.763 159.996 173.773C159.996 172.783 159.843 171.919 159.537 171.181C159.231 170.437 158.772 169.858 158.16 169.444C157.554 169.03 156.792 168.82 155.874 168.814C154.956 168.802 154.191 169.003 153.579 169.417C152.973 169.831 152.517 170.413 152.211 171.163C151.905 171.913 151.749 172.783 151.743 173.773C151.737 174.763 151.887 175.63 152.193 176.374C152.499 177.112 152.958 177.688 153.57 178.102C154.188 178.516 154.956 178.726 155.874 178.732ZM163.609 180.253V167.293H165.49V178.48H171.358V180.253H163.609ZM177.692 180.523C176.678 180.523 175.781 180.316 175.001 179.902C174.227 179.482 173.621 178.897 173.183 178.147C172.745 177.391 172.526 176.503 172.526 175.483V167.302L174.434 167.293V175.384C174.434 175.936 174.527 176.422 174.713 176.842C174.899 177.262 175.148 177.613 175.46 177.895C175.772 178.177 176.12 178.39 176.504 178.534C176.894 178.678 177.29 178.75 177.692 178.75C178.1 178.75 178.496 178.678 178.88 178.534C179.27 178.384 179.621 178.168 179.933 177.886C180.245 177.604 180.491 177.253 180.671 176.833C180.857 176.413 180.95 175.93 180.95 175.384V167.293H182.858V175.483C182.858 176.497 182.639 177.382 182.201 178.138C181.763 178.894 181.154 179.482 180.374 179.902C179.6 180.316 178.706 180.523 177.692 180.523ZM188.247 180.253V169.066H183.936V167.293H194.439V169.066H190.128V180.253H188.247ZM195.699 180.253V167.293H197.58V180.253H195.699ZM205.332 180.523C204.036 180.523 202.932 180.241 202.02 179.677C201.108 179.107 200.409 178.315 199.923 177.301C199.443 176.287 199.203 175.111 199.203 173.773C199.203 172.435 199.443 171.259 199.923 170.245C200.409 169.231 201.108 168.442 202.02 167.878C202.932 167.308 204.036 167.023 205.332 167.023C206.622 167.023 207.723 167.308 208.635 167.878C209.553 168.442 210.252 169.231 210.732 170.245C211.212 171.259 211.452 172.435 211.452 173.773C211.452 175.111 211.212 176.287 210.732 177.301C210.252 178.315 209.553 179.107 208.635 179.677C207.723 180.241 206.622 180.523 205.332 180.523ZM205.332 178.732C206.25 178.744 207.012 178.543 207.618 178.129C208.23 177.709 208.689 177.127 208.995 176.383C209.301 175.633 209.454 174.763 209.454 173.773C209.454 172.783 209.301 171.919 208.995 171.181C208.689 170.437 208.23 169.858 207.618 169.444C207.012 169.03 206.25 168.82 205.332 168.814C204.414 168.802 203.649 169.003 203.037 169.417C202.431 169.831 201.975 170.413 201.669 171.163C201.363 171.913 201.207 172.783 201.201 173.773C201.195 174.763 201.345 175.63 201.651 176.374C201.957 177.112 202.416 177.688 203.028 178.102C203.646 178.516 204.414 178.726 205.332 178.732ZM212.887 180.253V167.293H214.795L221.176 176.923V167.293H223.084V180.253H221.176L214.795 170.614V180.253H212.887Z" fill="white" style="fill:white;fill-opacity:1;"/>
<defs>
<linearGradient id="paint0_linear_4013_294" x1="139" y1="0.252686" x2="139" y2="260.253" gradientUnits="userSpaceOnUse">
<stop stop-color="#06A5FF" style="stop-color:#06A5FF;stop-color:color(display-p3 0.0222 0.6480 1.0000);stop-opacity:1;"/>
<stop offset="1" stop-color="#0C0C0C" style="stop-color:#0C0C0C;stop-color:color(display-p3 0.0486 0.0478 0.0478);stop-opacity:1;"/>
</linearGradient>
<clipPath id="clip0_4013_294">
<rect width="76" height="76" fill="white" style="fill:white;fill-opacity:1;" transform="translate(101 76.2527)"/>
</clipPath>
</defs>
</svg>
