<svg width="278" height="261" viewBox="0 0 278 261" fill="none" xmlns="http://www.w3.org/2000/svg">
<rect x="0.5" y="0.752686" width="277" height="259" rx="3.5" fill="url(#paint0_linear_4013_294)" style=""/>
<rect x="0.5" y="0.752686" width="277" height="259" rx="3.5" stroke="black" style="stroke:black;stroke-opacity:1;"/>
<g clip-path="url(#clip0_4013_294)">
<path d="M160.375 121.378L148.5 133.253L129.5 128.503L112.875 116.628" stroke="black" style="stroke:black;stroke-opacity:1;" stroke-width="1.5" stroke-linecap="round" stroke-linejoin="round"/>
<path d="M122.577 97.221L139 92.8777L155.423 97.221" stroke="black" style="stroke:black;stroke-opacity:1;" stroke-width="1.5" stroke-linecap="round" stroke-linejoin="round"/>
<path d="M111.204 94.1898L103.627 109.348C103.346 109.911 103.299 110.563 103.498 111.16C103.697 111.758 104.124 112.252 104.687 112.534L112.875 116.628L122.577 97.2209L114.392 93.1299C114.113 92.9901 113.809 92.9065 113.498 92.8841C113.187 92.8616 112.874 92.9008 112.578 92.9992C112.282 93.0976 112.008 93.2534 111.772 93.4577C111.537 93.662 111.343 93.9108 111.204 94.1898Z" stroke="black" style="stroke:black;stroke-opacity:1;" stroke-width="1.5" stroke-linecap="round" stroke-linejoin="round"/>
<path d="M165.125 116.628L173.313 112.534C173.876 112.252 174.303 111.758 174.502 111.16C174.701 110.563 174.654 109.911 174.373 109.348L166.796 94.1898C166.657 93.9108 166.463 93.662 166.228 93.4577C165.992 93.2534 165.718 93.0976 165.422 92.9992C165.126 92.9008 164.813 92.8616 164.502 92.8841C164.191 92.9065 163.887 92.9901 163.608 93.1299L155.423 97.2209L165.125 116.628Z" stroke="black" style="stroke:black;stroke-opacity:1;" stroke-width="1.5" stroke-linecap="round" stroke-linejoin="round"/>
<path d="M155.625 97.6277H143.75L130.195 110.776C129.943 111.028 129.75 111.333 129.633 111.67C129.515 112.006 129.474 112.364 129.513 112.718C129.552 113.072 129.671 113.413 129.86 113.715C130.049 114.017 130.303 114.273 130.604 114.463C135.803 117.785 142.859 117.557 148.5 111.878L160.375 121.378L165.125 116.628" stroke="black" style="stroke:black;stroke-opacity:1;" stroke-width="1.5" stroke-linecap="round" stroke-linejoin="round"/>
<path d="M137.83 140.378L125.445 137.281L117.625 131.694" stroke="black" style="stroke:black;stroke-opacity:1;" stroke-width="1.5" stroke-linecap="round" stroke-linejoin="round"/>
</g>
<path d="M69.519 180.523C68.589 180.523 67.749 180.364 66.999 180.046C66.255 179.722 65.64 179.263 65.154 178.669C64.674 178.069 64.362 177.358 64.218 176.536L66.18 176.239C66.378 177.031 66.792 177.649 67.422 178.093C68.052 178.531 68.787 178.75 69.627 178.75C70.149 178.75 70.629 178.669 71.067 178.507C71.505 178.339 71.856 178.102 72.12 177.796C72.39 177.484 72.525 177.112 72.525 176.68C72.525 176.446 72.483 176.239 72.399 176.059C72.321 175.879 72.21 175.723 72.066 175.591C71.928 175.453 71.757 175.336 71.553 175.24C71.355 175.138 71.136 175.051 70.896 174.979L67.575 173.998C67.251 173.902 66.921 173.779 66.585 173.629C66.249 173.473 65.94 173.272 65.658 173.026C65.382 172.774 65.157 172.465 64.983 172.099C64.809 171.727 64.722 171.277 64.722 170.749C64.722 169.951 64.926 169.276 65.334 168.724C65.748 168.166 66.306 167.746 67.008 167.464C67.71 167.176 68.496 167.032 69.366 167.032C70.242 167.044 71.025 167.2 71.715 167.5C72.411 167.8 72.987 168.232 73.443 168.796C73.905 169.354 74.223 170.032 74.397 170.83L72.381 171.172C72.291 170.686 72.099 170.269 71.805 169.921C71.511 169.567 71.151 169.297 70.725 169.111C70.299 168.919 69.837 168.82 69.339 168.814C68.859 168.802 68.418 168.874 68.016 169.03C67.62 169.186 67.302 169.405 67.062 169.687C66.828 169.969 66.711 170.293 66.711 170.659C66.711 171.019 66.816 171.31 67.026 171.532C67.236 171.754 67.494 171.931 67.8 172.063C68.112 172.189 68.421 172.294 68.727 172.378L71.121 173.053C71.421 173.137 71.76 173.251 72.138 173.395C72.522 173.533 72.891 173.728 73.245 173.98C73.605 174.232 73.902 174.568 74.136 174.988C74.37 175.402 74.487 175.924 74.487 176.554C74.487 177.208 74.355 177.784 74.091 178.282C73.827 178.774 73.464 179.188 73.002 179.524C72.546 179.854 72.018 180.103 71.418 180.271C70.818 180.439 70.185 180.523 69.519 180.523ZM76.045 180.253V167.293H84.325V169.066H77.926V172.702H83.245V174.475H77.926V178.48H84.325V180.253H76.045ZM90.9905 180.523C89.6945 180.523 88.5905 180.241 87.6785 179.677C86.7665 179.107 86.0675 178.315 85.5815 177.301C85.1015 176.287 84.8615 175.111 84.8615 173.773C84.8615 172.435 85.1015 171.259 85.5815 170.245C86.0675 169.231 86.7665 168.442 87.6785 167.878C88.5905 167.308 89.6945 167.023 90.9905 167.023C92.2805 167.023 93.3815 167.308 94.2935 167.878C95.2115 168.442 95.9105 169.231 96.3905 170.245C96.8705 171.259 97.1105 172.435 97.1105 173.773C97.1105 175.111 96.8705 176.287 96.3905 177.301C95.9105 178.315 95.2115 179.107 94.2935 179.677C93.3815 180.241 92.2805 180.523 90.9905 180.523ZM90.9905 178.732C91.9085 178.744 92.6705 178.543 93.2765 178.129C93.8885 177.709 94.3475 177.127 94.6535 176.383C94.9595 175.633 95.1125 174.763 95.1125 173.773C95.1125 172.783 94.9595 171.919 94.6535 171.181C94.3475 170.437 93.8885 169.858 93.2765 169.444C92.6705 169.03 91.9085 168.82 90.9905 168.814C90.0725 168.802 89.3075 169.003 88.6955 169.417C88.0895 169.831 87.6335 170.413 87.3275 171.163C87.0215 171.913 86.8655 172.783 86.8595 173.773C86.8535 174.763 87.0035 175.63 87.3095 176.374C87.6155 177.112 88.0745 177.688 88.6865 178.102C89.3045 178.516 90.0725 178.726 90.9905 178.732ZM106.046 180.523C105.32 180.523 104.642 180.418 104.012 180.208C103.382 179.992 102.854 179.656 102.428 179.2C102.098 178.834 101.852 178.432 101.69 177.994C101.534 177.55 101.447 177.079 101.429 176.581C101.429 176.095 101.498 175.624 101.636 175.168C101.78 174.706 102.005 174.295 102.311 173.935C102.449 173.767 102.602 173.623 102.77 173.503C102.938 173.377 103.106 173.266 103.274 173.17C102.89 172.75 102.599 172.351 102.401 171.973C102.203 171.589 102.104 171.136 102.104 170.614C102.104 169.882 102.296 169.225 102.68 168.643C103.064 168.055 103.589 167.632 104.255 167.374C104.561 167.248 104.873 167.164 105.191 167.122C105.509 167.074 105.818 167.05 106.118 167.05C106.658 167.05 107.18 167.128 107.684 167.284C108.188 167.44 108.62 167.695 108.98 168.049C109.208 168.259 109.4 168.496 109.556 168.76C109.718 169.024 109.841 169.294 109.925 169.57L108.071 170.002C107.969 169.714 107.801 169.471 107.567 169.273C107.369 169.099 107.138 168.982 106.874 168.922C106.616 168.856 106.358 168.823 106.1 168.823C105.674 168.823 105.29 168.904 104.948 169.066C104.636 169.216 104.402 169.423 104.246 169.687C104.09 169.945 104.012 170.257 104.012 170.623C104.012 170.947 104.069 171.208 104.183 171.406C104.297 171.604 104.45 171.811 104.642 172.027C104.756 172.153 104.891 172.288 105.047 172.432C105.209 172.576 105.374 172.726 105.542 172.882L109.07 176.167C109.082 176.035 109.091 175.894 109.097 175.744C109.103 175.594 109.106 175.45 109.106 175.312L109.097 173.629H110.78V175.852C110.78 176.23 110.768 176.572 110.744 176.878C110.726 177.178 110.69 177.424 110.636 177.616L112.256 179.119L111.041 180.424L109.736 179.182C109.46 179.458 109.151 179.692 108.809 179.884C108.467 180.07 108.122 180.208 107.774 180.298C107.48 180.388 107.189 180.448 106.901 180.478C106.619 180.508 106.334 180.523 106.046 180.523ZM106.1 178.723C106.34 178.723 106.562 178.711 106.766 178.687C106.97 178.657 107.165 178.603 107.351 178.525C107.603 178.423 107.807 178.318 107.963 178.21C108.125 178.102 108.26 177.997 108.368 177.895L104.678 174.511C104.492 174.577 104.318 174.664 104.156 174.772C104 174.874 103.865 174.994 103.751 175.132C103.613 175.306 103.508 175.51 103.436 175.744C103.37 175.972 103.34 176.218 103.346 176.482C103.346 176.77 103.391 177.034 103.481 177.274C103.577 177.508 103.7 177.718 103.85 177.904C104.09 178.192 104.423 178.402 104.849 178.534C105.281 178.66 105.698 178.723 106.1 178.723ZM116.591 180.253V167.293H118.292L122.99 177.04L127.661 167.293H129.38V180.244H127.598V171.379L123.413 180.253H122.558L118.364 171.379V180.253H116.591ZM130.641 180.253L134.853 167.293H137.562L141.774 180.253H139.821L135.942 168.427H136.428L132.594 180.253H130.641ZM132.828 177.328V175.564H139.596V177.328H132.828ZM143.029 180.253V167.293H148.267C148.393 167.293 148.549 167.299 148.735 167.311C148.921 167.317 149.098 167.335 149.266 167.365C149.986 167.479 150.586 167.725 151.066 168.103C151.552 168.481 151.915 168.958 152.155 169.534C152.395 170.11 152.515 170.746 152.515 171.442C152.515 172.474 152.251 173.365 151.723 174.115C151.195 174.859 150.403 175.324 149.347 175.51L148.582 175.6H144.91V180.253H143.029ZM150.607 180.253L148.051 174.979L149.95 174.493L152.758 180.253H150.607ZM144.91 173.818H148.195C148.315 173.818 148.447 173.812 148.591 173.8C148.741 173.788 148.882 173.767 149.014 173.737C149.398 173.647 149.707 173.482 149.941 173.242C150.175 172.996 150.343 172.714 150.445 172.396C150.547 172.078 150.598 171.76 150.598 171.442C150.598 171.124 150.547 170.809 150.445 170.497C150.343 170.179 150.175 169.9 149.941 169.66C149.707 169.414 149.398 169.246 149.014 169.156C148.882 169.12 148.741 169.096 148.591 169.084C148.447 169.072 148.315 169.066 148.195 169.066H144.91V173.818ZM154.376 180.253V167.293H156.257V173.341L161.684 167.293H164.024L158.291 173.62L164.447 180.253H162.035L156.257 174.061V180.253H154.376ZM165.354 180.253V167.293H173.634V169.066H167.235V172.702H172.554V174.475H167.235V178.48H173.634V180.253H165.354ZM178.666 180.253V169.066H174.355V167.293H184.858V169.066H180.547V180.253H178.666ZM186.119 180.253V167.293H188V180.253H186.119ZM190.342 180.253V167.293H192.25L198.631 176.923V167.293H200.539V180.253H198.631L192.25 170.614V180.253H190.342ZM207.992 180.523C207.122 180.523 206.321 180.373 205.589 180.073C204.857 179.767 204.221 179.323 203.681 178.741C203.141 178.159 202.721 177.451 202.421 176.617C202.121 175.783 201.971 174.835 201.971 173.773C201.971 172.375 202.226 171.175 202.736 170.173C203.246 169.165 203.954 168.391 204.86 167.851C205.766 167.305 206.81 167.032 207.992 167.032C209.516 167.032 210.731 167.386 211.637 168.094C212.549 168.802 213.17 169.78 213.5 171.028L211.592 171.37C211.328 170.596 210.902 169.978 210.314 169.516C209.726 169.054 208.988 168.82 208.1 168.814C207.182 168.808 206.417 169.012 205.805 169.426C205.199 169.84 204.743 170.422 204.437 171.172C204.131 171.916 203.975 172.783 203.969 173.773C203.963 174.763 204.113 175.63 204.419 176.374C204.725 177.112 205.184 177.688 205.796 178.102C206.414 178.516 207.182 178.726 208.1 178.732C208.838 178.744 209.471 178.609 209.999 178.327C210.533 178.039 210.956 177.619 211.268 177.067C211.58 176.515 211.781 175.837 211.871 175.033H209.351V173.521H213.869C213.881 173.629 213.89 173.773 213.896 173.953C213.902 174.127 213.905 174.238 213.905 174.286C213.905 175.486 213.674 176.557 213.212 177.499C212.75 178.441 212.078 179.182 211.196 179.722C210.314 180.256 209.246 180.523 207.992 180.523Z" fill="white" style="fill:white;fill-opacity:1;"/>
<defs>
<linearGradient id="paint0_linear_4013_294" x1="139" y1="0.252686" x2="139" y2="260.253" gradientUnits="userSpaceOnUse">
<stop stop-color="#06A5FF" style="stop-color:#06A5FF;stop-color:color(display-p3 0.0222 0.6480 1.0000);stop-opacity:1;"/>
<stop offset="1" stop-color="#0C0C0C" style="stop-color:#0C0C0C;stop-color:color(display-p3 0.0486 0.0478 0.0478);stop-opacity:1;"/>
</linearGradient>
<clipPath id="clip0_4013_294">
<rect width="76" height="76" fill="white" style="fill:white;fill-opacity:1;" transform="translate(101 76.2527)"/>
</clipPath>
</defs>
</svg>
