<svg width="278" height="261" viewBox="0 0 278 261" fill="none" xmlns="http://www.w3.org/2000/svg">
<rect x="0.5" y="0.752686" width="277" height="259" rx="3.5" fill="url(#paint0_linear_4013_294)" style=""/>
<rect x="0.5" y="0.752686" width="277" height="259" rx="3.5" stroke="black" style="stroke:black;stroke-opacity:1;"/>
<path d="M139 84.6694H127.479C124.424 84.6694 121.493 85.7603 119.333 87.7021C117.172 89.6439 115.958 92.2775 115.958 95.0236C115.958 97.7697 117.172 100.403 119.333 102.345C121.493 104.287 124.424 105.378 127.479 105.378M139 84.6694V105.378M139 84.6694H150.521C152.034 84.6694 153.532 84.9373 154.93 85.4576C156.327 85.9779 157.597 86.7406 158.667 87.7021C159.737 88.6636 160.586 89.805 161.165 91.0612C161.744 92.3175 162.042 93.6639 162.042 95.0236C162.042 96.3833 161.744 97.7297 161.165 98.986C160.586 100.242 159.737 101.384 158.667 102.345C157.597 103.307 156.327 104.069 154.93 104.59C153.532 105.11 152.034 105.378 150.521 105.378M139 105.378H127.479M139 105.378H150.521M139 105.378V126.086M127.479 105.378C124.424 105.378 121.493 106.469 119.333 108.41C117.172 110.352 115.958 112.986 115.958 115.732C115.958 118.478 117.172 121.112 119.333 123.053C121.493 124.995 124.424 126.086 127.479 126.086M150.521 105.378C149.008 105.378 147.51 105.646 146.112 106.166C144.714 106.686 143.444 107.449 142.374 108.41C141.304 109.372 140.456 110.513 139.877 111.77C139.298 113.026 139 114.372 139 115.732C139 117.092 139.298 118.438 139.877 119.694C140.456 120.951 141.304 122.092 142.374 123.053C143.444 124.015 144.714 124.778 146.112 125.298C147.51 125.818 149.008 126.086 150.521 126.086C152.034 126.086 153.532 125.818 154.93 125.298C156.327 124.778 157.597 124.015 158.667 123.053C159.737 122.092 160.586 120.951 161.165 119.694C161.744 118.438 162.042 117.092 162.042 115.732C162.042 114.372 161.744 113.026 161.165 111.77C160.586 110.513 159.737 109.372 158.667 108.41C157.597 107.449 156.327 106.686 154.93 106.166C153.532 105.646 152.034 105.378 150.521 105.378ZM127.479 126.086C124.424 126.086 121.493 127.177 119.333 129.119C117.172 131.061 115.958 133.694 115.958 136.44C115.958 139.186 117.172 141.82 119.333 143.762C121.493 145.704 124.424 146.794 127.479 146.794C130.535 146.794 133.465 145.704 135.626 143.762C137.786 141.82 139 139.186 139 136.44V126.086M127.479 126.086H139" stroke="#1E1E1E" style="stroke:#1E1E1E;stroke:color(display-p3 0.1176 0.1176 0.1176);stroke-opacity:1;" stroke-width="4" stroke-linecap="round" stroke-linejoin="round"/>
<path d="M88.5193 178.023C87.5053 178.023 86.6083 177.816 85.8283 177.402C85.0543 176.982 84.4483 176.397 84.0103 175.647C83.5723 174.891 83.3533 174.003 83.3533 172.983V164.802L85.2613 164.793V172.884C85.2613 173.436 85.3543 173.922 85.5403 174.342C85.7263 174.762 85.9753 175.113 86.2873 175.395C86.5993 175.677 86.9473 175.89 87.3313 176.034C87.7213 176.178 88.1173 176.25 88.5193 176.25C88.9273 176.25 89.3233 176.178 89.7073 176.034C90.0973 175.884 90.4483 175.668 90.7603 175.386C91.0723 175.104 91.3183 174.753 91.4983 174.333C91.6843 173.913 91.7773 173.43 91.7773 172.884V164.793H93.6853V172.983C93.6853 173.997 93.4663 174.882 93.0283 175.638C92.5903 176.394 91.9813 176.982 91.2013 177.402C90.4273 177.816 89.5333 178.023 88.5193 178.023ZM96.0229 177.753V164.793H97.9039V177.753H96.0229ZM103.523 164.793H105.422L101.966 177.753H100.067L103.523 164.793ZM112.576 178.023C111.562 178.023 110.665 177.816 109.885 177.402C109.111 176.982 108.505 176.397 108.067 175.647C107.629 174.891 107.41 174.003 107.41 172.983V164.802L109.318 164.793V172.884C109.318 173.436 109.411 173.922 109.597 174.342C109.783 174.762 110.032 175.113 110.344 175.395C110.656 175.677 111.004 175.89 111.388 176.034C111.778 176.178 112.174 176.25 112.576 176.25C112.984 176.25 113.38 176.178 113.764 176.034C114.154 175.884 114.505 175.668 114.817 175.386C115.129 175.104 115.375 174.753 115.555 174.333C115.741 173.913 115.834 173.43 115.834 172.884V164.793H117.742V172.983C117.742 173.997 117.523 174.882 117.085 175.638C116.647 176.394 116.038 176.982 115.258 177.402C114.484 177.816 113.59 178.023 112.576 178.023ZM118.82 177.753L123.239 171.192L118.937 164.793H121.241L124.4 169.599L127.541 164.793H129.854L125.552 171.192L129.962 177.753H127.658L124.4 172.794L121.133 177.753H118.82ZM134.279 177.753V164.793H138.338C138.458 164.793 138.68 164.796 139.004 164.802C139.334 164.808 139.649 164.832 139.949 164.874C140.963 165 141.815 165.363 142.505 165.963C143.201 166.563 143.726 167.325 144.08 168.249C144.434 169.167 144.611 170.175 144.611 171.273C144.611 172.377 144.434 173.391 144.08 174.315C143.726 175.233 143.201 175.992 142.505 176.592C141.815 177.186 140.963 177.546 139.949 177.672C139.649 177.714 139.334 177.738 139.004 177.744C138.68 177.75 138.458 177.753 138.338 177.753H134.279ZM136.205 175.962H138.338C138.542 175.962 138.785 175.956 139.067 175.944C139.349 175.932 139.598 175.908 139.814 175.872C140.474 175.746 141.008 175.461 141.416 175.017C141.83 174.567 142.133 174.015 142.325 173.361C142.517 172.707 142.613 172.011 142.613 171.273C142.613 170.511 142.514 169.806 142.316 169.158C142.118 168.504 141.812 167.958 141.398 167.52C140.99 167.076 140.462 166.794 139.814 166.674C139.598 166.632 139.346 166.608 139.058 166.602C138.776 166.59 138.536 166.584 138.338 166.584H136.205V175.962ZM146.347 177.753V164.793H154.627V166.566H148.228V170.202H153.547V171.975H148.228V175.98H154.627V177.753H146.347ZM160.88 178.023C159.95 178.023 159.11 177.864 158.36 177.546C157.616 177.222 157.001 176.763 156.515 176.169C156.035 175.569 155.723 174.858 155.579 174.036L157.541 173.739C157.739 174.531 158.153 175.149 158.783 175.593C159.413 176.031 160.148 176.25 160.988 176.25C161.51 176.25 161.99 176.169 162.428 176.007C162.866 175.839 163.217 175.602 163.481 175.296C163.751 174.984 163.886 174.612 163.886 174.18C163.886 173.946 163.844 173.739 163.76 173.559C163.682 173.379 163.571 173.223 163.427 173.091C163.289 172.953 163.118 172.836 162.914 172.74C162.716 172.638 162.497 172.551 162.257 172.479L158.936 171.498C158.612 171.402 158.282 171.279 157.946 171.129C157.61 170.973 157.301 170.772 157.019 170.526C156.743 170.274 156.518 169.965 156.344 169.599C156.17 169.227 156.083 168.777 156.083 168.249C156.083 167.451 156.287 166.776 156.695 166.224C157.109 165.666 157.667 165.246 158.369 164.964C159.071 164.676 159.857 164.532 160.727 164.532C161.603 164.544 162.386 164.7 163.076 165C163.772 165.3 164.348 165.732 164.804 166.296C165.266 166.854 165.584 167.532 165.758 168.33L163.742 168.672C163.652 168.186 163.46 167.769 163.166 167.421C162.872 167.067 162.512 166.797 162.086 166.611C161.66 166.419 161.198 166.32 160.7 166.314C160.22 166.302 159.779 166.374 159.377 166.53C158.981 166.686 158.663 166.905 158.423 167.187C158.189 167.469 158.072 167.793 158.072 168.159C158.072 168.519 158.177 168.81 158.387 169.032C158.597 169.254 158.855 169.431 159.161 169.563C159.473 169.689 159.782 169.794 160.088 169.878L162.482 170.553C162.782 170.637 163.121 170.751 163.499 170.895C163.883 171.033 164.252 171.228 164.606 171.48C164.966 171.732 165.263 172.068 165.497 172.488C165.731 172.902 165.848 173.424 165.848 174.054C165.848 174.708 165.716 175.284 165.452 175.782C165.188 176.274 164.825 176.688 164.363 177.024C163.907 177.354 163.379 177.603 162.779 177.771C162.179 177.939 161.546 178.023 160.88 178.023ZM167.586 177.753V164.793H169.467V177.753H167.586ZM177.111 178.023C176.241 178.023 175.44 177.873 174.708 177.573C173.976 177.267 173.34 176.823 172.8 176.241C172.26 175.659 171.84 174.951 171.54 174.117C171.24 173.283 171.09 172.335 171.09 171.273C171.09 169.875 171.345 168.675 171.855 167.673C172.365 166.665 173.073 165.891 173.979 165.351C174.885 164.805 175.929 164.532 177.111 164.532C178.635 164.532 179.85 164.886 180.756 165.594C181.668 166.302 182.289 167.28 182.619 168.528L180.711 168.87C180.447 168.096 180.021 167.478 179.433 167.016C178.845 166.554 178.107 166.32 177.219 166.314C176.301 166.308 175.536 166.512 174.924 166.926C174.318 167.34 173.862 167.922 173.556 168.672C173.25 169.416 173.094 170.283 173.088 171.273C173.082 172.263 173.232 173.13 173.538 173.874C173.844 174.612 174.303 175.188 174.915 175.602C175.533 176.016 176.301 176.226 177.219 176.232C177.957 176.244 178.59 176.109 179.118 175.827C179.652 175.539 180.075 175.119 180.387 174.567C180.699 174.015 180.9 173.337 180.99 172.533H178.47V171.021H182.988C183 171.129 183.009 171.273 183.015 171.453C183.021 171.627 183.024 171.738 183.024 171.786C183.024 172.986 182.793 174.057 182.331 174.999C181.869 175.941 181.197 176.682 180.315 177.222C179.433 177.756 178.365 178.023 177.111 178.023ZM184.458 177.753V164.793H186.366L192.747 174.423V164.793H194.655V177.753H192.747L186.366 168.114V177.753H184.458Z" fill="white" style="fill:white;fill-opacity:1;"/>
<defs>
<linearGradient id="paint0_linear_4013_294" x1="139" y1="0.252686" x2="139" y2="260.253" gradientUnits="userSpaceOnUse">
<stop stop-color="#06A5FF" style="stop-color:#06A5FF;stop-color:color(display-p3 0.0222 0.6480 1.0000);stop-opacity:1;"/>
<stop offset="1" stop-color="#0C0C0C" style="stop-color:#0C0C0C;stop-color:color(display-p3 0.0486 0.0478 0.0478);stop-opacity:1;"/>
</linearGradient>
</defs>
</svg>
