<svg width="278" height="261" viewBox="0 0 278 261" fill="none" xmlns="http://www.w3.org/2000/svg">
<rect x="0.5" y="0.752686" width="277" height="259" rx="3.5" fill="url(#paint0_linear_4013_294)" style=""/>
<rect x="0.5" y="0.752686" width="277" height="259" rx="3.5" stroke="black" style="stroke:black;stroke-opacity:1;"/>
<g clip-path="url(#clip0_4013_294)">
<path d="M160.375 121.378L148.5 133.253L129.5 128.503L112.875 116.628" stroke="black" style="stroke:black;stroke-opacity:1;" stroke-width="1.5" stroke-linecap="round" stroke-linejoin="round"/>
<path d="M122.577 97.221L139 92.8777L155.423 97.221" stroke="black" style="stroke:black;stroke-opacity:1;" stroke-width="1.5" stroke-linecap="round" stroke-linejoin="round"/>
<path d="M111.204 94.1898L103.627 109.348C103.346 109.911 103.299 110.563 103.498 111.16C103.697 111.758 104.124 112.252 104.687 112.534L112.875 116.628L122.577 97.2209L114.392 93.1299C114.113 92.9901 113.809 92.9065 113.498 92.8841C113.187 92.8616 112.874 92.9008 112.578 92.9992C112.282 93.0976 112.008 93.2534 111.772 93.4577C111.537 93.662 111.343 93.9108 111.204 94.1898Z" stroke="black" style="stroke:black;stroke-opacity:1;" stroke-width="1.5" stroke-linecap="round" stroke-linejoin="round"/>
<path d="M165.125 116.628L173.313 112.534C173.876 112.252 174.303 111.758 174.502 111.16C174.701 110.563 174.654 109.911 174.373 109.348L166.796 94.1898C166.657 93.9108 166.463 93.662 166.228 93.4577C165.992 93.2534 165.718 93.0976 165.422 92.9992C165.126 92.9008 164.813 92.8616 164.502 92.8841C164.191 92.9065 163.887 92.9901 163.608 93.1299L155.423 97.2209L165.125 116.628Z" stroke="black" style="stroke:black;stroke-opacity:1;" stroke-width="1.5" stroke-linecap="round" stroke-linejoin="round"/>
<path d="M155.625 97.6277H143.75L130.195 110.776C129.943 111.028 129.75 111.333 129.633 111.67C129.515 112.006 129.474 112.364 129.513 112.718C129.552 113.072 129.671 113.413 129.86 113.715C130.049 114.017 130.303 114.273 130.604 114.463C135.803 117.785 142.859 117.557 148.5 111.878L160.375 121.378L165.125 116.628" stroke="black" style="stroke:black;stroke-opacity:1;" stroke-width="1.5" stroke-linecap="round" stroke-linejoin="round"/>
<path d="M137.83 140.378L125.445 137.281L117.625 131.694" stroke="black" style="stroke:black;stroke-opacity:1;" stroke-width="1.5" stroke-linecap="round" stroke-linejoin="round"/>
</g>
<path d="M23.1109 180.253V167.293H27.1699C27.2899 167.293 27.5119 167.296 27.8359 167.302C28.1659 167.308 28.4809 167.332 28.7809 167.374C29.7949 167.5 30.6469 167.863 31.3369 168.463C32.0329 169.063 32.5579 169.825 32.9119 170.749C33.2659 171.667 33.4429 172.675 33.4429 173.773C33.4429 174.877 33.2659 175.891 32.9119 176.815C32.5579 177.733 32.0329 178.492 31.3369 179.092C30.6469 179.686 29.7949 180.046 28.7809 180.172C28.4809 180.214 28.1659 180.238 27.8359 180.244C27.5119 180.25 27.2899 180.253 27.1699 180.253H23.1109ZM25.0369 178.462H27.1699C27.3739 178.462 27.6169 178.456 27.8989 178.444C28.1809 178.432 28.4299 178.408 28.6459 178.372C29.3059 178.246 29.8399 177.961 30.2479 177.517C30.6619 177.067 30.9649 176.515 31.1569 175.861C31.3489 175.207 31.4449 174.511 31.4449 173.773C31.4449 173.011 31.3459 172.306 31.1479 171.658C30.9499 171.004 30.6439 170.458 30.2299 170.02C29.8219 169.576 29.2939 169.294 28.6459 169.174C28.4299 169.132 28.1779 169.108 27.8899 169.102C27.6079 169.09 27.3679 169.084 27.1699 169.084H25.0369V178.462ZM35.3587 180.253V167.293H37.2397V180.253H35.3587ZM44.8833 180.523C44.0133 180.523 43.2123 180.373 42.4803 180.073C41.7483 179.767 41.1123 179.323 40.5723 178.741C40.0323 178.159 39.6123 177.451 39.3123 176.617C39.0123 175.783 38.8623 174.835 38.8623 173.773C38.8623 172.375 39.1173 171.175 39.6273 170.173C40.1373 169.165 40.8453 168.391 41.7513 167.851C42.6573 167.305 43.7013 167.032 44.8833 167.032C46.4073 167.032 47.6223 167.386 48.5283 168.094C49.4403 168.802 50.0613 169.78 50.3913 171.028L48.4833 171.37C48.2193 170.596 47.7933 169.978 47.2053 169.516C46.6173 169.054 45.8793 168.82 44.9913 168.814C44.0733 168.808 43.3083 169.012 42.6963 169.426C42.0903 169.84 41.6343 170.422 41.3283 171.172C41.0223 171.916 40.8663 172.783 40.8603 173.773C40.8543 174.763 41.0043 175.63 41.3103 176.374C41.6163 177.112 42.0753 177.688 42.6873 178.102C43.3053 178.516 44.0733 178.726 44.9913 178.732C45.7293 178.744 46.3623 178.609 46.8903 178.327C47.4243 178.039 47.8473 177.619 48.1593 177.067C48.4713 176.515 48.6723 175.837 48.7623 175.033H46.2423V173.521H50.7603C50.7723 173.629 50.7813 173.773 50.7873 173.953C50.7933 174.127 50.7963 174.238 50.7963 174.286C50.7963 175.486 50.5653 176.557 50.1033 177.499C49.6413 178.441 48.9693 179.182 48.0873 179.722C47.2053 180.256 46.1373 180.523 44.8833 180.523ZM52.4102 180.253V167.293H54.2912V180.253H52.4102ZM59.8648 180.253V169.066H55.5538V167.293H66.0568V169.066H61.7458V180.253H59.8648ZM65.8855 180.253L70.0975 167.293H72.8065L77.0185 180.253H75.0655L71.1865 168.427H71.6725L67.8385 180.253H65.8855ZM68.0725 177.328V175.564H74.8405V177.328H68.0725ZM78.4532 180.253V167.293H80.3342V178.48H86.2022V180.253H78.4532ZM89.7173 180.253V167.293H94.9553C95.0813 167.293 95.2373 167.299 95.4233 167.311C95.6093 167.317 95.7863 167.335 95.9543 167.365C96.6743 167.479 97.2743 167.725 97.7543 168.103C98.2403 168.481 98.6033 168.958 98.8433 169.534C99.0833 170.11 99.2033 170.746 99.2033 171.442C99.2033 172.144 99.0833 172.783 98.8433 173.359C98.6033 173.935 98.2403 174.412 97.7543 174.79C97.2743 175.168 96.6743 175.414 95.9543 175.528C95.7863 175.552 95.6063 175.57 95.4143 175.582C95.2283 175.594 95.0753 175.6 94.9553 175.6H91.5983V180.253H89.7173ZM91.5983 173.818H94.8833C95.0033 173.818 95.1353 173.812 95.2793 173.8C95.4293 173.788 95.5703 173.767 95.7023 173.737C96.0863 173.647 96.3953 173.482 96.6293 173.242C96.8633 172.996 97.0313 172.714 97.1333 172.396C97.2353 172.078 97.2863 171.76 97.2863 171.442C97.2863 171.124 97.2353 170.809 97.1333 170.497C97.0313 170.179 96.8633 169.9 96.6293 169.66C96.3953 169.414 96.0863 169.246 95.7023 169.156C95.5703 169.12 95.4293 169.096 95.2793 169.084C95.1353 169.072 95.0033 169.066 94.8833 169.066H91.5983V173.818ZM98.8459 180.253L103.058 167.293H105.767L109.979 180.253H108.026L104.147 168.427H104.633L100.799 180.253H98.8459ZM101.033 177.328V175.564H107.801V177.328H101.033ZM113.284 180.253V174.898L108.901 167.293H111.097L114.238 172.738L117.379 167.293H119.575L115.192 174.898V180.253H113.284ZM120.471 180.253V167.293H122.172L126.87 177.04L131.541 167.293H133.26V180.244H131.478V171.379L127.293 180.253H126.438L122.244 171.379V180.253H120.471ZM135.422 180.253V167.293H143.702V169.066H137.303V172.702H142.622V174.475H137.303V178.48H143.702V180.253H135.422ZM145.503 180.253V167.293H147.411L153.792 176.923V167.293H155.7V180.253H153.792L147.411 170.614V180.253H145.503ZM161.083 180.253V169.066H156.772V167.293H167.275V169.066H162.964V180.253H161.083ZM175.752 180.523C174.822 180.523 173.982 180.364 173.232 180.046C172.488 179.722 171.873 179.263 171.387 178.669C170.907 178.069 170.595 177.358 170.451 176.536L172.413 176.239C172.611 177.031 173.025 177.649 173.655 178.093C174.285 178.531 175.02 178.75 175.86 178.75C176.382 178.75 176.862 178.669 177.3 178.507C177.738 178.339 178.089 178.102 178.353 177.796C178.623 177.484 178.758 177.112 178.758 176.68C178.758 176.446 178.716 176.239 178.632 176.059C178.554 175.879 178.443 175.723 178.299 175.591C178.161 175.453 177.99 175.336 177.786 175.24C177.588 175.138 177.369 175.051 177.129 174.979L173.808 173.998C173.484 173.902 173.154 173.779 172.818 173.629C172.482 173.473 172.173 173.272 171.891 173.026C171.615 172.774 171.39 172.465 171.216 172.099C171.042 171.727 170.955 171.277 170.955 170.749C170.955 169.951 171.159 169.276 171.567 168.724C171.981 168.166 172.539 167.746 173.241 167.464C173.943 167.176 174.729 167.032 175.599 167.032C176.475 167.044 177.258 167.2 177.948 167.5C178.644 167.8 179.22 168.232 179.676 168.796C180.138 169.354 180.456 170.032 180.63 170.83L178.614 171.172C178.524 170.686 178.332 170.269 178.038 169.921C177.744 169.567 177.384 169.297 176.958 169.111C176.532 168.919 176.07 168.82 175.572 168.814C175.092 168.802 174.651 168.874 174.249 169.03C173.853 169.186 173.535 169.405 173.295 169.687C173.061 169.969 172.944 170.293 172.944 170.659C172.944 171.019 173.049 171.31 173.259 171.532C173.469 171.754 173.727 171.931 174.033 172.063C174.345 172.189 174.654 172.294 174.96 172.378L177.354 173.053C177.654 173.137 177.993 173.251 178.371 173.395C178.755 173.533 179.124 173.728 179.478 173.98C179.838 174.232 180.135 174.568 180.369 174.988C180.603 175.402 180.72 175.924 180.72 176.554C180.72 177.208 180.588 177.784 180.324 178.282C180.06 178.774 179.697 179.188 179.235 179.524C178.779 179.854 178.251 180.103 177.651 180.271C177.051 180.439 176.418 180.523 175.752 180.523ZM187.687 180.523C186.391 180.523 185.287 180.241 184.375 179.677C183.463 179.107 182.764 178.315 182.278 177.301C181.798 176.287 181.558 175.111 181.558 173.773C181.558 172.435 181.798 171.259 182.278 170.245C182.764 169.231 183.463 168.442 184.375 167.878C185.287 167.308 186.391 167.023 187.687 167.023C188.977 167.023 190.078 167.308 190.99 167.878C191.908 168.442 192.607 169.231 193.087 170.245C193.567 171.259 193.807 172.435 193.807 173.773C193.807 175.111 193.567 176.287 193.087 177.301C192.607 178.315 191.908 179.107 190.99 179.677C190.078 180.241 188.977 180.523 187.687 180.523ZM187.687 178.732C188.605 178.744 189.367 178.543 189.973 178.129C190.585 177.709 191.044 177.127 191.35 176.383C191.656 175.633 191.809 174.763 191.809 173.773C191.809 172.783 191.656 171.919 191.35 171.181C191.044 170.437 190.585 169.858 189.973 169.444C189.367 169.03 188.605 168.82 187.687 168.814C186.769 168.802 186.004 169.003 185.392 169.417C184.786 169.831 184.33 170.413 184.024 171.163C183.718 171.913 183.562 172.783 183.556 173.773C183.55 174.763 183.7 175.63 184.006 176.374C184.312 177.112 184.771 177.688 185.383 178.102C186.001 178.516 186.769 178.726 187.687 178.732ZM195.422 180.253V167.293H197.303V178.48H203.171V180.253H195.422ZM209.505 180.523C208.491 180.523 207.594 180.316 206.814 179.902C206.04 179.482 205.434 178.897 204.996 178.147C204.558 177.391 204.339 176.503 204.339 175.483V167.302L206.247 167.293V175.384C206.247 175.936 206.34 176.422 206.526 176.842C206.712 177.262 206.961 177.613 207.273 177.895C207.585 178.177 207.933 178.39 208.317 178.534C208.707 178.678 209.103 178.75 209.505 178.75C209.913 178.75 210.309 178.678 210.693 178.534C211.083 178.384 211.434 178.168 211.746 177.886C212.058 177.604 212.304 177.253 212.484 176.833C212.67 176.413 212.763 175.93 212.763 175.384V167.293H214.671V175.483C214.671 176.497 214.452 177.382 214.014 178.138C213.576 178.894 212.967 179.482 212.187 179.902C211.413 180.316 210.519 180.523 209.505 180.523ZM220.06 180.253V169.066H215.749V167.293H226.252V169.066H221.941V180.253H220.06ZM227.512 180.253V167.293H229.393V180.253H227.512ZM237.145 180.523C235.849 180.523 234.745 180.241 233.833 179.677C232.921 179.107 232.222 178.315 231.736 177.301C231.256 176.287 231.016 175.111 231.016 173.773C231.016 172.435 231.256 171.259 231.736 170.245C232.222 169.231 232.921 168.442 233.833 167.878C234.745 167.308 235.849 167.023 237.145 167.023C238.435 167.023 239.536 167.308 240.448 167.878C241.366 168.442 242.065 169.231 242.545 170.245C243.025 171.259 243.265 172.435 243.265 173.773C243.265 175.111 243.025 176.287 242.545 177.301C242.065 178.315 241.366 179.107 240.448 179.677C239.536 180.241 238.435 180.523 237.145 180.523ZM237.145 178.732C238.063 178.744 238.825 178.543 239.431 178.129C240.043 177.709 240.502 177.127 240.808 176.383C241.114 175.633 241.267 174.763 241.267 173.773C241.267 172.783 241.114 171.919 240.808 171.181C240.502 170.437 240.043 169.858 239.431 169.444C238.825 169.03 238.063 168.82 237.145 168.814C236.227 168.802 235.462 169.003 234.85 169.417C234.244 169.831 233.788 170.413 233.482 171.163C233.176 171.913 233.02 172.783 233.014 173.773C233.008 174.763 233.158 175.63 233.464 176.374C233.77 177.112 234.229 177.688 234.841 178.102C235.459 178.516 236.227 178.726 237.145 178.732ZM244.7 180.253V167.293H246.608L252.989 176.923V167.293H254.897V180.253H252.989L246.608 170.614V180.253H244.7Z" fill="white" style="fill:white;fill-opacity:1;"/>
<defs>
<linearGradient id="paint0_linear_4013_294" x1="139" y1="0.252686" x2="139" y2="260.253" gradientUnits="userSpaceOnUse">
<stop stop-color="#06A5FF" style="stop-color:#06A5FF;stop-color:color(display-p3 0.0222 0.6480 1.0000);stop-opacity:1;"/>
<stop offset="1" stop-color="#0C0C0C" style="stop-color:#0C0C0C;stop-color:color(display-p3 0.0486 0.0478 0.0478);stop-opacity:1;"/>
</linearGradient>
<clipPath id="clip0_4013_294">
<rect width="76" height="76" fill="white" style="fill:white;fill-opacity:1;" transform="translate(101 76.2527)"/>
</clipPath>
</defs>
</svg>
