<svg width="278" height="261" viewBox="0 0 278 261" fill="none" xmlns="http://www.w3.org/2000/svg">
<rect x="0.5" y="0.752686" width="277" height="259" rx="3.5" fill="url(#paint0_linear_4013_294)" style=""/>
<rect x="0.5" y="0.752686" width="277" height="259" rx="3.5" stroke="black" style="stroke:black;stroke-opacity:1;"/>
<g clip-path="url(#clip0_4013_294)">
<path d="M146.125 107.128H131.875V121.378H146.125V107.128Z" stroke="#292929" style="stroke:#292929;stroke:color(display-p3 0.1608 0.1608 0.1608);stroke-opacity:1;" stroke-width="1.5" stroke-linecap="round" stroke-linejoin="round"/>
<path d="M160.375 90.5027H117.625C116.313 90.5027 115.25 91.566 115.25 92.8777V135.628C115.25 136.939 116.313 138.003 117.625 138.003H160.375C161.687 138.003 162.75 136.939 162.75 135.628V92.8777C162.75 91.566 161.687 90.5027 160.375 90.5027Z" stroke="#292929" style="stroke:#292929;stroke:color(display-p3 0.1608 0.1608 0.1608);stroke-opacity:1;" stroke-width="1.5" stroke-linecap="round" stroke-linejoin="round"/>
<path d="M162.75 107.128H169.875" stroke="#292929" style="stroke:#292929;stroke:color(display-p3 0.1608 0.1608 0.1608);stroke-opacity:1;" stroke-width="1.5" stroke-linecap="round" stroke-linejoin="round"/>
<path d="M162.75 121.378H169.875" stroke="#292929" style="stroke:#292929;stroke:color(display-p3 0.1608 0.1608 0.1608);stroke-opacity:1;" stroke-width="1.5" stroke-linecap="round" stroke-linejoin="round"/>
<path d="M108.125 107.128H115.25" stroke="#292929" style="stroke:#292929;stroke:color(display-p3 0.1608 0.1608 0.1608);stroke-opacity:1;" stroke-width="1.5" stroke-linecap="round" stroke-linejoin="round"/>
<path d="M108.125 121.378H115.25" stroke="#292929" style="stroke:#292929;stroke:color(display-p3 0.1608 0.1608 0.1608);stroke-opacity:1;" stroke-width="1.5" stroke-linecap="round" stroke-linejoin="round"/>
<path d="M146.125 138.003V145.128" stroke="#292929" style="stroke:#292929;stroke:color(display-p3 0.1608 0.1608 0.1608);stroke-opacity:1;" stroke-width="1.5" stroke-linecap="round" stroke-linejoin="round"/>
<path d="M131.875 138.003V145.128" stroke="#292929" style="stroke:#292929;stroke:color(display-p3 0.1608 0.1608 0.1608);stroke-opacity:1;" stroke-width="1.5" stroke-linecap="round" stroke-linejoin="round"/>
<path d="M146.125 83.3777V90.5027" stroke="#292929" style="stroke:#292929;stroke:color(display-p3 0.1608 0.1608 0.1608);stroke-opacity:1;" stroke-width="1.5" stroke-linecap="round" stroke-linejoin="round"/>
<path d="M131.875 83.3777V90.5027" stroke="#292929" style="stroke:#292929;stroke:color(display-p3 0.1608 0.1608 0.1608);stroke-opacity:1;" stroke-width="1.5" stroke-linecap="round" stroke-linejoin="round"/>
</g>
<path d="M76.0839 180.523C74.7879 180.523 73.6839 180.241 72.7719 179.677C71.8599 179.107 71.1609 178.315 70.6749 177.301C70.1949 176.287 69.9549 175.111 69.9549 173.773C69.9549 172.435 70.1949 171.259 70.6749 170.245C71.1609 169.231 71.8599 168.442 72.7719 167.878C73.6839 167.308 74.7879 167.023 76.0839 167.023C77.5779 167.023 78.8139 167.401 79.7919 168.157C80.7759 168.913 81.4599 169.93 81.8439 171.208L79.9359 171.721C79.6839 170.815 79.2339 170.104 78.5859 169.588C77.9439 169.072 77.1099 168.814 76.0839 168.814C75.1659 168.814 74.4009 169.021 73.7889 169.435C73.1769 169.849 72.7149 170.428 72.4029 171.172C72.0969 171.916 71.9439 172.783 71.9439 173.773C71.9379 174.763 72.0879 175.63 72.3939 176.374C72.7059 177.118 73.1679 177.697 73.7799 178.111C74.3979 178.525 75.1659 178.732 76.0839 178.732C77.1099 178.732 77.9439 178.474 78.5859 177.958C79.2339 177.436 79.6839 176.725 79.9359 175.825L81.8439 176.338C81.4599 177.616 80.7759 178.633 79.7919 179.389C78.8139 180.145 77.5779 180.523 76.0839 180.523ZM83.6433 180.253V167.293H85.5243V178.48H91.3923V180.253H83.6433ZM97.6178 180.523C96.3218 180.523 95.2178 180.241 94.3058 179.677C93.3938 179.107 92.6948 178.315 92.2088 177.301C91.7288 176.287 91.4888 175.111 91.4888 173.773C91.4888 172.435 91.7288 171.259 92.2088 170.245C92.6948 169.231 93.3938 168.442 94.3058 167.878C95.2178 167.308 96.3218 167.023 97.6178 167.023C98.9078 167.023 100.009 167.308 100.921 167.878C101.839 168.442 102.538 169.231 103.018 170.245C103.498 171.259 103.738 172.435 103.738 173.773C103.738 175.111 103.498 176.287 103.018 177.301C102.538 178.315 101.839 179.107 100.921 179.677C100.009 180.241 98.9078 180.523 97.6178 180.523ZM97.6178 178.732C98.5358 178.744 99.2978 178.543 99.9038 178.129C100.516 177.709 100.975 177.127 101.281 176.383C101.587 175.633 101.74 174.763 101.74 173.773C101.74 172.783 101.587 171.919 101.281 171.181C100.975 170.437 100.516 169.858 99.9038 169.444C99.2978 169.03 98.5358 168.82 97.6178 168.814C96.6998 168.802 95.9348 169.003 95.3228 169.417C94.7168 169.831 94.2608 170.413 93.9548 171.163C93.6488 171.913 93.4928 172.783 93.4868 173.773C93.4808 174.763 93.6308 175.63 93.9368 176.374C94.2428 177.112 94.7018 177.688 95.3138 178.102C95.9318 178.516 96.6998 178.726 97.6178 178.732ZM110.339 180.523C109.325 180.523 108.428 180.316 107.648 179.902C106.874 179.482 106.268 178.897 105.83 178.147C105.392 177.391 105.173 176.503 105.173 175.483V167.302L107.081 167.293V175.384C107.081 175.936 107.174 176.422 107.36 176.842C107.546 177.262 107.795 177.613 108.107 177.895C108.419 178.177 108.767 178.39 109.151 178.534C109.541 178.678 109.937 178.75 110.339 178.75C110.747 178.75 111.143 178.678 111.527 178.534C111.917 178.384 112.268 178.168 112.58 177.886C112.892 177.604 113.138 177.253 113.318 176.833C113.504 176.413 113.597 175.93 113.597 175.384V167.293H115.505V175.483C115.505 176.497 115.286 177.382 114.848 178.138C114.41 178.894 113.801 179.482 113.021 179.902C112.247 180.316 111.353 180.523 110.339 180.523ZM117.663 180.253V167.293H121.722C121.842 167.293 122.064 167.296 122.388 167.302C122.718 167.308 123.033 167.332 123.333 167.374C124.347 167.5 125.199 167.863 125.889 168.463C126.585 169.063 127.11 169.825 127.464 170.749C127.818 171.667 127.995 172.675 127.995 173.773C127.995 174.877 127.818 175.891 127.464 176.815C127.11 177.733 126.585 178.492 125.889 179.092C125.199 179.686 124.347 180.046 123.333 180.172C123.033 180.214 122.718 180.238 122.388 180.244C122.064 180.25 121.842 180.253 121.722 180.253H117.663ZM119.589 178.462H121.722C121.926 178.462 122.169 178.456 122.451 178.444C122.733 178.432 122.982 178.408 123.198 178.372C123.858 178.246 124.392 177.961 124.8 177.517C125.214 177.067 125.517 176.515 125.709 175.861C125.901 175.207 125.997 174.511 125.997 173.773C125.997 173.011 125.898 172.306 125.7 171.658C125.502 171.004 125.196 170.458 124.782 170.02C124.374 169.576 123.846 169.294 123.198 169.174C122.982 169.132 122.73 169.108 122.442 169.102C122.16 169.09 121.92 169.084 121.722 169.084H119.589V178.462ZM132.974 180.253V167.293H134.855V172.882H141.335V167.293H143.225V180.253H141.335V174.655H134.855V180.253H132.974ZM150.802 180.523C149.506 180.523 148.402 180.241 147.49 179.677C146.578 179.107 145.879 178.315 145.393 177.301C144.913 176.287 144.673 175.111 144.673 173.773C144.673 172.435 144.913 171.259 145.393 170.245C145.879 169.231 146.578 168.442 147.49 167.878C148.402 167.308 149.506 167.023 150.802 167.023C152.092 167.023 153.193 167.308 154.105 167.878C155.023 168.442 155.722 169.231 156.202 170.245C156.682 171.259 156.922 172.435 156.922 173.773C156.922 175.111 156.682 176.287 156.202 177.301C155.722 178.315 155.023 179.107 154.105 179.677C153.193 180.241 152.092 180.523 150.802 180.523ZM150.802 178.732C151.72 178.744 152.482 178.543 153.088 178.129C153.7 177.709 154.159 177.127 154.465 176.383C154.771 175.633 154.924 174.763 154.924 173.773C154.924 172.783 154.771 171.919 154.465 171.181C154.159 170.437 153.7 169.858 153.088 169.444C152.482 169.03 151.72 168.82 150.802 168.814C149.884 168.802 149.119 169.003 148.507 169.417C147.901 169.831 147.445 170.413 147.139 171.163C146.833 171.913 146.677 172.783 146.671 173.773C146.665 174.763 146.815 175.63 147.121 176.374C147.427 177.112 147.886 177.688 148.498 178.102C149.116 178.516 149.884 178.726 150.802 178.732ZM163.055 180.523C162.125 180.523 161.285 180.364 160.535 180.046C159.791 179.722 159.176 179.263 158.69 178.669C158.21 178.069 157.898 177.358 157.754 176.536L159.716 176.239C159.914 177.031 160.328 177.649 160.958 178.093C161.588 178.531 162.323 178.75 163.163 178.75C163.685 178.75 164.165 178.669 164.603 178.507C165.041 178.339 165.392 178.102 165.656 177.796C165.926 177.484 166.061 177.112 166.061 176.68C166.061 176.446 166.019 176.239 165.935 176.059C165.857 175.879 165.746 175.723 165.602 175.591C165.464 175.453 165.293 175.336 165.089 175.24C164.891 175.138 164.672 175.051 164.432 174.979L161.111 173.998C160.787 173.902 160.457 173.779 160.121 173.629C159.785 173.473 159.476 173.272 159.194 173.026C158.918 172.774 158.693 172.465 158.519 172.099C158.345 171.727 158.258 171.277 158.258 170.749C158.258 169.951 158.462 169.276 158.87 168.724C159.284 168.166 159.842 167.746 160.544 167.464C161.246 167.176 162.032 167.032 162.902 167.032C163.778 167.044 164.561 167.2 165.251 167.5C165.947 167.8 166.523 168.232 166.979 168.796C167.441 169.354 167.759 170.032 167.933 170.83L165.917 171.172C165.827 170.686 165.635 170.269 165.341 169.921C165.047 169.567 164.687 169.297 164.261 169.111C163.835 168.919 163.373 168.82 162.875 168.814C162.395 168.802 161.954 168.874 161.552 169.03C161.156 169.186 160.838 169.405 160.598 169.687C160.364 169.969 160.247 170.293 160.247 170.659C160.247 171.019 160.352 171.31 160.562 171.532C160.772 171.754 161.03 171.931 161.336 172.063C161.648 172.189 161.957 172.294 162.263 172.378L164.657 173.053C164.957 173.137 165.296 173.251 165.674 173.395C166.058 173.533 166.427 173.728 166.781 173.98C167.141 174.232 167.438 174.568 167.672 174.988C167.906 175.402 168.023 175.924 168.023 176.554C168.023 177.208 167.891 177.784 167.627 178.282C167.363 178.774 167 179.188 166.538 179.524C166.082 179.854 165.554 180.103 164.954 180.271C164.354 180.439 163.721 180.523 163.055 180.523ZM172.812 180.253V169.066H168.501V167.293H179.004V169.066H174.693V180.253H172.812ZM180.265 180.253V167.293H182.146V180.253H180.265ZM184.488 180.253V167.293H186.396L192.777 176.923V167.293H194.685V180.253H192.777L186.396 170.614V180.253H184.488ZM202.138 180.523C201.268 180.523 200.467 180.373 199.735 180.073C199.003 179.767 198.367 179.323 197.827 178.741C197.287 178.159 196.867 177.451 196.567 176.617C196.267 175.783 196.117 174.835 196.117 173.773C196.117 172.375 196.372 171.175 196.882 170.173C197.392 169.165 198.1 168.391 199.006 167.851C199.912 167.305 200.956 167.032 202.138 167.032C203.662 167.032 204.877 167.386 205.783 168.094C206.695 168.802 207.316 169.78 207.646 171.028L205.738 171.37C205.474 170.596 205.048 169.978 204.46 169.516C203.872 169.054 203.134 168.82 202.246 168.814C201.328 168.808 200.563 169.012 199.951 169.426C199.345 169.84 198.889 170.422 198.583 171.172C198.277 171.916 198.121 172.783 198.115 173.773C198.109 174.763 198.259 175.63 198.565 176.374C198.871 177.112 199.33 177.688 199.942 178.102C200.56 178.516 201.328 178.726 202.246 178.732C202.984 178.744 203.617 178.609 204.145 178.327C204.679 178.039 205.102 177.619 205.414 177.067C205.726 176.515 205.927 175.837 206.017 175.033H203.497V173.521H208.015C208.027 173.629 208.036 173.773 208.042 173.953C208.048 174.127 208.051 174.238 208.051 174.286C208.051 175.486 207.82 176.557 207.358 177.499C206.896 178.441 206.224 179.182 205.342 179.722C204.46 180.256 203.392 180.523 202.138 180.523Z" fill="white" style="fill:white;fill-opacity:1;"/>
<defs>
<linearGradient id="paint0_linear_4013_294" x1="139" y1="0.252686" x2="139" y2="260.253" gradientUnits="userSpaceOnUse">
<stop stop-color="#06A5FF" style="stop-color:#06A5FF;stop-color:color(display-p3 0.0222 0.6480 1.0000);stop-opacity:1;"/>
<stop offset="1" stop-color="#0C0C0C" style="stop-color:#0C0C0C;stop-color:color(display-p3 0.0486 0.0478 0.0478);stop-opacity:1;"/>
</linearGradient>
<clipPath id="clip0_4013_294">
<rect width="76" height="76" fill="white" style="fill:white;fill-opacity:1;" transform="translate(101 76.2527)"/>
</clipPath>
</defs>
</svg>
