<svg width="278" height="261" viewBox="0 0 278 261" fill="none" xmlns="http://www.w3.org/2000/svg">
<rect x="0.5" y="0.752686" width="277" height="259" rx="3.5" fill="url(#paint0_linear_4013_294)" style=""/>
<rect x="0.5" y="0.752686" width="277" height="259" rx="3.5" stroke="black" style="stroke:black;stroke-opacity:1;"/>
<path d="M151.667 134.003L170.667 114.253L151.667 94.5027M126.333 94.5027L107.333 114.253L126.333 134.003" stroke="#1E1E1E" style="stroke:#1E1E1E;stroke:color(display-p3 0.1176 0.1176 0.1176);stroke-opacity:1;" stroke-width="4" stroke-linecap="round" stroke-linejoin="round"/>
<path d="M59.0343 181.753L63.2463 168.793H65.9553L70.1673 181.753H68.2143L64.3353 169.927H64.8213L60.9873 181.753H59.0343ZM61.2213 178.828V177.064H67.9893V178.828H61.2213ZM71.4219 181.753V168.793H76.6599C76.7859 168.793 76.9419 168.799 77.1279 168.811C77.3139 168.817 77.4909 168.835 77.6589 168.865C78.3789 168.979 78.9789 169.225 79.4589 169.603C79.9449 169.981 80.3079 170.458 80.5479 171.034C80.7879 171.61 80.9079 172.246 80.9079 172.942C80.9079 173.644 80.7879 174.283 80.5479 174.859C80.3079 175.435 79.9449 175.912 79.4589 176.29C78.9789 176.668 78.3789 176.914 77.6589 177.028C77.4909 177.052 77.3109 177.07 77.1189 177.082C76.9329 177.094 76.7799 177.1 76.6599 177.1H73.3029V181.753H71.4219ZM73.3029 175.318H76.5879C76.7079 175.318 76.8399 175.312 76.9839 175.3C77.1339 175.288 77.2749 175.267 77.4069 175.237C77.7909 175.147 78.0999 174.982 78.3339 174.742C78.5679 174.496 78.7359 174.214 78.8379 173.896C78.9399 173.578 78.9909 173.26 78.9909 172.942C78.9909 172.624 78.9399 172.309 78.8379 171.997C78.7359 171.679 78.5679 171.4 78.3339 171.16C78.0999 170.914 77.7909 170.746 77.4069 170.656C77.2749 170.62 77.1339 170.596 76.9839 170.584C76.8399 170.572 76.7079 170.566 76.5879 170.566H73.3029V175.318ZM82.3471 181.753V168.793H87.5851C87.7111 168.793 87.8671 168.799 88.0531 168.811C88.2391 168.817 88.4161 168.835 88.5841 168.865C89.3041 168.979 89.9041 169.225 90.3841 169.603C90.8701 169.981 91.2331 170.458 91.4731 171.034C91.7131 171.61 91.8331 172.246 91.8331 172.942C91.8331 173.644 91.7131 174.283 91.4731 174.859C91.2331 175.435 90.8701 175.912 90.3841 176.29C89.9041 176.668 89.3041 176.914 88.5841 177.028C88.4161 177.052 88.2361 177.07 88.0441 177.082C87.8581 177.094 87.7051 177.1 87.5851 177.1H84.2281V181.753H82.3471ZM84.2281 175.318H87.5131C87.6331 175.318 87.7651 175.312 87.9091 175.3C88.0591 175.288 88.2001 175.267 88.3321 175.237C88.7161 175.147 89.0251 174.982 89.2591 174.742C89.4931 174.496 89.6611 174.214 89.7631 173.896C89.8651 173.578 89.9161 173.26 89.9161 172.942C89.9161 172.624 89.8651 172.309 89.7631 171.997C89.6611 171.679 89.4931 171.4 89.2591 171.16C89.0251 170.914 88.7161 170.746 88.3321 170.656C88.2001 170.62 88.0591 170.596 87.9091 170.584C87.7651 170.572 87.6331 170.566 87.5131 170.566H84.2281V175.318ZM96.5158 181.753V168.793H100.575C100.695 168.793 100.917 168.796 101.241 168.802C101.571 168.808 101.886 168.832 102.186 168.874C103.2 169 104.052 169.363 104.742 169.963C105.438 170.563 105.963 171.325 106.317 172.249C106.671 173.167 106.848 174.175 106.848 175.273C106.848 176.377 106.671 177.391 106.317 178.315C105.963 179.233 105.438 179.992 104.742 180.592C104.052 181.186 103.2 181.546 102.186 181.672C101.886 181.714 101.571 181.738 101.241 181.744C100.917 181.75 100.695 181.753 100.575 181.753H96.5158ZM98.4418 179.962H100.575C100.779 179.962 101.022 179.956 101.304 179.944C101.586 179.932 101.835 179.908 102.051 179.872C102.711 179.746 103.245 179.461 103.653 179.017C104.067 178.567 104.37 178.015 104.562 177.361C104.754 176.707 104.85 176.011 104.85 175.273C104.85 174.511 104.751 173.806 104.553 173.158C104.355 172.504 104.049 171.958 103.635 171.52C103.227 171.076 102.699 170.794 102.051 170.674C101.835 170.632 101.583 170.608 101.295 170.602C101.013 170.59 100.773 170.584 100.575 170.584H98.4418V179.962ZM108.584 181.753V168.793H116.864V170.566H110.465V174.202H115.784V175.975H110.465V179.98H116.864V181.753H108.584ZM121.707 181.753L117.495 168.793H119.448L123.039 179.854L126.675 168.793H128.628L124.416 181.753H121.707ZM129.625 181.753V168.793H137.905V170.566H131.506V174.202H136.825V175.975H131.506V179.98H137.905V181.753H129.625ZM139.887 181.753V168.793H141.768V179.98H147.636V181.753H139.887ZM153.861 182.023C152.565 182.023 151.461 181.741 150.549 181.177C149.637 180.607 148.938 179.815 148.452 178.801C147.972 177.787 147.732 176.611 147.732 175.273C147.732 173.935 147.972 172.759 148.452 171.745C148.938 170.731 149.637 169.942 150.549 169.378C151.461 168.808 152.565 168.523 153.861 168.523C155.151 168.523 156.252 168.808 157.164 169.378C158.082 169.942 158.781 170.731 159.261 171.745C159.741 172.759 159.981 173.935 159.981 175.273C159.981 176.611 159.741 177.787 159.261 178.801C158.781 179.815 158.082 180.607 157.164 181.177C156.252 181.741 155.151 182.023 153.861 182.023ZM153.861 180.232C154.779 180.244 155.541 180.043 156.147 179.629C156.759 179.209 157.218 178.627 157.524 177.883C157.83 177.133 157.983 176.263 157.983 175.273C157.983 174.283 157.83 173.419 157.524 172.681C157.218 171.937 156.759 171.358 156.147 170.944C155.541 170.53 154.779 170.32 153.861 170.314C152.943 170.302 152.178 170.503 151.566 170.917C150.96 171.331 150.504 171.913 150.198 172.663C149.892 173.413 149.736 174.283 149.73 175.273C149.724 176.263 149.874 177.13 150.18 177.874C150.486 178.612 150.945 179.188 151.557 179.602C152.175 180.016 152.943 180.226 153.861 180.232ZM161.416 181.753V168.793H166.654C166.78 168.793 166.936 168.799 167.122 168.811C167.308 168.817 167.485 168.835 167.653 168.865C168.373 168.979 168.973 169.225 169.453 169.603C169.939 169.981 170.302 170.458 170.542 171.034C170.782 171.61 170.902 172.246 170.902 172.942C170.902 173.644 170.782 174.283 170.542 174.859C170.302 175.435 169.939 175.912 169.453 176.29C168.973 176.668 168.373 176.914 167.653 177.028C167.485 177.052 167.305 177.07 167.113 177.082C166.927 177.094 166.774 177.1 166.654 177.1H163.297V181.753H161.416ZM163.297 175.318H166.582C166.702 175.318 166.834 175.312 166.978 175.3C167.128 175.288 167.269 175.267 167.401 175.237C167.785 175.147 168.094 174.982 168.328 174.742C168.562 174.496 168.73 174.214 168.832 173.896C168.934 173.578 168.985 173.26 168.985 172.942C168.985 172.624 168.934 172.309 168.832 171.997C168.73 171.679 168.562 171.4 168.328 171.16C168.094 170.914 167.785 170.746 167.401 170.656C167.269 170.62 167.128 170.596 166.978 170.584C166.834 170.572 166.702 170.566 166.582 170.566H163.297V175.318ZM172.341 181.753V168.793H174.042L178.74 178.54L183.411 168.793H185.13V181.744H183.348V172.879L179.163 181.753H178.308L174.114 172.879V181.753H172.341ZM187.292 181.753V168.793H195.572V170.566H189.173V174.202H194.492V175.975H189.173V179.98H195.572V181.753H187.292ZM197.373 181.753V168.793H199.281L205.662 178.423V168.793H207.57V181.753H205.662L199.281 172.114V181.753H197.373ZM212.953 181.753V170.566H208.642V168.793H219.145V170.566H214.834V181.753H212.953Z" fill="white" style="fill:white;fill-opacity:1;"/>
<defs>
<linearGradient id="paint0_linear_4013_294" x1="139" y1="0.252686" x2="139" y2="260.253" gradientUnits="userSpaceOnUse">
<stop stop-color="#06A5FF" style="stop-color:#06A5FF;stop-color:color(display-p3 0.0222 0.6480 1.0000);stop-opacity:1;"/>
<stop offset="1" stop-color="#0C0C0C" style="stop-color:#0C0C0C;stop-color:color(display-p3 0.0486 0.0478 0.0478);stop-opacity:1;"/>
</linearGradient>
</defs>
</svg>
